<svg xmlns="http://www.w3.org/2000/svg" xmlns:xlink="http://www.w3.org/1999/xlink" width="64" zoomAndPan="magnify" viewBox="0 0 48 48" height="64" preserveAspectRatio="xMidYMid meet" version="1.0"><defs><clipPath id="a8a1e1e399"><path d="M 1.167969 0.679688 L 46.832031 0.679688 L 46.832031 46.339844 L 1.167969 46.339844 Z M 1.167969 0.679688 " clip-rule="nonzero"/></clipPath><clipPath id="007decdb26"><path d="M 24 0.679688 C 11.390625 0.679688 1.167969 10.902344 1.167969 23.511719 C 1.167969 36.121094 11.390625 46.339844 24 46.339844 C 36.609375 46.339844 46.832031 36.121094 46.832031 23.511719 C 46.832031 10.902344 36.609375 0.679688 24 0.679688 Z M 24 0.679688 " clip-rule="nonzero"/></clipPath><clipPath id="83cfca3458"><path d="M 5 18 L 19 18 L 19 36 L 5 36 Z M 5 18 " clip-rule="nonzero"/></clipPath><clipPath id="13e5734f8a"><path d="M 8.222656 17.613281 L 19.816406 19.558594 L 16.773438 37.671875 L 5.179688 35.726562 Z M 8.222656 17.613281 " clip-rule="nonzero"/></clipPath><clipPath id="eb18ce1f5a"><path d="M 8.222656 17.613281 L 19.816406 19.558594 L 16.773438 37.671875 L 5.179688 35.726562 Z M 8.222656 17.613281 " clip-rule="nonzero"/></clipPath><clipPath id="04565a3813"><path d="M 0.488281 0 L 47.507812 0 L 47.507812 47.019531 L 0.488281 47.019531 Z M 0.488281 0 " clip-rule="nonzero"/></clipPath></defs><g clip-path="url(#a8a1e1e399)"><g clip-path="url(#007decdb26)"><path fill="#faf6ee" d="M 1.167969 0.679688 L 46.832031 0.679688 L 46.832031 46.339844 L 1.167969 46.339844 Z M 1.167969 0.679688 " fill-opacity="1" fill-rule="nonzero"/></g></g><g clip-path="url(#83cfca3458)"><g clip-path="url(#13e5734f8a)"><g clip-path="url(#eb18ce1f5a)"><path fill="#167544" d="M 18.253906 28.011719 C 16.816406 26.875 15.238281 25.816406 13.433594 25.773438 C 12.375 25.746094 11.375 26.054688 10.429688 26.5 C 10.414062 26.488281 10.398438 26.476562 10.382812 26.464844 C 10.996094 25.523438 11.789062 24.675781 12.074219 23.597656 C 12.335938 22.609375 12.132812 21.558594 11.808594 20.589844 C 11.546875 19.8125 11.207031 19.066406 10.957031 18.289062 C 10.882812 18.058594 10.574219 18.015625 10.441406 18.21875 C 9.382812 19.824219 8.453125 21.617188 8.691406 23.5 C 8.792969 24.300781 9.160156 24.960938 9.394531 25.714844 C 9.421875 25.796875 9.558594 26.183594 9.695312 26.542969 C 8.699219 27.1875 7.855469 28.0625 7.214844 29.054688 C 6.464844 30.214844 5.96875 31.5 5.695312 32.851562 C 5.535156 33.652344 5.460938 34.464844 5.433594 35.28125 C 5.429688 35.402344 5.53125 35.558594 5.621094 35.632812 C 5.722656 35.71875 5.882812 35.773438 6.015625 35.753906 C 6.148438 35.734375 6.285156 35.675781 6.367188 35.566406 C 6.460938 35.445312 6.484375 35.324219 6.488281 35.175781 C 6.488281 35.210938 6.484375 35.246094 6.484375 35.28125 C 6.523438 34.160156 6.6875 33.039062 7.011719 31.964844 C 7.261719 31.179688 7.601562 30.425781 8.035156 29.722656 C 8.347656 29.246094 8.703125 28.792969 9.105469 28.386719 C 9.15625 28.332031 9.210938 28.277344 9.265625 28.222656 C 9.289062 28.203125 9.3125 28.179688 9.335938 28.15625 C 9.449219 28.054688 9.566406 27.957031 9.683594 27.859375 C 9.84375 27.730469 10.011719 27.605469 10.183594 27.492188 C 11.296875 28.367188 12.511719 29.160156 13.90625 29.257812 C 15.328125 29.359375 16.699219 28.714844 18.109375 28.535156 C 18.367188 28.503906 18.460938 28.171875 18.253906 28.011719 Z M 18.253906 28.011719 " fill-opacity="1" fill-rule="nonzero"/></g></g></g><g clip-path="url(#04565a3813)"><path fill="#84e4a8" d="M 24 0 C 23.230469 0 22.460938 0.0390625 21.695312 0.113281 C 20.929688 0.1875 20.167969 0.300781 19.414062 0.453125 C 18.65625 0.601562 17.914062 0.789062 17.175781 1.011719 C 16.4375 1.234375 15.714844 1.496094 15.003906 1.789062 C 14.292969 2.085938 13.597656 2.414062 12.917969 2.777344 C 12.238281 3.140625 11.578125 3.535156 10.9375 3.960938 C 10.296875 4.390625 9.679688 4.847656 9.085938 5.335938 C 8.488281 5.824219 7.921875 6.339844 7.375 6.886719 C 6.832031 7.429688 6.316406 8 5.828125 8.59375 C 5.335938 9.191406 4.878906 9.808594 4.453125 10.449219 C 4.023438 11.089844 3.628906 11.75 3.265625 12.425781 C 2.902344 13.105469 2.574219 13.800781 2.28125 14.511719 C 1.984375 15.226562 1.726562 15.949219 1.503906 16.6875 C 1.277344 17.421875 1.089844 18.167969 0.941406 18.921875 C 0.792969 19.679688 0.679688 20.441406 0.601562 21.207031 C 0.527344 21.972656 0.488281 22.738281 0.488281 23.511719 C 0.488281 24.28125 0.527344 25.046875 0.601562 25.816406 C 0.679688 26.582031 0.792969 27.339844 0.941406 28.097656 C 1.089844 28.851562 1.277344 29.597656 1.503906 30.335938 C 1.726562 31.070312 1.984375 31.796875 2.28125 32.507812 C 2.574219 33.21875 2.902344 33.914062 3.265625 34.59375 C 3.628906 35.273438 4.023438 35.929688 4.453125 36.570312 C 4.878906 37.210938 5.335938 37.828125 5.828125 38.425781 C 6.316406 39.019531 6.832031 39.589844 7.375 40.132812 C 7.921875 40.679688 8.488281 41.195312 9.085938 41.683594 C 9.679688 42.171875 10.296875 42.628906 10.9375 43.058594 C 11.578125 43.484375 12.238281 43.882812 12.917969 44.246094 C 13.597656 44.605469 14.292969 44.9375 15.003906 45.230469 C 15.714844 45.527344 16.4375 45.785156 17.175781 46.007812 C 17.914062 46.230469 18.65625 46.417969 19.414062 46.570312 C 20.167969 46.71875 20.929688 46.832031 21.695312 46.90625 C 22.460938 46.984375 23.230469 47.019531 24 47.019531 C 24.769531 47.019531 25.539062 46.984375 26.304688 46.90625 C 27.070312 46.832031 27.832031 46.71875 28.585938 46.570312 C 29.34375 46.417969 30.085938 46.230469 30.824219 46.007812 C 31.5625 45.785156 32.285156 45.527344 32.996094 45.230469 C 33.707031 44.9375 34.402344 44.605469 35.082031 44.246094 C 35.761719 43.882812 36.421875 43.484375 37.0625 43.058594 C 37.703125 42.628906 38.320312 42.171875 38.914062 41.683594 C 39.511719 41.195312 40.078125 40.679688 40.625 40.132812 C 41.167969 39.589844 41.683594 39.019531 42.171875 38.425781 C 42.660156 37.828125 43.121094 37.210938 43.546875 36.570312 C 43.976562 35.929688 44.371094 35.273438 44.734375 34.59375 C 45.097656 33.914062 45.425781 33.21875 45.71875 32.507812 C 46.015625 31.796875 46.273438 31.070312 46.496094 30.335938 C 46.722656 29.597656 46.910156 28.851562 47.058594 28.097656 C 47.207031 27.339844 47.320312 26.582031 47.398438 25.816406 C 47.472656 25.046875 47.511719 24.28125 47.511719 23.511719 C 47.507812 22.742188 47.472656 21.972656 47.394531 21.207031 C 47.320312 20.441406 47.203125 19.679688 47.054688 18.925781 C 46.902344 18.171875 46.714844 17.425781 46.492188 16.6875 C 46.269531 15.953125 46.007812 15.226562 45.714844 14.515625 C 45.417969 13.804688 45.089844 13.113281 44.726562 12.433594 C 44.363281 11.753906 43.96875 11.09375 43.539062 10.453125 C 43.113281 9.816406 42.652344 9.199219 42.164062 8.601562 C 41.675781 8.007812 41.160156 7.4375 40.617188 6.894531 C 40.070312 6.347656 39.503906 5.832031 38.90625 5.34375 C 38.3125 4.855469 37.695312 4.398438 37.054688 3.96875 C 36.414062 3.542969 35.757812 3.148438 35.078125 2.785156 C 34.398438 2.421875 33.703125 2.089844 32.992188 1.796875 C 32.28125 1.5 31.558594 1.242188 30.820312 1.019531 C 30.085938 0.792969 29.339844 0.605469 28.585938 0.457031 C 27.828125 0.304688 27.070312 0.191406 26.304688 0.117188 C 25.539062 0.0390625 24.769531 0 24 0 Z M 24 43.257812 C 23.351562 43.257812 22.707031 43.226562 22.0625 43.164062 C 21.421875 43.101562 20.78125 43.003906 20.148438 42.878906 C 19.511719 42.753906 18.886719 42.597656 18.265625 42.410156 C 17.648438 42.21875 17.039062 42.003906 16.441406 41.753906 C 15.84375 41.507812 15.261719 41.230469 14.691406 40.925781 C 14.121094 40.621094 13.566406 40.289062 13.027344 39.929688 C 12.492188 39.570312 11.972656 39.1875 11.472656 38.777344 C 10.972656 38.367188 10.492188 37.933594 10.035156 37.472656 C 9.578125 37.015625 9.144531 36.539062 8.734375 36.039062 C 8.324219 35.539062 7.9375 35.019531 7.578125 34.480469 C 7.21875 33.945312 6.886719 33.390625 6.582031 32.820312 C 6.277344 32.25 6.003906 31.664062 5.753906 31.066406 C 5.507812 30.46875 5.289062 29.863281 5.101562 29.242188 C 4.914062 28.625 4.757812 27.996094 4.632812 27.363281 C 4.503906 26.730469 4.410156 26.089844 4.347656 25.445312 C 4.28125 24.800781 4.25 24.15625 4.25 23.511719 C 4.25 22.863281 4.28125 22.21875 4.347656 21.574219 C 4.410156 20.929688 4.503906 20.292969 4.632812 19.65625 C 4.757812 19.023438 4.914062 18.394531 5.101562 17.777344 C 5.289062 17.160156 5.507812 16.550781 5.753906 15.953125 C 6.003906 15.355469 6.277344 14.769531 6.582031 14.199219 C 6.886719 13.628906 7.21875 13.078125 7.578125 12.539062 C 7.9375 12 8.324219 11.480469 8.734375 10.980469 C 9.144531 10.480469 9.578125 10.003906 10.035156 9.546875 C 10.492188 9.089844 10.972656 8.65625 11.472656 8.246094 C 11.972656 7.835938 12.492188 7.449219 13.027344 7.089844 C 13.566406 6.730469 14.121094 6.398438 14.691406 6.09375 C 15.261719 5.789062 15.84375 5.511719 16.441406 5.265625 C 17.039062 5.015625 17.648438 4.800781 18.265625 4.613281 C 18.886719 4.425781 19.511719 4.265625 20.148438 4.140625 C 20.78125 4.015625 21.421875 3.921875 22.0625 3.855469 C 22.707031 3.792969 23.351562 3.761719 24 3.761719 C 24.648438 3.761719 25.292969 3.792969 25.9375 3.855469 C 26.578125 3.921875 27.21875 4.015625 27.851562 4.140625 C 28.488281 4.265625 29.113281 4.425781 29.734375 4.613281 C 30.351562 4.800781 30.960938 5.015625 31.558594 5.265625 C 32.15625 5.511719 32.738281 5.789062 33.308594 6.09375 C 33.878906 6.398438 34.433594 6.730469 34.972656 7.089844 C 35.507812 7.449219 36.027344 7.835938 36.527344 8.246094 C 37.027344 8.65625 37.507812 9.089844 37.964844 9.546875 C 38.421875 10.003906 38.855469 10.480469 39.265625 10.980469 C 39.675781 11.480469 40.0625 12 40.421875 12.539062 C 40.78125 13.078125 41.113281 13.628906 41.417969 14.199219 C 41.722656 14.769531 41.996094 15.355469 42.246094 15.953125 C 42.492188 16.550781 42.710938 17.160156 42.898438 17.777344 C 43.085938 18.394531 43.242188 19.023438 43.367188 19.65625 C 43.496094 20.292969 43.589844 20.929688 43.652344 21.574219 C 43.71875 22.21875 43.75 22.863281 43.75 23.511719 C 43.746094 24.15625 43.714844 24.800781 43.652344 25.445312 C 43.585938 26.089844 43.492188 26.726562 43.367188 27.363281 C 43.238281 27.996094 43.082031 28.621094 42.894531 29.242188 C 42.703125 29.859375 42.488281 30.46875 42.238281 31.0625 C 41.992188 31.660156 41.714844 32.246094 41.410156 32.816406 C 41.105469 33.386719 40.773438 33.9375 40.414062 34.476562 C 40.054688 35.015625 39.667969 35.53125 39.257812 36.03125 C 38.847656 36.53125 38.414062 37.011719 37.957031 37.46875 C 37.5 37.925781 37.023438 38.359375 36.523438 38.769531 C 36.023438 39.179688 35.503906 39.5625 34.964844 39.921875 C 34.429688 40.28125 33.875 40.613281 33.304688 40.921875 C 32.734375 41.226562 32.152344 41.5 31.554688 41.75 C 30.957031 41.996094 30.347656 42.214844 29.730469 42.402344 C 29.113281 42.589844 28.484375 42.75 27.851562 42.875 C 27.21875 43.003906 26.578125 43.097656 25.933594 43.160156 C 25.292969 43.226562 24.648438 43.257812 24 43.257812 Z M 24 15.046875 C 24.5 15.046875 24.980469 14.949219 25.441406 14.761719 C 25.898438 14.570312 26.308594 14.296875 26.660156 13.945312 C 27.011719 13.59375 27.285156 13.183594 27.476562 12.722656 C 27.667969 12.261719 27.761719 11.785156 27.761719 11.285156 C 27.761719 10.785156 27.667969 10.304688 27.476562 9.84375 C 27.285156 9.382812 27.011719 8.976562 26.660156 8.625 C 26.308594 8.273438 25.898438 8 25.441406 7.808594 C 24.980469 7.617188 24.5 7.523438 24 7.523438 C 23.5 7.523438 23.019531 7.617188 22.558594 7.808594 C 22.101562 8 21.691406 8.273438 21.339844 8.625 C 20.988281 8.976562 20.714844 9.382812 20.523438 9.84375 C 20.332031 10.304688 20.238281 10.785156 20.238281 11.285156 C 20.238281 11.785156 20.332031 12.261719 20.523438 12.722656 C 20.714844 13.183594 20.988281 13.59375 21.339844 13.945312 C 21.691406 14.296875 22.101562 14.570312 22.558594 14.761719 C 23.019531 14.949219 23.5 15.046875 24 15.046875 Z M 34.074219 15.066406 L 24.234375 16.496094 C 24.078125 16.519531 23.921875 16.519531 23.765625 16.496094 L 13.925781 15.066406 C 13.679688 15.03125 13.4375 15.042969 13.195312 15.105469 C 12.953125 15.167969 12.734375 15.273438 12.535156 15.421875 C 12.335938 15.570312 12.171875 15.753906 12.042969 15.964844 C 11.917969 16.179688 11.835938 16.410156 11.800781 16.65625 C 11.761719 16.902344 11.777344 17.148438 11.835938 17.390625 C 11.898438 17.628906 12.003906 17.851562 12.152344 18.050781 C 12.300781 18.25 12.480469 18.414062 12.695312 18.542969 C 12.910156 18.671875 13.136719 18.753906 13.382812 18.789062 L 19.441406 19.671875 C 19.554688 19.6875 19.652344 19.738281 19.726562 19.824219 C 19.800781 19.914062 19.839844 20.011719 19.839844 20.128906 L 19.839844 27.386719 L 19.675781 28.128906 L 15.792969 36.667969 C 15.667969 36.882812 15.585938 37.117188 15.554688 37.363281 C 15.519531 37.609375 15.535156 37.855469 15.597656 38.09375 C 15.660156 38.335938 15.769531 38.554688 15.917969 38.753906 C 16.070312 38.953125 16.253906 39.113281 16.46875 39.242188 C 16.683594 39.367188 16.917969 39.445312 17.164062 39.480469 C 17.410156 39.511719 17.65625 39.5 17.894531 39.433594 C 18.136719 39.371094 18.355469 39.265625 18.554688 39.113281 C 18.753906 38.960938 18.917969 38.78125 19.042969 38.5625 L 23.546875 29.191406 C 23.640625 28.996094 23.796875 28.898438 24.015625 28.898438 C 24.234375 28.898438 24.390625 28.996094 24.484375 29.195312 L 28.957031 38.5625 C 29.082031 38.777344 29.246094 38.960938 29.445312 39.113281 C 29.644531 39.261719 29.863281 39.367188 30.101562 39.429688 C 30.34375 39.496094 30.589844 39.507812 30.835938 39.476562 C 31.082031 39.441406 31.3125 39.363281 31.527344 39.238281 C 31.742188 39.109375 31.925781 38.949219 32.078125 38.75 C 32.226562 38.554688 32.335938 38.332031 32.398438 38.09375 C 32.460938 37.851562 32.476562 37.609375 32.445312 37.363281 C 32.410156 37.113281 32.332031 36.882812 32.207031 36.667969 L 28.261719 27.992188 L 28.160156 27.53125 L 28.160156 20.128906 C 28.160156 20.011719 28.199219 19.914062 28.273438 19.824219 C 28.347656 19.738281 28.445312 19.6875 28.558594 19.671875 L 34.613281 18.789062 C 34.859375 18.753906 35.089844 18.671875 35.304688 18.542969 C 35.519531 18.414062 35.699219 18.25 35.847656 18.050781 C 35.996094 17.851562 36.101562 17.632812 36.164062 17.390625 C 36.222656 17.148438 36.238281 16.90625 36.199219 16.660156 C 36.164062 16.410156 36.082031 16.179688 35.957031 15.96875 C 35.828125 15.753906 35.664062 15.570312 35.464844 15.421875 C 35.265625 15.273438 35.046875 15.167969 34.804688 15.105469 C 34.566406 15.042969 34.320312 15.03125 34.074219 15.066406 Z M 34.074219 15.066406 " fill-opacity="1" fill-rule="nonzero"/></g></svg>