<svg xmlns="http://www.w3.org/2000/svg" xmlns:xlink="http://www.w3.org/1999/xlink" width="500" zoomAndPan="magnify" viewBox="0 0 375 374.999991" height="500" preserveAspectRatio="xMidYMid meet" version="1.0"><defs><clipPath id="34269311ae"><path d="M 8.867188 43.753906 L 370 43.753906 L 370 239.40625 L 8.867188 239.40625 Z M 8.867188 43.753906 " clip-rule="nonzero"/></clipPath><clipPath id="e467fae9f3"><path d="M 14.117188 43.753906 L 364.5625 43.753906 C 367.460938 43.753906 369.8125 46.105469 369.8125 49.003906 L 369.8125 234.15625 C 369.8125 237.054688 367.460938 239.40625 364.5625 239.40625 L 14.117188 239.40625 C 11.214844 239.40625 8.867188 237.054688 8.867188 234.15625 L 8.867188 49.003906 C 8.867188 46.105469 11.214844 43.753906 14.117188 43.753906 Z M 14.117188 43.753906 " clip-rule="nonzero"/></clipPath><clipPath id="97effd5d6b"><path d="M 80.242188 77.949219 L 292.898438 77.949219 L 292.898438 290.605469 L 80.242188 290.605469 Z M 80.242188 77.949219 " clip-rule="nonzero"/></clipPath><clipPath id="39906666ac"><path d="M 186.570312 77.949219 C 127.847656 77.949219 80.242188 125.554688 80.242188 184.277344 C 80.242188 243 127.847656 290.605469 186.570312 290.605469 C 245.292969 290.605469 292.898438 243 292.898438 184.277344 C 292.898438 125.554688 245.292969 77.949219 186.570312 77.949219 Z M 186.570312 77.949219 " clip-rule="nonzero"/></clipPath></defs><g clip-path="url(#34269311ae)"><g clip-path="url(#e467fae9f3)"><path fill="#ffd33c" d="M 8.867188 43.753906 L 369.601562 43.753906 L 369.601562 239.40625 L 8.867188 239.40625 Z M 8.867188 43.753906 " fill-opacity="1" fill-rule="nonzero"/></g></g><g clip-path="url(#97effd5d6b)"><g clip-path="url(#39906666ac)"><path fill="#ffffff" d="M 80.242188 77.949219 L 292.898438 77.949219 L 292.898438 290.605469 L 80.242188 290.605469 Z M 80.242188 77.949219 " fill-opacity="1" fill-rule="nonzero"/></g></g><path fill="#7ec28a" d="M 187.492188 277.859375 L 187.292969 278.398438 L 187.691406 278.398438 Z M 187.492188 277.859375 " fill-opacity="1" fill-rule="nonzero"/><path fill="#7ec28a" d="M 187.492188 90.90625 C 135.789062 90.90625 93.746094 132.949219 93.746094 184.652344 C 93.746094 206.015625 100.90625 225.703125 113.007812 241.46875 C 116.074219 245.558594 119.511719 249.367188 123.261719 252.832031 C 125.675781 255.132812 128.175781 257.261719 130.820312 259.28125 C 146.5 271.238281 166.074219 278.339844 187.292969 278.398438 L 187.492188 277.859375 L 187.691406 278.398438 C 208.914062 278.339844 228.484375 271.238281 244.167969 259.28125 C 246.808594 257.261719 249.308594 255.132812 251.722656 252.832031 C 255.472656 249.367188 258.910156 245.558594 261.976562 241.46875 C 274.082031 225.703125 281.238281 206.015625 281.238281 184.652344 C 281.238281 132.949219 239.195312 90.90625 187.492188 90.90625 Z M 247.09375 241.46875 C 244.90625 243.769531 242.574219 245.957031 240.132812 247.972656 C 238.058594 249.707031 235.929688 251.324219 233.683594 252.832031 C 221.527344 261.125 207.007812 266.210938 191.382812 266.921875 C 190.105469 267.007812 188.800781 267.035156 187.492188 267.035156 C 186.1875 267.035156 184.878906 267.007812 183.601562 266.921875 C 167.976562 266.210938 153.460938 261.125 141.300781 252.832031 C 139.058594 251.324219 136.925781 249.707031 134.851562 247.972656 C 132.410156 245.957031 130.082031 243.769531 127.894531 241.46875 C 113.773438 226.667969 105.109375 206.667969 105.109375 184.652344 C 105.109375 139.226562 142.066406 102.269531 187.492188 102.269531 C 232.917969 102.269531 269.875 139.226562 269.875 184.652344 C 269.875 206.667969 261.210938 226.667969 247.09375 241.46875 Z M 247.09375 241.46875 " fill-opacity="1" fill-rule="nonzero"/><path fill="#3a3b3e" d="M 187.292969 278.398438 L 187.691406 278.398438 L 187.492188 277.859375 Z M 187.292969 278.398438 " fill-opacity="1" fill-rule="nonzero"/><path fill="#3a3b3e" d="M 349.417969 5.679688 L 31.25 5.679688 C 18.722656 5.679688 8.523438 15.878906 8.523438 28.40625 L 8.523438 230.105469 C 8.523438 242.632812 18.722656 252.832031 31.25 252.832031 L 96.644531 252.832031 C 104.230469 262.914062 113.433594 271.695312 123.886719 278.765625 L 99.824219 346.351562 C 98.261719 350.726562 102.355469 355.015625 106.84375 353.679688 L 131.5 346.238281 L 145.933594 367.597656 C 148.546875 371.460938 154.425781 370.722656 155.988281 366.320312 L 180.304688 298.054688 C 182.691406 298.199219 185.078125 298.285156 187.492188 298.285156 C 189.90625 298.285156 192.292969 298.199219 194.679688 298.054688 L 218.996094 366.320312 C 220.558594 370.722656 226.441406 371.460938 229.054688 367.597656 L 243.484375 346.238281 L 268.144531 353.679688 C 272.632812 355.015625 276.722656 350.726562 275.160156 346.351562 L 251.097656 278.765625 C 261.550781 271.695312 270.757812 262.914062 278.339844 252.832031 L 349.417969 252.832031 C 361.945312 252.832031 372.144531 242.632812 372.144531 230.105469 L 372.144531 28.40625 C 372.144531 15.878906 361.945312 5.679688 349.417969 5.679688 Z M 340.894531 19.886719 C 344.019531 19.886719 346.578125 22.441406 346.578125 25.566406 C 346.578125 28.691406 344.019531 31.25 340.894531 31.25 C 337.769531 31.25 335.214844 28.691406 335.214844 25.566406 C 335.214844 22.441406 337.769531 19.886719 340.894531 19.886719 Z M 321.011719 19.886719 C 324.136719 19.886719 326.691406 22.441406 326.691406 25.566406 C 326.691406 28.691406 324.136719 31.25 321.011719 31.25 C 317.886719 31.25 315.328125 28.691406 315.328125 25.566406 C 315.328125 22.441406 317.886719 19.886719 321.011719 19.886719 Z M 301.125 19.886719 C 304.25 19.886719 306.804688 22.441406 306.804688 25.566406 C 306.804688 28.691406 304.25 31.25 301.125 31.25 C 298 31.25 295.441406 28.691406 295.441406 25.566406 C 295.441406 22.441406 298 19.886719 301.125 19.886719 Z M 272.460938 241.46875 C 269.789062 245.472656 266.835938 249.25 263.625 252.832031 C 258.710938 258.34375 253.171875 263.3125 247.148438 267.660156 C 231.15625 279.195312 211.726562 286.210938 190.703125 286.863281 C 189.625 286.890625 188.570312 286.921875 187.492188 286.921875 C 186.414062 286.921875 185.363281 286.890625 184.28125 286.863281 C 163.261719 286.210938 143.828125 279.195312 127.835938 267.660156 C 121.8125 263.3125 116.273438 258.34375 111.359375 252.832031 C 108.148438 249.25 105.195312 245.472656 102.523438 241.46875 C 91.585938 225.21875 85.222656 205.644531 85.222656 184.652344 C 85.222656 128.261719 131.101562 82.382812 187.492188 82.382812 C 243.882812 82.382812 289.761719 128.261719 289.761719 184.652344 C 289.761719 205.644531 283.398438 225.21875 272.460938 241.46875 Z M 360.78125 230.105469 C 360.78125 236.382812 355.695312 241.46875 349.417969 241.46875 L 285.898438 241.46875 C 295.585938 224.734375 301.125 205.332031 301.125 184.652344 C 301.125 121.984375 250.160156 71.019531 187.492188 71.019531 C 124.824219 71.019531 73.859375 121.984375 73.859375 184.652344 C 73.859375 205.332031 79.398438 224.734375 89.085938 241.46875 L 31.25 241.46875 C 24.96875 241.46875 19.886719 236.382812 19.886719 230.105469 L 19.886719 45.453125 L 360.78125 45.453125 Z M 360.78125 230.105469 " fill-opacity="1" fill-rule="nonzero"/><path fill="#3a3b3e" d="M 201.21875 134.289062 C 201.359375 135.160156 201.414062 136.042969 201.382812 136.925781 C 201.351562 137.8125 201.234375 138.6875 201.03125 139.550781 C 200.828125 140.410156 200.542969 141.246094 200.175781 142.050781 C 199.804688 142.859375 199.363281 143.621094 198.84375 144.339844 C 198.328125 145.058594 197.742188 145.71875 197.097656 146.324219 C 196.449219 146.925781 195.746094 147.460938 194.992188 147.925781 C 194.238281 148.394531 193.449219 148.78125 192.617188 149.089844 C 191.789062 149.402344 190.933594 149.625 190.058594 149.769531 C 189.1875 149.910156 188.304688 149.964844 187.421875 149.933594 C 186.535156 149.902344 185.660156 149.785156 184.796875 149.582031 C 183.9375 149.378906 183.101562 149.09375 182.296875 148.726562 C 181.488281 148.355469 180.726562 147.914062 180.007812 147.394531 C 179.289062 146.878906 178.628906 146.296875 178.023438 145.648438 C 177.421875 145 176.886719 144.296875 176.421875 143.542969 C 175.953125 142.789062 175.566406 142 175.257812 141.167969 C 174.945312 140.339844 174.722656 139.484375 174.578125 138.613281 C 174.4375 137.738281 174.382812 136.855469 174.414062 135.972656 C 174.445312 135.085938 174.5625 134.210938 174.765625 133.347656 C 174.96875 132.488281 175.253906 131.652344 175.621094 130.847656 C 175.988281 130.039062 176.433594 129.277344 176.949219 128.558594 C 177.46875 127.839844 178.050781 127.179688 178.699219 126.574219 C 179.347656 125.972656 180.050781 125.4375 180.804688 124.972656 C 181.558594 124.503906 182.347656 124.117188 183.179688 123.808594 C 184.007812 123.496094 184.863281 123.273438 185.734375 123.128906 C 186.609375 122.988281 187.492188 122.933594 188.375 122.964844 C 189.261719 122.996094 190.136719 123.113281 190.996094 123.316406 C 191.859375 123.519531 192.695312 123.804688 193.5 124.171875 C 194.304688 124.542969 195.070312 124.984375 195.789062 125.503906 C 196.507812 126.019531 197.167969 126.601562 197.773438 127.25 C 198.375 127.898438 198.910156 128.601562 199.375 129.355469 C 199.84375 130.109375 200.230469 130.898438 200.539062 131.730469 C 200.851562 132.558594 201.074219 133.414062 201.21875 134.289062 Z M 201.21875 134.289062 " fill-opacity="1" fill-rule="nonzero"/><path fill="#3a3b3e" d="M 233.117188 141.132812 C 231.78125 141.871094 230.417969 142.550781 229.082031 143.234375 C 228.203125 143.6875 227.292969 144.140625 226.410156 144.566406 C 225.472656 145.023438 224.535156 145.449219 223.597656 145.847656 C 222.691406 146.246094 221.78125 146.671875 220.871094 147.039062 C 219.933594 147.410156 219.027344 147.777344 218.089844 148.121094 C 217.179688 148.460938 216.242188 148.828125 215.332031 149.140625 C 214.394531 149.453125 213.484375 149.738281 212.546875 150.023438 C 211.640625 150.308594 210.730469 150.589844 209.820312 150.847656 C 208.882812 151.101562 207.917969 151.328125 206.980469 151.554688 C 206.101562 151.753906 205.21875 151.984375 204.339844 152.179688 C 203.34375 152.378906 202.351562 152.550781 201.382812 152.691406 C 200.53125 152.835938 199.707031 153.003906 198.855469 153.117188 C 197.777344 153.261719 196.726562 153.347656 195.644531 153.460938 C 194.878906 153.546875 194.113281 153.628906 193.375 153.6875 C 191.953125 153.773438 190.503906 153.828125 189.082031 153.828125 C 188.289062 153.828125 187.492188 153.828125 186.699219 153.828125 C 185.277344 153.828125 183.886719 153.773438 182.464844 153.6875 C 181.699219 153.628906 180.902344 153.515625 180.136719 153.460938 C 179.082031 153.347656 178.03125 153.261719 176.980469 153.117188 C 176.128906 153.003906 175.25 152.835938 174.398438 152.691406 C 173.429688 152.523438 172.464844 152.378906 171.5 152.179688 C 170.589844 151.984375 169.679688 151.753906 168.773438 151.554688 C 167.863281 151.328125 166.925781 151.128906 166.015625 150.875 C 165.078125 150.621094 164.167969 150.335938 163.230469 150.023438 C 162.324219 149.738281 161.414062 149.484375 160.535156 149.171875 C 159.597656 148.859375 158.660156 148.488281 157.722656 148.121094 C 156.8125 147.777344 155.929688 147.4375 155.023438 147.066406 C 154.085938 146.671875 153.148438 146.273438 152.210938 145.847656 C 151.300781 145.449219 150.390625 145.023438 149.484375 144.597656 C 148.574219 144.171875 147.636719 143.6875 146.726562 143.234375 C 145.390625 142.550781 144.085938 141.898438 142.75 141.160156 C 139.996094 139.625 136.527344 140.621094 134.964844 143.375 C 133.433594 146.128906 134.425781 149.597656 137.183594 151.160156 C 138.007812 151.613281 138.859375 152.011719 139.683594 152.464844 C 140.363281 152.863281 141.046875 153.175781 141.753906 153.515625 C 142.691406 154 143.628906 154.484375 144.566406 154.910156 C 145.703125 155.449219 146.8125 155.929688 147.949219 156.441406 C 148.886719 156.839844 149.824219 157.265625 150.761719 157.664062 C 151.898438 158.117188 153.035156 158.546875 154.171875 158.972656 C 155.109375 159.3125 156.015625 159.679688 156.953125 159.992188 C 158.117188 160.390625 159.253906 160.730469 160.417969 161.074219 C 161.328125 161.355469 162.238281 161.640625 163.175781 161.898438 C 164.367188 162.210938 165.535156 162.492188 166.726562 162.75 C 167.605469 162.949219 168.488281 163.175781 169.398438 163.375 C 170.164062 163.515625 170.929688 163.660156 171.667969 163.773438 L 173.742188 185.390625 L 173.742188 191.925781 L 157.039062 239.082031 C 155.675781 242.917969 157.691406 247.09375 161.5 248.457031 C 162.324219 248.742188 163.148438 248.882812 163.941406 248.882812 C 166.953125 248.882812 169.792969 247.007812 170.875 243.996094 L 185.902344 201.554688 L 190.105469 201.554688 L 205.132812 243.996094 C 206.214844 247.007812 209.027344 248.882812 212.066406 248.882812 C 212.890625 248.882812 213.714844 248.742188 214.507812 248.457031 C 218.34375 247.09375 220.332031 242.886719 218.96875 239.082031 L 202.265625 191.925781 L 202.265625 185.390625 L 204.339844 163.773438 C 205.105469 163.628906 205.871094 163.515625 206.640625 163.347656 C 207.464844 163.175781 208.316406 162.949219 209.140625 162.777344 C 210.390625 162.492188 211.609375 162.210938 212.859375 161.867188 C 213.714844 161.640625 214.566406 161.355469 215.417969 161.101562 C 216.640625 160.730469 217.859375 160.363281 219.054688 159.964844 C 219.933594 159.679688 220.785156 159.339844 221.667969 159.027344 C 222.859375 158.574219 224.054688 158.148438 225.273438 157.664062 C 226.15625 157.296875 227.035156 156.925781 227.917969 156.527344 C 229.109375 156.015625 230.273438 155.476562 231.46875 154.910156 C 232.347656 154.484375 233.257812 154.027344 234.136719 153.574219 C 234.847656 153.203125 235.558594 152.890625 236.296875 152.492188 L 236.296875 152.4375 C 237.09375 151.984375 237.945312 151.585938 238.769531 151.128906 C 241.523438 149.597656 242.519531 146.101562 240.984375 143.347656 C 239.449219 140.589844 235.984375 139.597656 233.199219 141.132812 Z M 233.117188 141.132812 " fill-opacity="1" fill-rule="nonzero"/></svg>