<svg xmlns="http://www.w3.org/2000/svg" xmlns:xlink="http://www.w3.org/1999/xlink" width="1381" zoomAndPan="magnify" viewBox="0 0 1035.75 299.999988" height="400" preserveAspectRatio="xMidYMid meet" version="1.0"><defs><g/><clipPath id="220f61ae6e"><path d="M 909 150 L 1023 150 L 1023 215 L 909 215 Z M 909 150 " clip-rule="nonzero"/></clipPath><clipPath id="bf9f2deb1a"><path d="M 940.398438 84.472656 L 1035.125 160.320312 L 960.121094 253.992188 L 865.394531 178.148438 Z M 940.398438 84.472656 " clip-rule="nonzero"/></clipPath><clipPath id="f5d203bec8"><path d="M 940.398438 84.472656 L 1035.125 160.320312 L 960.121094 253.992188 L 865.394531 178.148438 Z M 940.398438 84.472656 " clip-rule="nonzero"/></clipPath><clipPath id="dbc265b5b3"><path d="M 906 97 L 949 97 L 949 192 L 906 192 Z M 906 97 " clip-rule="nonzero"/></clipPath><clipPath id="31cf07979b"><path d="M 940.398438 84.472656 L 1035.125 160.320312 L 960.121094 253.992188 L 865.394531 178.148438 Z M 940.398438 84.472656 " clip-rule="nonzero"/></clipPath><clipPath id="cd17f58227"><path d="M 940.398438 84.472656 L 1035.125 160.320312 L 960.121094 253.992188 L 865.394531 178.148438 Z M 940.398438 84.472656 " clip-rule="nonzero"/></clipPath><clipPath id="159b72ffa0"><path d="M 945.511719 97.875 C 941.03125 101.644531 939.570312 108.058594 940.214844 113.871094 C 940.855469 119.679688 943.265625 125.132812 945.363281 130.597656 C 947.457031 136.0625 949.292969 141.832031 948.699219 147.660156 C 948.183594 152.726562 945.855469 157.425781 943.148438 161.742188 C 939.871094 166.960938 935.765625 171.933594 930.632812 175.222656 C 931.699219 171.621094 932.34375 167.863281 932.640625 164.117188 C 933.238281 156.753906 932.648438 149.351562 932.054688 141.996094 C 931.355469 133.394531 930.667969 124.800781 929.972656 116.199219 C 927.574219 128.988281 929.207031 142.140625 929.0625 155.164062 C 928.929688 168.179688 926.617188 182.003906 917.910156 191.679688 C 921.601562 186.121094 920.6875 178.628906 918.128906 172.460938 C 915.574219 166.292969 911.566406 160.796875 909.15625 154.5625 C 904.628906 142.757812 906.464844 128.726562 913.90625 118.519531 C 921.433594 108.203125 933.558594 102.378906 945.511719 97.875 Z M 945.511719 97.875 " clip-rule="nonzero"/></clipPath><clipPath id="023a4b138e"><path d="M 202 22 L 298 22 L 298 120 L 202 120 Z M 202 22 " clip-rule="nonzero"/></clipPath><clipPath id="8e7fd266f0"><path d="M 202.890625 22.082031 L 301.230469 26.328125 L 297.160156 120.621094 L 198.824219 116.378906 Z M 202.890625 22.082031 " clip-rule="nonzero"/></clipPath><clipPath id="3c52448e1a"><path d="M 202.890625 22.082031 L 301.230469 26.328125 L 297.160156 120.621094 L 198.824219 116.378906 Z M 202.890625 22.082031 " clip-rule="nonzero"/></clipPath><clipPath id="a8c65c1597"><path d="M 958 92 L 1030 92 L 1030 147 L 958 147 Z M 958 92 " clip-rule="nonzero"/></clipPath><clipPath id="41203f6f9d"><path d="M 1032.046875 99.792969 L 983.699219 164.65625 L 950.1875 139.675781 L 998.535156 74.8125 Z M 1032.046875 99.792969 " clip-rule="nonzero"/></clipPath><clipPath id="ebfe64bb8c"><path d="M 1032.046875 99.792969 L 983.699219 164.65625 L 950.1875 139.675781 L 998.535156 74.8125 Z M 1032.046875 99.792969 " clip-rule="nonzero"/></clipPath><clipPath id="54c815d18d"><path d="M 501 72 L 547 72 L 547 150 L 501 150 Z M 501 72 " clip-rule="nonzero"/></clipPath><clipPath id="978cacba66"><path d="M 505.628906 69.296875 L 551 75.855469 L 539.621094 154.589844 L 494.25 148.03125 Z M 505.628906 69.296875 " clip-rule="nonzero"/></clipPath><clipPath id="53cbb51cb2"><path d="M 505.628906 69.296875 L 551 75.855469 L 539.621094 154.589844 L 494.25 148.03125 Z M 505.628906 69.296875 " clip-rule="nonzero"/></clipPath><clipPath id="c29a7faeaa"><path d="M 546.117188 109.578125 C 546.46875 102.71875 544.503906 95.890625 541.390625 89.765625 C 538.273438 83.640625 534.039062 78.164062 529.625 72.90625 C 531.046875 77.367188 529.367188 82.34375 526.464844 86.019531 C 523.5625 89.691406 519.589844 92.328125 515.730469 94.976562 C 511.867188 97.617188 507.972656 100.417969 505.339844 104.292969 C 502.457031 108.535156 498.261719 120.558594 507.5625 130.414062 C 509.359375 123.882812 510.148438 121.707031 512.828125 117.585938 C 515.507812 113.46875 519.246094 110.175781 522.570312 106.554688 C 525.890625 102.9375 528.914062 98.726562 529.597656 93.863281 C 529.355469 97.679688 527.550781 101.234375 525.351562 104.359375 C 523.148438 107.488281 520.53125 110.308594 518.34375 113.4375 C 514.378906 119.101562 510.820312 127.445312 507.613281 149.6875 C 508.078125 147.070312 509.40625 144.542969 511.203125 142.507812 C 511.464844 142.203125 511.742188 141.917969 512.023438 141.636719 C 512.230469 141.433594 512.449219 141.230469 512.664062 141.035156 C 516.074219 137.980469 520.425781 136.148438 524.703125 134.460938 C 529.25 132.660156 533.933594 130.894531 537.667969 127.734375 C 542.910156 123.3125 545.757812 116.4375 546.117188 109.578125 Z M 546.117188 109.578125 " clip-rule="nonzero"/></clipPath><linearGradient x1="2460.78" gradientTransform="matrix(-0.0654068, -0.00945512, -0.00945512, 0.0654068, 690.692967, 96.050356)" y1="-34.366425" x2="2460.78" gradientUnits="userSpaceOnUse" y2="1219.843374" id="319045f897"><stop stop-opacity="1" stop-color="rgb(50.932312%, 85.066223%, 60.154724%)" offset="0"/><stop stop-opacity="1" stop-color="rgb(50.904846%, 84.906006%, 60.046387%)" offset="0.25"/><stop stop-opacity="1" stop-color="rgb(50.849915%, 84.585571%, 59.829712%)" offset="0.5"/><stop stop-opacity="1" stop-color="rgb(50.794983%, 84.265137%, 59.613037%)" offset="0.75"/><stop stop-opacity="1" stop-color="rgb(50.740051%, 83.943176%, 59.396362%)" offset="1"/></linearGradient><clipPath id="cf2f7fd6c2"><path d="M 500 71 L 548 71 L 548 151 L 500 151 Z M 500 71 " clip-rule="nonzero"/></clipPath><clipPath id="6e5e14d075"><path d="M 505.628906 69.296875 L 551 75.855469 L 539.621094 154.589844 L 494.25 148.03125 Z M 505.628906 69.296875 " clip-rule="nonzero"/></clipPath><clipPath id="253b352b26"><path d="M 505.628906 69.296875 L 551 75.855469 L 539.621094 154.589844 L 494.25 148.03125 Z M 505.628906 69.296875 " clip-rule="nonzero"/></clipPath><clipPath id="f5b793d6ee"><path d="M 16 117 L 110 117 L 110 208 L 16 208 Z M 16 117 " clip-rule="nonzero"/></clipPath><clipPath id="73792e1200"><path d="M 2.460938 123.59375 L 115.105469 74.949219 L 162.679688 185.117188 L 50.035156 233.761719 Z M 2.460938 123.59375 " clip-rule="nonzero"/></clipPath><clipPath id="6844a7aae0"><path d="M 114.660156 75.140625 L 2.015625 123.785156 L 49.589844 233.953125 L 162.234375 185.3125 Z M 114.660156 75.140625 " clip-rule="nonzero"/></clipPath><clipPath id="485d5005e3"><path d="M 89 86 L 134 86 L 134 185 L 89 185 Z M 89 86 " clip-rule="nonzero"/></clipPath><clipPath id="0af1d2c5ab"><path d="M 2.460938 123.59375 L 115.105469 74.949219 L 162.679688 185.117188 L 50.035156 233.761719 Z M 2.460938 123.59375 " clip-rule="nonzero"/></clipPath><clipPath id="571e835c0a"><path d="M 114.660156 75.140625 L 2.015625 123.785156 L 49.589844 233.953125 L 162.234375 185.3125 Z M 114.660156 75.140625 " clip-rule="nonzero"/></clipPath><clipPath id="da4994c320"><path d="M 106.167969 86.742188 C 109.503906 91.574219 109.214844 98.164062 107.054688 103.609375 C 104.890625 109.058594 101.117188 113.691406 97.644531 118.417969 C 94.167969 123.144531 90.867188 128.238281 89.894531 134.03125 C 89.050781 139.066406 90.054688 144.226562 91.53125 149.117188 C 93.316406 155.03125 95.964844 160.925781 100.058594 165.464844 C 99.980469 161.699219 100.355469 157.898438 101.0625 154.199219 C 102.429688 146.917969 104.964844 139.921875 107.488281 132.964844 C 110.441406 124.832031 113.382812 116.707031 116.339844 108.578125 C 115.265625 121.578125 110.203125 133.859375 106.890625 146.488281 C 103.570312 159.109375 102.140625 173.085938 107.996094 184.75 C 105.902344 178.394531 108.773438 171.394531 112.878906 166.109375 C 116.980469 160.824219 122.3125 156.570312 126.296875 151.183594 C 133.800781 140.96875 135.742188 126.914062 131.257812 115.078125 C 126.710938 103.109375 116.53125 94.261719 106.167969 86.742188 Z M 106.167969 86.742188 " clip-rule="nonzero"/></clipPath><clipPath id="de6cd09a37"><path d="M 300 32 L 353 32 L 353 111 L 300 111 Z M 300 32 " clip-rule="nonzero"/></clipPath><clipPath id="524ac642a9"><path d="M 287.835938 50.132812 L 351.554688 32.671875 L 368.300781 93.789062 L 304.582031 111.25 Z M 287.835938 50.132812 " clip-rule="nonzero"/></clipPath><clipPath id="b0b1b16ba0"><path d="M 352.042969 32.539062 L 288.324219 50 L 305.070312 111.117188 L 368.789062 93.65625 Z M 352.042969 32.539062 " clip-rule="nonzero"/></clipPath><clipPath id="3c64a582b7"><path d="M 440 0.0351562 L 503 0.0351562 L 503 153 L 440 153 Z M 440 0.0351562 " clip-rule="nonzero"/></clipPath><clipPath id="7f25406bd2"><path d="M 403.976562 99.984375 L 460.640625 0.367188 L 555.574219 54.363281 L 498.910156 153.984375 Z M 403.976562 99.984375 " clip-rule="nonzero"/></clipPath><clipPath id="f65dc130ed"><path d="M 460.828125 0.0351562 L 404.164062 99.65625 L 499.097656 153.652344 L 555.761719 54.035156 Z M 460.828125 0.0351562 " clip-rule="nonzero"/></clipPath></defs><g fill="#fff4ce" fill-opacity="1"><g transform="translate(92.718766, 265.797699)"><g><path d="M 74.78125 -37.390625 L 45.4375 -37.390625 C 46.113281 -39.304688 46.765625 -41.222656 47.390625 -43.140625 C 48.015625 -45.054688 48.613281 -46.925781 49.1875 -48.75 C 49.851562 -50.664062 50.472656 -52.507812 51.046875 -54.28125 C 51.628906 -56.0625 52.253906 -57.863281 52.921875 -59.6875 C 53.492188 -61.40625 54.066406 -63.148438 54.640625 -64.921875 C 55.222656 -66.703125 55.800781 -68.503906 56.375 -70.328125 C 56.945312 -72.148438 57.546875 -73.96875 58.171875 -75.78125 C 58.796875 -77.601562 59.394531 -79.425781 59.96875 -81.25 Z M 10.5 0 L 34.515625 0 L 39.546875 -16.25 L 80.390625 -16.25 L 84.125 0 L 109.578125 0 L 68.171875 -104.84375 L 51.921875 -104.84375 Z M 10.5 0 "/></g></g></g><g fill="#fff4ce" fill-opacity="1"><g transform="translate(212.798372, 265.797699)"><g><path d="M 12.375 0 L 74.0625 0 L 74.0625 -23.578125 L 52.34375 -23.578125 L 52.34375 -103.109375 L 36.390625 -103.109375 L 10.5 -97.9375 L 10.5 -80.53125 L 34.078125 -85.140625 L 34.078125 -23.578125 L 12.375 -23.578125 Z M 12.375 0 "/></g></g></g><g fill="#fff4ce" fill-opacity="1"><g transform="translate(297.357433, 265.797699)"><g><path d="M 12.375 0 L 74.0625 0 L 74.0625 -23.578125 L 52.34375 -23.578125 L 52.34375 -103.109375 L 36.390625 -103.109375 L 10.5 -97.9375 L 10.5 -80.53125 L 34.078125 -85.140625 L 34.078125 -23.578125 L 12.375 -23.578125 Z M 12.375 0 "/></g></g></g><g fill="#fff4ce" fill-opacity="1"><g transform="translate(381.916493, 265.797699)"><g><path d="M 89.875 -78.671875 L 71.625 -78.671875 L 53.0625 -38.828125 L 28.765625 -78.671875 L 10.5 -78.671875 C 11.84375 -75.890625 13.179688 -73.082031 14.515625 -70.25 C 15.859375 -67.425781 17.203125 -64.523438 18.546875 -61.546875 C 21.328125 -55.703125 24.109375 -49.78125 26.890625 -43.78125 C 29.671875 -37.789062 32.40625 -31.828125 35.09375 -25.890625 C 36.4375 -22.910156 37.800781 -20.003906 39.1875 -17.171875 C 40.582031 -14.347656 41.898438 -11.546875 43.140625 -8.765625 C 42.753906 -8.003906 42.367188 -7.238281 41.984375 -6.46875 C 41.609375 -5.707031 41.226562 -4.941406 40.84375 -4.171875 C 39.882812 -2.535156 39.066406 -1 38.390625 0.4375 C 37.429688 1.675781 36.5 2.773438 35.59375 3.734375 C 34.6875 4.691406 33.800781 5.554688 32.9375 6.328125 C 31.5 7.472656 29.53125 8.046875 27.03125 8.046875 L 15.96875 8.046875 L 15.96875 29.1875 L 29.484375 29.1875 C 33.503906 29.1875 37.070312 28.5625 40.1875 27.3125 C 43.3125 26.070312 46.257812 23.722656 49.03125 20.265625 C 51.8125 16.816406 54.644531 11.785156 57.53125 5.171875 Z M 89.875 -78.671875 "/></g></g></g><g fill="#fff4ce" fill-opacity="1"><g transform="translate(482.294423, 265.797699)"><g/></g></g><g fill="#fff4ce" fill-opacity="1"><g transform="translate(538.523346, 265.797699)"><g><path d="M 78.09375 -73.484375 C 78.09375 -83.929688 75.023438 -91.796875 68.890625 -97.078125 C 63.035156 -102.253906 54.597656 -104.84375 43.578125 -104.84375 L 10.5 -104.84375 L 10.5 0 L 31.921875 0 L 31.921875 -42 L 39.265625 -42 C 42.421875 -42 45.101562 -41.613281 47.3125 -40.84375 C 49.519531 -40.070312 51.535156 -38.628906 53.359375 -36.515625 C 55.179688 -34.410156 57.097656 -31.25 59.109375 -27.03125 L 59.109375 -27.1875 L 69.75 0 L 95.0625 0 C 94.007812 -2.207031 92.785156 -4.648438 91.390625 -7.328125 C 90.003906 -10.015625 88.640625 -12.703125 87.296875 -15.390625 C 85.859375 -18.171875 84.46875 -20.925781 83.125 -23.65625 C 81.78125 -26.382812 80.535156 -28.851562 79.390625 -31.0625 C 77.273438 -35.28125 75.140625 -38.898438 72.984375 -41.921875 C 70.828125 -44.941406 68.550781 -47.363281 66.15625 -49.1875 C 69.988281 -51.488281 72.9375 -54.695312 75 -58.8125 C 77.0625 -62.9375 78.09375 -67.828125 78.09375 -73.484375 Z M 30.625 -92.46875 L 45.015625 -92.46875 C 47.984375 -92.46875 50.859375 -91.914062 53.640625 -90.8125 C 56.421875 -89.707031 58.722656 -87.789062 60.546875 -85.0625 C 62.367188 -82.332031 63.28125 -78.472656 63.28125 -73.484375 C 63.28125 -71.472656 62.390625 -69.507812 60.609375 -67.59375 C 58.835938 -65.675781 56.5625 -64.117188 53.78125 -62.921875 C 51 -61.722656 48.078125 -61.125 45.015625 -61.125 L 30.625 -61.125 Z M 30.625 -92.46875 "/></g></g></g><g fill="#fff4ce" fill-opacity="1"><g transform="translate(644.078365, 265.797699)"><g><path d="M 46.890625 -66.296875 C 52.347656 -66.296875 56.753906 -64.113281 60.109375 -59.75 C 63.460938 -55.382812 65.140625 -49.273438 65.140625 -41.421875 C 65.140625 -34.035156 63.65625 -29.289062 60.6875 -27.1875 C 59.0625 -26.226562 57.070312 -25.484375 54.71875 -24.953125 C 52.375 -24.421875 49.765625 -24.15625 46.890625 -24.15625 C 42.859375 -24.15625 39.472656 -24.539062 36.734375 -25.3125 C 34.003906 -26.082031 31.941406 -27.6875 30.546875 -30.125 C 29.160156 -32.570312 28.46875 -36.335938 28.46875 -41.421875 C 28.46875 -49.273438 30.144531 -55.382812 33.5 -59.75 C 36.863281 -64.113281 41.328125 -66.296875 46.890625 -66.296875 Z M 46.890625 -80.390625 C 35.378906 -80.390625 26.460938 -76.695312 20.140625 -69.3125 C 13.710938 -62.03125 10.5 -52.015625 10.5 -39.265625 C 10.5 -26.515625 13.710938 -16.492188 20.140625 -9.203125 C 26.460938 -1.816406 35.378906 1.875 46.890625 1.875 C 54.359375 1.875 60.800781 0.195312 66.21875 -3.15625 C 71.632812 -6.519531 75.804688 -11.269531 78.734375 -17.40625 C 81.660156 -23.539062 83.125 -30.828125 83.125 -39.265625 C 83.125 -47.703125 81.660156 -54.988281 78.734375 -61.125 C 75.804688 -67.257812 71.632812 -72.003906 66.21875 -75.359375 C 60.800781 -78.710938 54.359375 -80.390625 46.890625 -80.390625 Z M 46.890625 -80.390625 "/></g></g></g><g fill="#fff4ce" fill-opacity="1"><g transform="translate(737.697321, 265.797699)"><g><path d="M 46.890625 -66.296875 C 52.347656 -66.296875 56.753906 -64.113281 60.109375 -59.75 C 63.460938 -55.382812 65.140625 -49.273438 65.140625 -41.421875 C 65.140625 -34.035156 63.65625 -29.289062 60.6875 -27.1875 C 59.0625 -26.226562 57.070312 -25.484375 54.71875 -24.953125 C 52.375 -24.421875 49.765625 -24.15625 46.890625 -24.15625 C 42.859375 -24.15625 39.472656 -24.539062 36.734375 -25.3125 C 34.003906 -26.082031 31.941406 -27.6875 30.546875 -30.125 C 29.160156 -32.570312 28.46875 -36.335938 28.46875 -41.421875 C 28.46875 -49.273438 30.144531 -55.382812 33.5 -59.75 C 36.863281 -64.113281 41.328125 -66.296875 46.890625 -66.296875 Z M 46.890625 -80.390625 C 35.378906 -80.390625 26.460938 -76.695312 20.140625 -69.3125 C 13.710938 -62.03125 10.5 -52.015625 10.5 -39.265625 C 10.5 -26.515625 13.710938 -16.492188 20.140625 -9.203125 C 26.460938 -1.816406 35.378906 1.875 46.890625 1.875 C 54.359375 1.875 60.800781 0.195312 66.21875 -3.15625 C 71.632812 -6.519531 75.804688 -11.269531 78.734375 -17.40625 C 81.660156 -23.539062 83.125 -30.828125 83.125 -39.265625 C 83.125 -47.703125 81.660156 -54.988281 78.734375 -61.125 C 75.804688 -67.257812 71.632812 -72.003906 66.21875 -75.359375 C 60.800781 -78.710938 54.359375 -80.390625 46.890625 -80.390625 Z M 46.890625 -80.390625 "/></g></g></g><g fill="#fff4ce" fill-opacity="1"><g transform="translate(831.316319, 265.797699)"><g><path d="M 20.140625 -96.78125 L 19.421875 -78.671875 L 10.5 -78.671875 L 10.5 -64 L 19.421875 -64 L 18.703125 -26.890625 C 18.703125 -16.921875 20.859375 -9.945312 25.171875 -5.96875 C 29.484375 -1.988281 36.625 0 46.59375 0 L 61.546875 0 L 61.546875 -23.15625 L 46.59375 -23.15625 C 42.28125 -23.15625 39.597656 -23.773438 38.546875 -25.015625 C 37.296875 -26.171875 36.671875 -29.382812 36.671875 -34.65625 L 37.390625 -64 L 54.359375 -64 L 54.359375 -78.671875 L 37.53125 -78.671875 L 38.109375 -96.78125 Z M 20.140625 -96.78125 "/></g></g></g><g clip-path="url(#220f61ae6e)"><g clip-path="url(#bf9f2deb1a)"><g clip-path="url(#f5d203bec8)"><path fill="#83e09e" d="M 1022.828125 150.472656 C 1019.273438 157.332031 1011.429688 161.066406 1003.761719 161.914062 C 996.085938 162.773438 988.375 161.234375 980.742188 160.113281 C 973.097656 158.984375 965.121094 158.292969 957.800781 160.746094 C 951.425781 162.875 946.035156 167.226562 941.269531 171.957031 C 935.464844 177.6875 930.257812 184.398438 927.5 191.957031 C 931.835938 189.539062 936.488281 187.632812 941.222656 186.160156 C 950.539062 183.253906 960.242188 181.882812 969.898438 180.519531 C 981.179688 178.929688 992.445312 177.34375 1003.726562 175.757812 C 987.941406 182.53125 970.519531 184.238281 953.804688 188.175781 C 937.078125 192.117188 919.933594 199.085938 909.984375 213.09375 C 916.085938 206.730469 926 205.742188 934.6875 207.265625 C 943.371094 208.785156 951.613281 212.347656 960.324219 213.648438 C 976.808594 216.101562 994.363281 209.675781 1005.355469 197.144531 C 1016.480469 184.472656 1020.496094 167.164062 1022.828125 150.472656 Z M 1022.828125 150.472656 " fill-opacity="1" fill-rule="nonzero"/></g></g></g><g clip-path="url(#dbc265b5b3)"><g clip-path="url(#31cf07979b)"><g clip-path="url(#cd17f58227)"><g clip-path="url(#159b72ffa0)"><path fill="#83e09e" d="M 995.058594 134.519531 L 931.84375 213.472656 L 858.863281 155.035156 L 922.078125 76.085938 Z M 995.058594 134.519531 " fill-opacity="1" fill-rule="nonzero"/></g></g></g></g><g clip-path="url(#023a4b138e)"><g clip-path="url(#8e7fd266f0)"><g clip-path="url(#3c52448e1a)"><path fill="#83e09e" d="M 242.4375 32.296875 L 249.957031 34.207031 L 254.640625 35.597656 L 257.433594 36.632812 L 260.152344 37.785156 L 262.796875 39.058594 L 265.371094 40.453125 L 267.859375 41.960938 L 270.273438 43.582031 L 272.597656 45.316406 L 274.839844 47.167969 L 277.386719 49.507812 L 279.800781 52.007812 L 282.082031 54.648438 L 284.21875 57.441406 L 286.996094 61.539062 L 288.175781 63.476562 L 289.230469 65.378906 L 290.195312 67.285156 L 291.042969 69.167969 L 291.8125 71.089844 L 292.46875 73 L 293.03125 74.953125 L 293.492188 76.898438 L 293.855469 78.832031 L 294.113281 80.757812 L 294.269531 82.671875 L 294.324219 84.574219 L 294.285156 86.457031 L 294.140625 88.335938 L 293.734375 91.097656 L 292.589844 97.382812 L 291.921875 101.445312 L 291.8125 102.882812 L 291.917969 104.40625 L 292.234375 106.015625 L 292.757812 107.6875 L 293.484375 109.414062 L 294.421875 111.246094 L 295.578125 113.214844 L 297.230469 115.804688 L 297.570312 116.324219 L 297.609375 116.484375 L 297.5 116.613281 L 296.339844 117.34375 L 295.238281 118.148438 L 293.488281 119.703125 L 293.457031 119.730469 L 293.308594 119.738281 L 293.210938 119.628906 L 292.617188 118.078125 L 289.152344 111.1875 L 286.5 106.273438 L 285.453125 104.574219 L 284.351562 103.152344 L 283.179688 101.960938 L 281.875 100.945312 L 280.828125 100.320312 L 279.734375 99.8125 L 278.554688 99.382812 L 277.230469 99.023438 L 275.804688 98.742188 L 274.1875 98.519531 L 269.632812 98.128906 L 265.214844 97.714844 L 261.300781 97.128906 L 257.632812 96.332031 L 254.109375 95.292969 L 250.886719 94.089844 L 247.683594 92.636719 L 245.027344 91.195312 L 242.5 89.554688 L 240.84375 88.300781 L 239.277344 86.980469 L 237.777344 85.574219 L 236.3125 84.042969 L 234.917969 82.425781 L 233.554688 80.683594 L 232.265625 78.859375 L 231.011719 76.910156 L 229.832031 74.910156 L 228.691406 72.785156 L 226.433594 68.054688 L 224.199219 62.660156 L 221.386719 55.152344 L 219.429688 49.867188 L 217.933594 46.046875 L 216.570312 42.882812 L 215.085938 39.792969 L 213.472656 36.785156 L 211.742188 33.855469 L 209.066406 29.84375 L 206.144531 25.984375 L 203 22.195312 L 202.933594 22.0625 L 203.082031 22.054688 L 210.464844 23.941406 L 220.515625 26.636719 L 233.152344 30 Z M 239.957031 55.304688 L 243.417969 57.457031 L 246.902344 59.796875 L 250.34375 62.277344 L 253.769531 64.914062 L 257.125 67.675781 L 260.425781 70.5625 L 263.589844 73.519531 L 266.597656 76.511719 L 269.109375 79.214844 L 271.625 82.148438 L 274.089844 85.265625 L 276.453125 88.496094 L 278.742188 91.871094 L 280.890625 95.304688 L 282.875 98.742188 L 284.679688 102.175781 L 284.738281 102.183594 L 284.75 102.171875 L 284.832031 101.9375 L 284.832031 101.75 L 282.007812 94.664062 L 279.730469 89.570312 L 277.902344 86.191406 L 275.746094 82.855469 L 273.246094 79.554688 L 270.4375 76.332031 L 267.300781 73.160156 L 263.886719 70.097656 L 260.183594 67.136719 L 256.269531 64.332031 L 253.730469 62.6875 L 250.738281 60.882812 L 242.519531 56.292969 L 240.523438 55.199219 L 240.242188 55.097656 L 240.003906 55.109375 L 239.972656 55.117188 L 239.945312 55.132812 L 239.90625 55.222656 Z M 239.957031 55.304688 " fill-opacity="1" fill-rule="nonzero"/></g></g></g><g clip-path="url(#a8c65c1597)"><g clip-path="url(#41203f6f9d)"><g clip-path="url(#ebfe64bb8c)"><path fill="#83e09e" d="M 969.460938 142.195312 C 975.292969 143.023438 986.773438 143.71875 997.96875 137.601562 C 1002.191406 135.296875 1005.285156 132.585938 1006.828125 131.128906 C 1013.046875 125.273438 1014.511719 120.445312 1020.839844 110.660156 C 1022.789062 107.648438 1025.761719 103.296875 1029.808594 98.246094 C 1026.277344 96.339844 1020.03125 93.558594 1011.851562 93.015625 C 1009.363281 92.851562 993.304688 92.03125 980.792969 103.179688 C 972.640625 110.449219 966.230469 122.585938 965.84375 130.949219 C 965.785156 132.328125 965.730469 136.867188 962.996094 141.414062 C 961.625 143.699219 960 145.277344 958.828125 146.257812 C 959.996094 146.117188 961.734375 145.773438 963.585938 144.8125 C 968.402344 142.3125 969.25 138.085938 973.019531 132.011719 C 974.703125 129.296875 978.589844 123.152344 984.882812 118.96875 C 989.453125 115.929688 994.003906 114.789062 996.960938 114.300781 C 992.121094 116.085938 988.703125 118.34375 986.515625 120.042969 C 981.300781 124.089844 978.183594 128.738281 973.78125 135.289062 C 971.890625 138.105469 970.4375 140.523438 969.460938 142.195312 Z M 969.460938 142.195312 " fill-opacity="1" fill-rule="nonzero"/></g></g></g><g clip-path="url(#54c815d18d)"><g clip-path="url(#978cacba66)"><g clip-path="url(#53cbb51cb2)"><g clip-path="url(#c29a7faeaa)"><path fill="url(#319045f897)" d="M 557.339844 74.476562 L 545.480469 156.511719 L 487.390625 148.113281 L 499.25 66.082031 Z M 557.339844 74.476562 " fill-rule="nonzero"/></g></g></g></g><g clip-path="url(#cf2f7fd6c2)"><g clip-path="url(#6e5e14d075)"><g clip-path="url(#253b352b26)"><path stroke-linecap="butt" transform="matrix(0.0654068, 0.00945512, -0.00945512, 0.0654068, 508.340008, 69.68966)" fill="none" stroke-linejoin="miter" d="M 652.104564 515.584391 C 642.519659 412.09751 598.311981 314.093427 538.427538 229.105579 C 478.484595 144.126188 403.214494 71.276381 325.726971 2.091574 C 356.67843 65.820208 342.297268 143.985413 306.789576 205.317094 C 271.273429 266.590275 217.4873 314.678114 165.423038 362.696209 C 113.283362 410.605761 61.022411 460.981461 29.982501 524.713126 C -4.006475 594.485006 -40.805744 783.630075 119.818611 911.089956 C 132.58902 809.3881 139.695635 775.095425 170.904774 707.576787 C 202.12237 640.11665 250.977787 582.708232 292.921859 521.28223 C 334.815886 459.923185 370.978511 390.314864 370.687449 316.002604 C 375.322613 373.681295 355.99123 430.823159 329.821127 482.384158 C 303.600982 534.012115 270.511773 581.914987 244.525627 633.509116 C 197.410409 726.917445 162.180447 859.577197 162.304267 1199.618406 C 163.59979 1159.417147 178.018289 1118.692463 200.522313 1084.323965 C 203.782185 1079.194378 207.31834 1074.323464 210.921452 1069.502594 C 213.582199 1066.012397 216.418445 1062.496831 219.213106 1059.106721 C 263.67039 1005.977155 324.873078 969.119994 385.277165 934.588006 C 449.4725 897.776012 515.791441 861.194534 564.875885 805.783568 C 633.80978 728.212872 661.572469 619.088186 652.104564 515.584391 Z M 652.104564 515.584391 " stroke="#ffffff" stroke-width="1" stroke-opacity="1" stroke-miterlimit="10"/></g></g></g><g clip-path="url(#f5b793d6ee)"><g clip-path="url(#73792e1200)"><g clip-path="url(#6844a7aae0)"><path fill="#83e09e" d="M 17.480469 117.105469 C 19.101562 124.679688 25.691406 130.367188 32.882812 133.21875 C 40.074219 136.085938 47.941406 136.644531 55.617188 137.582031 C 63.304688 138.515625 71.199219 139.957031 77.628906 144.273438 C 83.226562 148.019531 87.285156 153.65625 90.636719 159.492188 C 94.734375 166.566406 97.988281 174.4375 98.652344 182.476562 C 95.101562 178.988281 91.109375 175.914062 86.921875 173.234375 C 78.683594 167.957031 69.664062 164.0625 60.691406 160.183594 C 50.207031 155.65625 39.734375 151.140625 29.246094 146.613281 C 42.714844 157.34375 59.105469 163.613281 74.226562 171.847656 C 89.347656 180.09375 104.078125 191.371094 109.988281 207.550781 C 105.773438 199.785156 96.449219 196.203125 87.648438 195.371094 C 78.847656 194.539062 69.933594 195.800781 61.167969 194.746094 C 44.578125 192.753906 29.3125 181.890625 22.003906 166.859375 C 14.609375 151.660156 15.3125 133.863281 17.480469 117.105469 Z M 17.480469 117.105469 " fill-opacity="1" fill-rule="nonzero"/></g></g></g><g clip-path="url(#485d5005e3)"><g clip-path="url(#0af1d2c5ab)"><g clip-path="url(#571e835c0a)"><g clip-path="url(#da4994c320)"><path fill="#83e09e" d="M 53.378906 102.148438 L 96.390625 201.742188 L 171.414062 169.347656 L 128.40625 69.75 Z M 53.378906 102.148438 " fill-opacity="1" fill-rule="nonzero"/></g></g></g></g><g clip-path="url(#de6cd09a37)"><g clip-path="url(#524ac642a9)"><g clip-path="url(#b0b1b16ba0)"><path fill="#83e09e" d="M 327.5625 45.195312 L 322.902344 47.582031 L 320.027344 49.199219 L 318.347656 50.300781 L 316.730469 51.46875 L 315.183594 52.703125 L 313.699219 54.007812 L 312.285156 55.371094 L 310.941406 56.800781 L 309.671875 58.289062 L 308.476562 59.847656 L 307.152344 61.765625 L 305.9375 63.773438 L 304.835938 65.855469 L 303.847656 68.011719 L 302.636719 71.125 L 302.152344 72.574219 L 301.742188 73.988281 L 301.390625 75.382812 L 301.117188 76.75 L 300.902344 78.132812 L 300.753906 79.484375 L 300.679688 80.855469 L 300.667969 82.207031 L 300.71875 83.53125 L 300.839844 84.835938 L 301.023438 86.121094 L 301.273438 87.378906 L 301.578125 88.613281 L 301.957031 89.828125 L 302.640625 91.582031 L 304.335938 95.546875 L 305.386719 98.117188 L 305.671875 99.050781 L 305.832031 100.066406 L 305.867188 101.171875 L 305.773438 102.351562 L 305.550781 103.597656 L 305.210938 104.941406 L 304.746094 106.414062 L 304.050781 108.363281 L 303.902344 108.757812 L 303.902344 108.867188 L 303.992188 108.933594 L 304.867188 109.242188 L 305.710938 109.605469 L 307.09375 110.367188 L 307.121094 110.378906 L 307.21875 110.363281 L 307.265625 110.273438 L 307.425781 109.167969 L 308.671875 104.113281 L 309.675781 100.480469 L 310.109375 99.207031 L 310.621094 98.105469 L 311.214844 97.144531 L 311.921875 96.28125 L 312.515625 95.714844 L 313.160156 95.214844 L 313.871094 94.757812 L 314.6875 94.320312 L 315.582031 93.921875 L 316.613281 93.53125 L 319.550781 92.589844 L 322.398438 91.65625 L 324.882812 90.683594 L 327.175781 89.609375 L 329.339844 88.394531 L 331.28125 87.117188 L 333.167969 85.683594 L 334.699219 84.335938 L 336.113281 82.878906 L 337.019531 81.804688 L 337.847656 80.699219 L 338.625 79.550781 L 339.359375 78.320312 L 340.035156 77.046875 L 340.667969 75.695312 L 341.242188 74.304688 L 341.777344 72.832031 L 342.25 71.339844 L 342.683594 69.773438 L 343.460938 66.320312 L 344.121094 62.433594 L 344.84375 57.074219 L 345.335938 53.304688 L 345.746094 50.5625 L 346.167969 48.28125 L 346.679688 46.023438 L 347.289062 43.800781 L 347.992188 41.617188 L 349.148438 38.574219 L 350.492188 35.59375 L 351.992188 32.628906 L 352.015625 32.535156 L 351.914062 32.550781 L 347.34375 34.902344 L 341.132812 38.183594 L 333.324219 42.292969 Z M 332.648438 59.960938 L 330.691406 61.898438 L 328.753906 63.960938 L 326.859375 66.105469 L 325 68.359375 L 323.207031 70.679688 L 321.472656 73.070312 L 319.832031 75.496094 L 318.304688 77.914062 L 317.054688 80.066406 L 315.84375 82.375 L 314.6875 84.796875 L 313.617188 87.277344 L 312.621094 89.84375 L 311.722656 92.421875 L 310.929688 94.984375 L 310.261719 97.511719 L 310.222656 97.527344 L 310.214844 97.519531 L 310.121094 97.378906 L 310.09375 97.257812 L 310.890625 92.167969 L 311.625 88.476562 L 312.320312 85.976562 L 313.238281 83.460938 L 314.386719 80.914062 L 315.75 78.371094 L 317.335938 75.816406 L 319.125 73.289062 L 321.117188 70.78125 L 323.269531 68.351562 L 324.691406 66.886719 L 326.390625 65.25 L 331.109375 60.996094 L 332.257812 59.976562 L 332.429688 59.867188 L 332.585938 59.839844 L 332.609375 59.839844 L 332.628906 59.847656 L 332.667969 59.902344 Z M 332.648438 59.960938 " fill-opacity="1" fill-rule="nonzero"/></g></g></g><g clip-path="url(#3c64a582b7)"><g clip-path="url(#7f25406bd2)"><g clip-path="url(#f65dc130ed)"><path fill="#83e09e" d="M 446.421875 45.410156 L 443.652344 54.011719 L 442.121094 59.5 L 441.414062 62.898438 L 440.871094 66.296875 L 440.492188 69.695312 L 440.273438 73.101562 L 440.21875 76.492188 L 440.324219 79.878906 L 440.597656 83.25 L 441.039062 86.613281 L 441.769531 90.574219 L 442.742188 94.503906 L 443.9375 98.394531 L 445.367188 102.234375 L 447.695312 107.515625 L 448.878906 109.878906 L 450.101562 112.101562 L 451.386719 114.234375 L 452.71875 116.234375 L 454.144531 118.1875 L 455.621094 120.019531 L 457.203125 121.785156 L 458.835938 123.445312 L 460.519531 125 L 462.261719 126.445312 L 464.054688 127.789062 L 465.902344 129.019531 L 467.78125 130.148438 L 469.730469 131.167969 L 472.707031 132.476562 L 479.621094 135.242188 L 484.042969 137.097656 L 485.535156 137.882812 L 486.972656 138.925781 L 488.367188 140.238281 L 489.691406 141.789062 L 490.945312 143.578125 L 492.175781 145.636719 L 493.402344 148 L 494.9375 151.230469 L 495.238281 151.890625 L 495.371094 152.027344 L 495.566406 152 L 497.007812 151.308594 L 498.488281 150.71875 L 501.101562 149.953125 L 501.148438 149.9375 L 501.25 149.800781 L 501.199219 149.632812 L 500.039062 148.085938 L 495.382812 140.394531 L 492.171875 134.734375 L 491.140625 132.652344 L 490.421875 130.683594 L 489.96875 128.785156 L 489.777344 126.867188 L 489.808594 125.449219 L 489.984375 124.050781 L 490.289062 122.621094 L 490.757812 121.089844 L 491.363281 119.511719 L 492.144531 117.777344 L 494.578125 113.035156 L 496.90625 108.417969 L 498.753906 104.1875 L 500.234375 100.078125 L 501.394531 95.953125 L 502.203125 92.023438 L 502.753906 87.960938 L 502.976562 84.445312 L 502.917969 80.9375 L 502.707031 78.523438 L 502.371094 76.15625 L 501.914062 73.804688 L 501.308594 71.410156 L 500.578125 69.03125 L 499.699219 66.605469 L 498.695312 64.207031 L 497.550781 61.757812 L 496.308594 59.359375 L 494.917969 56.914062 L 491.644531 51.753906 L 487.699219 46.207031 L 482.03125 38.777344 L 478.027344 33.574219 L 475.175781 29.730469 L 472.898438 26.425781 L 470.769531 23.046875 L 468.796875 19.589844 L 466.976562 16.066406 L 464.671875 10.9375 L 462.671875 5.664062 L 460.878906 0.207031 L 460.789062 0.0625 L 460.6875 0.207031 L 457.980469 8.664062 L 454.414062 20.257812 L 449.910156 34.816406 Z M 470.675781 57.210938 L 470.65625 61.960938 L 470.8125 66.847656 L 471.128906 71.78125 L 471.609375 76.800781 L 472.257812 81.824219 L 473.0625 86.867188 L 474.023438 91.828125 L 475.113281 96.648438 L 476.226562 100.804688 L 477.566406 105.105469 L 479.117188 109.46875 L 480.84375 113.804688 L 482.757812 118.152344 L 484.816406 122.402344 L 486.980469 126.492188 L 489.253906 130.398438 L 489.226562 130.464844 L 489.207031 130.464844 L 488.921875 130.402344 L 488.738281 130.289062 L 483.492188 123.105469 L 479.875 117.703125 L 477.667969 113.804688 L 475.714844 109.609375 L 474 105.101562 L 472.554688 100.328125 L 471.371094 95.269531 L 470.460938 90 L 469.832031 84.507812 L 469.488281 78.90625 L 469.4375 75.382812 L 469.507812 71.3125 L 470.066406 60.351562 L 470.222656 57.703125 L 470.296875 57.363281 L 470.453125 57.132812 L 470.484375 57.109375 L 470.515625 57.09375 L 470.628906 57.109375 Z M 470.675781 57.210938 " fill-opacity="1" fill-rule="nonzero"/></g></g></g></svg>