<svg xmlns="http://www.w3.org/2000/svg" xmlns:xlink="http://www.w3.org/1999/xlink" width="1381" zoomAndPan="magnify" viewBox="0 0 1035.75 299.999988" height="400" preserveAspectRatio="xMidYMid meet" version="1.0"><defs><g/><clipPath id="86aa40f8d0"><path d="M 909 150 L 1023 150 L 1023 215 L 909 215 Z M 909 150 " clip-rule="nonzero"/></clipPath><clipPath id="5247d5f0c6"><path d="M 940.355469 84.472656 L 1035.082031 160.320312 L 960.082031 253.992188 L 865.355469 178.148438 Z M 940.355469 84.472656 " clip-rule="nonzero"/></clipPath><clipPath id="6f42aa0fa2"><path d="M 940.355469 84.472656 L 1035.082031 160.320312 L 960.082031 253.992188 L 865.355469 178.148438 Z M 940.355469 84.472656 " clip-rule="nonzero"/></clipPath><clipPath id="ab9597c7df"><path d="M 906 97 L 949 97 L 949 192 L 906 192 Z M 906 97 " clip-rule="nonzero"/></clipPath><clipPath id="9aef9561ef"><path d="M 940.355469 84.472656 L 1035.082031 160.320312 L 960.082031 253.992188 L 865.355469 178.148438 Z M 940.355469 84.472656 " clip-rule="nonzero"/></clipPath><clipPath id="db408b0cbb"><path d="M 940.355469 84.472656 L 1035.082031 160.320312 L 960.082031 253.992188 L 865.355469 178.148438 Z M 940.355469 84.472656 " clip-rule="nonzero"/></clipPath><clipPath id="69eeb52290"><path d="M 945.46875 97.875 C 940.988281 101.644531 939.527344 108.058594 940.171875 113.871094 C 940.816406 119.679688 943.222656 125.132812 945.320312 130.597656 C 947.417969 136.0625 949.25 141.832031 948.660156 147.660156 C 948.144531 152.726562 945.816406 157.425781 943.105469 161.742188 C 939.828125 166.960938 935.726562 171.933594 930.589844 175.222656 C 931.65625 171.621094 932.300781 167.863281 932.597656 164.117188 C 933.199219 156.753906 932.609375 149.351562 932.011719 141.996094 C 931.316406 133.394531 930.628906 124.800781 929.929688 116.199219 C 927.53125 128.988281 929.164062 142.140625 929.023438 155.164062 C 928.886719 168.179688 926.578125 182.003906 917.867188 191.679688 C 921.558594 186.121094 920.644531 178.628906 918.089844 172.460938 C 915.53125 166.292969 911.527344 160.796875 909.117188 154.5625 C 904.589844 142.757812 906.425781 128.726562 913.863281 118.519531 C 921.390625 108.203125 933.519531 102.378906 945.46875 97.875 Z M 945.46875 97.875 " clip-rule="nonzero"/></clipPath><clipPath id="6b00e7b5ac"><path d="M 202 22 L 298 22 L 298 120 L 202 120 Z M 202 22 " clip-rule="nonzero"/></clipPath><clipPath id="82f9a5ab5f"><path d="M 202.851562 22.082031 L 301.1875 26.328125 L 297.117188 120.621094 L 198.78125 116.378906 Z M 202.851562 22.082031 " clip-rule="nonzero"/></clipPath><clipPath id="d58befec0b"><path d="M 202.851562 22.082031 L 301.1875 26.328125 L 297.117188 120.621094 L 198.78125 116.378906 Z M 202.851562 22.082031 " clip-rule="nonzero"/></clipPath><clipPath id="9d12f7cc82"><path d="M 958 92 L 1030 92 L 1030 147 L 958 147 Z M 958 92 " clip-rule="nonzero"/></clipPath><clipPath id="457271363e"><path d="M 1032.007812 99.792969 L 983.660156 164.65625 L 950.144531 139.675781 L 998.496094 74.8125 Z M 1032.007812 99.792969 " clip-rule="nonzero"/></clipPath><clipPath id="97cdd5f3f6"><path d="M 1032.007812 99.792969 L 983.660156 164.65625 L 950.144531 139.675781 L 998.496094 74.8125 Z M 1032.007812 99.792969 " clip-rule="nonzero"/></clipPath><clipPath id="3be855b0fa"><path d="M 501 72 L 547 72 L 547 150 L 501 150 Z M 501 72 " clip-rule="nonzero"/></clipPath><clipPath id="cf631d6e45"><path d="M 505.589844 69.296875 L 550.960938 75.855469 L 539.578125 154.589844 L 494.207031 148.03125 Z M 505.589844 69.296875 " clip-rule="nonzero"/></clipPath><clipPath id="efa223b28c"><path d="M 505.589844 69.296875 L 550.960938 75.855469 L 539.578125 154.589844 L 494.207031 148.03125 Z M 505.589844 69.296875 " clip-rule="nonzero"/></clipPath><clipPath id="1e3d42627c"><path d="M 546.074219 109.578125 C 546.425781 102.71875 544.460938 95.890625 541.347656 89.765625 C 538.234375 83.640625 533.996094 78.164062 529.582031 72.90625 C 531.007812 77.367188 529.324219 82.34375 526.425781 86.019531 C 523.523438 89.691406 519.550781 92.328125 515.6875 94.976562 C 511.828125 97.617188 507.929688 100.417969 505.300781 104.292969 C 502.414062 108.535156 498.222656 120.558594 507.519531 130.414062 C 509.320312 123.882812 510.105469 121.707031 512.785156 117.585938 C 515.464844 113.46875 519.207031 110.175781 522.527344 106.554688 C 525.847656 102.9375 528.875 98.726562 529.558594 93.863281 C 529.3125 97.679688 527.511719 101.234375 525.308594 104.359375 C 523.105469 107.488281 520.488281 110.308594 518.300781 113.4375 C 514.335938 119.101562 510.78125 127.445312 507.570312 149.6875 C 508.035156 147.070312 509.363281 144.542969 511.160156 142.507812 C 511.425781 142.203125 511.699219 141.917969 511.980469 141.636719 C 512.191406 141.433594 512.40625 141.230469 512.621094 141.035156 C 516.035156 137.980469 520.386719 136.148438 524.664062 134.460938 C 529.210938 132.660156 533.894531 130.894531 537.628906 127.734375 C 542.867188 123.3125 545.71875 116.4375 546.074219 109.578125 Z M 546.074219 109.578125 " clip-rule="nonzero"/></clipPath><linearGradient x1="2460.78" gradientTransform="matrix(-0.0654068, -0.00945512, -0.00945512, 0.0654068, 690.651597, 96.050356)" y1="-34.366486" x2="2460.78" gradientUnits="userSpaceOnUse" y2="1219.843313" id="573681e6b6"><stop stop-opacity="1" stop-color="rgb(50.932312%, 85.066223%, 60.154724%)" offset="0"/><stop stop-opacity="1" stop-color="rgb(50.904846%, 84.906006%, 60.046387%)" offset="0.25"/><stop stop-opacity="1" stop-color="rgb(50.849915%, 84.585571%, 59.829712%)" offset="0.5"/><stop stop-opacity="1" stop-color="rgb(50.794983%, 84.265137%, 59.613037%)" offset="0.75"/><stop stop-opacity="1" stop-color="rgb(50.740051%, 83.943176%, 59.396362%)" offset="1"/></linearGradient><clipPath id="6e415d6711"><path d="M 500 71 L 548 71 L 548 151 L 500 151 Z M 500 71 " clip-rule="nonzero"/></clipPath><clipPath id="5cfce6f06d"><path d="M 505.589844 69.296875 L 550.960938 75.855469 L 539.578125 154.589844 L 494.207031 148.03125 Z M 505.589844 69.296875 " clip-rule="nonzero"/></clipPath><clipPath id="b1a5b04fff"><path d="M 505.589844 69.296875 L 550.960938 75.855469 L 539.578125 154.589844 L 494.207031 148.03125 Z M 505.589844 69.296875 " clip-rule="nonzero"/></clipPath><clipPath id="7c30dfb641"><path d="M 15 117 L 110 117 L 110 208 L 15 208 Z M 15 117 " clip-rule="nonzero"/></clipPath><clipPath id="fbd789bcff"><path d="M 2.421875 123.59375 L 115.066406 74.949219 L 162.636719 185.117188 L 49.992188 233.761719 Z M 2.421875 123.59375 " clip-rule="nonzero"/></clipPath><clipPath id="b5d5260b4c"><path d="M 114.621094 75.140625 L 1.976562 123.785156 L 49.550781 233.953125 L 162.191406 185.3125 Z M 114.621094 75.140625 " clip-rule="nonzero"/></clipPath><clipPath id="d8b2716466"><path d="M 89 86 L 134 86 L 134 185 L 89 185 Z M 89 86 " clip-rule="nonzero"/></clipPath><clipPath id="198ee8d7dc"><path d="M 2.421875 123.59375 L 115.066406 74.949219 L 162.636719 185.117188 L 49.992188 233.761719 Z M 2.421875 123.59375 " clip-rule="nonzero"/></clipPath><clipPath id="89dffed212"><path d="M 114.621094 75.140625 L 1.976562 123.785156 L 49.550781 233.953125 L 162.191406 185.3125 Z M 114.621094 75.140625 " clip-rule="nonzero"/></clipPath><clipPath id="dfa484bd7e"><path d="M 106.128906 86.742188 C 109.460938 91.574219 109.171875 98.164062 107.011719 103.609375 C 104.851562 109.058594 101.074219 113.691406 97.601562 118.417969 C 94.128906 123.144531 90.824219 128.238281 89.851562 134.03125 C 89.007812 139.066406 90.015625 144.226562 91.488281 149.117188 C 93.277344 155.03125 95.925781 160.925781 100.019531 165.464844 C 99.941406 161.699219 100.316406 157.898438 101.019531 154.199219 C 102.390625 146.917969 104.921875 139.921875 107.445312 132.964844 C 110.402344 124.832031 113.34375 116.707031 116.296875 108.578125 C 115.226562 121.578125 110.160156 133.859375 106.847656 146.488281 C 103.53125 159.109375 102.101562 173.085938 107.957031 184.75 C 105.863281 178.394531 108.730469 171.394531 112.835938 166.109375 C 116.941406 160.824219 122.273438 156.570312 126.253906 151.183594 C 133.757812 140.96875 135.703125 126.914062 131.214844 115.078125 C 126.671875 103.109375 116.488281 94.261719 106.128906 86.742188 Z M 106.128906 86.742188 " clip-rule="nonzero"/></clipPath><clipPath id="66ebc6f46e"><path d="M 300 32 L 352 32 L 352 111 L 300 111 Z M 300 32 " clip-rule="nonzero"/></clipPath><clipPath id="d0625f583d"><path d="M 287.792969 50.132812 L 351.515625 32.671875 L 368.261719 93.789062 L 304.542969 111.25 Z M 287.792969 50.132812 " clip-rule="nonzero"/></clipPath><clipPath id="4937510242"><path d="M 352 32.539062 L 288.28125 50 L 305.03125 111.117188 L 368.75 93.65625 Z M 352 32.539062 " clip-rule="nonzero"/></clipPath><clipPath id="3fe8d86e2a"><path d="M 440 0.0351562 L 503 0.0351562 L 503 153 L 440 153 Z M 440 0.0351562 " clip-rule="nonzero"/></clipPath><clipPath id="e14a57ea91"><path d="M 403.933594 99.984375 L 460.597656 0.367188 L 555.53125 54.363281 L 498.867188 153.984375 Z M 403.933594 99.984375 " clip-rule="nonzero"/></clipPath><clipPath id="047fcf6f17"><path d="M 460.785156 0.0351562 L 404.121094 99.65625 L 499.054688 153.652344 L 555.71875 54.035156 Z M 460.785156 0.0351562 " clip-rule="nonzero"/></clipPath><clipPath id="85d731ba38"><path d="M 630 74 L 744 74 L 744 141 L 630 141 Z M 630 74 " clip-rule="nonzero"/></clipPath><clipPath id="10ad86551d"><path d="M 630.367188 77.328125 L 721.617188 53.214844 L 744.351562 139.253906 L 653.101562 163.363281 Z M 630.367188 77.328125 " clip-rule="nonzero"/></clipPath><clipPath id="e58f446d5f"><path d="M 630.367188 77.328125 L 721.617188 53.214844 L 744.351562 139.253906 L 653.101562 163.363281 Z M 630.367188 77.328125 " clip-rule="nonzero"/></clipPath><clipPath id="022f9ca289"><path d="M 734 58 L 811 58 L 811 139 L 734 139 Z M 734 58 " clip-rule="nonzero"/></clipPath><clipPath id="a68c84854b"><path d="M 719.265625 87.648438 L 807.992188 51.707031 L 829.253906 104.191406 L 740.523438 140.132812 Z M 719.265625 87.648438 " clip-rule="nonzero"/></clipPath><clipPath id="9c60654914"><path d="M 719.265625 87.648438 L 807.992188 51.707031 L 829.253906 104.191406 L 740.523438 140.132812 Z M 719.265625 87.648438 " clip-rule="nonzero"/></clipPath></defs><g fill="#fff4ce" fill-opacity="1"><g transform="translate(92.677427, 265.797699)"><g><path d="M 74.78125 -37.390625 L 45.4375 -37.390625 C 46.113281 -39.304688 46.765625 -41.222656 47.390625 -43.140625 C 48.015625 -45.054688 48.613281 -46.925781 49.1875 -48.75 C 49.851562 -50.664062 50.472656 -52.507812 51.046875 -54.28125 C 51.628906 -56.0625 52.253906 -57.863281 52.921875 -59.6875 C 53.492188 -61.40625 54.066406 -63.148438 54.640625 -64.921875 C 55.222656 -66.703125 55.800781 -68.503906 56.375 -70.328125 C 56.945312 -72.148438 57.546875 -73.96875 58.171875 -75.78125 C 58.796875 -77.601562 59.394531 -79.425781 59.96875 -81.25 Z M 10.5 0 L 34.515625 0 L 39.546875 -16.25 L 80.390625 -16.25 L 84.125 0 L 109.578125 0 L 68.171875 -104.84375 L 51.921875 -104.84375 Z M 10.5 0 "/></g></g></g><g fill="#fff4ce" fill-opacity="1"><g transform="translate(212.757034, 265.797699)"><g><path d="M 12.375 0 L 74.0625 0 L 74.0625 -23.578125 L 52.34375 -23.578125 L 52.34375 -103.109375 L 36.390625 -103.109375 L 10.5 -97.9375 L 10.5 -80.53125 L 34.078125 -85.140625 L 34.078125 -23.578125 L 12.375 -23.578125 Z M 12.375 0 "/></g></g></g><g fill="#fff4ce" fill-opacity="1"><g transform="translate(297.316094, 265.797699)"><g><path d="M 12.375 0 L 74.0625 0 L 74.0625 -23.578125 L 52.34375 -23.578125 L 52.34375 -103.109375 L 36.390625 -103.109375 L 10.5 -97.9375 L 10.5 -80.53125 L 34.078125 -85.140625 L 34.078125 -23.578125 L 12.375 -23.578125 Z M 12.375 0 "/></g></g></g><g fill="#fff4ce" fill-opacity="1"><g transform="translate(381.875154, 265.797699)"><g><path d="M 89.875 -78.671875 L 71.625 -78.671875 L 53.0625 -38.828125 L 28.765625 -78.671875 L 10.5 -78.671875 C 11.84375 -75.890625 13.179688 -73.082031 14.515625 -70.25 C 15.859375 -67.425781 17.203125 -64.523438 18.546875 -61.546875 C 21.328125 -55.703125 24.109375 -49.78125 26.890625 -43.78125 C 29.671875 -37.789062 32.40625 -31.828125 35.09375 -25.890625 C 36.4375 -22.910156 37.800781 -20.003906 39.1875 -17.171875 C 40.582031 -14.347656 41.898438 -11.546875 43.140625 -8.765625 C 42.753906 -8.003906 42.367188 -7.238281 41.984375 -6.46875 C 41.609375 -5.707031 41.226562 -4.941406 40.84375 -4.171875 C 39.882812 -2.535156 39.066406 -1 38.390625 0.4375 C 37.429688 1.675781 36.5 2.773438 35.59375 3.734375 C 34.6875 4.691406 33.800781 5.554688 32.9375 6.328125 C 31.5 7.472656 29.53125 8.046875 27.03125 8.046875 L 15.96875 8.046875 L 15.96875 29.1875 L 29.484375 29.1875 C 33.503906 29.1875 37.070312 28.5625 40.1875 27.3125 C 43.3125 26.070312 46.257812 23.722656 49.03125 20.265625 C 51.8125 16.816406 54.644531 11.785156 57.53125 5.171875 Z M 89.875 -78.671875 "/></g></g></g><g fill="#fff4ce" fill-opacity="1"><g transform="translate(482.253084, 265.797699)"><g/></g></g><g fill="#fff4ce" fill-opacity="1"><g transform="translate(538.482008, 265.797699)"><g><path d="M 78.09375 -73.484375 C 78.09375 -83.929688 75.023438 -91.796875 68.890625 -97.078125 C 63.035156 -102.253906 54.597656 -104.84375 43.578125 -104.84375 L 10.5 -104.84375 L 10.5 0 L 31.921875 0 L 31.921875 -42 L 39.265625 -42 C 42.421875 -42 45.101562 -41.613281 47.3125 -40.84375 C 49.519531 -40.070312 51.535156 -38.628906 53.359375 -36.515625 C 55.179688 -34.410156 57.097656 -31.25 59.109375 -27.03125 L 59.109375 -27.1875 L 69.75 0 L 95.0625 0 C 94.007812 -2.207031 92.785156 -4.648438 91.390625 -7.328125 C 90.003906 -10.015625 88.640625 -12.703125 87.296875 -15.390625 C 85.859375 -18.171875 84.46875 -20.925781 83.125 -23.65625 C 81.78125 -26.382812 80.535156 -28.851562 79.390625 -31.0625 C 77.273438 -35.28125 75.140625 -38.898438 72.984375 -41.921875 C 70.828125 -44.941406 68.550781 -47.363281 66.15625 -49.1875 C 69.988281 -51.488281 72.9375 -54.695312 75 -58.8125 C 77.0625 -62.9375 78.09375 -67.828125 78.09375 -73.484375 Z M 30.625 -92.46875 L 45.015625 -92.46875 C 47.984375 -92.46875 50.859375 -91.914062 53.640625 -90.8125 C 56.421875 -89.707031 58.722656 -87.789062 60.546875 -85.0625 C 62.367188 -82.332031 63.28125 -78.472656 63.28125 -73.484375 C 63.28125 -71.472656 62.390625 -69.507812 60.609375 -67.59375 C 58.835938 -65.675781 56.5625 -64.117188 53.78125 -62.921875 C 51 -61.722656 48.078125 -61.125 45.015625 -61.125 L 30.625 -61.125 Z M 30.625 -92.46875 "/></g></g></g><g fill="#fff4ce" fill-opacity="1"><g transform="translate(644.037027, 265.797699)"><g><path d="M 46.890625 -66.296875 C 52.347656 -66.296875 56.753906 -64.113281 60.109375 -59.75 C 63.460938 -55.382812 65.140625 -49.273438 65.140625 -41.421875 C 65.140625 -34.035156 63.65625 -29.289062 60.6875 -27.1875 C 59.0625 -26.226562 57.070312 -25.484375 54.71875 -24.953125 C 52.375 -24.421875 49.765625 -24.15625 46.890625 -24.15625 C 42.859375 -24.15625 39.472656 -24.539062 36.734375 -25.3125 C 34.003906 -26.082031 31.941406 -27.6875 30.546875 -30.125 C 29.160156 -32.570312 28.46875 -36.335938 28.46875 -41.421875 C 28.46875 -49.273438 30.144531 -55.382812 33.5 -59.75 C 36.863281 -64.113281 41.328125 -66.296875 46.890625 -66.296875 Z M 46.890625 -80.390625 C 35.378906 -80.390625 26.460938 -76.695312 20.140625 -69.3125 C 13.710938 -62.03125 10.5 -52.015625 10.5 -39.265625 C 10.5 -26.515625 13.710938 -16.492188 20.140625 -9.203125 C 26.460938 -1.816406 35.378906 1.875 46.890625 1.875 C 54.359375 1.875 60.800781 0.195312 66.21875 -3.15625 C 71.632812 -6.519531 75.804688 -11.269531 78.734375 -17.40625 C 81.660156 -23.539062 83.125 -30.828125 83.125 -39.265625 C 83.125 -47.703125 81.660156 -54.988281 78.734375 -61.125 C 75.804688 -67.257812 71.632812 -72.003906 66.21875 -75.359375 C 60.800781 -78.710938 54.359375 -80.390625 46.890625 -80.390625 Z M 46.890625 -80.390625 "/></g></g></g><g fill="#fff4ce" fill-opacity="1"><g transform="translate(737.655982, 265.797699)"><g><path d="M 46.890625 -66.296875 C 52.347656 -66.296875 56.753906 -64.113281 60.109375 -59.75 C 63.460938 -55.382812 65.140625 -49.273438 65.140625 -41.421875 C 65.140625 -34.035156 63.65625 -29.289062 60.6875 -27.1875 C 59.0625 -26.226562 57.070312 -25.484375 54.71875 -24.953125 C 52.375 -24.421875 49.765625 -24.15625 46.890625 -24.15625 C 42.859375 -24.15625 39.472656 -24.539062 36.734375 -25.3125 C 34.003906 -26.082031 31.941406 -27.6875 30.546875 -30.125 C 29.160156 -32.570312 28.46875 -36.335938 28.46875 -41.421875 C 28.46875 -49.273438 30.144531 -55.382812 33.5 -59.75 C 36.863281 -64.113281 41.328125 -66.296875 46.890625 -66.296875 Z M 46.890625 -80.390625 C 35.378906 -80.390625 26.460938 -76.695312 20.140625 -69.3125 C 13.710938 -62.03125 10.5 -52.015625 10.5 -39.265625 C 10.5 -26.515625 13.710938 -16.492188 20.140625 -9.203125 C 26.460938 -1.816406 35.378906 1.875 46.890625 1.875 C 54.359375 1.875 60.800781 0.195312 66.21875 -3.15625 C 71.632812 -6.519531 75.804688 -11.269531 78.734375 -17.40625 C 81.660156 -23.539062 83.125 -30.828125 83.125 -39.265625 C 83.125 -47.703125 81.660156 -54.988281 78.734375 -61.125 C 75.804688 -67.257812 71.632812 -72.003906 66.21875 -75.359375 C 60.800781 -78.710938 54.359375 -80.390625 46.890625 -80.390625 Z M 46.890625 -80.390625 "/></g></g></g><g fill="#fff4ce" fill-opacity="1"><g transform="translate(831.27498, 265.797699)"><g><path d="M 20.140625 -96.78125 L 19.421875 -78.671875 L 10.5 -78.671875 L 10.5 -64 L 19.421875 -64 L 18.703125 -26.890625 C 18.703125 -16.921875 20.859375 -9.945312 25.171875 -5.96875 C 29.484375 -1.988281 36.625 0 46.59375 0 L 61.546875 0 L 61.546875 -23.15625 L 46.59375 -23.15625 C 42.28125 -23.15625 39.597656 -23.773438 38.546875 -25.015625 C 37.296875 -26.171875 36.671875 -29.382812 36.671875 -34.65625 L 37.390625 -64 L 54.359375 -64 L 54.359375 -78.671875 L 37.53125 -78.671875 L 38.109375 -96.78125 Z M 20.140625 -96.78125 "/></g></g></g><g clip-path="url(#86aa40f8d0)"><g clip-path="url(#5247d5f0c6)"><g clip-path="url(#6f42aa0fa2)"><path fill="#83e09e" d="M 1022.785156 150.472656 C 1019.230469 157.332031 1011.390625 161.066406 1003.722656 161.914062 C 996.042969 162.773438 988.332031 161.234375 980.699219 160.113281 C 973.058594 158.984375 965.082031 158.292969 957.761719 160.746094 C 951.386719 162.875 945.992188 167.226562 941.230469 171.957031 C 935.421875 177.6875 930.214844 184.398438 927.460938 191.957031 C 931.792969 189.539062 936.445312 187.632812 941.183594 186.160156 C 950.496094 183.253906 960.203125 181.882812 969.855469 180.519531 C 981.136719 178.929688 992.402344 177.34375 1003.6875 175.757812 C 987.902344 182.53125 970.480469 184.238281 953.761719 188.175781 C 937.035156 192.117188 919.890625 199.085938 909.941406 213.09375 C 916.042969 206.730469 925.960938 205.742188 934.644531 207.265625 C 943.332031 208.785156 951.574219 212.347656 960.285156 213.648438 C 976.769531 216.101562 994.320312 209.675781 1005.316406 197.144531 C 1016.4375 184.472656 1020.457031 167.164062 1022.785156 150.472656 Z M 1022.785156 150.472656 " fill-opacity="1" fill-rule="nonzero"/></g></g></g><g clip-path="url(#ab9597c7df)"><g clip-path="url(#9aef9561ef)"><g clip-path="url(#db408b0cbb)"><g clip-path="url(#69eeb52290)"><path fill="#83e09e" d="M 995.015625 134.519531 L 931.804688 213.472656 L 858.820312 155.035156 L 922.035156 76.085938 Z M 995.015625 134.519531 " fill-opacity="1" fill-rule="nonzero"/></g></g></g></g><g clip-path="url(#6b00e7b5ac)"><g clip-path="url(#82f9a5ab5f)"><g clip-path="url(#d58befec0b)"><path fill="#83e09e" d="M 242.398438 32.296875 L 249.914062 34.207031 L 254.601562 35.597656 L 257.390625 36.632812 L 260.109375 37.785156 L 262.753906 39.058594 L 265.328125 40.453125 L 267.816406 41.960938 L 270.230469 43.582031 L 272.558594 45.316406 L 274.800781 47.167969 L 277.347656 49.507812 L 279.757812 52.007812 L 282.039062 54.648438 L 284.179688 57.441406 L 286.957031 61.539062 L 288.132812 63.476562 L 289.191406 65.378906 L 290.15625 67.285156 L 291 69.167969 L 291.769531 71.089844 L 292.429688 73 L 292.988281 74.953125 L 293.453125 76.898438 L 293.816406 78.832031 L 294.070312 80.757812 L 294.230469 82.671875 L 294.285156 84.574219 L 294.246094 86.457031 L 294.097656 88.335938 L 293.691406 91.097656 L 292.546875 97.382812 L 291.878906 101.445312 L 291.773438 102.882812 L 291.878906 104.40625 L 292.191406 106.015625 L 292.714844 107.6875 L 293.445312 109.414062 L 294.378906 111.246094 L 295.535156 113.214844 L 297.1875 115.804688 L 297.53125 116.324219 L 297.566406 116.484375 L 297.460938 116.613281 L 296.296875 117.34375 L 295.195312 118.148438 L 293.449219 119.703125 L 293.414062 119.730469 L 293.269531 119.738281 L 293.171875 119.628906 L 292.574219 118.078125 L 289.109375 111.1875 L 286.457031 106.273438 L 285.414062 104.574219 L 284.3125 103.152344 L 283.136719 101.960938 L 281.832031 100.945312 L 280.789062 100.320312 L 279.691406 99.8125 L 278.511719 99.382812 L 277.1875 99.023438 L 275.761719 98.742188 L 274.148438 98.519531 L 269.589844 98.128906 L 265.171875 97.714844 L 261.257812 97.128906 L 257.59375 96.332031 L 254.070312 95.292969 L 250.84375 94.089844 L 247.640625 92.636719 L 244.984375 91.195312 L 242.460938 89.554688 L 240.800781 88.300781 L 239.234375 86.980469 L 237.734375 85.574219 L 236.269531 84.042969 L 234.875 82.425781 L 233.511719 80.683594 L 232.226562 78.859375 L 230.96875 76.910156 L 229.789062 74.910156 L 228.648438 72.785156 L 226.390625 68.054688 L 224.15625 62.660156 L 221.34375 55.152344 L 219.386719 49.867188 L 217.890625 46.046875 L 216.53125 42.882812 L 215.046875 39.792969 L 213.433594 36.785156 L 211.699219 33.855469 L 209.027344 29.84375 L 206.105469 25.984375 L 202.957031 22.195312 L 202.890625 22.0625 L 203.042969 22.054688 L 210.421875 23.941406 L 220.476562 26.636719 L 233.109375 30 Z M 239.914062 55.304688 L 243.378906 57.457031 L 246.859375 59.796875 L 250.300781 62.277344 L 253.730469 64.914062 L 257.085938 67.675781 L 260.382812 70.5625 L 263.550781 73.519531 L 266.558594 76.511719 L 269.070312 79.214844 L 271.582031 82.148438 L 274.046875 85.265625 L 276.410156 88.496094 L 278.699219 91.871094 L 280.847656 95.304688 L 282.835938 98.742188 L 284.636719 102.175781 L 284.699219 102.183594 L 284.707031 102.171875 L 284.792969 101.9375 L 284.792969 101.75 L 281.964844 94.664062 L 279.6875 89.570312 L 277.859375 86.191406 L 275.703125 82.855469 L 273.207031 79.554688 L 270.398438 76.332031 L 267.261719 73.160156 L 263.84375 70.097656 L 260.140625 67.136719 L 256.226562 64.332031 L 253.691406 62.6875 L 250.699219 60.882812 L 242.480469 56.292969 L 240.484375 55.199219 L 240.203125 55.097656 L 239.960938 55.109375 L 239.929688 55.117188 L 239.902344 55.132812 L 239.867188 55.222656 Z M 239.914062 55.304688 " fill-opacity="1" fill-rule="nonzero"/></g></g></g><g clip-path="url(#9d12f7cc82)"><g clip-path="url(#457271363e)"><g clip-path="url(#97cdd5f3f6)"><path fill="#83e09e" d="M 969.417969 142.195312 C 975.253906 143.023438 986.730469 143.71875 997.929688 137.601562 C 1002.152344 135.296875 1005.242188 132.585938 1006.785156 131.128906 C 1013.007812 125.273438 1014.472656 120.445312 1020.796875 110.660156 C 1022.746094 107.648438 1025.71875 103.296875 1029.769531 98.246094 C 1026.234375 96.339844 1019.988281 93.558594 1011.8125 93.015625 C 1009.320312 92.851562 993.265625 92.03125 980.753906 103.179688 C 972.601562 110.449219 966.191406 122.585938 965.804688 130.949219 C 965.742188 132.328125 965.6875 136.867188 962.953125 141.414062 C 961.582031 143.699219 959.960938 145.277344 958.785156 146.257812 C 959.957031 146.117188 961.695312 145.773438 963.542969 144.8125 C 968.359375 142.3125 969.210938 138.085938 972.980469 132.011719 C 974.660156 129.296875 978.546875 123.152344 984.84375 118.96875 C 989.410156 115.929688 993.960938 114.789062 996.917969 114.300781 C 992.078125 116.085938 988.660156 118.34375 986.476562 120.042969 C 981.261719 124.089844 978.140625 128.738281 973.738281 135.289062 C 971.847656 138.105469 970.394531 140.523438 969.417969 142.195312 Z M 969.417969 142.195312 " fill-opacity="1" fill-rule="nonzero"/></g></g></g><g clip-path="url(#3be855b0fa)"><g clip-path="url(#cf631d6e45)"><g clip-path="url(#efa223b28c)"><g clip-path="url(#1e3d42627c)"><path fill="url(#573681e6b6)" d="M 557.296875 74.476562 L 545.4375 156.511719 L 487.347656 148.113281 L 499.207031 66.082031 Z M 557.296875 74.476562 " fill-rule="nonzero"/></g></g></g></g><g clip-path="url(#6e415d6711)"><g clip-path="url(#5cfce6f06d)"><g clip-path="url(#b1a5b04fff)"><path stroke-linecap="butt" transform="matrix(0.0654068, 0.00945512, -0.00945512, 0.0654068, 508.298666, 69.68966)" fill="none" stroke-linejoin="miter" d="M 652.080202 515.587913 C 642.495297 412.101032 598.287619 314.096949 538.403176 229.109101 C 478.518733 144.121253 403.190132 71.279903 325.702609 2.095095 C 356.712568 65.815273 342.272906 143.988935 306.823714 205.312159 C 271.307567 266.58534 217.521438 314.673179 165.398676 362.699731 C 113.3175 410.600826 60.998049 460.984983 30.016639 524.708191 C -4.030837 594.488528 -40.771606 783.62514 119.794249 911.093478 C 132.623158 809.383166 139.671273 775.098946 170.880413 707.580309 C 202.098008 640.120172 251.011925 582.703297 292.897497 521.285752 C 334.791524 459.926706 371.012649 390.309929 370.721587 315.997669 C 375.298251 373.684817 356.025368 430.818224 329.796766 482.38768 C 303.57662 534.015636 270.487411 581.918508 244.501265 633.512638 C 197.386047 726.920967 162.214585 859.572262 162.279905 1199.621928 C 163.575428 1159.420669 177.993928 1118.695985 200.497951 1084.327486 C 203.816323 1079.189443 207.293978 1074.326986 210.89709 1069.506116 C 213.616337 1066.007463 216.394084 1062.500353 219.188744 1059.110243 C 263.704528 1005.97222 324.907216 969.115059 385.311303 934.583071 C 449.506638 897.771077 515.825579 861.189599 564.910023 805.778633 C 633.785418 728.216393 661.606607 619.083251 652.080202 515.587913 Z M 652.080202 515.587913 " stroke="#ffffff" stroke-width="1" stroke-opacity="1" stroke-miterlimit="10"/></g></g></g><g clip-path="url(#7c30dfb641)"><g clip-path="url(#fbd789bcff)"><g clip-path="url(#b5d5260b4c)"><path fill="#83e09e" d="M 17.441406 117.105469 C 19.058594 124.679688 25.652344 130.367188 32.839844 133.21875 C 40.035156 136.085938 47.898438 136.644531 55.574219 137.582031 C 63.261719 138.515625 71.15625 139.957031 77.585938 144.273438 C 83.183594 148.019531 87.242188 153.65625 90.597656 159.492188 C 94.691406 166.566406 97.949219 174.4375 98.609375 182.476562 C 95.0625 178.988281 91.066406 175.914062 86.878906 173.234375 C 78.644531 167.957031 69.625 164.0625 60.652344 160.183594 C 50.164062 155.65625 39.695312 151.140625 29.207031 146.613281 C 42.671875 157.34375 59.0625 163.613281 74.183594 171.847656 C 89.308594 180.09375 104.039062 191.371094 109.945312 207.550781 C 105.734375 199.785156 96.40625 196.203125 87.605469 195.371094 C 78.804688 194.539062 69.894531 195.800781 61.125 194.746094 C 44.539062 192.753906 29.273438 181.890625 21.960938 166.859375 C 14.566406 151.660156 15.269531 133.863281 17.441406 117.105469 Z M 17.441406 117.105469 " fill-opacity="1" fill-rule="nonzero"/></g></g></g><g clip-path="url(#d8b2716466)"><g clip-path="url(#198ee8d7dc)"><g clip-path="url(#89dffed212)"><g clip-path="url(#dfa484bd7e)"><path fill="#83e09e" d="M 53.339844 102.148438 L 96.347656 201.742188 L 171.371094 169.347656 L 128.363281 69.75 Z M 53.339844 102.148438 " fill-opacity="1" fill-rule="nonzero"/></g></g></g></g><g clip-path="url(#66ebc6f46e)"><g clip-path="url(#d0625f583d)"><g clip-path="url(#4937510242)"><path fill="#83e09e" d="M 327.519531 45.195312 L 322.859375 47.582031 L 319.984375 49.199219 L 318.304688 50.300781 L 316.691406 51.46875 L 315.140625 52.703125 L 313.65625 54.007812 L 312.246094 55.371094 L 310.902344 56.800781 L 309.632812 58.289062 L 308.433594 59.847656 L 307.109375 61.765625 L 305.898438 63.773438 L 304.792969 65.855469 L 303.804688 68.011719 L 302.59375 71.125 L 302.109375 72.574219 L 301.699219 73.988281 L 301.351562 75.382812 L 301.078125 76.75 L 300.859375 78.132812 L 300.714844 79.484375 L 300.636719 80.855469 L 300.625 82.207031 L 300.675781 83.53125 L 300.796875 84.835938 L 300.980469 86.121094 L 301.230469 87.378906 L 301.539062 88.613281 L 301.917969 89.828125 L 302.597656 91.582031 L 304.296875 95.546875 L 305.34375 98.117188 L 305.628906 99.050781 L 305.789062 100.066406 L 305.824219 101.171875 L 305.730469 102.351562 L 305.511719 103.597656 L 305.171875 104.941406 L 304.707031 106.414062 L 304.007812 108.363281 L 303.859375 108.757812 L 303.859375 108.867188 L 303.949219 108.933594 L 304.824219 109.242188 L 305.671875 109.605469 L 307.054688 110.367188 L 307.078125 110.378906 L 307.175781 110.363281 L 307.226562 110.273438 L 307.382812 109.167969 L 308.628906 104.113281 L 309.636719 100.480469 L 310.070312 99.207031 L 310.578125 98.105469 L 311.171875 97.144531 L 311.878906 96.28125 L 312.472656 95.714844 L 313.117188 95.214844 L 313.828125 94.757812 L 314.648438 94.320312 L 315.542969 93.921875 L 316.570312 93.53125 L 319.511719 92.589844 L 322.355469 91.65625 L 324.84375 90.683594 L 327.132812 89.609375 L 329.296875 88.394531 L 331.238281 87.117188 L 333.128906 85.683594 L 334.660156 84.335938 L 336.074219 82.878906 L 336.976562 81.804688 L 337.808594 80.699219 L 338.585938 79.550781 L 339.316406 78.320312 L 339.992188 77.046875 L 340.628906 75.695312 L 341.199219 74.304688 L 341.734375 72.832031 L 342.210938 71.339844 L 342.644531 69.773438 L 343.417969 66.320312 L 344.078125 62.433594 L 344.800781 57.074219 L 345.296875 53.304688 L 345.707031 50.5625 L 346.128906 48.28125 L 346.640625 46.023438 L 347.25 43.800781 L 347.949219 41.617188 L 349.105469 38.574219 L 350.449219 35.59375 L 351.953125 32.628906 L 351.972656 32.535156 L 351.875 32.550781 L 347.300781 34.902344 L 341.09375 38.183594 L 333.285156 42.292969 Z M 332.605469 59.960938 L 330.652344 61.898438 L 328.710938 63.960938 L 326.820312 66.105469 L 324.960938 68.359375 L 323.167969 70.679688 L 321.429688 73.070312 L 319.792969 75.496094 L 318.261719 77.914062 L 317.015625 80.066406 L 315.800781 82.375 L 314.648438 84.796875 L 313.578125 87.277344 L 312.578125 89.84375 L 311.679688 92.421875 L 310.890625 94.984375 L 310.21875 97.511719 L 310.179688 97.527344 L 310.171875 97.519531 L 310.082031 97.378906 L 310.054688 97.257812 L 310.851562 92.167969 L 311.582031 88.476562 L 312.277344 85.976562 L 313.195312 83.460938 L 314.34375 80.914062 L 315.707031 78.371094 L 317.296875 75.816406 L 319.082031 73.289062 L 321.074219 70.78125 L 323.230469 68.351562 L 324.652344 66.886719 L 326.351562 65.25 L 331.066406 60.996094 L 332.21875 59.976562 L 332.386719 59.867188 L 332.546875 59.839844 L 332.566406 59.839844 L 332.589844 59.847656 L 332.625 59.902344 Z M 332.605469 59.960938 " fill-opacity="1" fill-rule="nonzero"/></g></g></g><g clip-path="url(#3fe8d86e2a)"><g clip-path="url(#e14a57ea91)"><g clip-path="url(#047fcf6f17)"><path fill="#83e09e" d="M 446.382812 45.410156 L 443.609375 54.011719 L 442.082031 59.5 L 441.375 62.898438 L 440.832031 66.296875 L 440.449219 69.695312 L 440.230469 73.101562 L 440.175781 76.492188 L 440.28125 79.878906 L 440.554688 83.25 L 440.996094 86.613281 L 441.726562 90.574219 L 442.699219 94.503906 L 443.898438 98.394531 L 445.328125 102.234375 L 447.652344 107.515625 L 448.835938 109.878906 L 450.0625 112.101562 L 451.34375 114.234375 L 452.679688 116.234375 L 454.101562 118.1875 L 455.578125 120.019531 L 457.164062 121.785156 L 458.796875 123.445312 L 460.476562 125 L 462.222656 126.445312 L 464.015625 127.789062 L 465.859375 129.019531 L 467.742188 130.148438 L 469.6875 131.167969 L 472.664062 132.476562 L 479.582031 135.242188 L 484.003906 137.097656 L 485.492188 137.882812 L 486.929688 138.925781 L 488.324219 140.238281 L 489.648438 141.789062 L 490.902344 143.578125 L 492.132812 145.636719 L 493.363281 148 L 494.894531 151.230469 L 495.195312 151.890625 L 495.332031 152.027344 L 495.527344 152 L 496.96875 151.308594 L 498.445312 150.71875 L 501.058594 149.953125 L 501.109375 149.9375 L 501.207031 149.800781 L 501.160156 149.632812 L 500 148.085938 L 495.339844 140.394531 L 492.128906 134.734375 L 491.101562 132.652344 L 490.378906 130.683594 L 489.929688 128.785156 L 489.734375 126.867188 L 489.765625 125.449219 L 489.941406 124.050781 L 490.25 122.621094 L 490.714844 121.089844 L 491.320312 119.511719 L 492.101562 117.777344 L 494.539062 113.035156 L 496.867188 108.417969 L 498.710938 104.1875 L 500.195312 100.078125 L 501.351562 95.953125 L 502.160156 92.023438 L 502.710938 87.960938 L 502.933594 84.445312 L 502.878906 80.9375 L 502.667969 78.523438 L 502.332031 76.15625 L 501.871094 73.804688 L 501.265625 71.410156 L 500.535156 69.03125 L 499.65625 66.605469 L 498.65625 64.207031 L 497.507812 61.757812 L 496.265625 59.359375 L 494.875 56.914062 L 491.601562 51.753906 L 487.660156 46.207031 L 481.988281 38.777344 L 477.984375 33.574219 L 475.136719 29.730469 L 472.855469 26.425781 L 470.726562 23.046875 L 468.753906 19.589844 L 466.9375 16.066406 L 464.628906 10.9375 L 462.628906 5.664062 L 460.835938 0.207031 L 460.746094 0.0625 L 460.648438 0.207031 L 457.9375 8.664062 L 454.371094 20.257812 L 449.867188 34.816406 Z M 470.636719 57.210938 L 470.617188 61.960938 L 470.769531 66.847656 L 471.085938 71.78125 L 471.566406 76.800781 L 472.214844 81.824219 L 473.023438 86.867188 L 473.980469 91.828125 L 475.070312 96.648438 L 476.183594 100.804688 L 477.523438 105.105469 L 479.074219 109.46875 L 480.800781 113.804688 L 482.71875 118.152344 L 484.777344 122.402344 L 486.941406 126.492188 L 489.210938 130.398438 L 489.183594 130.464844 L 489.167969 130.464844 L 488.882812 130.402344 L 488.699219 130.289062 L 483.453125 123.105469 L 479.832031 117.703125 L 477.628906 113.804688 L 475.671875 109.609375 L 473.960938 105.101562 L 472.515625 100.328125 L 471.328125 95.269531 L 470.421875 90 L 469.789062 84.507812 L 469.449219 78.90625 L 469.394531 75.382812 L 469.464844 71.3125 L 470.023438 60.351562 L 470.183594 57.703125 L 470.253906 57.363281 L 470.414062 57.132812 L 470.441406 57.109375 L 470.476562 57.09375 L 470.585938 57.109375 Z M 470.636719 57.210938 " fill-opacity="1" fill-rule="nonzero"/></g></g></g><g clip-path="url(#85d731ba38)"><g clip-path="url(#10ad86551d)"><g clip-path="url(#e58f446d5f)"><path fill="#83e09e" d="M 669.34375 75.441406 L 676.742188 75.050781 L 681.414062 74.988281 L 684.253906 75.140625 L 687.0625 75.425781 L 689.835938 75.835938 L 692.578125 76.378906 L 695.277344 77.046875 L 697.941406 77.839844 L 700.554688 78.765625 L 703.125 79.816406 L 706.113281 81.230469 L 709.019531 82.824219 L 711.851562 84.589844 L 714.597656 86.527344 L 718.292969 89.480469 L 719.917969 90.914062 L 721.417969 92.351562 L 722.839844 93.8125 L 724.144531 95.292969 L 725.394531 96.828125 L 726.535156 98.382812 L 727.601562 100.007812 L 728.578125 101.652344 L 729.457031 103.308594 L 730.238281 104.996094 L 730.921875 106.699219 L 731.511719 108.417969 L 732.011719 110.144531 L 732.410156 111.902344 L 732.824219 114.535156 L 733.5625 120.597656 L 734.105469 124.488281 L 734.414062 125.835938 L 734.941406 127.191406 L 735.6875 128.570312 L 736.636719 129.949219 L 737.792969 131.316406 L 739.167969 132.722656 L 740.78125 134.195312 L 743.019531 136.085938 L 743.480469 136.464844 L 743.5625 136.597656 L 743.496094 136.746094 L 742.644531 137.746094 L 741.867188 138.792969 L 740.714844 140.703125 L 740.691406 140.738281 L 740.5625 140.789062 L 740.4375 140.714844 L 739.457031 139.46875 L 734.339844 134.164062 L 730.527344 130.433594 L 729.09375 129.179688 L 727.683594 128.195312 L 726.277344 127.441406 L 724.796875 126.886719 L 723.667969 126.613281 L 722.523438 126.457031 L 721.324219 126.402344 L 720.011719 126.449219 L 718.632812 126.597656 L 717.097656 126.851562 L 712.828125 127.789062 L 708.679688 128.664062 L 704.941406 129.238281 L 701.371094 129.550781 L 697.863281 129.605469 L 694.578125 129.421875 L 691.246094 129.003906 L 688.410156 128.441406 L 685.644531 127.664062 L 683.773438 126.988281 L 681.972656 126.226562 L 680.203125 125.371094 L 678.433594 124.386719 L 676.699219 123.308594 L 674.964844 122.105469 L 673.273438 120.808594 L 671.574219 119.386719 L 669.929688 117.894531 L 668.285156 116.28125 L 664.882812 112.605469 L 661.316406 108.316406 L 656.621094 102.265625 L 653.335938 98 L 650.886719 94.9375 L 648.746094 92.4375 L 646.515625 90.039062 L 644.191406 87.753906 L 641.78125 85.570312 L 638.203125 82.667969 L 634.441406 79.976562 L 630.496094 77.410156 L 630.398438 77.308594 L 630.535156 77.261719 L 637.800781 76.890625 L 647.738281 76.496094 L 660.21875 75.980469 Z M 673.605469 97.136719 L 677.375 98.117188 L 681.21875 99.265625 L 685.058594 100.550781 L 688.9375 101.984375 L 692.78125 103.550781 L 696.609375 105.25 L 700.335938 107.050781 L 703.929688 108.925781 L 706.988281 110.679688 L 710.113281 112.644531 L 713.246094 114.789062 L 716.320312 117.066406 L 719.363281 119.496094 L 722.296875 122.019531 L 725.085938 124.59375 L 727.703125 127.210938 L 727.761719 127.203125 L 727.765625 127.191406 L 727.777344 126.953125 L 727.726562 126.78125 L 723.136719 121.117188 L 719.613281 117.117188 L 716.988281 114.550781 L 714.074219 112.121094 L 710.859375 109.816406 L 707.378906 107.671875 L 703.621094 105.671875 L 699.636719 103.84375 L 695.414062 102.195312 L 691.050781 100.746094 L 688.269531 99.964844 L 685.027344 99.167969 L 676.226562 97.308594 L 674.09375 96.878906 L 673.808594 96.867188 L 673.59375 96.945312 L 673.566406 96.960938 L 673.546875 96.984375 L 673.539062 97.074219 Z M 673.605469 97.136719 " fill-opacity="1" fill-rule="nonzero"/></g></g></g><g clip-path="url(#022f9ca289)"><g clip-path="url(#a68c84854b)"><g clip-path="url(#9c60654914)"><path fill="#83e09e" d="M 752.308594 121.90625 C 748.765625 121.542969 746.042969 120.636719 744.160156 119.179688 C 742.128906 125.378906 741.949219 131.292969 742.214844 137.132812 C 742.304688 139.140625 740.171875 139.257812 740.070312 136.808594 C 739.289062 118.328125 740.34375 98.945312 760.046875 88.578125 C 762.96875 87.042969 766.304688 85.460938 770.292969 84.230469 C 774.820312 82.925781 777.03125 82.285156 776.929688 82.316406 C 780.523438 81.386719 783.636719 80.335938 786.289062 79.148438 C 788.855469 78.058594 791.496094 76.804688 794.226562 75.386719 C 796.53125 74.152344 797.640625 73.53125 797.542969 73.527344 C 797.640625 73.53125 796.46875 74 794.0625 74.945312 C 791.214844 76.023438 788.46875 76.957031 785.816406 77.761719 C 783.210938 78.597656 780.0625 79.28125 776.402344 79.839844 C 773.445312 80.363281 771.15625 80.882812 769.53125 81.363281 C 764.644531 82.90625 760.980469 84.332031 758.507812 85.625 C 751.78125 89.15625 746.644531 93.839844 743.089844 99.722656 C 741.367188 102.871094 739.996094 106.464844 739.023438 110.492188 C 736.492188 109.148438 735.042969 107.199219 734.671875 104.632812 C 734.039062 100.300781 734.753906 95.679688 736.785156 90.746094 C 739.691406 83.648438 744.925781 78.300781 752.472656 74.707031 C 759.371094 71.402344 767.933594 69.316406 778.160156 68.492188 C 790.882812 67.402344 797.398438 66.816406 797.734375 66.746094 C 803.820312 65.242188 808.140625 62.542969 810.691406 58.648438 C 809.003906 68.800781 805.3125 79.050781 799.59375 89.394531 C 794.570312 98.4375 788.621094 105.636719 781.75 111.011719 C 773.152344 117.75 763.339844 121.378906 752.308594 121.90625 " fill-opacity="1" fill-rule="nonzero"/></g></g></g></svg>