<svg xmlns="http://www.w3.org/2000/svg" xmlns:xlink="http://www.w3.org/1999/xlink" width="813" zoomAndPan="magnify" viewBox="0 0 609.75 108.749999" height="145" preserveAspectRatio="xMidYMid meet" version="1.0"><defs><g/><clipPath id="1c0633db19"><path d="M 500.671875 12.621094 L 604.949219 12.621094 L 604.949219 69.058594 L 500.671875 69.058594 Z M 500.671875 12.621094 " clip-rule="nonzero"/></clipPath><clipPath id="df910bba7e"><path d="M 505.910156 12.621094 L 599.554688 12.621094 C 600.941406 12.621094 602.273438 13.171875 603.257812 14.15625 C 604.238281 15.136719 604.792969 16.46875 604.792969 17.859375 L 604.792969 63.820312 C 604.792969 65.210938 604.238281 66.542969 603.257812 67.523438 C 602.273438 68.507812 600.941406 69.058594 599.554688 69.058594 L 505.910156 69.058594 C 504.519531 69.058594 503.1875 68.507812 502.207031 67.523438 C 501.222656 66.542969 500.671875 65.210938 500.671875 63.820312 L 500.671875 17.859375 C 500.671875 16.46875 501.222656 15.136719 502.207031 14.15625 C 503.1875 13.171875 504.519531 12.621094 505.910156 12.621094 Z M 505.910156 12.621094 " clip-rule="nonzero"/></clipPath><clipPath id="316968aff1"><path d="M 521.261719 22.484375 L 582.605469 22.484375 L 582.605469 83.828125 L 521.261719 83.828125 Z M 521.261719 22.484375 " clip-rule="nonzero"/></clipPath><clipPath id="944027f7ac"><path d="M 551.933594 22.484375 C 534.992188 22.484375 521.261719 36.21875 521.261719 53.15625 C 521.261719 70.097656 534.992188 83.828125 551.933594 83.828125 C 568.871094 83.828125 582.605469 70.097656 582.605469 53.15625 C 582.605469 36.21875 568.871094 22.484375 551.933594 22.484375 Z M 551.933594 22.484375 " clip-rule="nonzero"/></clipPath></defs><g clip-path="url(#1c0633db19)"><g clip-path="url(#df910bba7e)"><path fill="#ffd33c" d="M 500.671875 12.621094 L 604.730469 12.621094 L 604.730469 69.058594 L 500.671875 69.058594 Z M 500.671875 12.621094 " fill-opacity="1" fill-rule="nonzero"/></g></g><g clip-path="url(#316968aff1)"><g clip-path="url(#944027f7ac)"><path fill="#ffffff" d="M 521.261719 22.484375 L 582.605469 22.484375 L 582.605469 83.828125 L 521.261719 83.828125 Z M 521.261719 22.484375 " fill-opacity="1" fill-rule="nonzero"/></g></g><path fill="#7ec28a" d="M 552.195312 80.144531 L 552.136719 80.300781 L 552.253906 80.300781 Z M 552.195312 80.144531 " fill-opacity="1" fill-rule="nonzero"/><path fill="#7ec28a" d="M 552.195312 26.222656 C 537.28125 26.222656 525.15625 38.347656 525.15625 53.261719 C 525.15625 59.421875 527.21875 65.101562 530.710938 69.648438 C 531.597656 70.828125 532.585938 71.925781 533.667969 72.925781 C 534.367188 73.589844 535.085938 74.207031 535.847656 74.789062 C 540.371094 78.238281 546.015625 80.285156 552.136719 80.300781 L 552.195312 80.144531 L 552.253906 80.300781 C 558.375 80.285156 564.019531 78.238281 568.542969 74.789062 C 569.304688 74.207031 570.027344 73.589844 570.722656 72.925781 C 571.804688 71.925781 572.796875 70.828125 573.679688 69.648438 C 577.171875 65.101562 579.234375 59.421875 579.234375 53.261719 C 579.234375 38.347656 567.109375 26.222656 552.195312 26.222656 Z M 569.386719 69.648438 C 568.753906 70.3125 568.082031 70.945312 567.378906 71.527344 C 566.78125 72.027344 566.167969 72.492188 565.519531 72.925781 C 562.011719 75.320312 557.824219 76.785156 553.316406 76.992188 C 552.949219 77.015625 552.574219 77.023438 552.195312 77.023438 C 551.820312 77.023438 551.441406 77.015625 551.074219 76.992188 C 546.566406 76.785156 542.378906 75.320312 538.871094 72.925781 C 538.226562 72.492188 537.609375 72.027344 537.011719 71.527344 C 536.308594 70.945312 535.636719 70.3125 535.003906 69.648438 C 530.933594 65.378906 528.433594 59.613281 528.433594 53.261719 C 528.433594 40.160156 539.09375 29.5 552.195312 29.5 C 565.296875 29.5 575.957031 40.160156 575.957031 53.261719 C 575.957031 59.613281 573.460938 65.378906 569.386719 69.648438 Z M 569.386719 69.648438 " fill-opacity="1" fill-rule="nonzero"/><path fill="#3a3b3e" d="M 552.136719 80.300781 L 552.253906 80.300781 L 552.195312 80.144531 Z M 552.136719 80.300781 " fill-opacity="1" fill-rule="nonzero"/><path fill="#3a3b3e" d="M 598.902344 1.640625 L 507.128906 1.640625 C 503.515625 1.640625 500.574219 4.582031 500.574219 8.195312 L 500.574219 66.371094 C 500.574219 69.984375 503.515625 72.925781 507.128906 72.925781 L 525.992188 72.925781 C 528.179688 75.835938 530.832031 78.367188 533.847656 80.410156 L 526.910156 99.902344 C 526.457031 101.164062 527.636719 102.402344 528.933594 102.015625 L 536.046875 99.867188 L 540.207031 106.03125 C 540.960938 107.144531 542.65625 106.933594 543.109375 105.664062 L 550.121094 85.972656 C 550.8125 86.011719 551.5 86.039062 552.195312 86.039062 C 552.890625 86.039062 553.582031 86.011719 554.269531 85.972656 L 561.28125 105.664062 C 561.734375 106.933594 563.429688 107.144531 564.183594 106.03125 L 568.347656 99.867188 L 575.457031 102.015625 C 576.753906 102.402344 577.933594 101.164062 577.484375 99.902344 L 570.542969 80.410156 C 573.558594 78.367188 576.210938 75.835938 578.398438 72.925781 L 598.902344 72.925781 C 602.515625 72.925781 605.457031 69.984375 605.457031 66.371094 L 605.457031 8.195312 C 605.457031 4.582031 602.515625 1.640625 598.902344 1.640625 Z M 596.445312 5.734375 C 597.34375 5.734375 598.082031 6.472656 598.082031 7.375 C 598.082031 8.277344 597.34375 9.011719 596.445312 9.011719 C 595.542969 9.011719 594.804688 8.277344 594.804688 7.375 C 594.804688 6.472656 595.542969 5.734375 596.445312 5.734375 Z M 590.707031 5.734375 C 591.609375 5.734375 592.347656 6.472656 592.347656 7.375 C 592.347656 8.277344 591.609375 9.011719 590.707031 9.011719 C 589.804688 9.011719 589.070312 8.277344 589.070312 7.375 C 589.070312 6.472656 589.804688 5.734375 590.707031 5.734375 Z M 584.972656 5.734375 C 585.875 5.734375 586.609375 6.472656 586.609375 7.375 C 586.609375 8.277344 585.875 9.011719 584.972656 9.011719 C 584.070312 9.011719 583.332031 8.277344 583.332031 7.375 C 583.332031 6.472656 584.070312 5.734375 584.972656 5.734375 Z M 576.703125 69.648438 C 575.933594 70.804688 575.082031 71.894531 574.15625 72.925781 C 572.738281 74.515625 571.140625 75.949219 569.402344 77.203125 C 564.789062 80.53125 559.183594 82.554688 553.121094 82.742188 C 552.808594 82.75 552.507812 82.761719 552.195312 82.761719 C 551.882812 82.761719 551.582031 82.75 551.269531 82.742188 C 545.207031 82.554688 539.601562 80.53125 534.988281 77.203125 C 533.25 75.949219 531.652344 74.515625 530.234375 72.925781 C 529.308594 71.894531 528.457031 70.804688 527.6875 69.648438 C 524.53125 64.960938 522.695312 59.316406 522.695312 53.261719 C 522.695312 36.996094 535.929688 23.761719 552.195312 23.761719 C 568.460938 23.761719 581.695312 36.996094 581.695312 53.261719 C 581.695312 59.316406 579.859375 64.960938 576.703125 69.648438 Z M 602.179688 66.371094 C 602.179688 68.183594 600.710938 69.648438 598.902344 69.648438 L 580.578125 69.648438 C 583.375 64.824219 584.972656 59.226562 584.972656 53.261719 C 584.972656 35.183594 570.273438 20.484375 552.195312 20.484375 C 534.121094 20.484375 519.417969 35.183594 519.417969 53.261719 C 519.417969 59.226562 521.015625 64.824219 523.8125 69.648438 L 507.128906 69.648438 C 505.316406 69.648438 503.851562 68.183594 503.851562 66.371094 L 503.851562 13.109375 L 602.179688 13.109375 Z M 602.179688 66.371094 " fill-opacity="1" fill-rule="nonzero"/><path fill="#3a3b3e" d="M 556.15625 38.734375 C 556.238281 39.242188 556.21875 39.75 556.101562 40.25 C 555.980469 40.753906 555.773438 41.214844 555.46875 41.632812 C 555.167969 42.050781 554.796875 42.398438 554.359375 42.667969 C 553.917969 42.941406 553.445312 43.117188 552.9375 43.199219 C 552.425781 43.28125 551.921875 43.265625 551.417969 43.144531 C 550.917969 43.027344 550.457031 42.816406 550.035156 42.515625 C 549.617188 42.214844 549.273438 41.84375 549 41.402344 C 548.730469 40.964844 548.554688 40.492188 548.46875 39.980469 C 548.386719 39.472656 548.40625 38.964844 548.523438 38.464844 C 548.644531 37.960938 548.851562 37.5 549.15625 37.082031 C 549.457031 36.664062 549.828125 36.316406 550.265625 36.046875 C 550.707031 35.777344 551.179688 35.597656 551.6875 35.515625 C 552.199219 35.433594 552.703125 35.449219 553.207031 35.570312 C 553.707031 35.6875 554.167969 35.898438 554.589844 36.199219 C 555.007812 36.5 555.351562 36.871094 555.625 37.3125 C 555.894531 37.75 556.070312 38.222656 556.15625 38.734375 Z M 556.15625 38.734375 " fill-opacity="1" fill-rule="nonzero"/><path fill="#3a3b3e" d="M 565.355469 40.707031 C 564.96875 40.921875 564.578125 41.117188 564.191406 41.3125 C 563.9375 41.445312 563.675781 41.578125 563.421875 41.699219 C 563.152344 41.832031 562.878906 41.953125 562.609375 42.066406 C 562.347656 42.183594 562.085938 42.304688 561.824219 42.414062 C 561.554688 42.519531 561.289062 42.625 561.019531 42.722656 C 560.757812 42.820312 560.488281 42.929688 560.226562 43.019531 C 559.957031 43.109375 559.691406 43.191406 559.421875 43.273438 C 559.160156 43.355469 558.898438 43.4375 558.636719 43.511719 C 558.367188 43.585938 558.085938 43.648438 557.816406 43.714844 C 557.5625 43.773438 557.308594 43.839844 557.054688 43.894531 C 556.769531 43.953125 556.480469 44.003906 556.203125 44.042969 C 555.957031 44.085938 555.71875 44.132812 555.472656 44.164062 C 555.160156 44.207031 554.859375 44.230469 554.546875 44.265625 C 554.324219 44.289062 554.105469 44.3125 553.890625 44.328125 C 553.480469 44.355469 553.0625 44.371094 552.65625 44.371094 C 552.425781 44.371094 552.195312 44.371094 551.964844 44.371094 C 551.554688 44.371094 551.15625 44.355469 550.746094 44.328125 C 550.523438 44.3125 550.292969 44.28125 550.074219 44.265625 C 549.769531 44.230469 549.46875 44.207031 549.164062 44.164062 C 548.917969 44.132812 548.664062 44.085938 548.417969 44.042969 C 548.140625 43.992188 547.859375 43.953125 547.582031 43.894531 C 547.320312 43.839844 547.058594 43.773438 546.796875 43.714844 C 546.535156 43.648438 546.261719 43.59375 546 43.519531 C 545.730469 43.445312 545.46875 43.363281 545.199219 43.273438 C 544.9375 43.191406 544.671875 43.117188 544.417969 43.027344 C 544.148438 42.9375 543.878906 42.832031 543.609375 42.722656 C 543.347656 42.625 543.09375 42.527344 542.828125 42.421875 C 542.558594 42.304688 542.289062 42.191406 542.019531 42.066406 C 541.757812 41.953125 541.492188 41.832031 541.230469 41.707031 C 540.96875 41.585938 540.699219 41.445312 540.4375 41.3125 C 540.050781 41.117188 539.675781 40.929688 539.289062 40.714844 C 538.496094 40.273438 537.496094 40.5625 537.042969 41.355469 C 536.601562 42.148438 536.890625 43.148438 537.683594 43.601562 C 537.921875 43.730469 538.167969 43.847656 538.40625 43.976562 C 538.601562 44.09375 538.796875 44.183594 539.003906 44.28125 C 539.273438 44.421875 539.542969 44.558594 539.8125 44.683594 C 540.140625 44.835938 540.460938 44.976562 540.789062 45.125 C 541.058594 45.238281 541.332031 45.363281 541.601562 45.476562 C 541.929688 45.609375 542.257812 45.730469 542.582031 45.855469 C 542.855469 45.953125 543.117188 46.058594 543.386719 46.148438 C 543.722656 46.261719 544.050781 46.363281 544.386719 46.460938 C 544.648438 46.542969 544.910156 46.625 545.179688 46.699219 C 545.527344 46.789062 545.863281 46.871094 546.207031 46.945312 C 546.460938 47 546.714844 47.066406 546.976562 47.125 C 547.195312 47.164062 547.417969 47.207031 547.632812 47.238281 L 548.230469 53.472656 L 548.230469 55.359375 L 543.410156 68.960938 C 543.019531 70.066406 543.601562 71.273438 544.699219 71.664062 C 544.9375 71.746094 545.171875 71.789062 545.402344 71.789062 C 546.269531 71.789062 547.089844 71.246094 547.402344 70.378906 L 551.738281 58.136719 L 552.949219 58.136719 L 557.285156 70.378906 C 557.59375 71.246094 558.40625 71.789062 559.285156 71.789062 C 559.519531 71.789062 559.757812 71.746094 559.988281 71.664062 C 561.09375 71.273438 561.667969 70.058594 561.273438 68.960938 L 556.457031 55.359375 L 556.457031 53.472656 L 557.054688 47.238281 C 557.277344 47.199219 557.496094 47.164062 557.71875 47.117188 C 557.957031 47.066406 558.203125 47 558.4375 46.953125 C 558.800781 46.871094 559.152344 46.789062 559.511719 46.691406 C 559.757812 46.625 560.003906 46.542969 560.25 46.46875 C 560.601562 46.363281 560.953125 46.253906 561.300781 46.140625 C 561.554688 46.058594 561.800781 45.960938 562.054688 45.871094 C 562.398438 45.738281 562.742188 45.617188 563.09375 45.476562 C 563.347656 45.371094 563.601562 45.265625 563.855469 45.148438 C 564.199219 45 564.535156 44.847656 564.878906 44.683594 C 565.132812 44.558594 565.394531 44.429688 565.648438 44.296875 C 565.855469 44.191406 566.058594 44.101562 566.273438 43.984375 L 566.273438 43.96875 C 566.503906 43.839844 566.75 43.722656 566.984375 43.59375 C 567.78125 43.148438 568.066406 42.140625 567.625 41.347656 C 567.183594 40.550781 566.183594 40.265625 565.378906 40.707031 Z M 565.355469 40.707031 " fill-opacity="1" fill-rule="nonzero"/><g fill="#333333" fill-opacity="1"><g transform="translate(65.120307, 44.84856)"><g><path d="M 6.015625 -16.015625 L 7.515625 -21.828125 L 5.171875 -21.828125 L 2.1875 -16.015625 L 2.1875 -12.875 L 6.015625 -12.875 Z M 13.46875 -16.015625 L 14.96875 -21.828125 L 12.640625 -21.828125 L 9.640625 -16.015625 L 9.640625 -12.875 L 13.46875 -12.875 Z M 13.46875 -16.015625 "/></g></g></g><g fill="#333333" fill-opacity="1"><g transform="translate(82.270867, 44.84856)"><g><path d="M 2.1875 0 L 10.03125 0 C 12.488281 0 14.425781 -0.53125 15.84375 -1.59375 C 17.257812 -2.664062 17.96875 -4.171875 17.96875 -6.109375 C 17.96875 -7.585938 17.515625 -8.816406 16.609375 -9.796875 C 15.710938 -10.785156 14.296875 -11.441406 12.359375 -11.765625 C 14.816406 -12.160156 16.046875 -13.71875 16.046875 -16.4375 C 16.046875 -18.15625 15.4375 -19.484375 14.21875 -20.421875 C 13 -21.359375 11.265625 -21.828125 9.015625 -21.828125 L 2.1875 -21.828125 Z M 9.515625 -19.84375 C 10.953125 -19.84375 12.023438 -19.5 12.734375 -18.8125 C 13.441406 -18.125 13.796875 -17.222656 13.796875 -16.109375 C 13.796875 -13.910156 12.367188 -12.8125 9.515625 -12.8125 L 5.15625 -12.8125 L 5.15625 -19.84375 Z M 9.875 -10.421875 C 11.4375 -10.421875 12.613281 -10.097656 13.40625 -9.453125 C 14.164062 -8.816406 14.546875 -8.25 14.546875 -7.75 C 14.546875 -6.394531 14.164062 -5.488281 13.40625 -5.03125 C 12.65625 -4.570312 11.476562 -4.34375 9.875 -4.34375 L 5.15625 -4.34375 L 5.15625 -10.421875 Z M 9.875 -10.421875 "/></g></g></g><g fill="#333333" fill-opacity="1"><g transform="translate(102.414534, 44.84856)"><g><path d="M 2.1875 -8.203125 C 2.1875 -2.453125 4.976562 0.421875 10.5625 0.421875 C 13.300781 0.421875 15.375 -0.304688 16.78125 -1.765625 C 18.1875 -3.222656 18.890625 -5.367188 18.890625 -8.203125 L 18.890625 -21.828125 L 15.78125 -21.828125 L 16.078125 -10.59375 C 16.140625 -8.257812 15.707031 -6.578125 14.78125 -5.546875 C 13.863281 -4.523438 12.457031 -4.015625 10.5625 -4.015625 C 8.664062 -4.015625 7.253906 -4.523438 6.328125 -5.546875 C 5.398438 -6.578125 4.957031 -8.257812 5 -10.59375 L 5.296875 -21.828125 L 2.1875 -21.828125 Z M 2.1875 -8.203125 "/></g></g></g><g fill="#333333" fill-opacity="1"><g transform="translate(123.515999, 44.84856)"><g><path d="M 2.1875 0 L 5.71875 0 C 5.519531 -3.632812 5.410156 -7.269531 5.390625 -10.90625 C 5.367188 -14.550781 5.335938 -18.191406 5.296875 -21.828125 L 2.78125 -21.828125 C 2.707031 -18.191406 2.644531 -14.550781 2.59375 -10.90625 C 2.539062 -7.269531 2.40625 -3.632812 2.1875 0 Z M 2.1875 0 "/></g></g></g><g fill="#333333" fill-opacity="1"><g transform="translate(131.447757, 44.84856)"><g><path d="M 2.1875 0 L 15.625 0 L 15.921875 -4.515625 L 5.296875 -4.515625 L 5.453125 -21.828125 L 2.484375 -21.828125 Z M 2.1875 0 "/></g></g></g><g fill="#333333" fill-opacity="1"><g transform="translate(149.556114, 44.84856)"><g><path d="M 2.1875 0 L 8.265625 0 C 12.472656 0 15.566406 -0.878906 17.546875 -2.640625 C 19.535156 -4.410156 20.53125 -7.171875 20.53125 -10.921875 C 20.53125 -14.679688 19.539062 -17.4375 17.5625 -19.1875 C 15.59375 -20.945312 12.492188 -21.828125 8.265625 -21.828125 L 2.1875 -21.828125 Z M 8.859375 -19.40625 C 11.867188 -19.40625 14.0625 -18.722656 15.4375 -17.359375 C 16.820312 -16.003906 17.515625 -13.960938 17.515625 -11.234375 C 17.367188 -9.753906 16.992188 -8.59375 16.390625 -7.75 C 15.796875 -6.914062 14.894531 -6.332031 13.6875 -6 C 12.488281 -5.675781 10.878906 -5.515625 8.859375 -5.515625 L 5.296875 -5.515625 L 5.296875 -19.40625 Z M 8.859375 -19.40625 "/></g></g></g><g fill="#333333" fill-opacity="1"><g transform="translate(172.273866, 44.84856)"><g/></g></g><g fill="#333333" fill-opacity="1"><g transform="translate(183.97695, 44.84856)"><g><path d="M 2.1875 0 L 6.203125 0 L 7.3125 -3.5625 L 17.125 -3.5625 L 17.96875 0 L 22.1875 0 L 13.59375 -21.828125 L 10.8125 -21.828125 Z M 16.21875 -7.03125 L 8.171875 -7.03125 L 12.1875 -19.125 Z M 16.21875 -7.03125 "/></g></g></g><g fill="#333333" fill-opacity="1"><g transform="translate(208.340915, 44.84856)"><g><path d="M 2.1875 0 L 5.71875 0 L 6.015625 -8.46875 L 9.578125 -8.46875 C 12.035156 -8.46875 13.882812 -9.066406 15.125 -10.265625 C 16.375 -11.460938 17 -13.140625 17 -15.296875 C 17 -17.429688 16.375 -19.050781 15.125 -20.15625 C 13.882812 -21.269531 12.035156 -21.828125 9.578125 -21.828125 L 3.078125 -21.828125 Z M 9.875 -20.5625 C 11.351562 -20.5625 12.488281 -20.207031 13.28125 -19.5 C 14.082031 -18.789062 14.484375 -17.78125 14.484375 -16.46875 C 14.484375 -15.144531 14.082031 -14.128906 13.28125 -13.421875 C 12.488281 -12.710938 11.351562 -12.359375 9.875 -12.359375 L 5.875 -12.359375 L 6.171875 -20.5625 Z M 9.875 -20.5625 "/></g></g></g><g fill="#333333" fill-opacity="1"><g transform="translate(227.556722, 44.84856)"><g><path d="M 2.1875 0 L 5.71875 0 L 6.015625 -8.46875 L 9.578125 -8.46875 C 12.035156 -8.46875 13.882812 -9.066406 15.125 -10.265625 C 16.375 -11.460938 17 -13.140625 17 -15.296875 C 17 -17.429688 16.375 -19.050781 15.125 -20.15625 C 13.882812 -21.269531 12.035156 -21.828125 9.578125 -21.828125 L 3.078125 -21.828125 Z M 9.875 -20.5625 C 11.351562 -20.5625 12.488281 -20.207031 13.28125 -19.5 C 14.082031 -18.789062 14.484375 -17.78125 14.484375 -16.46875 C 14.484375 -15.144531 14.082031 -14.128906 13.28125 -13.421875 C 12.488281 -12.710938 11.351562 -12.359375 9.875 -12.359375 L 5.875 -12.359375 L 6.171875 -20.5625 Z M 9.875 -20.5625 "/></g></g></g><g fill="#333333" fill-opacity="1"><g transform="translate(246.772529, 44.84856)"><g><path d="M 2.1875 0 L 15.625 0 L 15.921875 -4.515625 L 5.296875 -4.515625 L 5.453125 -21.828125 L 2.484375 -21.828125 Z M 2.1875 0 "/></g></g></g><g fill="#333333" fill-opacity="1"><g transform="translate(264.880886, 44.84856)"><g><path d="M 2.1875 0 L 5.71875 0 C 5.519531 -3.632812 5.410156 -7.269531 5.390625 -10.90625 C 5.367188 -14.550781 5.335938 -18.191406 5.296875 -21.828125 L 2.78125 -21.828125 C 2.707031 -18.191406 2.644531 -14.550781 2.59375 -10.90625 C 2.539062 -7.269531 2.40625 -3.632812 2.1875 0 Z M 2.1875 0 "/></g></g></g><g fill="#333333" fill-opacity="1"><g transform="translate(272.812657, 44.84856)"><g><path d="M 19.78125 -20.140625 C 17.75 -21.523438 15.4375 -22.21875 12.84375 -22.21875 C 10.644531 -22.21875 8.75 -21.757812 7.15625 -20.84375 C 5.5625 -19.9375 4.332031 -18.632812 3.46875 -16.9375 C 2.613281 -15.25 2.1875 -13.234375 2.1875 -10.890625 C 2.1875 -8.554688 2.613281 -6.546875 3.46875 -4.859375 C 4.332031 -3.171875 5.5625 -1.867188 7.15625 -0.953125 C 8.75 -0.0351562 10.644531 0.421875 12.84375 0.421875 C 15.414062 0.421875 17.726562 -0.273438 19.78125 -1.671875 L 19.78125 -6.828125 C 17.8125 -4.972656 15.554688 -4.046875 13.015625 -4.046875 C 11.359375 -4.046875 9.960938 -4.257812 8.828125 -4.6875 C 7.691406 -5.113281 6.828125 -5.832031 6.234375 -6.84375 C 5.648438 -7.851562 5.335938 -9.203125 5.296875 -10.890625 C 5.296875 -13.785156 5.960938 -15.988281 7.296875 -17.5 C 8.640625 -19.019531 10.546875 -19.78125 13.015625 -19.78125 C 15.578125 -19.78125 17.832031 -18.863281 19.78125 -17.03125 Z M 19.78125 -20.140625 "/></g></g></g><g fill="#333333" fill-opacity="1"><g transform="translate(294.78214, 44.84856)"><g><path d="M 2.1875 0 L 6.203125 0 L 7.3125 -3.5625 L 17.125 -3.5625 L 17.96875 0 L 22.1875 0 L 13.59375 -21.828125 L 10.8125 -21.828125 Z M 16.21875 -7.03125 L 8.171875 -7.03125 L 12.1875 -19.125 Z M 16.21875 -7.03125 "/></g></g></g><g fill="#333333" fill-opacity="1"><g transform="translate(319.146104, 44.84856)"><g><path d="M 2.1875 -19.34375 L 9.9375 -19.640625 L 9.375 0 L 13.5 0 L 12.90625 -19.640625 L 20.65625 -19.34375 L 20.65625 -21.828125 L 2.1875 -21.828125 Z M 2.1875 -19.34375 "/></g></g></g><g fill="#333333" fill-opacity="1"><g transform="translate(341.983595, 44.84856)"><g><path d="M 2.1875 0 L 5.71875 0 C 5.519531 -3.632812 5.410156 -7.269531 5.390625 -10.90625 C 5.367188 -14.550781 5.335938 -18.191406 5.296875 -21.828125 L 2.78125 -21.828125 C 2.707031 -18.191406 2.644531 -14.550781 2.59375 -10.90625 C 2.539062 -7.269531 2.40625 -3.632812 2.1875 0 Z M 2.1875 0 "/></g></g></g><g fill="#333333" fill-opacity="1"><g transform="translate(349.915342, 44.84856)"><g><path d="M 12.296875 -22.21875 C 10.265625 -22.21875 8.488281 -21.75 6.96875 -20.8125 C 5.457031 -19.882812 4.28125 -18.570312 3.4375 -16.875 C 2.601562 -15.1875 2.1875 -13.191406 2.1875 -10.890625 C 2.1875 -8.597656 2.601562 -6.601562 3.4375 -4.90625 C 4.28125 -3.207031 5.457031 -1.894531 6.96875 -0.96875 C 8.488281 -0.0390625 10.265625 0.421875 12.296875 0.421875 C 14.359375 0.421875 16.140625 -0.0390625 17.640625 -0.96875 C 19.148438 -1.894531 20.316406 -3.207031 21.140625 -4.90625 C 21.972656 -6.601562 22.390625 -8.597656 22.390625 -10.890625 C 22.390625 -13.191406 21.972656 -15.1875 21.140625 -16.875 C 20.316406 -18.570312 19.148438 -19.882812 17.640625 -20.8125 C 16.140625 -21.75 14.359375 -22.21875 12.296875 -22.21875 Z M 12.296875 -19.8125 C 13.734375 -19.8125 14.972656 -19.453125 16.015625 -18.734375 C 17.054688 -18.015625 17.859375 -16.988281 18.421875 -15.65625 C 18.992188 -14.320312 19.28125 -12.734375 19.28125 -10.890625 C 19.28125 -9.398438 18.992188 -8.238281 18.421875 -7.40625 C 17.859375 -6.582031 17.054688 -6.003906 16.015625 -5.671875 C 14.972656 -5.335938 13.734375 -5.171875 12.296875 -5.171875 C 10.878906 -5.171875 9.640625 -5.335938 8.578125 -5.671875 C 7.523438 -6.003906 6.710938 -6.582031 6.140625 -7.40625 C 5.578125 -8.238281 5.296875 -9.398438 5.296875 -10.890625 C 5.296875 -12.734375 5.578125 -14.320312 6.140625 -15.65625 C 6.710938 -16.988281 7.523438 -18.015625 8.578125 -18.734375 C 9.640625 -19.453125 10.878906 -19.8125 12.296875 -19.8125 Z M 12.296875 -19.8125 "/></g></g></g><g fill="#333333" fill-opacity="1"><g transform="translate(374.488825, 44.84856)"><g><path d="M 2.1875 0 L 5.921875 0 L 5.0625 -18.265625 L 14.734375 0 L 19.015625 0 L 19.015625 -21.828125 L 16.28125 -21.828125 L 15.84375 -4.15625 L 6.46875 -21.375 L 2.78125 -21.375 Z M 2.1875 0 "/></g></g></g><g fill="#333333" fill-opacity="1"><g transform="translate(395.680091, 44.84856)"><g><path d="M 16.21875 -21.109375 C 14.03125 -21.847656 11.90625 -22.21875 9.84375 -22.21875 C 7.445312 -22.21875 5.570312 -21.660156 4.21875 -20.546875 C 2.863281 -19.441406 2.1875 -17.921875 2.1875 -15.984375 C 2.1875 -14.328125 2.679688 -13.03125 3.671875 -12.09375 C 4.660156 -11.15625 6.25 -10.46875 8.4375 -10.03125 L 10.234375 -9.671875 C 11.734375 -9.367188 12.8125 -8.910156 13.46875 -8.296875 C 14.125 -7.691406 14.453125 -7.101562 14.453125 -6.53125 C 14.453125 -6.101562 14.25 -5.660156 13.84375 -5.203125 C 13.4375 -4.742188 12.84375 -4.359375 12.0625 -4.046875 C 11.28125 -3.742188 10.320312 -3.59375 9.1875 -3.59375 C 6.988281 -3.59375 4.6875 -4.269531 2.28125 -5.625 L 2.28125 -0.953125 C 3.53125 -0.492188 4.734375 -0.148438 5.890625 0.078125 C 7.054688 0.304688 8.15625 0.421875 9.1875 0.421875 C 11.925781 0.421875 14.003906 -0.117188 15.421875 -1.203125 C 16.835938 -2.296875 17.546875 -3.898438 17.546875 -6.015625 C 17.546875 -7.796875 17.019531 -9.210938 15.96875 -10.265625 C 14.925781 -11.328125 13.304688 -12.066406 11.109375 -12.484375 L 9.34375 -12.84375 C 7.726562 -13.144531 6.625 -13.546875 6.03125 -14.046875 C 5.445312 -14.546875 5.15625 -15.269531 5.15625 -16.21875 C 5.15625 -17.382812 5.59375 -18.273438 6.46875 -18.890625 C 7.34375 -19.503906 8.578125 -19.8125 10.171875 -19.8125 C 12.035156 -19.8125 14.050781 -19.285156 16.21875 -18.234375 Z M 16.21875 -21.109375 "/></g></g></g><g fill="#000000" fill-opacity="1"><g transform="translate(64.236786, 44.358815)"><g><path d="M 6.015625 -16.015625 L 7.515625 -21.828125 L 5.171875 -21.828125 L 2.1875 -16.015625 L 2.1875 -12.875 L 6.015625 -12.875 Z M 13.46875 -16.015625 L 14.96875 -21.828125 L 12.640625 -21.828125 L 9.640625 -16.015625 L 9.640625 -12.875 L 13.46875 -12.875 Z M 13.46875 -16.015625 "/></g></g></g><g fill="#000000" fill-opacity="1"><g transform="translate(81.387345, 44.358815)"><g><path d="M 2.1875 0 L 10.03125 0 C 12.488281 0 14.425781 -0.53125 15.84375 -1.59375 C 17.257812 -2.664062 17.96875 -4.171875 17.96875 -6.109375 C 17.96875 -7.585938 17.515625 -8.816406 16.609375 -9.796875 C 15.710938 -10.785156 14.296875 -11.441406 12.359375 -11.765625 C 14.816406 -12.160156 16.046875 -13.71875 16.046875 -16.4375 C 16.046875 -18.15625 15.4375 -19.484375 14.21875 -20.421875 C 13 -21.359375 11.265625 -21.828125 9.015625 -21.828125 L 2.1875 -21.828125 Z M 9.515625 -19.84375 C 10.953125 -19.84375 12.023438 -19.5 12.734375 -18.8125 C 13.441406 -18.125 13.796875 -17.222656 13.796875 -16.109375 C 13.796875 -13.910156 12.367188 -12.8125 9.515625 -12.8125 L 5.15625 -12.8125 L 5.15625 -19.84375 Z M 9.875 -10.421875 C 11.4375 -10.421875 12.613281 -10.097656 13.40625 -9.453125 C 14.164062 -8.816406 14.546875 -8.25 14.546875 -7.75 C 14.546875 -6.394531 14.164062 -5.488281 13.40625 -5.03125 C 12.65625 -4.570312 11.476562 -4.34375 9.875 -4.34375 L 5.15625 -4.34375 L 5.15625 -10.421875 Z M 9.875 -10.421875 "/></g></g></g><g fill="#000000" fill-opacity="1"><g transform="translate(101.531013, 44.358815)"><g><path d="M 2.1875 -8.203125 C 2.1875 -2.453125 4.976562 0.421875 10.5625 0.421875 C 13.300781 0.421875 15.375 -0.304688 16.78125 -1.765625 C 18.1875 -3.222656 18.890625 -5.367188 18.890625 -8.203125 L 18.890625 -21.828125 L 15.78125 -21.828125 L 16.078125 -10.59375 C 16.140625 -8.257812 15.707031 -6.578125 14.78125 -5.546875 C 13.863281 -4.523438 12.457031 -4.015625 10.5625 -4.015625 C 8.664062 -4.015625 7.253906 -4.523438 6.328125 -5.546875 C 5.398438 -6.578125 4.957031 -8.257812 5 -10.59375 L 5.296875 -21.828125 L 2.1875 -21.828125 Z M 2.1875 -8.203125 "/></g></g></g><g fill="#000000" fill-opacity="1"><g transform="translate(122.632477, 44.358815)"><g><path d="M 2.1875 0 L 5.71875 0 C 5.519531 -3.632812 5.410156 -7.269531 5.390625 -10.90625 C 5.367188 -14.550781 5.335938 -18.191406 5.296875 -21.828125 L 2.78125 -21.828125 C 2.707031 -18.191406 2.644531 -14.550781 2.59375 -10.90625 C 2.539062 -7.269531 2.40625 -3.632812 2.1875 0 Z M 2.1875 0 "/></g></g></g><g fill="#000000" fill-opacity="1"><g transform="translate(130.564236, 44.358815)"><g><path d="M 2.1875 0 L 15.625 0 L 15.921875 -4.515625 L 5.296875 -4.515625 L 5.453125 -21.828125 L 2.484375 -21.828125 Z M 2.1875 0 "/></g></g></g><g fill="#000000" fill-opacity="1"><g transform="translate(148.672593, 44.358815)"><g><path d="M 2.1875 0 L 8.265625 0 C 12.472656 0 15.566406 -0.878906 17.546875 -2.640625 C 19.535156 -4.410156 20.53125 -7.171875 20.53125 -10.921875 C 20.53125 -14.679688 19.539062 -17.4375 17.5625 -19.1875 C 15.59375 -20.945312 12.492188 -21.828125 8.265625 -21.828125 L 2.1875 -21.828125 Z M 8.859375 -19.40625 C 11.867188 -19.40625 14.0625 -18.722656 15.4375 -17.359375 C 16.820312 -16.003906 17.515625 -13.960938 17.515625 -11.234375 C 17.367188 -9.753906 16.992188 -8.59375 16.390625 -7.75 C 15.796875 -6.914062 14.894531 -6.332031 13.6875 -6 C 12.488281 -5.675781 10.878906 -5.515625 8.859375 -5.515625 L 5.296875 -5.515625 L 5.296875 -19.40625 Z M 8.859375 -19.40625 "/></g></g></g><g fill="#000000" fill-opacity="1"><g transform="translate(171.390345, 44.358815)"><g/></g></g><g fill="#000000" fill-opacity="1"><g transform="translate(183.093428, 44.358815)"><g><path d="M 2.1875 0 L 6.203125 0 L 7.3125 -3.5625 L 17.125 -3.5625 L 17.96875 0 L 22.1875 0 L 13.59375 -21.828125 L 10.8125 -21.828125 Z M 16.21875 -7.03125 L 8.171875 -7.03125 L 12.1875 -19.125 Z M 16.21875 -7.03125 "/></g></g></g><g fill="#000000" fill-opacity="1"><g transform="translate(207.457393, 44.358815)"><g><path d="M 2.1875 0 L 5.71875 0 L 6.015625 -8.46875 L 9.578125 -8.46875 C 12.035156 -8.46875 13.882812 -9.066406 15.125 -10.265625 C 16.375 -11.460938 17 -13.140625 17 -15.296875 C 17 -17.429688 16.375 -19.050781 15.125 -20.15625 C 13.882812 -21.269531 12.035156 -21.828125 9.578125 -21.828125 L 3.078125 -21.828125 Z M 9.875 -20.5625 C 11.351562 -20.5625 12.488281 -20.207031 13.28125 -19.5 C 14.082031 -18.789062 14.484375 -17.78125 14.484375 -16.46875 C 14.484375 -15.144531 14.082031 -14.128906 13.28125 -13.421875 C 12.488281 -12.710938 11.351562 -12.359375 9.875 -12.359375 L 5.875 -12.359375 L 6.171875 -20.5625 Z M 9.875 -20.5625 "/></g></g></g><g fill="#000000" fill-opacity="1"><g transform="translate(226.673201, 44.358815)"><g><path d="M 2.1875 0 L 5.71875 0 L 6.015625 -8.46875 L 9.578125 -8.46875 C 12.035156 -8.46875 13.882812 -9.066406 15.125 -10.265625 C 16.375 -11.460938 17 -13.140625 17 -15.296875 C 17 -17.429688 16.375 -19.050781 15.125 -20.15625 C 13.882812 -21.269531 12.035156 -21.828125 9.578125 -21.828125 L 3.078125 -21.828125 Z M 9.875 -20.5625 C 11.351562 -20.5625 12.488281 -20.207031 13.28125 -19.5 C 14.082031 -18.789062 14.484375 -17.78125 14.484375 -16.46875 C 14.484375 -15.144531 14.082031 -14.128906 13.28125 -13.421875 C 12.488281 -12.710938 11.351562 -12.359375 9.875 -12.359375 L 5.875 -12.359375 L 6.171875 -20.5625 Z M 9.875 -20.5625 "/></g></g></g><g fill="#000000" fill-opacity="1"><g transform="translate(245.889008, 44.358815)"><g><path d="M 2.1875 0 L 15.625 0 L 15.921875 -4.515625 L 5.296875 -4.515625 L 5.453125 -21.828125 L 2.484375 -21.828125 Z M 2.1875 0 "/></g></g></g><g fill="#000000" fill-opacity="1"><g transform="translate(263.997365, 44.358815)"><g><path d="M 2.1875 0 L 5.71875 0 C 5.519531 -3.632812 5.410156 -7.269531 5.390625 -10.90625 C 5.367188 -14.550781 5.335938 -18.191406 5.296875 -21.828125 L 2.78125 -21.828125 C 2.707031 -18.191406 2.644531 -14.550781 2.59375 -10.90625 C 2.539062 -7.269531 2.40625 -3.632812 2.1875 0 Z M 2.1875 0 "/></g></g></g><g fill="#000000" fill-opacity="1"><g transform="translate(271.929135, 44.358815)"><g><path d="M 19.78125 -20.140625 C 17.75 -21.523438 15.4375 -22.21875 12.84375 -22.21875 C 10.644531 -22.21875 8.75 -21.757812 7.15625 -20.84375 C 5.5625 -19.9375 4.332031 -18.632812 3.46875 -16.9375 C 2.613281 -15.25 2.1875 -13.234375 2.1875 -10.890625 C 2.1875 -8.554688 2.613281 -6.546875 3.46875 -4.859375 C 4.332031 -3.171875 5.5625 -1.867188 7.15625 -0.953125 C 8.75 -0.0351562 10.644531 0.421875 12.84375 0.421875 C 15.414062 0.421875 17.726562 -0.273438 19.78125 -1.671875 L 19.78125 -6.828125 C 17.8125 -4.972656 15.554688 -4.046875 13.015625 -4.046875 C 11.359375 -4.046875 9.960938 -4.257812 8.828125 -4.6875 C 7.691406 -5.113281 6.828125 -5.832031 6.234375 -6.84375 C 5.648438 -7.851562 5.335938 -9.203125 5.296875 -10.890625 C 5.296875 -13.785156 5.960938 -15.988281 7.296875 -17.5 C 8.640625 -19.019531 10.546875 -19.78125 13.015625 -19.78125 C 15.578125 -19.78125 17.832031 -18.863281 19.78125 -17.03125 Z M 19.78125 -20.140625 "/></g></g></g><g fill="#000000" fill-opacity="1"><g transform="translate(293.898618, 44.358815)"><g><path d="M 2.1875 0 L 6.203125 0 L 7.3125 -3.5625 L 17.125 -3.5625 L 17.96875 0 L 22.1875 0 L 13.59375 -21.828125 L 10.8125 -21.828125 Z M 16.21875 -7.03125 L 8.171875 -7.03125 L 12.1875 -19.125 Z M 16.21875 -7.03125 "/></g></g></g><g fill="#000000" fill-opacity="1"><g transform="translate(318.262583, 44.358815)"><g><path d="M 2.1875 -19.34375 L 9.9375 -19.640625 L 9.375 0 L 13.5 0 L 12.90625 -19.640625 L 20.65625 -19.34375 L 20.65625 -21.828125 L 2.1875 -21.828125 Z M 2.1875 -19.34375 "/></g></g></g><g fill="#000000" fill-opacity="1"><g transform="translate(341.100073, 44.358815)"><g><path d="M 2.1875 0 L 5.71875 0 C 5.519531 -3.632812 5.410156 -7.269531 5.390625 -10.90625 C 5.367188 -14.550781 5.335938 -18.191406 5.296875 -21.828125 L 2.78125 -21.828125 C 2.707031 -18.191406 2.644531 -14.550781 2.59375 -10.90625 C 2.539062 -7.269531 2.40625 -3.632812 2.1875 0 Z M 2.1875 0 "/></g></g></g><g fill="#000000" fill-opacity="1"><g transform="translate(349.031821, 44.358815)"><g><path d="M 12.296875 -22.21875 C 10.265625 -22.21875 8.488281 -21.75 6.96875 -20.8125 C 5.457031 -19.882812 4.28125 -18.570312 3.4375 -16.875 C 2.601562 -15.1875 2.1875 -13.191406 2.1875 -10.890625 C 2.1875 -8.597656 2.601562 -6.601562 3.4375 -4.90625 C 4.28125 -3.207031 5.457031 -1.894531 6.96875 -0.96875 C 8.488281 -0.0390625 10.265625 0.421875 12.296875 0.421875 C 14.359375 0.421875 16.140625 -0.0390625 17.640625 -0.96875 C 19.148438 -1.894531 20.316406 -3.207031 21.140625 -4.90625 C 21.972656 -6.601562 22.390625 -8.597656 22.390625 -10.890625 C 22.390625 -13.191406 21.972656 -15.1875 21.140625 -16.875 C 20.316406 -18.570312 19.148438 -19.882812 17.640625 -20.8125 C 16.140625 -21.75 14.359375 -22.21875 12.296875 -22.21875 Z M 12.296875 -19.8125 C 13.734375 -19.8125 14.972656 -19.453125 16.015625 -18.734375 C 17.054688 -18.015625 17.859375 -16.988281 18.421875 -15.65625 C 18.992188 -14.320312 19.28125 -12.734375 19.28125 -10.890625 C 19.28125 -9.398438 18.992188 -8.238281 18.421875 -7.40625 C 17.859375 -6.582031 17.054688 -6.003906 16.015625 -5.671875 C 14.972656 -5.335938 13.734375 -5.171875 12.296875 -5.171875 C 10.878906 -5.171875 9.640625 -5.335938 8.578125 -5.671875 C 7.523438 -6.003906 6.710938 -6.582031 6.140625 -7.40625 C 5.578125 -8.238281 5.296875 -9.398438 5.296875 -10.890625 C 5.296875 -12.734375 5.578125 -14.320312 6.140625 -15.65625 C 6.710938 -16.988281 7.523438 -18.015625 8.578125 -18.734375 C 9.640625 -19.453125 10.878906 -19.8125 12.296875 -19.8125 Z M 12.296875 -19.8125 "/></g></g></g><g fill="#000000" fill-opacity="1"><g transform="translate(373.605303, 44.358815)"><g><path d="M 2.1875 0 L 5.921875 0 L 5.0625 -18.265625 L 14.734375 0 L 19.015625 0 L 19.015625 -21.828125 L 16.28125 -21.828125 L 15.84375 -4.15625 L 6.46875 -21.375 L 2.78125 -21.375 Z M 2.1875 0 "/></g></g></g><g fill="#000000" fill-opacity="1"><g transform="translate(394.796569, 44.358815)"><g><path d="M 16.21875 -21.109375 C 14.03125 -21.847656 11.90625 -22.21875 9.84375 -22.21875 C 7.445312 -22.21875 5.570312 -21.660156 4.21875 -20.546875 C 2.863281 -19.441406 2.1875 -17.921875 2.1875 -15.984375 C 2.1875 -14.328125 2.679688 -13.03125 3.671875 -12.09375 C 4.660156 -11.15625 6.25 -10.46875 8.4375 -10.03125 L 10.234375 -9.671875 C 11.734375 -9.367188 12.8125 -8.910156 13.46875 -8.296875 C 14.125 -7.691406 14.453125 -7.101562 14.453125 -6.53125 C 14.453125 -6.101562 14.25 -5.660156 13.84375 -5.203125 C 13.4375 -4.742188 12.84375 -4.359375 12.0625 -4.046875 C 11.28125 -3.742188 10.320312 -3.59375 9.1875 -3.59375 C 6.988281 -3.59375 4.6875 -4.269531 2.28125 -5.625 L 2.28125 -0.953125 C 3.53125 -0.492188 4.734375 -0.148438 5.890625 0.078125 C 7.054688 0.304688 8.15625 0.421875 9.1875 0.421875 C 11.925781 0.421875 14.003906 -0.117188 15.421875 -1.203125 C 16.835938 -2.296875 17.546875 -3.898438 17.546875 -6.015625 C 17.546875 -7.796875 17.019531 -9.210938 15.96875 -10.265625 C 14.925781 -11.328125 13.304688 -12.066406 11.109375 -12.484375 L 9.34375 -12.84375 C 7.726562 -13.144531 6.625 -13.546875 6.03125 -14.046875 C 5.445312 -14.546875 5.15625 -15.269531 5.15625 -16.21875 C 5.15625 -17.382812 5.59375 -18.273438 6.46875 -18.890625 C 7.34375 -19.503906 8.578125 -19.8125 10.171875 -19.8125 C 12.035156 -19.8125 14.050781 -19.285156 16.21875 -18.234375 Z M 16.21875 -21.109375 "/></g></g></g><g fill="#333333" fill-opacity="1"><g transform="translate(17.464239, 86.752227)"><g><path d="M 12.546875 -10.234375 C 13.566406 -10.578125 14.367188 -11.203125 14.953125 -12.109375 C 15.546875 -13.015625 15.84375 -14.15625 15.84375 -15.53125 C 15.84375 -17.65625 15.226562 -19.234375 14 -20.265625 C 12.769531 -21.304688 11.054688 -21.828125 8.859375 -21.828125 L 2.1875 -21.828125 L 2.1875 0 L 5.71875 0 L 5.71875 -9.21875 L 7.9375 -9.21875 C 8.707031 -9.21875 9.367188 -9.117188 9.921875 -8.921875 C 10.472656 -8.722656 10.96875 -8.363281 11.40625 -7.84375 C 11.84375 -7.320312 12.300781 -6.570312 12.78125 -5.59375 L 15 0 L 19.1875 0 L 16.203125 -5.953125 C 14.984375 -8.410156 13.765625 -9.835938 12.546875 -10.234375 Z M 9.15625 -20.265625 C 9.914062 -20.265625 10.644531 -20.128906 11.34375 -19.859375 C 12.039062 -19.585938 12.613281 -19.113281 13.0625 -18.4375 C 13.507812 -17.757812 13.734375 -16.789062 13.734375 -15.53125 C 13.734375 -14.957031 13.507812 -14.414062 13.0625 -13.90625 C 12.613281 -13.394531 12.039062 -12.988281 11.34375 -12.6875 C 10.644531 -12.394531 9.914062 -12.25 9.15625 -12.25 L 5.453125 -12.25 L 5.453125 -20.265625 Z M 9.15625 -20.265625 "/></g></g></g><g fill="#333333" fill-opacity="1"><g transform="translate(38.835085, 86.752227)"><g><path d="M 12.296875 -22.21875 C 10.265625 -22.21875 8.488281 -21.75 6.96875 -20.8125 C 5.457031 -19.882812 4.28125 -18.570312 3.4375 -16.875 C 2.601562 -15.1875 2.1875 -13.191406 2.1875 -10.890625 C 2.1875 -8.597656 2.601562 -6.601562 3.4375 -4.90625 C 4.28125 -3.207031 5.457031 -1.894531 6.96875 -0.96875 C 8.488281 -0.0390625 10.265625 0.421875 12.296875 0.421875 C 14.359375 0.421875 16.140625 -0.0390625 17.640625 -0.96875 C 19.148438 -1.894531 20.316406 -3.207031 21.140625 -4.90625 C 21.972656 -6.601562 22.390625 -8.597656 22.390625 -10.890625 C 22.390625 -13.191406 21.972656 -15.1875 21.140625 -16.875 C 20.316406 -18.570312 19.148438 -19.882812 17.640625 -20.8125 C 16.140625 -21.75 14.359375 -22.21875 12.296875 -22.21875 Z M 12.296875 -19.8125 C 13.734375 -19.8125 14.972656 -19.453125 16.015625 -18.734375 C 17.054688 -18.015625 17.859375 -16.988281 18.421875 -15.65625 C 18.992188 -14.320312 19.28125 -12.734375 19.28125 -10.890625 C 19.28125 -9.398438 18.992188 -8.238281 18.421875 -7.40625 C 17.859375 -6.582031 17.054688 -6.003906 16.015625 -5.671875 C 14.972656 -5.335938 13.734375 -5.171875 12.296875 -5.171875 C 10.878906 -5.171875 9.640625 -5.335938 8.578125 -5.671875 C 7.523438 -6.003906 6.710938 -6.582031 6.140625 -7.40625 C 5.578125 -8.238281 5.296875 -9.398438 5.296875 -10.890625 C 5.296875 -12.734375 5.578125 -14.320312 6.140625 -15.65625 C 6.710938 -16.988281 7.523438 -18.015625 8.578125 -18.734375 C 9.640625 -19.453125 10.878906 -19.8125 12.296875 -19.8125 Z M 12.296875 -19.8125 "/></g></g></g><g fill="#333333" fill-opacity="1"><g transform="translate(63.408567, 86.752227)"><g><path d="M 12.296875 -22.21875 C 10.265625 -22.21875 8.488281 -21.75 6.96875 -20.8125 C 5.457031 -19.882812 4.28125 -18.570312 3.4375 -16.875 C 2.601562 -15.1875 2.1875 -13.191406 2.1875 -10.890625 C 2.1875 -8.597656 2.601562 -6.601562 3.4375 -4.90625 C 4.28125 -3.207031 5.457031 -1.894531 6.96875 -0.96875 C 8.488281 -0.0390625 10.265625 0.421875 12.296875 0.421875 C 14.359375 0.421875 16.140625 -0.0390625 17.640625 -0.96875 C 19.148438 -1.894531 20.316406 -3.207031 21.140625 -4.90625 C 21.972656 -6.601562 22.390625 -8.597656 22.390625 -10.890625 C 22.390625 -13.191406 21.972656 -15.1875 21.140625 -16.875 C 20.316406 -18.570312 19.148438 -19.882812 17.640625 -20.8125 C 16.140625 -21.75 14.359375 -22.21875 12.296875 -22.21875 Z M 12.296875 -19.8125 C 13.734375 -19.8125 14.972656 -19.453125 16.015625 -18.734375 C 17.054688 -18.015625 17.859375 -16.988281 18.421875 -15.65625 C 18.992188 -14.320312 19.28125 -12.734375 19.28125 -10.890625 C 19.28125 -9.398438 18.992188 -8.238281 18.421875 -7.40625 C 17.859375 -6.582031 17.054688 -6.003906 16.015625 -5.671875 C 14.972656 -5.335938 13.734375 -5.171875 12.296875 -5.171875 C 10.878906 -5.171875 9.640625 -5.335938 8.578125 -5.671875 C 7.523438 -6.003906 6.710938 -6.582031 6.140625 -7.40625 C 5.578125 -8.238281 5.296875 -9.398438 5.296875 -10.890625 C 5.296875 -12.734375 5.578125 -14.320312 6.140625 -15.65625 C 6.710938 -16.988281 7.523438 -18.015625 8.578125 -18.734375 C 9.640625 -19.453125 10.878906 -19.8125 12.296875 -19.8125 Z M 12.296875 -19.8125 "/></g></g></g><g fill="#333333" fill-opacity="1"><g transform="translate(87.982049, 86.752227)"><g><path d="M 2.1875 -19.34375 L 9.9375 -19.640625 L 9.375 0 L 13.5 0 L 12.90625 -19.640625 L 20.65625 -19.34375 L 20.65625 -21.828125 L 2.1875 -21.828125 Z M 2.1875 -19.34375 "/></g></g></g><g fill="#333333" fill-opacity="1"><g transform="translate(110.819529, 86.752227)"><g><path d="M 2.1875 0 L 16.25 0 L 16.25 -4.515625 L 5.15625 -4.515625 L 5.15625 -10.390625 L 15.53125 -10.390625 L 15.53125 -12.875 L 5.15625 -12.875 L 5.15625 -19.34375 L 15.984375 -19.34375 L 15.984375 -21.828125 L 2.1875 -21.828125 Z M 2.1875 0 "/></g></g></g><g fill="#333333" fill-opacity="1"><g transform="translate(129.25713, 86.752227)"><g><path d="M 2.1875 0 L 8.265625 0 C 12.472656 0 15.566406 -0.878906 17.546875 -2.640625 C 19.535156 -4.410156 20.53125 -7.171875 20.53125 -10.921875 C 20.53125 -14.679688 19.539062 -17.4375 17.5625 -19.1875 C 15.59375 -20.945312 12.492188 -21.828125 8.265625 -21.828125 L 2.1875 -21.828125 Z M 8.859375 -19.40625 C 11.867188 -19.40625 14.0625 -18.722656 15.4375 -17.359375 C 16.820312 -16.003906 17.515625 -13.960938 17.515625 -11.234375 C 17.367188 -9.753906 16.992188 -8.59375 16.390625 -7.75 C 15.796875 -6.914062 14.894531 -6.332031 13.6875 -6 C 12.488281 -5.675781 10.878906 -5.515625 8.859375 -5.515625 L 5.296875 -5.515625 L 5.296875 -19.40625 Z M 8.859375 -19.40625 "/></g></g></g><g fill="#bef3d6" fill-opacity="1"><g transform="translate(16.580718, 86.262483)"><g><path d="M 12.546875 -10.234375 C 13.566406 -10.578125 14.367188 -11.203125 14.953125 -12.109375 C 15.546875 -13.015625 15.84375 -14.15625 15.84375 -15.53125 C 15.84375 -17.65625 15.226562 -19.234375 14 -20.265625 C 12.769531 -21.304688 11.054688 -21.828125 8.859375 -21.828125 L 2.1875 -21.828125 L 2.1875 0 L 5.71875 0 L 5.71875 -9.21875 L 7.9375 -9.21875 C 8.707031 -9.21875 9.367188 -9.117188 9.921875 -8.921875 C 10.472656 -8.722656 10.96875 -8.363281 11.40625 -7.84375 C 11.84375 -7.320312 12.300781 -6.570312 12.78125 -5.59375 L 15 0 L 19.1875 0 L 16.203125 -5.953125 C 14.984375 -8.410156 13.765625 -9.835938 12.546875 -10.234375 Z M 9.15625 -20.265625 C 9.914062 -20.265625 10.644531 -20.128906 11.34375 -19.859375 C 12.039062 -19.585938 12.613281 -19.113281 13.0625 -18.4375 C 13.507812 -17.757812 13.734375 -16.789062 13.734375 -15.53125 C 13.734375 -14.957031 13.507812 -14.414062 13.0625 -13.90625 C 12.613281 -13.394531 12.039062 -12.988281 11.34375 -12.6875 C 10.644531 -12.394531 9.914062 -12.25 9.15625 -12.25 L 5.453125 -12.25 L 5.453125 -20.265625 Z M 9.15625 -20.265625 "/></g></g></g><g fill="#bef3d6" fill-opacity="1"><g transform="translate(37.951563, 86.262483)"><g><path d="M 12.296875 -22.21875 C 10.265625 -22.21875 8.488281 -21.75 6.96875 -20.8125 C 5.457031 -19.882812 4.28125 -18.570312 3.4375 -16.875 C 2.601562 -15.1875 2.1875 -13.191406 2.1875 -10.890625 C 2.1875 -8.597656 2.601562 -6.601562 3.4375 -4.90625 C 4.28125 -3.207031 5.457031 -1.894531 6.96875 -0.96875 C 8.488281 -0.0390625 10.265625 0.421875 12.296875 0.421875 C 14.359375 0.421875 16.140625 -0.0390625 17.640625 -0.96875 C 19.148438 -1.894531 20.316406 -3.207031 21.140625 -4.90625 C 21.972656 -6.601562 22.390625 -8.597656 22.390625 -10.890625 C 22.390625 -13.191406 21.972656 -15.1875 21.140625 -16.875 C 20.316406 -18.570312 19.148438 -19.882812 17.640625 -20.8125 C 16.140625 -21.75 14.359375 -22.21875 12.296875 -22.21875 Z M 12.296875 -19.8125 C 13.734375 -19.8125 14.972656 -19.453125 16.015625 -18.734375 C 17.054688 -18.015625 17.859375 -16.988281 18.421875 -15.65625 C 18.992188 -14.320312 19.28125 -12.734375 19.28125 -10.890625 C 19.28125 -9.398438 18.992188 -8.238281 18.421875 -7.40625 C 17.859375 -6.582031 17.054688 -6.003906 16.015625 -5.671875 C 14.972656 -5.335938 13.734375 -5.171875 12.296875 -5.171875 C 10.878906 -5.171875 9.640625 -5.335938 8.578125 -5.671875 C 7.523438 -6.003906 6.710938 -6.582031 6.140625 -7.40625 C 5.578125 -8.238281 5.296875 -9.398438 5.296875 -10.890625 C 5.296875 -12.734375 5.578125 -14.320312 6.140625 -15.65625 C 6.710938 -16.988281 7.523438 -18.015625 8.578125 -18.734375 C 9.640625 -19.453125 10.878906 -19.8125 12.296875 -19.8125 Z M 12.296875 -19.8125 "/></g></g></g><g fill="#bef3d6" fill-opacity="1"><g transform="translate(62.525046, 86.262483)"><g><path d="M 12.296875 -22.21875 C 10.265625 -22.21875 8.488281 -21.75 6.96875 -20.8125 C 5.457031 -19.882812 4.28125 -18.570312 3.4375 -16.875 C 2.601562 -15.1875 2.1875 -13.191406 2.1875 -10.890625 C 2.1875 -8.597656 2.601562 -6.601562 3.4375 -4.90625 C 4.28125 -3.207031 5.457031 -1.894531 6.96875 -0.96875 C 8.488281 -0.0390625 10.265625 0.421875 12.296875 0.421875 C 14.359375 0.421875 16.140625 -0.0390625 17.640625 -0.96875 C 19.148438 -1.894531 20.316406 -3.207031 21.140625 -4.90625 C 21.972656 -6.601562 22.390625 -8.597656 22.390625 -10.890625 C 22.390625 -13.191406 21.972656 -15.1875 21.140625 -16.875 C 20.316406 -18.570312 19.148438 -19.882812 17.640625 -20.8125 C 16.140625 -21.75 14.359375 -22.21875 12.296875 -22.21875 Z M 12.296875 -19.8125 C 13.734375 -19.8125 14.972656 -19.453125 16.015625 -18.734375 C 17.054688 -18.015625 17.859375 -16.988281 18.421875 -15.65625 C 18.992188 -14.320312 19.28125 -12.734375 19.28125 -10.890625 C 19.28125 -9.398438 18.992188 -8.238281 18.421875 -7.40625 C 17.859375 -6.582031 17.054688 -6.003906 16.015625 -5.671875 C 14.972656 -5.335938 13.734375 -5.171875 12.296875 -5.171875 C 10.878906 -5.171875 9.640625 -5.335938 8.578125 -5.671875 C 7.523438 -6.003906 6.710938 -6.582031 6.140625 -7.40625 C 5.578125 -8.238281 5.296875 -9.398438 5.296875 -10.890625 C 5.296875 -12.734375 5.578125 -14.320312 6.140625 -15.65625 C 6.710938 -16.988281 7.523438 -18.015625 8.578125 -18.734375 C 9.640625 -19.453125 10.878906 -19.8125 12.296875 -19.8125 Z M 12.296875 -19.8125 "/></g></g></g><g fill="#bef3d6" fill-opacity="1"><g transform="translate(87.098528, 86.262483)"><g><path d="M 2.1875 -19.34375 L 9.9375 -19.640625 L 9.375 0 L 13.5 0 L 12.90625 -19.640625 L 20.65625 -19.34375 L 20.65625 -21.828125 L 2.1875 -21.828125 Z M 2.1875 -19.34375 "/></g></g></g><g fill="#bef3d6" fill-opacity="1"><g transform="translate(109.936007, 86.262483)"><g><path d="M 2.1875 0 L 16.25 0 L 16.25 -4.515625 L 5.15625 -4.515625 L 5.15625 -10.390625 L 15.53125 -10.390625 L 15.53125 -12.875 L 5.15625 -12.875 L 5.15625 -19.34375 L 15.984375 -19.34375 L 15.984375 -21.828125 L 2.1875 -21.828125 Z M 2.1875 0 "/></g></g></g><g fill="#bef3d6" fill-opacity="1"><g transform="translate(128.373609, 86.262483)"><g><path d="M 2.1875 0 L 8.265625 0 C 12.472656 0 15.566406 -0.878906 17.546875 -2.640625 C 19.535156 -4.410156 20.53125 -7.171875 20.53125 -10.921875 C 20.53125 -14.679688 19.539062 -17.4375 17.5625 -19.1875 C 15.59375 -20.945312 12.492188 -21.828125 8.265625 -21.828125 L 2.1875 -21.828125 Z M 8.859375 -19.40625 C 11.867188 -19.40625 14.0625 -18.722656 15.4375 -17.359375 C 16.820312 -16.003906 17.515625 -13.960938 17.515625 -11.234375 C 17.367188 -9.753906 16.992188 -8.59375 16.390625 -7.75 C 15.796875 -6.914062 14.894531 -6.332031 13.6875 -6 C 12.488281 -5.675781 10.878906 -5.515625 8.859375 -5.515625 L 5.296875 -5.515625 L 5.296875 -19.40625 Z M 8.859375 -19.40625 "/></g></g></g><g fill="#333333" fill-opacity="1"><g transform="translate(151.97922, 86.752227)"><g/></g></g><g fill="#333333" fill-opacity="1"><g transform="translate(163.682304, 86.752227)"><g><path d="M 2.1875 0 L 5.71875 0 C 5.519531 -3.632812 5.410156 -7.269531 5.390625 -10.90625 C 5.367188 -14.550781 5.335938 -18.191406 5.296875 -21.828125 L 2.78125 -21.828125 C 2.707031 -18.191406 2.644531 -14.550781 2.59375 -10.90625 C 2.539062 -7.269531 2.40625 -3.632812 2.1875 0 Z M 2.1875 0 "/></g></g></g><g fill="#333333" fill-opacity="1"><g transform="translate(171.614063, 86.752227)"><g><path d="M 2.1875 0 L 5.921875 0 L 5.0625 -18.265625 L 14.734375 0 L 19.015625 0 L 19.015625 -21.828125 L 16.28125 -21.828125 L 15.84375 -4.15625 L 6.46875 -21.375 L 2.78125 -21.375 Z M 2.1875 0 "/></g></g></g><g fill="#333333" fill-opacity="1"><g transform="translate(192.805329, 86.752227)"><g/></g></g><g fill="#333333" fill-opacity="1"><g transform="translate(204.508413, 86.752227)"><g><path d="M 2.1875 0 L 6.203125 0 L 7.3125 -3.5625 L 17.125 -3.5625 L 17.96875 0 L 22.1875 0 L 13.59375 -21.828125 L 10.8125 -21.828125 Z M 16.21875 -7.03125 L 8.171875 -7.03125 L 12.1875 -19.125 Z M 16.21875 -7.03125 "/></g></g></g><g fill="#333333" fill-opacity="1"><g transform="translate(228.872377, 86.752227)"><g><path d="M 19.78125 -20.140625 C 17.75 -21.523438 15.4375 -22.21875 12.84375 -22.21875 C 10.644531 -22.21875 8.75 -21.757812 7.15625 -20.84375 C 5.5625 -19.9375 4.332031 -18.632812 3.46875 -16.9375 C 2.613281 -15.25 2.1875 -13.234375 2.1875 -10.890625 C 2.1875 -8.554688 2.613281 -6.546875 3.46875 -4.859375 C 4.332031 -3.171875 5.5625 -1.867188 7.15625 -0.953125 C 8.75 -0.0351562 10.644531 0.421875 12.84375 0.421875 C 15.414062 0.421875 17.726562 -0.273438 19.78125 -1.671875 L 19.78125 -6.828125 C 17.8125 -4.972656 15.554688 -4.046875 13.015625 -4.046875 C 11.359375 -4.046875 9.960938 -4.257812 8.828125 -4.6875 C 7.691406 -5.113281 6.828125 -5.832031 6.234375 -6.84375 C 5.648438 -7.851562 5.335938 -9.203125 5.296875 -10.890625 C 5.296875 -13.785156 5.960938 -15.988281 7.296875 -17.5 C 8.640625 -19.019531 10.546875 -19.78125 13.015625 -19.78125 C 15.578125 -19.78125 17.832031 -18.863281 19.78125 -17.03125 Z M 19.78125 -20.140625 "/></g></g></g><g fill="#333333" fill-opacity="1"><g transform="translate(250.841849, 86.752227)"><g><path d="M 19.78125 -20.140625 C 17.75 -21.523438 15.4375 -22.21875 12.84375 -22.21875 C 10.644531 -22.21875 8.75 -21.757812 7.15625 -20.84375 C 5.5625 -19.9375 4.332031 -18.632812 3.46875 -16.9375 C 2.613281 -15.25 2.1875 -13.234375 2.1875 -10.890625 C 2.1875 -8.554688 2.613281 -6.546875 3.46875 -4.859375 C 4.332031 -3.171875 5.5625 -1.867188 7.15625 -0.953125 C 8.75 -0.0351562 10.644531 0.421875 12.84375 0.421875 C 15.414062 0.421875 17.726562 -0.273438 19.78125 -1.671875 L 19.78125 -6.828125 C 17.8125 -4.972656 15.554688 -4.046875 13.015625 -4.046875 C 11.359375 -4.046875 9.960938 -4.257812 8.828125 -4.6875 C 7.691406 -5.113281 6.828125 -5.832031 6.234375 -6.84375 C 5.648438 -7.851562 5.335938 -9.203125 5.296875 -10.890625 C 5.296875 -13.785156 5.960938 -15.988281 7.296875 -17.5 C 8.640625 -19.019531 10.546875 -19.78125 13.015625 -19.78125 C 15.578125 -19.78125 17.832031 -18.863281 19.78125 -17.03125 Z M 19.78125 -20.140625 "/></g></g></g><g fill="#333333" fill-opacity="1"><g transform="translate(272.811321, 86.752227)"><g><path d="M 2.1875 0 L 16.25 0 L 16.25 -4.515625 L 5.15625 -4.515625 L 5.15625 -10.390625 L 15.53125 -10.390625 L 15.53125 -12.875 L 5.15625 -12.875 L 5.15625 -19.34375 L 15.984375 -19.34375 L 15.984375 -21.828125 L 2.1875 -21.828125 Z M 2.1875 0 "/></g></g></g><g fill="#333333" fill-opacity="1"><g transform="translate(291.248923, 86.752227)"><g><path d="M 16.21875 -21.109375 C 14.03125 -21.847656 11.90625 -22.21875 9.84375 -22.21875 C 7.445312 -22.21875 5.570312 -21.660156 4.21875 -20.546875 C 2.863281 -19.441406 2.1875 -17.921875 2.1875 -15.984375 C 2.1875 -14.328125 2.679688 -13.03125 3.671875 -12.09375 C 4.660156 -11.15625 6.25 -10.46875 8.4375 -10.03125 L 10.234375 -9.671875 C 11.734375 -9.367188 12.8125 -8.910156 13.46875 -8.296875 C 14.125 -7.691406 14.453125 -7.101562 14.453125 -6.53125 C 14.453125 -6.101562 14.25 -5.660156 13.84375 -5.203125 C 13.4375 -4.742188 12.84375 -4.359375 12.0625 -4.046875 C 11.28125 -3.742188 10.320312 -3.59375 9.1875 -3.59375 C 6.988281 -3.59375 4.6875 -4.269531 2.28125 -5.625 L 2.28125 -0.953125 C 3.53125 -0.492188 4.734375 -0.148438 5.890625 0.078125 C 7.054688 0.304688 8.15625 0.421875 9.1875 0.421875 C 11.925781 0.421875 14.003906 -0.117188 15.421875 -1.203125 C 16.835938 -2.296875 17.546875 -3.898438 17.546875 -6.015625 C 17.546875 -7.796875 17.019531 -9.210938 15.96875 -10.265625 C 14.925781 -11.328125 13.304688 -12.066406 11.109375 -12.484375 L 9.34375 -12.84375 C 7.726562 -13.144531 6.625 -13.546875 6.03125 -14.046875 C 5.445312 -14.546875 5.15625 -15.269531 5.15625 -16.21875 C 5.15625 -17.382812 5.59375 -18.273438 6.46875 -18.890625 C 7.34375 -19.503906 8.578125 -19.8125 10.171875 -19.8125 C 12.035156 -19.8125 14.050781 -19.285156 16.21875 -18.234375 Z M 16.21875 -21.109375 "/></g></g></g><g fill="#333333" fill-opacity="1"><g transform="translate(311.003493, 86.752227)"><g><path d="M 16.21875 -21.109375 C 14.03125 -21.847656 11.90625 -22.21875 9.84375 -22.21875 C 7.445312 -22.21875 5.570312 -21.660156 4.21875 -20.546875 C 2.863281 -19.441406 2.1875 -17.921875 2.1875 -15.984375 C 2.1875 -14.328125 2.679688 -13.03125 3.671875 -12.09375 C 4.660156 -11.15625 6.25 -10.46875 8.4375 -10.03125 L 10.234375 -9.671875 C 11.734375 -9.367188 12.8125 -8.910156 13.46875 -8.296875 C 14.125 -7.691406 14.453125 -7.101562 14.453125 -6.53125 C 14.453125 -6.101562 14.25 -5.660156 13.84375 -5.203125 C 13.4375 -4.742188 12.84375 -4.359375 12.0625 -4.046875 C 11.28125 -3.742188 10.320312 -3.59375 9.1875 -3.59375 C 6.988281 -3.59375 4.6875 -4.269531 2.28125 -5.625 L 2.28125 -0.953125 C 3.53125 -0.492188 4.734375 -0.148438 5.890625 0.078125 C 7.054688 0.304688 8.15625 0.421875 9.1875 0.421875 C 11.925781 0.421875 14.003906 -0.117188 15.421875 -1.203125 C 16.835938 -2.296875 17.546875 -3.898438 17.546875 -6.015625 C 17.546875 -7.796875 17.019531 -9.210938 15.96875 -10.265625 C 14.925781 -11.328125 13.304688 -12.066406 11.109375 -12.484375 L 9.34375 -12.84375 C 7.726562 -13.144531 6.625 -13.546875 6.03125 -14.046875 C 5.445312 -14.546875 5.15625 -15.269531 5.15625 -16.21875 C 5.15625 -17.382812 5.59375 -18.273438 6.46875 -18.890625 C 7.34375 -19.503906 8.578125 -19.8125 10.171875 -19.8125 C 12.035156 -19.8125 14.050781 -19.285156 16.21875 -18.234375 Z M 16.21875 -21.109375 "/></g></g></g><g fill="#333333" fill-opacity="1"><g transform="translate(330.758063, 86.752227)"><g><path d="M 2.1875 0 L 5.71875 0 C 5.519531 -3.632812 5.410156 -7.269531 5.390625 -10.90625 C 5.367188 -14.550781 5.335938 -18.191406 5.296875 -21.828125 L 2.78125 -21.828125 C 2.707031 -18.191406 2.644531 -14.550781 2.59375 -10.90625 C 2.539062 -7.269531 2.40625 -3.632812 2.1875 0 Z M 2.1875 0 "/></g></g></g><g fill="#333333" fill-opacity="1"><g transform="translate(338.689822, 86.752227)"><g><path d="M 2.1875 0 L 10.03125 0 C 12.488281 0 14.425781 -0.53125 15.84375 -1.59375 C 17.257812 -2.664062 17.96875 -4.171875 17.96875 -6.109375 C 17.96875 -7.585938 17.515625 -8.816406 16.609375 -9.796875 C 15.710938 -10.785156 14.296875 -11.441406 12.359375 -11.765625 C 14.816406 -12.160156 16.046875 -13.71875 16.046875 -16.4375 C 16.046875 -18.15625 15.4375 -19.484375 14.21875 -20.421875 C 13 -21.359375 11.265625 -21.828125 9.015625 -21.828125 L 2.1875 -21.828125 Z M 9.515625 -19.84375 C 10.953125 -19.84375 12.023438 -19.5 12.734375 -18.8125 C 13.441406 -18.125 13.796875 -17.222656 13.796875 -16.109375 C 13.796875 -13.910156 12.367188 -12.8125 9.515625 -12.8125 L 5.15625 -12.8125 L 5.15625 -19.84375 Z M 9.875 -10.421875 C 11.4375 -10.421875 12.613281 -10.097656 13.40625 -9.453125 C 14.164062 -8.816406 14.546875 -8.25 14.546875 -7.75 C 14.546875 -6.394531 14.164062 -5.488281 13.40625 -5.03125 C 12.65625 -4.570312 11.476562 -4.34375 9.875 -4.34375 L 5.15625 -4.34375 L 5.15625 -10.421875 Z M 9.875 -10.421875 "/></g></g></g><g fill="#333333" fill-opacity="1"><g transform="translate(358.833501, 86.752227)"><g><path d="M 2.1875 0 L 5.71875 0 C 5.519531 -3.632812 5.410156 -7.269531 5.390625 -10.90625 C 5.367188 -14.550781 5.335938 -18.191406 5.296875 -21.828125 L 2.78125 -21.828125 C 2.707031 -18.191406 2.644531 -14.550781 2.59375 -10.90625 C 2.539062 -7.269531 2.40625 -3.632812 2.1875 0 Z M 2.1875 0 "/></g></g></g><g fill="#333333" fill-opacity="1"><g transform="translate(366.765248, 86.752227)"><g><path d="M 2.1875 0 L 15.625 0 L 15.921875 -4.515625 L 5.296875 -4.515625 L 5.453125 -21.828125 L 2.484375 -21.828125 Z M 2.1875 0 "/></g></g></g><g fill="#333333" fill-opacity="1"><g transform="translate(384.873605, 86.752227)"><g><path d="M 2.1875 0 L 5.71875 0 C 5.519531 -3.632812 5.410156 -7.269531 5.390625 -10.90625 C 5.367188 -14.550781 5.335938 -18.191406 5.296875 -21.828125 L 2.78125 -21.828125 C 2.707031 -18.191406 2.644531 -14.550781 2.59375 -10.90625 C 2.539062 -7.269531 2.40625 -3.632812 2.1875 0 Z M 2.1875 0 "/></g></g></g><g fill="#333333" fill-opacity="1"><g transform="translate(392.805376, 86.752227)"><g><path d="M 2.1875 -19.34375 L 9.9375 -19.640625 L 9.375 0 L 13.5 0 L 12.90625 -19.640625 L 20.65625 -19.34375 L 20.65625 -21.828125 L 2.1875 -21.828125 Z M 2.1875 -19.34375 "/></g></g></g><g fill="#333333" fill-opacity="1"><g transform="translate(415.642843, 86.752227)"><g><path d="M 9.34375 -7.484375 L 9.34375 0 L 13.328125 0 L 13.328125 -7.484375 L 20.59375 -21.828125 L 17.421875 -21.828125 L 11.40625 -10.65625 L 5.359375 -21.828125 L 2.1875 -21.828125 Z M 9.34375 -7.484375 "/></g></g></g><g fill="#333333" fill-opacity="1"><g transform="translate(438.420458, 86.752227)"><g><path d="M 2.484375 -12.25 L 2.1875 -7.03125 L 6.171875 -7.03125 L 5.71875 -12.25 L 5.59375 -21.828125 L 2.75 -21.828125 Z M 2.328125 0 L 6.015625 0 L 5.71875 -3.71875 L 2.609375 -3.71875 Z M 2.328125 0 "/></g></g></g><g fill="#333333" fill-opacity="1"><g transform="translate(446.771263, 86.752227)"><g><path d="M 3.59375 -18.890625 L 2.1875 -13.46875 L 4.375 -13.46875 L 7.1875 -18.890625 L 7.1875 -21.828125 L 3.59375 -21.828125 Z M 10.5625 -18.890625 L 9.15625 -13.46875 L 11.34375 -13.46875 L 14.125 -18.890625 L 14.125 -21.828125 L 10.5625 -21.828125 Z M 10.5625 -18.890625 "/></g></g></g><g fill="#000000" fill-opacity="1"><g transform="translate(151.095699, 86.262483)"><g/></g></g><g fill="#000000" fill-opacity="1"><g transform="translate(162.798783, 86.262483)"><g><path d="M 2.1875 0 L 5.71875 0 C 5.519531 -3.632812 5.410156 -7.269531 5.390625 -10.90625 C 5.367188 -14.550781 5.335938 -18.191406 5.296875 -21.828125 L 2.78125 -21.828125 C 2.707031 -18.191406 2.644531 -14.550781 2.59375 -10.90625 C 2.539062 -7.269531 2.40625 -3.632812 2.1875 0 Z M 2.1875 0 "/></g></g></g><g fill="#000000" fill-opacity="1"><g transform="translate(170.730541, 86.262483)"><g><path d="M 2.1875 0 L 5.921875 0 L 5.0625 -18.265625 L 14.734375 0 L 19.015625 0 L 19.015625 -21.828125 L 16.28125 -21.828125 L 15.84375 -4.15625 L 6.46875 -21.375 L 2.78125 -21.375 Z M 2.1875 0 "/></g></g></g><g fill="#000000" fill-opacity="1"><g transform="translate(191.921808, 86.262483)"><g/></g></g><g fill="#000000" fill-opacity="1"><g transform="translate(203.624891, 86.262483)"><g><path d="M 2.1875 0 L 6.203125 0 L 7.3125 -3.5625 L 17.125 -3.5625 L 17.96875 0 L 22.1875 0 L 13.59375 -21.828125 L 10.8125 -21.828125 Z M 16.21875 -7.03125 L 8.171875 -7.03125 L 12.1875 -19.125 Z M 16.21875 -7.03125 "/></g></g></g><g fill="#000000" fill-opacity="1"><g transform="translate(227.988856, 86.262483)"><g><path d="M 19.78125 -20.140625 C 17.75 -21.523438 15.4375 -22.21875 12.84375 -22.21875 C 10.644531 -22.21875 8.75 -21.757812 7.15625 -20.84375 C 5.5625 -19.9375 4.332031 -18.632812 3.46875 -16.9375 C 2.613281 -15.25 2.1875 -13.234375 2.1875 -10.890625 C 2.1875 -8.554688 2.613281 -6.546875 3.46875 -4.859375 C 4.332031 -3.171875 5.5625 -1.867188 7.15625 -0.953125 C 8.75 -0.0351562 10.644531 0.421875 12.84375 0.421875 C 15.414062 0.421875 17.726562 -0.273438 19.78125 -1.671875 L 19.78125 -6.828125 C 17.8125 -4.972656 15.554688 -4.046875 13.015625 -4.046875 C 11.359375 -4.046875 9.960938 -4.257812 8.828125 -4.6875 C 7.691406 -5.113281 6.828125 -5.832031 6.234375 -6.84375 C 5.648438 -7.851562 5.335938 -9.203125 5.296875 -10.890625 C 5.296875 -13.785156 5.960938 -15.988281 7.296875 -17.5 C 8.640625 -19.019531 10.546875 -19.78125 13.015625 -19.78125 C 15.578125 -19.78125 17.832031 -18.863281 19.78125 -17.03125 Z M 19.78125 -20.140625 "/></g></g></g><g fill="#000000" fill-opacity="1"><g transform="translate(249.958328, 86.262483)"><g><path d="M 19.78125 -20.140625 C 17.75 -21.523438 15.4375 -22.21875 12.84375 -22.21875 C 10.644531 -22.21875 8.75 -21.757812 7.15625 -20.84375 C 5.5625 -19.9375 4.332031 -18.632812 3.46875 -16.9375 C 2.613281 -15.25 2.1875 -13.234375 2.1875 -10.890625 C 2.1875 -8.554688 2.613281 -6.546875 3.46875 -4.859375 C 4.332031 -3.171875 5.5625 -1.867188 7.15625 -0.953125 C 8.75 -0.0351562 10.644531 0.421875 12.84375 0.421875 C 15.414062 0.421875 17.726562 -0.273438 19.78125 -1.671875 L 19.78125 -6.828125 C 17.8125 -4.972656 15.554688 -4.046875 13.015625 -4.046875 C 11.359375 -4.046875 9.960938 -4.257812 8.828125 -4.6875 C 7.691406 -5.113281 6.828125 -5.832031 6.234375 -6.84375 C 5.648438 -7.851562 5.335938 -9.203125 5.296875 -10.890625 C 5.296875 -13.785156 5.960938 -15.988281 7.296875 -17.5 C 8.640625 -19.019531 10.546875 -19.78125 13.015625 -19.78125 C 15.578125 -19.78125 17.832031 -18.863281 19.78125 -17.03125 Z M 19.78125 -20.140625 "/></g></g></g><g fill="#000000" fill-opacity="1"><g transform="translate(271.9278, 86.262483)"><g><path d="M 2.1875 0 L 16.25 0 L 16.25 -4.515625 L 5.15625 -4.515625 L 5.15625 -10.390625 L 15.53125 -10.390625 L 15.53125 -12.875 L 5.15625 -12.875 L 5.15625 -19.34375 L 15.984375 -19.34375 L 15.984375 -21.828125 L 2.1875 -21.828125 Z M 2.1875 0 "/></g></g></g><g fill="#000000" fill-opacity="1"><g transform="translate(290.365401, 86.262483)"><g><path d="M 16.21875 -21.109375 C 14.03125 -21.847656 11.90625 -22.21875 9.84375 -22.21875 C 7.445312 -22.21875 5.570312 -21.660156 4.21875 -20.546875 C 2.863281 -19.441406 2.1875 -17.921875 2.1875 -15.984375 C 2.1875 -14.328125 2.679688 -13.03125 3.671875 -12.09375 C 4.660156 -11.15625 6.25 -10.46875 8.4375 -10.03125 L 10.234375 -9.671875 C 11.734375 -9.367188 12.8125 -8.910156 13.46875 -8.296875 C 14.125 -7.691406 14.453125 -7.101562 14.453125 -6.53125 C 14.453125 -6.101562 14.25 -5.660156 13.84375 -5.203125 C 13.4375 -4.742188 12.84375 -4.359375 12.0625 -4.046875 C 11.28125 -3.742188 10.320312 -3.59375 9.1875 -3.59375 C 6.988281 -3.59375 4.6875 -4.269531 2.28125 -5.625 L 2.28125 -0.953125 C 3.53125 -0.492188 4.734375 -0.148438 5.890625 0.078125 C 7.054688 0.304688 8.15625 0.421875 9.1875 0.421875 C 11.925781 0.421875 14.003906 -0.117188 15.421875 -1.203125 C 16.835938 -2.296875 17.546875 -3.898438 17.546875 -6.015625 C 17.546875 -7.796875 17.019531 -9.210938 15.96875 -10.265625 C 14.925781 -11.328125 13.304688 -12.066406 11.109375 -12.484375 L 9.34375 -12.84375 C 7.726562 -13.144531 6.625 -13.546875 6.03125 -14.046875 C 5.445312 -14.546875 5.15625 -15.269531 5.15625 -16.21875 C 5.15625 -17.382812 5.59375 -18.273438 6.46875 -18.890625 C 7.34375 -19.503906 8.578125 -19.8125 10.171875 -19.8125 C 12.035156 -19.8125 14.050781 -19.285156 16.21875 -18.234375 Z M 16.21875 -21.109375 "/></g></g></g><g fill="#000000" fill-opacity="1"><g transform="translate(310.119972, 86.262483)"><g><path d="M 16.21875 -21.109375 C 14.03125 -21.847656 11.90625 -22.21875 9.84375 -22.21875 C 7.445312 -22.21875 5.570312 -21.660156 4.21875 -20.546875 C 2.863281 -19.441406 2.1875 -17.921875 2.1875 -15.984375 C 2.1875 -14.328125 2.679688 -13.03125 3.671875 -12.09375 C 4.660156 -11.15625 6.25 -10.46875 8.4375 -10.03125 L 10.234375 -9.671875 C 11.734375 -9.367188 12.8125 -8.910156 13.46875 -8.296875 C 14.125 -7.691406 14.453125 -7.101562 14.453125 -6.53125 C 14.453125 -6.101562 14.25 -5.660156 13.84375 -5.203125 C 13.4375 -4.742188 12.84375 -4.359375 12.0625 -4.046875 C 11.28125 -3.742188 10.320312 -3.59375 9.1875 -3.59375 C 6.988281 -3.59375 4.6875 -4.269531 2.28125 -5.625 L 2.28125 -0.953125 C 3.53125 -0.492188 4.734375 -0.148438 5.890625 0.078125 C 7.054688 0.304688 8.15625 0.421875 9.1875 0.421875 C 11.925781 0.421875 14.003906 -0.117188 15.421875 -1.203125 C 16.835938 -2.296875 17.546875 -3.898438 17.546875 -6.015625 C 17.546875 -7.796875 17.019531 -9.210938 15.96875 -10.265625 C 14.925781 -11.328125 13.304688 -12.066406 11.109375 -12.484375 L 9.34375 -12.84375 C 7.726562 -13.144531 6.625 -13.546875 6.03125 -14.046875 C 5.445312 -14.546875 5.15625 -15.269531 5.15625 -16.21875 C 5.15625 -17.382812 5.59375 -18.273438 6.46875 -18.890625 C 7.34375 -19.503906 8.578125 -19.8125 10.171875 -19.8125 C 12.035156 -19.8125 14.050781 -19.285156 16.21875 -18.234375 Z M 16.21875 -21.109375 "/></g></g></g><g fill="#000000" fill-opacity="1"><g transform="translate(329.874542, 86.262483)"><g><path d="M 2.1875 0 L 5.71875 0 C 5.519531 -3.632812 5.410156 -7.269531 5.390625 -10.90625 C 5.367188 -14.550781 5.335938 -18.191406 5.296875 -21.828125 L 2.78125 -21.828125 C 2.707031 -18.191406 2.644531 -14.550781 2.59375 -10.90625 C 2.539062 -7.269531 2.40625 -3.632812 2.1875 0 Z M 2.1875 0 "/></g></g></g><g fill="#000000" fill-opacity="1"><g transform="translate(337.806301, 86.262483)"><g><path d="M 2.1875 0 L 10.03125 0 C 12.488281 0 14.425781 -0.53125 15.84375 -1.59375 C 17.257812 -2.664062 17.96875 -4.171875 17.96875 -6.109375 C 17.96875 -7.585938 17.515625 -8.816406 16.609375 -9.796875 C 15.710938 -10.785156 14.296875 -11.441406 12.359375 -11.765625 C 14.816406 -12.160156 16.046875 -13.71875 16.046875 -16.4375 C 16.046875 -18.15625 15.4375 -19.484375 14.21875 -20.421875 C 13 -21.359375 11.265625 -21.828125 9.015625 -21.828125 L 2.1875 -21.828125 Z M 9.515625 -19.84375 C 10.953125 -19.84375 12.023438 -19.5 12.734375 -18.8125 C 13.441406 -18.125 13.796875 -17.222656 13.796875 -16.109375 C 13.796875 -13.910156 12.367188 -12.8125 9.515625 -12.8125 L 5.15625 -12.8125 L 5.15625 -19.84375 Z M 9.875 -10.421875 C 11.4375 -10.421875 12.613281 -10.097656 13.40625 -9.453125 C 14.164062 -8.816406 14.546875 -8.25 14.546875 -7.75 C 14.546875 -6.394531 14.164062 -5.488281 13.40625 -5.03125 C 12.65625 -4.570312 11.476562 -4.34375 9.875 -4.34375 L 5.15625 -4.34375 L 5.15625 -10.421875 Z M 9.875 -10.421875 "/></g></g></g><g fill="#000000" fill-opacity="1"><g transform="translate(357.949979, 86.262483)"><g><path d="M 2.1875 0 L 5.71875 0 C 5.519531 -3.632812 5.410156 -7.269531 5.390625 -10.90625 C 5.367188 -14.550781 5.335938 -18.191406 5.296875 -21.828125 L 2.78125 -21.828125 C 2.707031 -18.191406 2.644531 -14.550781 2.59375 -10.90625 C 2.539062 -7.269531 2.40625 -3.632812 2.1875 0 Z M 2.1875 0 "/></g></g></g><g fill="#000000" fill-opacity="1"><g transform="translate(365.881727, 86.262483)"><g><path d="M 2.1875 0 L 15.625 0 L 15.921875 -4.515625 L 5.296875 -4.515625 L 5.453125 -21.828125 L 2.484375 -21.828125 Z M 2.1875 0 "/></g></g></g><g fill="#000000" fill-opacity="1"><g transform="translate(383.990084, 86.262483)"><g><path d="M 2.1875 0 L 5.71875 0 C 5.519531 -3.632812 5.410156 -7.269531 5.390625 -10.90625 C 5.367188 -14.550781 5.335938 -18.191406 5.296875 -21.828125 L 2.78125 -21.828125 C 2.707031 -18.191406 2.644531 -14.550781 2.59375 -10.90625 C 2.539062 -7.269531 2.40625 -3.632812 2.1875 0 Z M 2.1875 0 "/></g></g></g><g fill="#000000" fill-opacity="1"><g transform="translate(391.921854, 86.262483)"><g><path d="M 2.1875 -19.34375 L 9.9375 -19.640625 L 9.375 0 L 13.5 0 L 12.90625 -19.640625 L 20.65625 -19.34375 L 20.65625 -21.828125 L 2.1875 -21.828125 Z M 2.1875 -19.34375 "/></g></g></g><g fill="#000000" fill-opacity="1"><g transform="translate(414.759321, 86.262483)"><g><path d="M 9.34375 -7.484375 L 9.34375 0 L 13.328125 0 L 13.328125 -7.484375 L 20.59375 -21.828125 L 17.421875 -21.828125 L 11.40625 -10.65625 L 5.359375 -21.828125 L 2.1875 -21.828125 Z M 9.34375 -7.484375 "/></g></g></g><g fill="#000000" fill-opacity="1"><g transform="translate(437.536937, 86.262483)"><g><path d="M 2.484375 -12.25 L 2.1875 -7.03125 L 6.171875 -7.03125 L 5.71875 -12.25 L 5.59375 -21.828125 L 2.75 -21.828125 Z M 2.328125 0 L 6.015625 0 L 5.71875 -3.71875 L 2.609375 -3.71875 Z M 2.328125 0 "/></g></g></g><g fill="#000000" fill-opacity="1"><g transform="translate(445.887742, 86.262483)"><g><path d="M 3.59375 -18.890625 L 2.1875 -13.46875 L 4.375 -13.46875 L 7.1875 -18.890625 L 7.1875 -21.828125 L 3.59375 -21.828125 Z M 10.5625 -18.890625 L 9.15625 -13.46875 L 11.34375 -13.46875 L 14.125 -18.890625 L 14.125 -21.828125 L 10.5625 -21.828125 Z M 10.5625 -18.890625 "/></g></g></g></svg>