<svg xmlns="http://www.w3.org/2000/svg" xmlns:xlink="http://www.w3.org/1999/xlink" width="1200" zoomAndPan="magnify" viewBox="0 0 900 155.249994" height="207" preserveAspectRatio="xMidYMid meet" version="1.0"><defs><g/></defs><g fill="#333333" fill-opacity="1"><g transform="translate(103.000394, 58.904084)"><g><path d="M 11.9375 -31.796875 L 14.921875 -43.3125 L 10.28125 -43.3125 L 4.34375 -31.796875 L 4.34375 -25.546875 L 11.9375 -25.546875 Z M 26.734375 -31.796875 L 29.703125 -43.3125 L 25.078125 -43.3125 L 19.140625 -31.796875 L 19.140625 -25.546875 L 26.734375 -25.546875 Z M 26.734375 -31.796875 "/></g></g></g><g fill="#333333" fill-opacity="1"><g transform="translate(137.046489, 58.904084)"><g><path d="M 4.34375 0 L 19.90625 0 C 24.78125 0 28.625 -1.054688 31.4375 -3.171875 C 34.25 -5.296875 35.65625 -8.28125 35.65625 -12.125 C 35.65625 -15.050781 34.765625 -17.492188 32.984375 -19.453125 C 31.203125 -21.421875 28.390625 -22.722656 24.546875 -23.359375 C 29.410156 -24.148438 31.84375 -27.238281 31.84375 -32.625 C 31.84375 -36.03125 30.632812 -38.660156 28.21875 -40.515625 C 25.800781 -42.378906 22.359375 -43.3125 17.890625 -43.3125 L 4.34375 -43.3125 Z M 18.890625 -39.390625 C 21.742188 -39.390625 23.875 -38.707031 25.28125 -37.34375 C 26.6875 -35.976562 27.390625 -34.1875 27.390625 -31.96875 C 27.390625 -27.613281 24.554688 -25.4375 18.890625 -25.4375 L 10.21875 -25.4375 L 10.21875 -39.390625 Z M 19.609375 -20.671875 C 22.703125 -20.671875 25.039062 -20.039062 26.625 -18.78125 C 28.125 -17.507812 28.875 -16.378906 28.875 -15.390625 C 28.875 -12.691406 28.117188 -10.882812 26.609375 -9.96875 C 25.109375 -9.0625 22.773438 -8.609375 19.609375 -8.609375 L 10.21875 -8.609375 L 10.21875 -20.671875 Z M 19.609375 -20.671875 "/></g></g></g><g fill="#333333" fill-opacity="1"><g transform="translate(177.034293, 58.904084)"><g><path d="M 4.34375 -16.28125 C 4.34375 -4.875 9.882812 0.828125 20.96875 0.828125 C 26.394531 0.828125 30.503906 -0.613281 33.296875 -3.5 C 36.097656 -6.394531 37.5 -10.65625 37.5 -16.28125 L 37.5 -43.3125 L 31.3125 -43.3125 L 31.90625 -21.03125 C 32.03125 -16.394531 31.179688 -13.054688 29.359375 -11.015625 C 27.535156 -8.984375 24.738281 -7.96875 20.96875 -7.96875 C 17.207031 -7.96875 14.40625 -8.984375 12.5625 -11.015625 C 10.71875 -13.054688 9.835938 -16.394531 9.921875 -21.03125 L 10.515625 -43.3125 L 4.34375 -43.3125 Z M 4.34375 -16.28125 "/></g></g></g><g fill="#333333" fill-opacity="1"><g transform="translate(218.923448, 58.904084)"><g><path d="M 4.34375 0 L 11.34375 0 C 10.945312 -7.207031 10.726562 -14.425781 10.6875 -21.65625 C 10.65625 -28.882812 10.597656 -36.101562 10.515625 -43.3125 L 5.53125 -43.3125 C 5.363281 -36.101562 5.226562 -28.882812 5.125 -21.65625 C 5.03125 -14.425781 4.769531 -7.207031 4.34375 0 Z M 4.34375 0 "/></g></g></g><g fill="#333333" fill-opacity="1"><g transform="translate(234.669022, 58.904084)"><g><path d="M 4.34375 0 L 31.015625 0 L 31.609375 -8.96875 L 10.515625 -8.96875 L 10.8125 -43.3125 L 4.9375 -43.3125 Z M 4.34375 0 "/></g></g></g><g fill="#333333" fill-opacity="1"><g transform="translate(270.616469, 58.904084)"><g><path d="M 4.34375 0 L 16.40625 0 C 24.757812 0 30.90625 -1.75 34.84375 -5.25 C 38.789062 -8.757812 40.765625 -14.238281 40.765625 -21.6875 C 40.765625 -29.132812 38.800781 -34.597656 34.875 -38.078125 C 30.957031 -41.566406 24.800781 -43.3125 16.40625 -43.3125 L 4.34375 -43.3125 Z M 17.59375 -38.5 C 23.570312 -38.5 27.925781 -37.148438 30.65625 -34.453125 C 33.394531 -31.765625 34.765625 -27.707031 34.765625 -22.28125 C 34.484375 -19.351562 33.75 -17.054688 32.5625 -15.390625 C 31.375 -13.722656 29.582031 -12.5625 27.1875 -11.90625 C 24.789062 -11.257812 21.59375 -10.9375 17.59375 -10.9375 L 10.515625 -10.9375 L 10.515625 -38.5 Z M 17.59375 -38.5 "/></g></g></g><g fill="#333333" fill-opacity="1"><g transform="translate(315.714165, 58.904084)"><g/></g></g><g fill="#333333" fill-opacity="1"><g transform="translate(338.94631, 58.904084)"><g><path d="M 4.34375 0 L 12.296875 0 L 14.5 -7.078125 L 33.984375 -7.078125 L 35.65625 0 L 44.03125 0 L 26.984375 -43.3125 L 21.453125 -43.3125 Z M 32.203125 -13.96875 L 16.21875 -13.96875 L 24.1875 -37.96875 Z M 32.203125 -13.96875 "/></g></g></g><g fill="#333333" fill-opacity="1"><g transform="translate(387.311954, 58.904084)"><g><path d="M 4.34375 0 L 11.34375 0 L 11.9375 -16.8125 L 19.015625 -16.8125 C 23.890625 -16.8125 27.5625 -18 30.03125 -20.375 C 32.507812 -22.757812 33.75 -26.085938 33.75 -30.359375 C 33.75 -34.597656 32.507812 -37.816406 30.03125 -40.015625 C 27.5625 -42.210938 23.890625 -43.3125 19.015625 -43.3125 L 6.125 -43.3125 Z M 19.609375 -40.828125 C 22.535156 -40.828125 24.789062 -40.125 26.375 -38.71875 C 27.96875 -37.3125 28.765625 -35.300781 28.765625 -32.6875 C 28.765625 -30.070312 27.96875 -28.0625 26.375 -26.65625 C 24.789062 -25.25 22.535156 -24.546875 19.609375 -24.546875 L 11.640625 -24.546875 L 12.234375 -40.828125 Z M 19.609375 -40.828125 "/></g></g></g><g fill="#333333" fill-opacity="1"><g transform="translate(425.457834, 58.904084)"><g><path d="M 4.34375 0 L 11.34375 0 L 11.9375 -16.8125 L 19.015625 -16.8125 C 23.890625 -16.8125 27.5625 -18 30.03125 -20.375 C 32.507812 -22.757812 33.75 -26.085938 33.75 -30.359375 C 33.75 -34.597656 32.507812 -37.816406 30.03125 -40.015625 C 27.5625 -42.210938 23.890625 -43.3125 19.015625 -43.3125 L 6.125 -43.3125 Z M 19.609375 -40.828125 C 22.535156 -40.828125 24.789062 -40.125 26.375 -38.71875 C 27.96875 -37.3125 28.765625 -35.300781 28.765625 -32.6875 C 28.765625 -30.070312 27.96875 -28.0625 26.375 -26.65625 C 24.789062 -25.25 22.535156 -24.546875 19.609375 -24.546875 L 11.640625 -24.546875 L 12.234375 -40.828125 Z M 19.609375 -40.828125 "/></g></g></g><g fill="#333333" fill-opacity="1"><g transform="translate(463.603715, 58.904084)"><g><path d="M 4.34375 0 L 31.015625 0 L 31.609375 -8.96875 L 10.515625 -8.96875 L 10.8125 -43.3125 L 4.9375 -43.3125 Z M 4.34375 0 "/></g></g></g><g fill="#333333" fill-opacity="1"><g transform="translate(499.551162, 58.904084)"><g><path d="M 4.34375 0 L 11.34375 0 C 10.945312 -7.207031 10.726562 -14.425781 10.6875 -21.65625 C 10.65625 -28.882812 10.597656 -36.101562 10.515625 -43.3125 L 5.53125 -43.3125 C 5.363281 -36.101562 5.226562 -28.882812 5.125 -21.65625 C 5.03125 -14.425781 4.769531 -7.207031 4.34375 0 Z M 4.34375 0 "/></g></g></g><g fill="#333333" fill-opacity="1"><g transform="translate(515.296759, 58.904084)"><g><path d="M 39.28125 -39.984375 C 35.238281 -42.722656 30.640625 -44.09375 25.484375 -44.09375 C 21.128906 -44.09375 17.367188 -43.191406 14.203125 -41.390625 C 11.035156 -39.585938 8.597656 -37 6.890625 -33.625 C 5.191406 -30.257812 4.34375 -26.257812 4.34375 -21.625 C 4.34375 -16.988281 5.191406 -13 6.890625 -9.65625 C 8.597656 -6.3125 11.035156 -3.726562 14.203125 -1.90625 C 17.367188 -0.0820312 21.128906 0.828125 25.484375 0.828125 C 30.597656 0.828125 35.195312 -0.554688 39.28125 -3.328125 L 39.28125 -13.546875 C 35.351562 -9.859375 30.875 -8.015625 25.84375 -8.015625 C 22.5625 -8.015625 19.789062 -8.441406 17.53125 -9.296875 C 15.269531 -10.148438 13.554688 -11.578125 12.390625 -13.578125 C 11.222656 -15.578125 10.597656 -18.257812 10.515625 -21.625 C 10.515625 -27.375 11.84375 -31.753906 14.5 -34.765625 C 17.15625 -37.773438 20.9375 -39.28125 25.84375 -39.28125 C 30.914062 -39.28125 35.394531 -37.457031 39.28125 -33.8125 Z M 39.28125 -39.984375 "/></g></g></g><g fill="#333333" fill-opacity="1"><g transform="translate(558.909044, 58.904084)"><g><path d="M 4.34375 0 L 12.296875 0 L 14.5 -7.078125 L 33.984375 -7.078125 L 35.65625 0 L 44.03125 0 L 26.984375 -43.3125 L 21.453125 -43.3125 Z M 32.203125 -13.96875 L 16.21875 -13.96875 L 24.1875 -37.96875 Z M 32.203125 -13.96875 "/></g></g></g><g fill="#333333" fill-opacity="1"><g transform="translate(607.274687, 58.904084)"><g><path d="M 4.34375 -38.390625 L 19.734375 -38.984375 L 18.59375 0 L 26.796875 0 L 25.609375 -38.984375 L 41 -38.390625 L 41 -43.3125 L 4.34375 -43.3125 Z M 4.34375 -38.390625 "/></g></g></g><g fill="#333333" fill-opacity="1"><g transform="translate(652.61008, 58.904084)"><g><path d="M 4.34375 0 L 11.34375 0 C 10.945312 -7.207031 10.726562 -14.425781 10.6875 -21.65625 C 10.65625 -28.882812 10.597656 -36.101562 10.515625 -43.3125 L 5.53125 -43.3125 C 5.363281 -36.101562 5.226562 -28.882812 5.125 -21.65625 C 5.03125 -14.425781 4.769531 -7.207031 4.34375 0 Z M 4.34375 0 "/></g></g></g><g fill="#333333" fill-opacity="1"><g transform="translate(668.355632, 58.904084)"><g><path d="M 24.421875 -44.09375 C 20.378906 -44.09375 16.851562 -43.171875 13.84375 -41.328125 C 10.832031 -39.484375 8.492188 -36.878906 6.828125 -33.515625 C 5.171875 -30.148438 4.34375 -26.1875 4.34375 -21.625 C 4.34375 -17.070312 5.171875 -13.109375 6.828125 -9.734375 C 8.492188 -6.367188 10.832031 -3.765625 13.84375 -1.921875 C 16.851562 -0.0859375 20.378906 0.828125 24.421875 0.828125 C 28.503906 0.828125 32.039062 -0.0859375 35.03125 -1.921875 C 38.019531 -3.765625 40.335938 -6.367188 41.984375 -9.734375 C 43.628906 -13.109375 44.453125 -17.070312 44.453125 -21.625 C 44.453125 -26.1875 43.628906 -30.148438 41.984375 -33.515625 C 40.335938 -36.878906 38.019531 -39.484375 35.03125 -41.328125 C 32.039062 -43.171875 28.503906 -44.09375 24.421875 -44.09375 Z M 24.421875 -39.34375 C 27.273438 -39.34375 29.726562 -38.628906 31.78125 -37.203125 C 33.84375 -35.773438 35.4375 -33.734375 36.5625 -31.078125 C 37.695312 -28.421875 38.265625 -25.269531 38.265625 -21.625 C 38.265625 -18.65625 37.695312 -16.347656 36.5625 -14.703125 C 35.4375 -13.054688 33.84375 -11.90625 31.78125 -11.25 C 29.726562 -10.601562 27.273438 -10.28125 24.421875 -10.28125 C 21.609375 -10.28125 19.148438 -10.601562 17.046875 -11.25 C 14.953125 -11.90625 13.335938 -13.054688 12.203125 -14.703125 C 11.078125 -16.347656 10.515625 -18.65625 10.515625 -21.625 C 10.515625 -25.269531 11.078125 -28.421875 12.203125 -31.078125 C 13.335938 -33.734375 14.953125 -35.773438 17.046875 -37.203125 C 19.148438 -38.628906 21.609375 -39.34375 24.421875 -39.34375 Z M 24.421875 -39.34375 "/></g></g></g><g fill="#333333" fill-opacity="1"><g transform="translate(717.137195, 58.904084)"><g><path d="M 4.34375 0 L 11.765625 0 L 10.046875 -36.25 L 29.234375 0 L 37.734375 0 L 37.734375 -43.3125 L 32.328125 -43.3125 L 31.4375 -8.265625 L 12.828125 -42.421875 L 5.53125 -42.421875 Z M 4.34375 0 "/></g></g></g><g fill="#333333" fill-opacity="1"><g transform="translate(759.204618, 58.904084)"><g><path d="M 32.203125 -41.890625 C 27.847656 -43.359375 23.628906 -44.09375 19.546875 -44.09375 C 14.796875 -44.09375 11.070312 -42.992188 8.375 -40.796875 C 5.6875 -38.597656 4.34375 -35.578125 4.34375 -31.734375 C 4.34375 -28.441406 5.320312 -25.863281 7.28125 -24 C 9.238281 -22.144531 12.394531 -20.78125 16.75 -19.90625 L 20.328125 -19.1875 C 23.296875 -18.59375 25.429688 -17.691406 26.734375 -16.484375 C 28.046875 -15.273438 28.703125 -14.097656 28.703125 -12.953125 C 28.703125 -12.117188 28.296875 -11.242188 27.484375 -10.328125 C 26.671875 -9.421875 25.488281 -8.660156 23.9375 -8.046875 C 22.394531 -7.429688 20.5 -7.125 18.25 -7.125 C 13.882812 -7.125 9.304688 -8.472656 4.515625 -11.171875 L 4.515625 -1.90625 C 7.015625 -0.988281 9.410156 -0.304688 11.703125 0.140625 C 14.003906 0.597656 16.1875 0.828125 18.25 0.828125 C 23.675781 0.828125 27.796875 -0.25 30.609375 -2.40625 C 33.421875 -4.5625 34.828125 -7.738281 34.828125 -11.9375 C 34.828125 -15.46875 33.785156 -18.28125 31.703125 -20.375 C 29.617188 -22.476562 26.398438 -23.945312 22.046875 -24.78125 L 18.546875 -25.484375 C 15.328125 -26.085938 13.132812 -26.882812 11.96875 -27.875 C 10.800781 -28.863281 10.21875 -30.304688 10.21875 -32.203125 C 10.21875 -34.503906 11.085938 -36.269531 12.828125 -37.5 C 14.578125 -38.726562 17.035156 -39.34375 20.203125 -39.34375 C 23.890625 -39.34375 27.890625 -38.289062 32.203125 -36.1875 Z M 32.203125 -41.890625 "/></g></g></g><g fill="#000000" fill-opacity="1"><g transform="translate(101.246489, 57.931879)"><g><path d="M 11.9375 -31.796875 L 14.921875 -43.3125 L 10.28125 -43.3125 L 4.34375 -31.796875 L 4.34375 -25.546875 L 11.9375 -25.546875 Z M 26.734375 -31.796875 L 29.703125 -43.3125 L 25.078125 -43.3125 L 19.140625 -31.796875 L 19.140625 -25.546875 L 26.734375 -25.546875 Z M 26.734375 -31.796875 "/></g></g></g><g fill="#000000" fill-opacity="1"><g transform="translate(135.292584, 57.931879)"><g><path d="M 4.34375 0 L 19.90625 0 C 24.78125 0 28.625 -1.054688 31.4375 -3.171875 C 34.25 -5.296875 35.65625 -8.28125 35.65625 -12.125 C 35.65625 -15.050781 34.765625 -17.492188 32.984375 -19.453125 C 31.203125 -21.421875 28.390625 -22.722656 24.546875 -23.359375 C 29.410156 -24.148438 31.84375 -27.238281 31.84375 -32.625 C 31.84375 -36.03125 30.632812 -38.660156 28.21875 -40.515625 C 25.800781 -42.378906 22.359375 -43.3125 17.890625 -43.3125 L 4.34375 -43.3125 Z M 18.890625 -39.390625 C 21.742188 -39.390625 23.875 -38.707031 25.28125 -37.34375 C 26.6875 -35.976562 27.390625 -34.1875 27.390625 -31.96875 C 27.390625 -27.613281 24.554688 -25.4375 18.890625 -25.4375 L 10.21875 -25.4375 L 10.21875 -39.390625 Z M 19.609375 -20.671875 C 22.703125 -20.671875 25.039062 -20.039062 26.625 -18.78125 C 28.125 -17.507812 28.875 -16.378906 28.875 -15.390625 C 28.875 -12.691406 28.117188 -10.882812 26.609375 -9.96875 C 25.109375 -9.0625 22.773438 -8.609375 19.609375 -8.609375 L 10.21875 -8.609375 L 10.21875 -20.671875 Z M 19.609375 -20.671875 "/></g></g></g><g fill="#000000" fill-opacity="1"><g transform="translate(175.280388, 57.931879)"><g><path d="M 4.34375 -16.28125 C 4.34375 -4.875 9.882812 0.828125 20.96875 0.828125 C 26.394531 0.828125 30.503906 -0.613281 33.296875 -3.5 C 36.097656 -6.394531 37.5 -10.65625 37.5 -16.28125 L 37.5 -43.3125 L 31.3125 -43.3125 L 31.90625 -21.03125 C 32.03125 -16.394531 31.179688 -13.054688 29.359375 -11.015625 C 27.535156 -8.984375 24.738281 -7.96875 20.96875 -7.96875 C 17.207031 -7.96875 14.40625 -8.984375 12.5625 -11.015625 C 10.71875 -13.054688 9.835938 -16.394531 9.921875 -21.03125 L 10.515625 -43.3125 L 4.34375 -43.3125 Z M 4.34375 -16.28125 "/></g></g></g><g fill="#000000" fill-opacity="1"><g transform="translate(217.169543, 57.931879)"><g><path d="M 4.34375 0 L 11.34375 0 C 10.945312 -7.207031 10.726562 -14.425781 10.6875 -21.65625 C 10.65625 -28.882812 10.597656 -36.101562 10.515625 -43.3125 L 5.53125 -43.3125 C 5.363281 -36.101562 5.226562 -28.882812 5.125 -21.65625 C 5.03125 -14.425781 4.769531 -7.207031 4.34375 0 Z M 4.34375 0 "/></g></g></g><g fill="#000000" fill-opacity="1"><g transform="translate(232.915117, 57.931879)"><g><path d="M 4.34375 0 L 31.015625 0 L 31.609375 -8.96875 L 10.515625 -8.96875 L 10.8125 -43.3125 L 4.9375 -43.3125 Z M 4.34375 0 "/></g></g></g><g fill="#000000" fill-opacity="1"><g transform="translate(268.862564, 57.931879)"><g><path d="M 4.34375 0 L 16.40625 0 C 24.757812 0 30.90625 -1.75 34.84375 -5.25 C 38.789062 -8.757812 40.765625 -14.238281 40.765625 -21.6875 C 40.765625 -29.132812 38.800781 -34.597656 34.875 -38.078125 C 30.957031 -41.566406 24.800781 -43.3125 16.40625 -43.3125 L 4.34375 -43.3125 Z M 17.59375 -38.5 C 23.570312 -38.5 27.925781 -37.148438 30.65625 -34.453125 C 33.394531 -31.765625 34.765625 -27.707031 34.765625 -22.28125 C 34.484375 -19.351562 33.75 -17.054688 32.5625 -15.390625 C 31.375 -13.722656 29.582031 -12.5625 27.1875 -11.90625 C 24.789062 -11.257812 21.59375 -10.9375 17.59375 -10.9375 L 10.515625 -10.9375 L 10.515625 -38.5 Z M 17.59375 -38.5 "/></g></g></g><g fill="#000000" fill-opacity="1"><g transform="translate(313.96026, 57.931879)"><g/></g></g><g fill="#000000" fill-opacity="1"><g transform="translate(337.192405, 57.931879)"><g><path d="M 4.34375 0 L 12.296875 0 L 14.5 -7.078125 L 33.984375 -7.078125 L 35.65625 0 L 44.03125 0 L 26.984375 -43.3125 L 21.453125 -43.3125 Z M 32.203125 -13.96875 L 16.21875 -13.96875 L 24.1875 -37.96875 Z M 32.203125 -13.96875 "/></g></g></g><g fill="#000000" fill-opacity="1"><g transform="translate(385.558049, 57.931879)"><g><path d="M 4.34375 0 L 11.34375 0 L 11.9375 -16.8125 L 19.015625 -16.8125 C 23.890625 -16.8125 27.5625 -18 30.03125 -20.375 C 32.507812 -22.757812 33.75 -26.085938 33.75 -30.359375 C 33.75 -34.597656 32.507812 -37.816406 30.03125 -40.015625 C 27.5625 -42.210938 23.890625 -43.3125 19.015625 -43.3125 L 6.125 -43.3125 Z M 19.609375 -40.828125 C 22.535156 -40.828125 24.789062 -40.125 26.375 -38.71875 C 27.96875 -37.3125 28.765625 -35.300781 28.765625 -32.6875 C 28.765625 -30.070312 27.96875 -28.0625 26.375 -26.65625 C 24.789062 -25.25 22.535156 -24.546875 19.609375 -24.546875 L 11.640625 -24.546875 L 12.234375 -40.828125 Z M 19.609375 -40.828125 "/></g></g></g><g fill="#000000" fill-opacity="1"><g transform="translate(423.703929, 57.931879)"><g><path d="M 4.34375 0 L 11.34375 0 L 11.9375 -16.8125 L 19.015625 -16.8125 C 23.890625 -16.8125 27.5625 -18 30.03125 -20.375 C 32.507812 -22.757812 33.75 -26.085938 33.75 -30.359375 C 33.75 -34.597656 32.507812 -37.816406 30.03125 -40.015625 C 27.5625 -42.210938 23.890625 -43.3125 19.015625 -43.3125 L 6.125 -43.3125 Z M 19.609375 -40.828125 C 22.535156 -40.828125 24.789062 -40.125 26.375 -38.71875 C 27.96875 -37.3125 28.765625 -35.300781 28.765625 -32.6875 C 28.765625 -30.070312 27.96875 -28.0625 26.375 -26.65625 C 24.789062 -25.25 22.535156 -24.546875 19.609375 -24.546875 L 11.640625 -24.546875 L 12.234375 -40.828125 Z M 19.609375 -40.828125 "/></g></g></g><g fill="#000000" fill-opacity="1"><g transform="translate(461.84981, 57.931879)"><g><path d="M 4.34375 0 L 31.015625 0 L 31.609375 -8.96875 L 10.515625 -8.96875 L 10.8125 -43.3125 L 4.9375 -43.3125 Z M 4.34375 0 "/></g></g></g><g fill="#000000" fill-opacity="1"><g transform="translate(497.797257, 57.931879)"><g><path d="M 4.34375 0 L 11.34375 0 C 10.945312 -7.207031 10.726562 -14.425781 10.6875 -21.65625 C 10.65625 -28.882812 10.597656 -36.101562 10.515625 -43.3125 L 5.53125 -43.3125 C 5.363281 -36.101562 5.226562 -28.882812 5.125 -21.65625 C 5.03125 -14.425781 4.769531 -7.207031 4.34375 0 Z M 4.34375 0 "/></g></g></g><g fill="#000000" fill-opacity="1"><g transform="translate(513.542854, 57.931879)"><g><path d="M 39.28125 -39.984375 C 35.238281 -42.722656 30.640625 -44.09375 25.484375 -44.09375 C 21.128906 -44.09375 17.367188 -43.191406 14.203125 -41.390625 C 11.035156 -39.585938 8.597656 -37 6.890625 -33.625 C 5.191406 -30.257812 4.34375 -26.257812 4.34375 -21.625 C 4.34375 -16.988281 5.191406 -13 6.890625 -9.65625 C 8.597656 -6.3125 11.035156 -3.726562 14.203125 -1.90625 C 17.367188 -0.0820312 21.128906 0.828125 25.484375 0.828125 C 30.597656 0.828125 35.195312 -0.554688 39.28125 -3.328125 L 39.28125 -13.546875 C 35.351562 -9.859375 30.875 -8.015625 25.84375 -8.015625 C 22.5625 -8.015625 19.789062 -8.441406 17.53125 -9.296875 C 15.269531 -10.148438 13.554688 -11.578125 12.390625 -13.578125 C 11.222656 -15.578125 10.597656 -18.257812 10.515625 -21.625 C 10.515625 -27.375 11.84375 -31.753906 14.5 -34.765625 C 17.15625 -37.773438 20.9375 -39.28125 25.84375 -39.28125 C 30.914062 -39.28125 35.394531 -37.457031 39.28125 -33.8125 Z M 39.28125 -39.984375 "/></g></g></g><g fill="#000000" fill-opacity="1"><g transform="translate(557.155139, 57.931879)"><g><path d="M 4.34375 0 L 12.296875 0 L 14.5 -7.078125 L 33.984375 -7.078125 L 35.65625 0 L 44.03125 0 L 26.984375 -43.3125 L 21.453125 -43.3125 Z M 32.203125 -13.96875 L 16.21875 -13.96875 L 24.1875 -37.96875 Z M 32.203125 -13.96875 "/></g></g></g><g fill="#000000" fill-opacity="1"><g transform="translate(605.520782, 57.931879)"><g><path d="M 4.34375 -38.390625 L 19.734375 -38.984375 L 18.59375 0 L 26.796875 0 L 25.609375 -38.984375 L 41 -38.390625 L 41 -43.3125 L 4.34375 -43.3125 Z M 4.34375 -38.390625 "/></g></g></g><g fill="#000000" fill-opacity="1"><g transform="translate(650.856175, 57.931879)"><g><path d="M 4.34375 0 L 11.34375 0 C 10.945312 -7.207031 10.726562 -14.425781 10.6875 -21.65625 C 10.65625 -28.882812 10.597656 -36.101562 10.515625 -43.3125 L 5.53125 -43.3125 C 5.363281 -36.101562 5.226562 -28.882812 5.125 -21.65625 C 5.03125 -14.425781 4.769531 -7.207031 4.34375 0 Z M 4.34375 0 "/></g></g></g><g fill="#000000" fill-opacity="1"><g transform="translate(666.601727, 57.931879)"><g><path d="M 24.421875 -44.09375 C 20.378906 -44.09375 16.851562 -43.171875 13.84375 -41.328125 C 10.832031 -39.484375 8.492188 -36.878906 6.828125 -33.515625 C 5.171875 -30.148438 4.34375 -26.1875 4.34375 -21.625 C 4.34375 -17.070312 5.171875 -13.109375 6.828125 -9.734375 C 8.492188 -6.367188 10.832031 -3.765625 13.84375 -1.921875 C 16.851562 -0.0859375 20.378906 0.828125 24.421875 0.828125 C 28.503906 0.828125 32.039062 -0.0859375 35.03125 -1.921875 C 38.019531 -3.765625 40.335938 -6.367188 41.984375 -9.734375 C 43.628906 -13.109375 44.453125 -17.070312 44.453125 -21.625 C 44.453125 -26.1875 43.628906 -30.148438 41.984375 -33.515625 C 40.335938 -36.878906 38.019531 -39.484375 35.03125 -41.328125 C 32.039062 -43.171875 28.503906 -44.09375 24.421875 -44.09375 Z M 24.421875 -39.34375 C 27.273438 -39.34375 29.726562 -38.628906 31.78125 -37.203125 C 33.84375 -35.773438 35.4375 -33.734375 36.5625 -31.078125 C 37.695312 -28.421875 38.265625 -25.269531 38.265625 -21.625 C 38.265625 -18.65625 37.695312 -16.347656 36.5625 -14.703125 C 35.4375 -13.054688 33.84375 -11.90625 31.78125 -11.25 C 29.726562 -10.601562 27.273438 -10.28125 24.421875 -10.28125 C 21.609375 -10.28125 19.148438 -10.601562 17.046875 -11.25 C 14.953125 -11.90625 13.335938 -13.054688 12.203125 -14.703125 C 11.078125 -16.347656 10.515625 -18.65625 10.515625 -21.625 C 10.515625 -25.269531 11.078125 -28.421875 12.203125 -31.078125 C 13.335938 -33.734375 14.953125 -35.773438 17.046875 -37.203125 C 19.148438 -38.628906 21.609375 -39.34375 24.421875 -39.34375 Z M 24.421875 -39.34375 "/></g></g></g><g fill="#000000" fill-opacity="1"><g transform="translate(715.38329, 57.931879)"><g><path d="M 4.34375 0 L 11.765625 0 L 10.046875 -36.25 L 29.234375 0 L 37.734375 0 L 37.734375 -43.3125 L 32.328125 -43.3125 L 31.4375 -8.265625 L 12.828125 -42.421875 L 5.53125 -42.421875 Z M 4.34375 0 "/></g></g></g><g fill="#000000" fill-opacity="1"><g transform="translate(757.450713, 57.931879)"><g><path d="M 32.203125 -41.890625 C 27.847656 -43.359375 23.628906 -44.09375 19.546875 -44.09375 C 14.796875 -44.09375 11.070312 -42.992188 8.375 -40.796875 C 5.6875 -38.597656 4.34375 -35.578125 4.34375 -31.734375 C 4.34375 -28.441406 5.320312 -25.863281 7.28125 -24 C 9.238281 -22.144531 12.394531 -20.78125 16.75 -19.90625 L 20.328125 -19.1875 C 23.296875 -18.59375 25.429688 -17.691406 26.734375 -16.484375 C 28.046875 -15.273438 28.703125 -14.097656 28.703125 -12.953125 C 28.703125 -12.117188 28.296875 -11.242188 27.484375 -10.328125 C 26.671875 -9.421875 25.488281 -8.660156 23.9375 -8.046875 C 22.394531 -7.429688 20.5 -7.125 18.25 -7.125 C 13.882812 -7.125 9.304688 -8.472656 4.515625 -11.171875 L 4.515625 -1.90625 C 7.015625 -0.988281 9.410156 -0.304688 11.703125 0.140625 C 14.003906 0.597656 16.1875 0.828125 18.25 0.828125 C 23.675781 0.828125 27.796875 -0.25 30.609375 -2.40625 C 33.421875 -4.5625 34.828125 -7.738281 34.828125 -11.9375 C 34.828125 -15.46875 33.785156 -18.28125 31.703125 -20.375 C 29.617188 -22.476562 26.398438 -23.945312 22.046875 -24.78125 L 18.546875 -25.484375 C 15.328125 -26.085938 13.132812 -26.882812 11.96875 -27.875 C 10.800781 -28.863281 10.21875 -30.304688 10.21875 -32.203125 C 10.21875 -34.503906 11.085938 -36.269531 12.828125 -37.5 C 14.578125 -38.726562 17.035156 -39.34375 20.203125 -39.34375 C 23.890625 -39.34375 27.890625 -38.289062 32.203125 -36.1875 Z M 32.203125 -41.890625 "/></g></g></g><g fill="#333333" fill-opacity="1"><g transform="translate(8.420102, 142.088321)"><g><path d="M 24.890625 -20.328125 C 26.910156 -20.992188 28.503906 -22.226562 29.671875 -24.03125 C 30.847656 -25.832031 31.4375 -28.101562 31.4375 -30.84375 C 31.4375 -35.039062 30.21875 -38.164062 27.78125 -40.21875 C 25.34375 -42.28125 21.945312 -43.3125 17.59375 -43.3125 L 4.34375 -43.3125 L 4.34375 0 L 11.34375 0 L 11.34375 -18.296875 L 15.75 -18.296875 C 17.289062 -18.296875 18.601562 -18.097656 19.6875 -17.703125 C 20.78125 -17.304688 21.765625 -16.59375 22.640625 -15.5625 C 23.515625 -14.539062 24.425781 -13.054688 25.375 -11.109375 L 29.765625 0 L 38.09375 0 L 32.140625 -11.828125 C 29.722656 -16.703125 27.304688 -19.535156 24.890625 -20.328125 Z M 18.1875 -40.234375 C 19.6875 -40.234375 21.128906 -39.960938 22.515625 -39.421875 C 23.898438 -38.890625 25.039062 -37.945312 25.9375 -36.59375 C 26.832031 -35.25 27.28125 -33.332031 27.28125 -30.84375 C 27.28125 -29.6875 26.832031 -28.601562 25.9375 -27.59375 C 25.039062 -26.59375 23.898438 -25.789062 22.515625 -25.1875 C 21.128906 -24.59375 19.6875 -24.296875 18.1875 -24.296875 L 10.8125 -24.296875 L 10.8125 -40.234375 Z M 18.1875 -40.234375 "/></g></g></g><g fill="#333333" fill-opacity="1"><g transform="translate(50.844014, 142.088321)"><g><path d="M 24.421875 -44.09375 C 20.378906 -44.09375 16.851562 -43.171875 13.84375 -41.328125 C 10.832031 -39.484375 8.492188 -36.878906 6.828125 -33.515625 C 5.171875 -30.148438 4.34375 -26.1875 4.34375 -21.625 C 4.34375 -17.070312 5.171875 -13.109375 6.828125 -9.734375 C 8.492188 -6.367188 10.832031 -3.765625 13.84375 -1.921875 C 16.851562 -0.0859375 20.378906 0.828125 24.421875 0.828125 C 28.503906 0.828125 32.039062 -0.0859375 35.03125 -1.921875 C 38.019531 -3.765625 40.335938 -6.367188 41.984375 -9.734375 C 43.628906 -13.109375 44.453125 -17.070312 44.453125 -21.625 C 44.453125 -26.1875 43.628906 -30.148438 41.984375 -33.515625 C 40.335938 -36.878906 38.019531 -39.484375 35.03125 -41.328125 C 32.039062 -43.171875 28.503906 -44.09375 24.421875 -44.09375 Z M 24.421875 -39.34375 C 27.273438 -39.34375 29.726562 -38.628906 31.78125 -37.203125 C 33.84375 -35.773438 35.4375 -33.734375 36.5625 -31.078125 C 37.695312 -28.421875 38.265625 -25.269531 38.265625 -21.625 C 38.265625 -18.65625 37.695312 -16.347656 36.5625 -14.703125 C 35.4375 -13.054688 33.84375 -11.90625 31.78125 -11.25 C 29.726562 -10.601562 27.273438 -10.28125 24.421875 -10.28125 C 21.609375 -10.28125 19.148438 -10.601562 17.046875 -11.25 C 14.953125 -11.90625 13.335938 -13.054688 12.203125 -14.703125 C 11.078125 -16.347656 10.515625 -18.65625 10.515625 -21.625 C 10.515625 -25.269531 11.078125 -28.421875 12.203125 -31.078125 C 13.335938 -33.734375 14.953125 -35.773438 17.046875 -37.203125 C 19.148438 -38.628906 21.609375 -39.34375 24.421875 -39.34375 Z M 24.421875 -39.34375 "/></g></g></g><g fill="#333333" fill-opacity="1"><g transform="translate(99.625577, 142.088321)"><g><path d="M 24.421875 -44.09375 C 20.378906 -44.09375 16.851562 -43.171875 13.84375 -41.328125 C 10.832031 -39.484375 8.492188 -36.878906 6.828125 -33.515625 C 5.171875 -30.148438 4.34375 -26.1875 4.34375 -21.625 C 4.34375 -17.070312 5.171875 -13.109375 6.828125 -9.734375 C 8.492188 -6.367188 10.832031 -3.765625 13.84375 -1.921875 C 16.851562 -0.0859375 20.378906 0.828125 24.421875 0.828125 C 28.503906 0.828125 32.039062 -0.0859375 35.03125 -1.921875 C 38.019531 -3.765625 40.335938 -6.367188 41.984375 -9.734375 C 43.628906 -13.109375 44.453125 -17.070312 44.453125 -21.625 C 44.453125 -26.1875 43.628906 -30.148438 41.984375 -33.515625 C 40.335938 -36.878906 38.019531 -39.484375 35.03125 -41.328125 C 32.039062 -43.171875 28.503906 -44.09375 24.421875 -44.09375 Z M 24.421875 -39.34375 C 27.273438 -39.34375 29.726562 -38.628906 31.78125 -37.203125 C 33.84375 -35.773438 35.4375 -33.734375 36.5625 -31.078125 C 37.695312 -28.421875 38.265625 -25.269531 38.265625 -21.625 C 38.265625 -18.65625 37.695312 -16.347656 36.5625 -14.703125 C 35.4375 -13.054688 33.84375 -11.90625 31.78125 -11.25 C 29.726562 -10.601562 27.273438 -10.28125 24.421875 -10.28125 C 21.609375 -10.28125 19.148438 -10.601562 17.046875 -11.25 C 14.953125 -11.90625 13.335938 -13.054688 12.203125 -14.703125 C 11.078125 -16.347656 10.515625 -18.65625 10.515625 -21.625 C 10.515625 -25.269531 11.078125 -28.421875 12.203125 -31.078125 C 13.335938 -33.734375 14.953125 -35.773438 17.046875 -37.203125 C 19.148438 -38.628906 21.609375 -39.34375 24.421875 -39.34375 Z M 24.421875 -39.34375 "/></g></g></g><g fill="#333333" fill-opacity="1"><g transform="translate(148.40714, 142.088321)"><g><path d="M 4.34375 -38.390625 L 19.734375 -38.984375 L 18.59375 0 L 26.796875 0 L 25.609375 -38.984375 L 41 -38.390625 L 41 -43.3125 L 4.34375 -43.3125 Z M 4.34375 -38.390625 "/></g></g></g><g fill="#333333" fill-opacity="1"><g transform="translate(193.742511, 142.088321)"><g><path d="M 4.34375 0 L 32.265625 0 L 32.265625 -8.96875 L 10.21875 -8.96875 L 10.21875 -20.625 L 30.84375 -20.625 L 30.84375 -25.546875 L 10.21875 -25.546875 L 10.21875 -38.390625 L 31.734375 -38.390625 L 31.734375 -43.3125 L 4.34375 -43.3125 Z M 4.34375 0 "/></g></g></g><g fill="#333333" fill-opacity="1"><g transform="translate(230.343552, 142.088321)"><g><path d="M 4.34375 0 L 16.40625 0 C 24.757812 0 30.90625 -1.75 34.84375 -5.25 C 38.789062 -8.757812 40.765625 -14.238281 40.765625 -21.6875 C 40.765625 -29.132812 38.800781 -34.597656 34.875 -38.078125 C 30.957031 -41.566406 24.800781 -43.3125 16.40625 -43.3125 L 4.34375 -43.3125 Z M 17.59375 -38.5 C 23.570312 -38.5 27.925781 -37.148438 30.65625 -34.453125 C 33.394531 -31.765625 34.765625 -27.707031 34.765625 -22.28125 C 34.484375 -19.351562 33.75 -17.054688 32.5625 -15.390625 C 31.375 -13.722656 29.582031 -12.5625 27.1875 -11.90625 C 24.789062 -11.257812 21.59375 -10.9375 17.59375 -10.9375 L 10.515625 -10.9375 L 10.515625 -38.5 Z M 17.59375 -38.5 "/></g></g></g><g fill="#bef3d6" fill-opacity="1"><g transform="translate(6.666197, 141.116116)"><g><path d="M 24.890625 -20.328125 C 26.910156 -20.992188 28.503906 -22.226562 29.671875 -24.03125 C 30.847656 -25.832031 31.4375 -28.101562 31.4375 -30.84375 C 31.4375 -35.039062 30.21875 -38.164062 27.78125 -40.21875 C 25.34375 -42.28125 21.945312 -43.3125 17.59375 -43.3125 L 4.34375 -43.3125 L 4.34375 0 L 11.34375 0 L 11.34375 -18.296875 L 15.75 -18.296875 C 17.289062 -18.296875 18.601562 -18.097656 19.6875 -17.703125 C 20.78125 -17.304688 21.765625 -16.59375 22.640625 -15.5625 C 23.515625 -14.539062 24.425781 -13.054688 25.375 -11.109375 L 29.765625 0 L 38.09375 0 L 32.140625 -11.828125 C 29.722656 -16.703125 27.304688 -19.535156 24.890625 -20.328125 Z M 18.1875 -40.234375 C 19.6875 -40.234375 21.128906 -39.960938 22.515625 -39.421875 C 23.898438 -38.890625 25.039062 -37.945312 25.9375 -36.59375 C 26.832031 -35.25 27.28125 -33.332031 27.28125 -30.84375 C 27.28125 -29.6875 26.832031 -28.601562 25.9375 -27.59375 C 25.039062 -26.59375 23.898438 -25.789062 22.515625 -25.1875 C 21.128906 -24.59375 19.6875 -24.296875 18.1875 -24.296875 L 10.8125 -24.296875 L 10.8125 -40.234375 Z M 18.1875 -40.234375 "/></g></g></g><g fill="#bef3d6" fill-opacity="1"><g transform="translate(49.090109, 141.116116)"><g><path d="M 24.421875 -44.09375 C 20.378906 -44.09375 16.851562 -43.171875 13.84375 -41.328125 C 10.832031 -39.484375 8.492188 -36.878906 6.828125 -33.515625 C 5.171875 -30.148438 4.34375 -26.1875 4.34375 -21.625 C 4.34375 -17.070312 5.171875 -13.109375 6.828125 -9.734375 C 8.492188 -6.367188 10.832031 -3.765625 13.84375 -1.921875 C 16.851562 -0.0859375 20.378906 0.828125 24.421875 0.828125 C 28.503906 0.828125 32.039062 -0.0859375 35.03125 -1.921875 C 38.019531 -3.765625 40.335938 -6.367188 41.984375 -9.734375 C 43.628906 -13.109375 44.453125 -17.070312 44.453125 -21.625 C 44.453125 -26.1875 43.628906 -30.148438 41.984375 -33.515625 C 40.335938 -36.878906 38.019531 -39.484375 35.03125 -41.328125 C 32.039062 -43.171875 28.503906 -44.09375 24.421875 -44.09375 Z M 24.421875 -39.34375 C 27.273438 -39.34375 29.726562 -38.628906 31.78125 -37.203125 C 33.84375 -35.773438 35.4375 -33.734375 36.5625 -31.078125 C 37.695312 -28.421875 38.265625 -25.269531 38.265625 -21.625 C 38.265625 -18.65625 37.695312 -16.347656 36.5625 -14.703125 C 35.4375 -13.054688 33.84375 -11.90625 31.78125 -11.25 C 29.726562 -10.601562 27.273438 -10.28125 24.421875 -10.28125 C 21.609375 -10.28125 19.148438 -10.601562 17.046875 -11.25 C 14.953125 -11.90625 13.335938 -13.054688 12.203125 -14.703125 C 11.078125 -16.347656 10.515625 -18.65625 10.515625 -21.625 C 10.515625 -25.269531 11.078125 -28.421875 12.203125 -31.078125 C 13.335938 -33.734375 14.953125 -35.773438 17.046875 -37.203125 C 19.148438 -38.628906 21.609375 -39.34375 24.421875 -39.34375 Z M 24.421875 -39.34375 "/></g></g></g><g fill="#bef3d6" fill-opacity="1"><g transform="translate(97.871672, 141.116116)"><g><path d="M 24.421875 -44.09375 C 20.378906 -44.09375 16.851562 -43.171875 13.84375 -41.328125 C 10.832031 -39.484375 8.492188 -36.878906 6.828125 -33.515625 C 5.171875 -30.148438 4.34375 -26.1875 4.34375 -21.625 C 4.34375 -17.070312 5.171875 -13.109375 6.828125 -9.734375 C 8.492188 -6.367188 10.832031 -3.765625 13.84375 -1.921875 C 16.851562 -0.0859375 20.378906 0.828125 24.421875 0.828125 C 28.503906 0.828125 32.039062 -0.0859375 35.03125 -1.921875 C 38.019531 -3.765625 40.335938 -6.367188 41.984375 -9.734375 C 43.628906 -13.109375 44.453125 -17.070312 44.453125 -21.625 C 44.453125 -26.1875 43.628906 -30.148438 41.984375 -33.515625 C 40.335938 -36.878906 38.019531 -39.484375 35.03125 -41.328125 C 32.039062 -43.171875 28.503906 -44.09375 24.421875 -44.09375 Z M 24.421875 -39.34375 C 27.273438 -39.34375 29.726562 -38.628906 31.78125 -37.203125 C 33.84375 -35.773438 35.4375 -33.734375 36.5625 -31.078125 C 37.695312 -28.421875 38.265625 -25.269531 38.265625 -21.625 C 38.265625 -18.65625 37.695312 -16.347656 36.5625 -14.703125 C 35.4375 -13.054688 33.84375 -11.90625 31.78125 -11.25 C 29.726562 -10.601562 27.273438 -10.28125 24.421875 -10.28125 C 21.609375 -10.28125 19.148438 -10.601562 17.046875 -11.25 C 14.953125 -11.90625 13.335938 -13.054688 12.203125 -14.703125 C 11.078125 -16.347656 10.515625 -18.65625 10.515625 -21.625 C 10.515625 -25.269531 11.078125 -28.421875 12.203125 -31.078125 C 13.335938 -33.734375 14.953125 -35.773438 17.046875 -37.203125 C 19.148438 -38.628906 21.609375 -39.34375 24.421875 -39.34375 Z M 24.421875 -39.34375 "/></g></g></g><g fill="#bef3d6" fill-opacity="1"><g transform="translate(146.653235, 141.116116)"><g><path d="M 4.34375 -38.390625 L 19.734375 -38.984375 L 18.59375 0 L 26.796875 0 L 25.609375 -38.984375 L 41 -38.390625 L 41 -43.3125 L 4.34375 -43.3125 Z M 4.34375 -38.390625 "/></g></g></g><g fill="#bef3d6" fill-opacity="1"><g transform="translate(191.988606, 141.116116)"><g><path d="M 4.34375 0 L 32.265625 0 L 32.265625 -8.96875 L 10.21875 -8.96875 L 10.21875 -20.625 L 30.84375 -20.625 L 30.84375 -25.546875 L 10.21875 -25.546875 L 10.21875 -38.390625 L 31.734375 -38.390625 L 31.734375 -43.3125 L 4.34375 -43.3125 Z M 4.34375 0 "/></g></g></g><g fill="#bef3d6" fill-opacity="1"><g transform="translate(228.589647, 141.116116)"><g><path d="M 4.34375 0 L 16.40625 0 C 24.757812 0 30.90625 -1.75 34.84375 -5.25 C 38.789062 -8.757812 40.765625 -14.238281 40.765625 -21.6875 C 40.765625 -29.132812 38.800781 -34.597656 34.875 -38.078125 C 30.957031 -41.566406 24.800781 -43.3125 16.40625 -43.3125 L 4.34375 -43.3125 Z M 17.59375 -38.5 C 23.570312 -38.5 27.925781 -37.148438 30.65625 -34.453125 C 33.394531 -31.765625 34.765625 -27.707031 34.765625 -22.28125 C 34.484375 -19.351562 33.75 -17.054688 32.5625 -15.390625 C 31.375 -13.722656 29.582031 -12.5625 27.1875 -11.90625 C 24.789062 -11.257812 21.59375 -10.9375 17.59375 -10.9375 L 10.515625 -10.9375 L 10.515625 -38.5 Z M 17.59375 -38.5 "/></g></g></g><g fill="#333333" fill-opacity="1"><g transform="translate(275.449867, 142.088321)"><g/></g></g><g fill="#333333" fill-opacity="1"><g transform="translate(298.682013, 142.088321)"><g><path d="M 4.34375 0 L 11.34375 0 C 10.945312 -7.207031 10.726562 -14.425781 10.6875 -21.65625 C 10.65625 -28.882812 10.597656 -36.101562 10.515625 -43.3125 L 5.53125 -43.3125 C 5.363281 -36.101562 5.226562 -28.882812 5.125 -21.65625 C 5.03125 -14.425781 4.769531 -7.207031 4.34375 0 Z M 4.34375 0 "/></g></g></g><g fill="#333333" fill-opacity="1"><g transform="translate(314.427587, 142.088321)"><g><path d="M 4.34375 0 L 11.765625 0 L 10.046875 -36.25 L 29.234375 0 L 37.734375 0 L 37.734375 -43.3125 L 32.328125 -43.3125 L 31.4375 -8.265625 L 12.828125 -42.421875 L 5.53125 -42.421875 Z M 4.34375 0 "/></g></g></g><g fill="#333333" fill-opacity="1"><g transform="translate(356.49501, 142.088321)"><g/></g></g><g fill="#333333" fill-opacity="1"><g transform="translate(379.727156, 142.088321)"><g><path d="M 4.34375 0 L 12.296875 0 L 14.5 -7.078125 L 33.984375 -7.078125 L 35.65625 0 L 44.03125 0 L 26.984375 -43.3125 L 21.453125 -43.3125 Z M 32.203125 -13.96875 L 16.21875 -13.96875 L 24.1875 -37.96875 Z M 32.203125 -13.96875 "/></g></g></g><g fill="#333333" fill-opacity="1"><g transform="translate(428.092799, 142.088321)"><g><path d="M 39.28125 -39.984375 C 35.238281 -42.722656 30.640625 -44.09375 25.484375 -44.09375 C 21.128906 -44.09375 17.367188 -43.191406 14.203125 -41.390625 C 11.035156 -39.585938 8.597656 -37 6.890625 -33.625 C 5.191406 -30.257812 4.34375 -26.257812 4.34375 -21.625 C 4.34375 -16.988281 5.191406 -13 6.890625 -9.65625 C 8.597656 -6.3125 11.035156 -3.726562 14.203125 -1.90625 C 17.367188 -0.0820312 21.128906 0.828125 25.484375 0.828125 C 30.597656 0.828125 35.195312 -0.554688 39.28125 -3.328125 L 39.28125 -13.546875 C 35.351562 -9.859375 30.875 -8.015625 25.84375 -8.015625 C 22.5625 -8.015625 19.789062 -8.441406 17.53125 -9.296875 C 15.269531 -10.148438 13.554688 -11.578125 12.390625 -13.578125 C 11.222656 -15.578125 10.597656 -18.257812 10.515625 -21.625 C 10.515625 -27.375 11.84375 -31.753906 14.5 -34.765625 C 17.15625 -37.773438 20.9375 -39.28125 25.84375 -39.28125 C 30.914062 -39.28125 35.394531 -37.457031 39.28125 -33.8125 Z M 39.28125 -39.984375 "/></g></g></g><g fill="#333333" fill-opacity="1"><g transform="translate(471.705062, 142.088321)"><g><path d="M 39.28125 -39.984375 C 35.238281 -42.722656 30.640625 -44.09375 25.484375 -44.09375 C 21.128906 -44.09375 17.367188 -43.191406 14.203125 -41.390625 C 11.035156 -39.585938 8.597656 -37 6.890625 -33.625 C 5.191406 -30.257812 4.34375 -26.257812 4.34375 -21.625 C 4.34375 -16.988281 5.191406 -13 6.890625 -9.65625 C 8.597656 -6.3125 11.035156 -3.726562 14.203125 -1.90625 C 17.367188 -0.0820312 21.128906 0.828125 25.484375 0.828125 C 30.597656 0.828125 35.195312 -0.554688 39.28125 -3.328125 L 39.28125 -13.546875 C 35.351562 -9.859375 30.875 -8.015625 25.84375 -8.015625 C 22.5625 -8.015625 19.789062 -8.441406 17.53125 -9.296875 C 15.269531 -10.148438 13.554688 -11.578125 12.390625 -13.578125 C 11.222656 -15.578125 10.597656 -18.257812 10.515625 -21.625 C 10.515625 -27.375 11.84375 -31.753906 14.5 -34.765625 C 17.15625 -37.773438 20.9375 -39.28125 25.84375 -39.28125 C 30.914062 -39.28125 35.394531 -37.457031 39.28125 -33.8125 Z M 39.28125 -39.984375 "/></g></g></g><g fill="#333333" fill-opacity="1"><g transform="translate(515.317325, 142.088321)"><g><path d="M 4.34375 0 L 32.265625 0 L 32.265625 -8.96875 L 10.21875 -8.96875 L 10.21875 -20.625 L 30.84375 -20.625 L 30.84375 -25.546875 L 10.21875 -25.546875 L 10.21875 -38.390625 L 31.734375 -38.390625 L 31.734375 -43.3125 L 4.34375 -43.3125 Z M 4.34375 0 "/></g></g></g><g fill="#333333" fill-opacity="1"><g transform="translate(551.918365, 142.088321)"><g><path d="M 32.203125 -41.890625 C 27.847656 -43.359375 23.628906 -44.09375 19.546875 -44.09375 C 14.796875 -44.09375 11.070312 -42.992188 8.375 -40.796875 C 5.6875 -38.597656 4.34375 -35.578125 4.34375 -31.734375 C 4.34375 -28.441406 5.320312 -25.863281 7.28125 -24 C 9.238281 -22.144531 12.394531 -20.78125 16.75 -19.90625 L 20.328125 -19.1875 C 23.296875 -18.59375 25.429688 -17.691406 26.734375 -16.484375 C 28.046875 -15.273438 28.703125 -14.097656 28.703125 -12.953125 C 28.703125 -12.117188 28.296875 -11.242188 27.484375 -10.328125 C 26.671875 -9.421875 25.488281 -8.660156 23.9375 -8.046875 C 22.394531 -7.429688 20.5 -7.125 18.25 -7.125 C 13.882812 -7.125 9.304688 -8.472656 4.515625 -11.171875 L 4.515625 -1.90625 C 7.015625 -0.988281 9.410156 -0.304688 11.703125 0.140625 C 14.003906 0.597656 16.1875 0.828125 18.25 0.828125 C 23.675781 0.828125 27.796875 -0.25 30.609375 -2.40625 C 33.421875 -4.5625 34.828125 -7.738281 34.828125 -11.9375 C 34.828125 -15.46875 33.785156 -18.28125 31.703125 -20.375 C 29.617188 -22.476562 26.398438 -23.945312 22.046875 -24.78125 L 18.546875 -25.484375 C 15.328125 -26.085938 13.132812 -26.882812 11.96875 -27.875 C 10.800781 -28.863281 10.21875 -30.304688 10.21875 -32.203125 C 10.21875 -34.503906 11.085938 -36.269531 12.828125 -37.5 C 14.578125 -38.726562 17.035156 -39.34375 20.203125 -39.34375 C 23.890625 -39.34375 27.890625 -38.289062 32.203125 -36.1875 Z M 32.203125 -41.890625 "/></g></g></g><g fill="#333333" fill-opacity="1"><g transform="translate(591.13376, 142.088321)"><g><path d="M 32.203125 -41.890625 C 27.847656 -43.359375 23.628906 -44.09375 19.546875 -44.09375 C 14.796875 -44.09375 11.070312 -42.992188 8.375 -40.796875 C 5.6875 -38.597656 4.34375 -35.578125 4.34375 -31.734375 C 4.34375 -28.441406 5.320312 -25.863281 7.28125 -24 C 9.238281 -22.144531 12.394531 -20.78125 16.75 -19.90625 L 20.328125 -19.1875 C 23.296875 -18.59375 25.429688 -17.691406 26.734375 -16.484375 C 28.046875 -15.273438 28.703125 -14.097656 28.703125 -12.953125 C 28.703125 -12.117188 28.296875 -11.242188 27.484375 -10.328125 C 26.671875 -9.421875 25.488281 -8.660156 23.9375 -8.046875 C 22.394531 -7.429688 20.5 -7.125 18.25 -7.125 C 13.882812 -7.125 9.304688 -8.472656 4.515625 -11.171875 L 4.515625 -1.90625 C 7.015625 -0.988281 9.410156 -0.304688 11.703125 0.140625 C 14.003906 0.597656 16.1875 0.828125 18.25 0.828125 C 23.675781 0.828125 27.796875 -0.25 30.609375 -2.40625 C 33.421875 -4.5625 34.828125 -7.738281 34.828125 -11.9375 C 34.828125 -15.46875 33.785156 -18.28125 31.703125 -20.375 C 29.617188 -22.476562 26.398438 -23.945312 22.046875 -24.78125 L 18.546875 -25.484375 C 15.328125 -26.085938 13.132812 -26.882812 11.96875 -27.875 C 10.800781 -28.863281 10.21875 -30.304688 10.21875 -32.203125 C 10.21875 -34.503906 11.085938 -36.269531 12.828125 -37.5 C 14.578125 -38.726562 17.035156 -39.34375 20.203125 -39.34375 C 23.890625 -39.34375 27.890625 -38.289062 32.203125 -36.1875 Z M 32.203125 -41.890625 "/></g></g></g><g fill="#333333" fill-opacity="1"><g transform="translate(630.349156, 142.088321)"><g><path d="M 4.34375 0 L 11.34375 0 C 10.945312 -7.207031 10.726562 -14.425781 10.6875 -21.65625 C 10.65625 -28.882812 10.597656 -36.101562 10.515625 -43.3125 L 5.53125 -43.3125 C 5.363281 -36.101562 5.226562 -28.882812 5.125 -21.65625 C 5.03125 -14.425781 4.769531 -7.207031 4.34375 0 Z M 4.34375 0 "/></g></g></g><g fill="#333333" fill-opacity="1"><g transform="translate(646.09473, 142.088321)"><g><path d="M 4.34375 0 L 19.90625 0 C 24.78125 0 28.625 -1.054688 31.4375 -3.171875 C 34.25 -5.296875 35.65625 -8.28125 35.65625 -12.125 C 35.65625 -15.050781 34.765625 -17.492188 32.984375 -19.453125 C 31.203125 -21.421875 28.390625 -22.722656 24.546875 -23.359375 C 29.410156 -24.148438 31.84375 -27.238281 31.84375 -32.625 C 31.84375 -36.03125 30.632812 -38.660156 28.21875 -40.515625 C 25.800781 -42.378906 22.359375 -43.3125 17.890625 -43.3125 L 4.34375 -43.3125 Z M 18.890625 -39.390625 C 21.742188 -39.390625 23.875 -38.707031 25.28125 -37.34375 C 26.6875 -35.976562 27.390625 -34.1875 27.390625 -31.96875 C 27.390625 -27.613281 24.554688 -25.4375 18.890625 -25.4375 L 10.21875 -25.4375 L 10.21875 -39.390625 Z M 19.609375 -20.671875 C 22.703125 -20.671875 25.039062 -20.039062 26.625 -18.78125 C 28.125 -17.507812 28.875 -16.378906 28.875 -15.390625 C 28.875 -12.691406 28.117188 -10.882812 26.609375 -9.96875 C 25.109375 -9.0625 22.773438 -8.609375 19.609375 -8.609375 L 10.21875 -8.609375 L 10.21875 -20.671875 Z M 19.609375 -20.671875 "/></g></g></g><g fill="#333333" fill-opacity="1"><g transform="translate(686.082556, 142.088321)"><g><path d="M 4.34375 0 L 11.34375 0 C 10.945312 -7.207031 10.726562 -14.425781 10.6875 -21.65625 C 10.65625 -28.882812 10.597656 -36.101562 10.515625 -43.3125 L 5.53125 -43.3125 C 5.363281 -36.101562 5.226562 -28.882812 5.125 -21.65625 C 5.03125 -14.425781 4.769531 -7.207031 4.34375 0 Z M 4.34375 0 "/></g></g></g><g fill="#333333" fill-opacity="1"><g transform="translate(701.828107, 142.088321)"><g><path d="M 4.34375 0 L 31.015625 0 L 31.609375 -8.96875 L 10.515625 -8.96875 L 10.8125 -43.3125 L 4.9375 -43.3125 Z M 4.34375 0 "/></g></g></g><g fill="#333333" fill-opacity="1"><g transform="translate(737.775555, 142.088321)"><g><path d="M 4.34375 0 L 11.34375 0 C 10.945312 -7.207031 10.726562 -14.425781 10.6875 -21.65625 C 10.65625 -28.882812 10.597656 -36.101562 10.515625 -43.3125 L 5.53125 -43.3125 C 5.363281 -36.101562 5.226562 -28.882812 5.125 -21.65625 C 5.03125 -14.425781 4.769531 -7.207031 4.34375 0 Z M 4.34375 0 "/></g></g></g><g fill="#333333" fill-opacity="1"><g transform="translate(753.521151, 142.088321)"><g><path d="M 4.34375 -38.390625 L 19.734375 -38.984375 L 18.59375 0 L 26.796875 0 L 25.609375 -38.984375 L 41 -38.390625 L 41 -43.3125 L 4.34375 -43.3125 Z M 4.34375 -38.390625 "/></g></g></g><g fill="#333333" fill-opacity="1"><g transform="translate(798.856498, 142.088321)"><g><path d="M 18.546875 -14.859375 L 18.546875 0 L 26.4375 0 L 26.4375 -14.859375 L 40.875 -43.3125 L 34.578125 -43.3125 L 22.640625 -21.15625 L 10.640625 -43.3125 L 4.34375 -43.3125 Z M 18.546875 -14.859375 "/></g></g></g><g fill="#333333" fill-opacity="1"><g transform="translate(844.073032, 142.088321)"><g><path d="M 4.9375 -24.296875 L 4.34375 -13.96875 L 12.234375 -13.96875 L 11.34375 -24.296875 L 11.109375 -43.3125 L 5.46875 -43.3125 Z M 4.640625 0 L 11.9375 0 L 11.34375 -7.375 L 5.171875 -7.375 Z M 4.640625 0 "/></g></g></g><g fill="#333333" fill-opacity="1"><g transform="translate(860.650467, 142.088321)"><g><path d="M 7.125 -37.5 L 4.34375 -26.734375 L 8.671875 -26.734375 L 14.265625 -37.5 L 14.265625 -43.3125 L 7.125 -43.3125 Z M 20.96875 -37.5 L 18.1875 -26.734375 L 22.515625 -26.734375 L 28.046875 -37.5 L 28.046875 -43.3125 L 20.96875 -43.3125 Z M 20.96875 -37.5 "/></g></g></g><g fill="#000000" fill-opacity="1"><g transform="translate(273.695962, 141.116116)"><g/></g></g><g fill="#000000" fill-opacity="1"><g transform="translate(296.928108, 141.116116)"><g><path d="M 4.34375 0 L 11.34375 0 C 10.945312 -7.207031 10.726562 -14.425781 10.6875 -21.65625 C 10.65625 -28.882812 10.597656 -36.101562 10.515625 -43.3125 L 5.53125 -43.3125 C 5.363281 -36.101562 5.226562 -28.882812 5.125 -21.65625 C 5.03125 -14.425781 4.769531 -7.207031 4.34375 0 Z M 4.34375 0 "/></g></g></g><g fill="#000000" fill-opacity="1"><g transform="translate(312.673682, 141.116116)"><g><path d="M 4.34375 0 L 11.765625 0 L 10.046875 -36.25 L 29.234375 0 L 37.734375 0 L 37.734375 -43.3125 L 32.328125 -43.3125 L 31.4375 -8.265625 L 12.828125 -42.421875 L 5.53125 -42.421875 Z M 4.34375 0 "/></g></g></g><g fill="#000000" fill-opacity="1"><g transform="translate(354.741105, 141.116116)"><g/></g></g><g fill="#000000" fill-opacity="1"><g transform="translate(377.973251, 141.116116)"><g><path d="M 4.34375 0 L 12.296875 0 L 14.5 -7.078125 L 33.984375 -7.078125 L 35.65625 0 L 44.03125 0 L 26.984375 -43.3125 L 21.453125 -43.3125 Z M 32.203125 -13.96875 L 16.21875 -13.96875 L 24.1875 -37.96875 Z M 32.203125 -13.96875 "/></g></g></g><g fill="#000000" fill-opacity="1"><g transform="translate(426.338894, 141.116116)"><g><path d="M 39.28125 -39.984375 C 35.238281 -42.722656 30.640625 -44.09375 25.484375 -44.09375 C 21.128906 -44.09375 17.367188 -43.191406 14.203125 -41.390625 C 11.035156 -39.585938 8.597656 -37 6.890625 -33.625 C 5.191406 -30.257812 4.34375 -26.257812 4.34375 -21.625 C 4.34375 -16.988281 5.191406 -13 6.890625 -9.65625 C 8.597656 -6.3125 11.035156 -3.726562 14.203125 -1.90625 C 17.367188 -0.0820312 21.128906 0.828125 25.484375 0.828125 C 30.597656 0.828125 35.195312 -0.554688 39.28125 -3.328125 L 39.28125 -13.546875 C 35.351562 -9.859375 30.875 -8.015625 25.84375 -8.015625 C 22.5625 -8.015625 19.789062 -8.441406 17.53125 -9.296875 C 15.269531 -10.148438 13.554688 -11.578125 12.390625 -13.578125 C 11.222656 -15.578125 10.597656 -18.257812 10.515625 -21.625 C 10.515625 -27.375 11.84375 -31.753906 14.5 -34.765625 C 17.15625 -37.773438 20.9375 -39.28125 25.84375 -39.28125 C 30.914062 -39.28125 35.394531 -37.457031 39.28125 -33.8125 Z M 39.28125 -39.984375 "/></g></g></g><g fill="#000000" fill-opacity="1"><g transform="translate(469.951157, 141.116116)"><g><path d="M 39.28125 -39.984375 C 35.238281 -42.722656 30.640625 -44.09375 25.484375 -44.09375 C 21.128906 -44.09375 17.367188 -43.191406 14.203125 -41.390625 C 11.035156 -39.585938 8.597656 -37 6.890625 -33.625 C 5.191406 -30.257812 4.34375 -26.257812 4.34375 -21.625 C 4.34375 -16.988281 5.191406 -13 6.890625 -9.65625 C 8.597656 -6.3125 11.035156 -3.726562 14.203125 -1.90625 C 17.367188 -0.0820312 21.128906 0.828125 25.484375 0.828125 C 30.597656 0.828125 35.195312 -0.554688 39.28125 -3.328125 L 39.28125 -13.546875 C 35.351562 -9.859375 30.875 -8.015625 25.84375 -8.015625 C 22.5625 -8.015625 19.789062 -8.441406 17.53125 -9.296875 C 15.269531 -10.148438 13.554688 -11.578125 12.390625 -13.578125 C 11.222656 -15.578125 10.597656 -18.257812 10.515625 -21.625 C 10.515625 -27.375 11.84375 -31.753906 14.5 -34.765625 C 17.15625 -37.773438 20.9375 -39.28125 25.84375 -39.28125 C 30.914062 -39.28125 35.394531 -37.457031 39.28125 -33.8125 Z M 39.28125 -39.984375 "/></g></g></g><g fill="#000000" fill-opacity="1"><g transform="translate(513.56342, 141.116116)"><g><path d="M 4.34375 0 L 32.265625 0 L 32.265625 -8.96875 L 10.21875 -8.96875 L 10.21875 -20.625 L 30.84375 -20.625 L 30.84375 -25.546875 L 10.21875 -25.546875 L 10.21875 -38.390625 L 31.734375 -38.390625 L 31.734375 -43.3125 L 4.34375 -43.3125 Z M 4.34375 0 "/></g></g></g><g fill="#000000" fill-opacity="1"><g transform="translate(550.16446, 141.116116)"><g><path d="M 32.203125 -41.890625 C 27.847656 -43.359375 23.628906 -44.09375 19.546875 -44.09375 C 14.796875 -44.09375 11.070312 -42.992188 8.375 -40.796875 C 5.6875 -38.597656 4.34375 -35.578125 4.34375 -31.734375 C 4.34375 -28.441406 5.320312 -25.863281 7.28125 -24 C 9.238281 -22.144531 12.394531 -20.78125 16.75 -19.90625 L 20.328125 -19.1875 C 23.296875 -18.59375 25.429688 -17.691406 26.734375 -16.484375 C 28.046875 -15.273438 28.703125 -14.097656 28.703125 -12.953125 C 28.703125 -12.117188 28.296875 -11.242188 27.484375 -10.328125 C 26.671875 -9.421875 25.488281 -8.660156 23.9375 -8.046875 C 22.394531 -7.429688 20.5 -7.125 18.25 -7.125 C 13.882812 -7.125 9.304688 -8.472656 4.515625 -11.171875 L 4.515625 -1.90625 C 7.015625 -0.988281 9.410156 -0.304688 11.703125 0.140625 C 14.003906 0.597656 16.1875 0.828125 18.25 0.828125 C 23.675781 0.828125 27.796875 -0.25 30.609375 -2.40625 C 33.421875 -4.5625 34.828125 -7.738281 34.828125 -11.9375 C 34.828125 -15.46875 33.785156 -18.28125 31.703125 -20.375 C 29.617188 -22.476562 26.398438 -23.945312 22.046875 -24.78125 L 18.546875 -25.484375 C 15.328125 -26.085938 13.132812 -26.882812 11.96875 -27.875 C 10.800781 -28.863281 10.21875 -30.304688 10.21875 -32.203125 C 10.21875 -34.503906 11.085938 -36.269531 12.828125 -37.5 C 14.578125 -38.726562 17.035156 -39.34375 20.203125 -39.34375 C 23.890625 -39.34375 27.890625 -38.289062 32.203125 -36.1875 Z M 32.203125 -41.890625 "/></g></g></g><g fill="#000000" fill-opacity="1"><g transform="translate(589.379855, 141.116116)"><g><path d="M 32.203125 -41.890625 C 27.847656 -43.359375 23.628906 -44.09375 19.546875 -44.09375 C 14.796875 -44.09375 11.070312 -42.992188 8.375 -40.796875 C 5.6875 -38.597656 4.34375 -35.578125 4.34375 -31.734375 C 4.34375 -28.441406 5.320312 -25.863281 7.28125 -24 C 9.238281 -22.144531 12.394531 -20.78125 16.75 -19.90625 L 20.328125 -19.1875 C 23.296875 -18.59375 25.429688 -17.691406 26.734375 -16.484375 C 28.046875 -15.273438 28.703125 -14.097656 28.703125 -12.953125 C 28.703125 -12.117188 28.296875 -11.242188 27.484375 -10.328125 C 26.671875 -9.421875 25.488281 -8.660156 23.9375 -8.046875 C 22.394531 -7.429688 20.5 -7.125 18.25 -7.125 C 13.882812 -7.125 9.304688 -8.472656 4.515625 -11.171875 L 4.515625 -1.90625 C 7.015625 -0.988281 9.410156 -0.304688 11.703125 0.140625 C 14.003906 0.597656 16.1875 0.828125 18.25 0.828125 C 23.675781 0.828125 27.796875 -0.25 30.609375 -2.40625 C 33.421875 -4.5625 34.828125 -7.738281 34.828125 -11.9375 C 34.828125 -15.46875 33.785156 -18.28125 31.703125 -20.375 C 29.617188 -22.476562 26.398438 -23.945312 22.046875 -24.78125 L 18.546875 -25.484375 C 15.328125 -26.085938 13.132812 -26.882812 11.96875 -27.875 C 10.800781 -28.863281 10.21875 -30.304688 10.21875 -32.203125 C 10.21875 -34.503906 11.085938 -36.269531 12.828125 -37.5 C 14.578125 -38.726562 17.035156 -39.34375 20.203125 -39.34375 C 23.890625 -39.34375 27.890625 -38.289062 32.203125 -36.1875 Z M 32.203125 -41.890625 "/></g></g></g><g fill="#000000" fill-opacity="1"><g transform="translate(628.59525, 141.116116)"><g><path d="M 4.34375 0 L 11.34375 0 C 10.945312 -7.207031 10.726562 -14.425781 10.6875 -21.65625 C 10.65625 -28.882812 10.597656 -36.101562 10.515625 -43.3125 L 5.53125 -43.3125 C 5.363281 -36.101562 5.226562 -28.882812 5.125 -21.65625 C 5.03125 -14.425781 4.769531 -7.207031 4.34375 0 Z M 4.34375 0 "/></g></g></g><g fill="#000000" fill-opacity="1"><g transform="translate(644.340825, 141.116116)"><g><path d="M 4.34375 0 L 19.90625 0 C 24.78125 0 28.625 -1.054688 31.4375 -3.171875 C 34.25 -5.296875 35.65625 -8.28125 35.65625 -12.125 C 35.65625 -15.050781 34.765625 -17.492188 32.984375 -19.453125 C 31.203125 -21.421875 28.390625 -22.722656 24.546875 -23.359375 C 29.410156 -24.148438 31.84375 -27.238281 31.84375 -32.625 C 31.84375 -36.03125 30.632812 -38.660156 28.21875 -40.515625 C 25.800781 -42.378906 22.359375 -43.3125 17.890625 -43.3125 L 4.34375 -43.3125 Z M 18.890625 -39.390625 C 21.742188 -39.390625 23.875 -38.707031 25.28125 -37.34375 C 26.6875 -35.976562 27.390625 -34.1875 27.390625 -31.96875 C 27.390625 -27.613281 24.554688 -25.4375 18.890625 -25.4375 L 10.21875 -25.4375 L 10.21875 -39.390625 Z M 19.609375 -20.671875 C 22.703125 -20.671875 25.039062 -20.039062 26.625 -18.78125 C 28.125 -17.507812 28.875 -16.378906 28.875 -15.390625 C 28.875 -12.691406 28.117188 -10.882812 26.609375 -9.96875 C 25.109375 -9.0625 22.773438 -8.609375 19.609375 -8.609375 L 10.21875 -8.609375 L 10.21875 -20.671875 Z M 19.609375 -20.671875 "/></g></g></g><g fill="#000000" fill-opacity="1"><g transform="translate(684.328651, 141.116116)"><g><path d="M 4.34375 0 L 11.34375 0 C 10.945312 -7.207031 10.726562 -14.425781 10.6875 -21.65625 C 10.65625 -28.882812 10.597656 -36.101562 10.515625 -43.3125 L 5.53125 -43.3125 C 5.363281 -36.101562 5.226562 -28.882812 5.125 -21.65625 C 5.03125 -14.425781 4.769531 -7.207031 4.34375 0 Z M 4.34375 0 "/></g></g></g><g fill="#000000" fill-opacity="1"><g transform="translate(700.074202, 141.116116)"><g><path d="M 4.34375 0 L 31.015625 0 L 31.609375 -8.96875 L 10.515625 -8.96875 L 10.8125 -43.3125 L 4.9375 -43.3125 Z M 4.34375 0 "/></g></g></g><g fill="#000000" fill-opacity="1"><g transform="translate(736.02165, 141.116116)"><g><path d="M 4.34375 0 L 11.34375 0 C 10.945312 -7.207031 10.726562 -14.425781 10.6875 -21.65625 C 10.65625 -28.882812 10.597656 -36.101562 10.515625 -43.3125 L 5.53125 -43.3125 C 5.363281 -36.101562 5.226562 -28.882812 5.125 -21.65625 C 5.03125 -14.425781 4.769531 -7.207031 4.34375 0 Z M 4.34375 0 "/></g></g></g><g fill="#000000" fill-opacity="1"><g transform="translate(751.767246, 141.116116)"><g><path d="M 4.34375 -38.390625 L 19.734375 -38.984375 L 18.59375 0 L 26.796875 0 L 25.609375 -38.984375 L 41 -38.390625 L 41 -43.3125 L 4.34375 -43.3125 Z M 4.34375 -38.390625 "/></g></g></g><g fill="#000000" fill-opacity="1"><g transform="translate(797.102593, 141.116116)"><g><path d="M 18.546875 -14.859375 L 18.546875 0 L 26.4375 0 L 26.4375 -14.859375 L 40.875 -43.3125 L 34.578125 -43.3125 L 22.640625 -21.15625 L 10.640625 -43.3125 L 4.34375 -43.3125 Z M 18.546875 -14.859375 "/></g></g></g><g fill="#000000" fill-opacity="1"><g transform="translate(842.319127, 141.116116)"><g><path d="M 4.9375 -24.296875 L 4.34375 -13.96875 L 12.234375 -13.96875 L 11.34375 -24.296875 L 11.109375 -43.3125 L 5.46875 -43.3125 Z M 4.640625 0 L 11.9375 0 L 11.34375 -7.375 L 5.171875 -7.375 Z M 4.640625 0 "/></g></g></g><g fill="#000000" fill-opacity="1"><g transform="translate(858.896562, 141.116116)"><g><path d="M 7.125 -37.5 L 4.34375 -26.734375 L 8.671875 -26.734375 L 14.265625 -37.5 L 14.265625 -43.3125 L 7.125 -43.3125 Z M 20.96875 -37.5 L 18.1875 -26.734375 L 22.515625 -26.734375 L 28.046875 -37.5 L 28.046875 -43.3125 L 20.96875 -43.3125 Z M 20.96875 -37.5 "/></g></g></g></svg>