<svg xmlns="http://www.w3.org/2000/svg" xmlns:xlink="http://www.w3.org/1999/xlink" width="813" zoomAndPan="magnify" viewBox="0 0 609.75 108.749999" height="145" preserveAspectRatio="xMidYMid meet" version="1.0"><defs><g/></defs><g fill="#333333" fill-opacity="1"><g transform="translate(78.245029, 42.169394)"><g><path d="M 19.109375 -9.5625 L 11.609375 -9.5625 C 11.785156 -10.050781 11.953125 -10.539062 12.109375 -11.03125 C 12.265625 -11.519531 12.414062 -11.992188 12.5625 -12.453125 C 12.738281 -12.941406 12.898438 -13.410156 13.046875 -13.859375 C 13.191406 -14.316406 13.351562 -14.78125 13.53125 -15.25 C 13.675781 -15.6875 13.820312 -16.128906 13.96875 -16.578125 C 14.113281 -17.035156 14.257812 -17.5 14.40625 -17.96875 C 14.550781 -18.4375 14.703125 -18.898438 14.859375 -19.359375 C 15.023438 -19.828125 15.179688 -20.296875 15.328125 -20.765625 Z M 2.6875 0 L 8.8125 0 L 10.109375 -4.15625 L 20.546875 -4.15625 L 21.5 0 L 28 0 L 17.421875 -26.796875 L 13.265625 -26.796875 Z M 2.6875 0 "/></g></g></g><g fill="#333333" fill-opacity="1"><g transform="translate(108.93531, 42.169394)"><g><path d="M 17.375 -15.21875 L 17.375 -19.328125 C 16.320312 -19.742188 15.242188 -20.050781 14.140625 -20.25 C 13.046875 -20.445312 11.910156 -20.546875 10.734375 -20.546875 C 8.179688 -20.546875 6.222656 -20.015625 4.859375 -18.953125 C 3.503906 -17.898438 2.828125 -16.375 2.828125 -14.375 C 2.828125 -12.707031 3.316406 -11.457031 4.296875 -10.625 C 5.273438 -9.789062 6.769531 -9.164062 8.78125 -8.75 L 8.75 -8.75 L 9.84375 -8.484375 C 11.539062 -8.117188 12.507812 -7.835938 12.75 -7.640625 C 12.875 -7.492188 12.992188 -7.320312 13.109375 -7.125 C 13.234375 -6.925781 13.375 -6.707031 13.53125 -6.46875 C 13.53125 -5.90625 13.234375 -5.488281 12.640625 -5.21875 C 12.097656 -4.925781 11.21875 -4.78125 10 -4.78125 C 7.96875 -4.78125 5.53125 -5.515625 2.6875 -6.984375 L 2.6875 -0.875 C 5.425781 0.03125 7.847656 0.484375 9.953125 0.484375 C 12.503906 0.484375 14.546875 -0.078125 16.078125 -1.203125 C 17.609375 -2.335938 18.375 -3.882812 18.375 -5.84375 C 18.375 -7.5625 17.835938 -8.894531 16.765625 -9.84375 C 16.265625 -10.257812 15.59375 -10.644531 14.75 -11 C 13.90625 -11.363281 12.910156 -11.664062 11.765625 -11.90625 C 11.585938 -11.90625 11.425781 -11.941406 11.28125 -12.015625 C 11.1875 -12.035156 11.09375 -12.050781 11 -12.0625 C 10.914062 -12.082031 10.828125 -12.101562 10.734375 -12.125 C 9.191406 -12.46875 8.160156 -12.835938 7.640625 -13.234375 C 7.203125 -13.597656 6.984375 -14.070312 6.984375 -14.65625 C 6.984375 -15.375 7.332031 -15.929688 8.03125 -16.328125 C 8.726562 -16.734375 9.738281 -16.9375 11.0625 -16.9375 C 12.925781 -16.9375 15.03125 -16.363281 17.375 -15.21875 Z M 17.375 -15.21875 "/></g></g></g><g fill="#333333" fill-opacity="1"><g transform="translate(129.99583, 42.169394)"><g><path d="M 17.375 -15.21875 L 17.375 -19.328125 C 16.320312 -19.742188 15.242188 -20.050781 14.140625 -20.25 C 13.046875 -20.445312 11.910156 -20.546875 10.734375 -20.546875 C 8.179688 -20.546875 6.222656 -20.015625 4.859375 -18.953125 C 3.503906 -17.898438 2.828125 -16.375 2.828125 -14.375 C 2.828125 -12.707031 3.316406 -11.457031 4.296875 -10.625 C 5.273438 -9.789062 6.769531 -9.164062 8.78125 -8.75 L 8.75 -8.75 L 9.84375 -8.484375 C 11.539062 -8.117188 12.507812 -7.835938 12.75 -7.640625 C 12.875 -7.492188 12.992188 -7.320312 13.109375 -7.125 C 13.234375 -6.925781 13.375 -6.707031 13.53125 -6.46875 C 13.53125 -5.90625 13.234375 -5.488281 12.640625 -5.21875 C 12.097656 -4.925781 11.21875 -4.78125 10 -4.78125 C 7.96875 -4.78125 5.53125 -5.515625 2.6875 -6.984375 L 2.6875 -0.875 C 5.425781 0.03125 7.847656 0.484375 9.953125 0.484375 C 12.503906 0.484375 14.546875 -0.078125 16.078125 -1.203125 C 17.609375 -2.335938 18.375 -3.882812 18.375 -5.84375 C 18.375 -7.5625 17.835938 -8.894531 16.765625 -9.84375 C 16.265625 -10.257812 15.59375 -10.644531 14.75 -11 C 13.90625 -11.363281 12.910156 -11.664062 11.765625 -11.90625 C 11.585938 -11.90625 11.425781 -11.941406 11.28125 -12.015625 C 11.1875 -12.035156 11.09375 -12.050781 11 -12.0625 C 10.914062 -12.082031 10.828125 -12.101562 10.734375 -12.125 C 9.191406 -12.46875 8.160156 -12.835938 7.640625 -13.234375 C 7.203125 -13.597656 6.984375 -14.070312 6.984375 -14.65625 C 6.984375 -15.375 7.332031 -15.929688 8.03125 -16.328125 C 8.726562 -16.734375 9.738281 -16.9375 11.0625 -16.9375 C 12.925781 -16.9375 15.03125 -16.363281 17.375 -15.21875 Z M 17.375 -15.21875 "/></g></g></g><g fill="#333333" fill-opacity="1"><g transform="translate(151.056349, 42.169394)"><g><path d="M 2.71875 0 L 7.125 0 L 6.984375 -20.109375 L 2.90625 -20.109375 Z M 2.6875 -22.15625 L 7.171875 -22.15625 L 6.953125 -27.421875 L 2.90625 -27.421875 Z M 2.6875 -22.15625 "/></g></g></g><g fill="#333333" fill-opacity="1"><g transform="translate(160.943397, 42.169394)"><g><path d="M 17.375 -15.21875 L 17.375 -19.328125 C 16.320312 -19.742188 15.242188 -20.050781 14.140625 -20.25 C 13.046875 -20.445312 11.910156 -20.546875 10.734375 -20.546875 C 8.179688 -20.546875 6.222656 -20.015625 4.859375 -18.953125 C 3.503906 -17.898438 2.828125 -16.375 2.828125 -14.375 C 2.828125 -12.707031 3.316406 -11.457031 4.296875 -10.625 C 5.273438 -9.789062 6.769531 -9.164062 8.78125 -8.75 L 8.75 -8.75 L 9.84375 -8.484375 C 11.539062 -8.117188 12.507812 -7.835938 12.75 -7.640625 C 12.875 -7.492188 12.992188 -7.320312 13.109375 -7.125 C 13.234375 -6.925781 13.375 -6.707031 13.53125 -6.46875 C 13.53125 -5.90625 13.234375 -5.488281 12.640625 -5.21875 C 12.097656 -4.925781 11.21875 -4.78125 10 -4.78125 C 7.96875 -4.78125 5.53125 -5.515625 2.6875 -6.984375 L 2.6875 -0.875 C 5.425781 0.03125 7.847656 0.484375 9.953125 0.484375 C 12.503906 0.484375 14.546875 -0.078125 16.078125 -1.203125 C 17.609375 -2.335938 18.375 -3.882812 18.375 -5.84375 C 18.375 -7.5625 17.835938 -8.894531 16.765625 -9.84375 C 16.265625 -10.257812 15.59375 -10.644531 14.75 -11 C 13.90625 -11.363281 12.910156 -11.664062 11.765625 -11.90625 C 11.585938 -11.90625 11.425781 -11.941406 11.28125 -12.015625 C 11.1875 -12.035156 11.09375 -12.050781 11 -12.0625 C 10.914062 -12.082031 10.828125 -12.101562 10.734375 -12.125 C 9.191406 -12.46875 8.160156 -12.835938 7.640625 -13.234375 C 7.203125 -13.597656 6.984375 -14.070312 6.984375 -14.65625 C 6.984375 -15.375 7.332031 -15.929688 8.03125 -16.328125 C 8.726562 -16.734375 9.738281 -16.9375 11.0625 -16.9375 C 12.925781 -16.9375 15.03125 -16.363281 17.375 -15.21875 Z M 17.375 -15.21875 "/></g></g></g><g fill="#333333" fill-opacity="1"><g transform="translate(182.003917, 42.169394)"><g><path d="M 5.140625 -24.734375 L 4.96875 -20.109375 L 2.6875 -20.109375 L 2.6875 -16.359375 L 4.96875 -16.359375 L 4.78125 -6.875 C 4.78125 -4.320312 5.328125 -2.535156 6.421875 -1.515625 C 7.523438 -0.503906 9.351562 0 11.90625 0 L 15.734375 0 L 15.734375 -5.921875 L 11.90625 -5.921875 C 10.800781 -5.921875 10.113281 -6.078125 9.84375 -6.390625 C 9.53125 -6.679688 9.375 -7.503906 9.375 -8.859375 L 9.5625 -16.359375 L 13.890625 -16.359375 L 13.890625 -20.109375 L 9.59375 -20.109375 L 9.734375 -24.734375 Z M 5.140625 -24.734375 "/></g></g></g><g fill="#333333" fill-opacity="1"><g transform="translate(200.418089, 42.169394)"><g><path d="M 2.71875 0 L 7.125 0 L 6.984375 -20.109375 L 2.90625 -20.109375 Z M 2.6875 -22.15625 L 7.171875 -22.15625 L 6.953125 -27.421875 L 2.90625 -27.421875 Z M 2.6875 -22.15625 "/></g></g></g><g fill="#333333" fill-opacity="1"><g transform="translate(210.305137, 42.169394)"><g><path d="M 10.03125 0 L 15.546875 0 L 22.890625 -20.109375 L 18.1875 -20.109375 C 17.769531 -19.078125 17.332031 -18.03125 16.875 -16.96875 C 16.425781 -15.914062 15.972656 -14.851562 15.515625 -13.78125 C 15.046875 -12.707031 14.582031 -11.632812 14.125 -10.5625 C 13.675781 -9.5 13.226562 -8.453125 12.78125 -7.421875 L 7.390625 -20.109375 L 2.6875 -20.109375 Z M 10.03125 0 "/></g></g></g><g fill="#333333" fill-opacity="1"><g transform="translate(235.8865, 42.169394)"><g><path d="M 21.234375 -10.140625 L 21.234375 -12.046875 C 21.015625 -14.867188 20.1875 -16.96875 18.75 -18.34375 L 18.78125 -18.34375 C 17.332031 -19.707031 15.257812 -20.441406 12.5625 -20.546875 C 10.5625 -20.546875 8.832031 -20.101562 7.375 -19.21875 C 5.914062 -18.332031 4.785156 -17.09375 3.984375 -15.5 C 3.191406 -13.914062 2.757812 -12.046875 2.6875 -9.890625 C 2.6875 -6.722656 3.628906 -4.222656 5.515625 -2.390625 C 7.421875 -0.578125 9.929688 0.378906 13.046875 0.484375 C 15.566406 0.484375 18.113281 -0.0664062 20.6875 -1.171875 L 20.609375 -6.984375 C 19.804688 -6.566406 19.066406 -6.234375 18.390625 -5.984375 C 17.710938 -5.742188 17.117188 -5.597656 16.609375 -5.546875 C 16.046875 -5.492188 15.492188 -5.457031 14.953125 -5.4375 C 14.421875 -5.414062 13.847656 -5.40625 13.234375 -5.40625 C 12.328125 -5.476562 11.476562 -5.609375 10.6875 -5.796875 C 9.90625 -5.992188 9.257812 -6.253906 8.75 -6.578125 C 7.914062 -7.160156 7.425781 -8.347656 7.28125 -10.140625 Z M 17.046875 -14.1875 L 7.640625 -14.1875 C 7.785156 -14.84375 8.21875 -15.53125 8.9375 -16.25 L 8.9375 -16.203125 C 9.8125 -17.140625 11.019531 -17.609375 12.5625 -17.609375 C 13.882812 -17.609375 14.941406 -17.140625 15.734375 -16.203125 C 16.003906 -15.890625 16.257812 -15.550781 16.5 -15.1875 C 16.75 -14.832031 16.929688 -14.5 17.046875 -14.1875 Z M 17.046875 -14.1875 "/></g></g></g><g fill="#333333" fill-opacity="1"><g transform="translate(259.813892, 42.169394)"><g/></g></g><g fill="#333333" fill-opacity="1"><g transform="translate(274.185041, 42.169394)"><g><path d="M 2.6875 -22.53125 L 11.6875 -22.859375 L 11.03125 0 L 17.234375 0 L 16.578125 -22.859375 L 25.578125 -22.484375 L 25.578125 -26.796875 L 2.6875 -26.796875 Z M 2.6875 -22.53125 "/></g></g></g><g fill="#333333" fill-opacity="1"><g transform="translate(302.449502, 42.169394)"><g><path d="M 21.234375 -10.140625 L 21.234375 -12.046875 C 21.015625 -14.867188 20.1875 -16.96875 18.75 -18.34375 L 18.78125 -18.34375 C 17.332031 -19.707031 15.257812 -20.441406 12.5625 -20.546875 C 10.5625 -20.546875 8.832031 -20.101562 7.375 -19.21875 C 5.914062 -18.332031 4.785156 -17.09375 3.984375 -15.5 C 3.191406 -13.914062 2.757812 -12.046875 2.6875 -9.890625 C 2.6875 -6.722656 3.628906 -4.222656 5.515625 -2.390625 C 7.421875 -0.578125 9.929688 0.378906 13.046875 0.484375 C 15.566406 0.484375 18.113281 -0.0664062 20.6875 -1.171875 L 20.609375 -6.984375 C 19.804688 -6.566406 19.066406 -6.234375 18.390625 -5.984375 C 17.710938 -5.742188 17.117188 -5.597656 16.609375 -5.546875 C 16.046875 -5.492188 15.492188 -5.457031 14.953125 -5.4375 C 14.421875 -5.414062 13.847656 -5.40625 13.234375 -5.40625 C 12.328125 -5.476562 11.476562 -5.609375 10.6875 -5.796875 C 9.90625 -5.992188 9.257812 -6.253906 8.75 -6.578125 C 7.914062 -7.160156 7.425781 -8.347656 7.28125 -10.140625 Z M 17.046875 -14.1875 L 7.640625 -14.1875 C 7.785156 -14.84375 8.21875 -15.53125 8.9375 -16.25 L 8.9375 -16.203125 C 9.8125 -17.140625 11.019531 -17.609375 12.5625 -17.609375 C 13.882812 -17.609375 14.941406 -17.140625 15.734375 -16.203125 C 16.003906 -15.890625 16.257812 -15.550781 16.5 -15.1875 C 16.75 -14.832031 16.929688 -14.5 17.046875 -14.1875 Z M 17.046875 -14.1875 "/></g></g></g><g fill="#333333" fill-opacity="1"><g transform="translate(326.376894, 42.169394)"><g><path d="M 18.890625 -14.890625 L 18.890625 -19.140625 C 16.753906 -20.078125 14.71875 -20.546875 12.78125 -20.546875 C 10.707031 -20.546875 8.914062 -20.113281 7.40625 -19.25 C 5.894531 -18.394531 4.726562 -17.179688 3.90625 -15.609375 C 3.09375 -14.046875 2.6875 -12.1875 2.6875 -10.03125 C 2.6875 -7.925781 3.09375 -6.082031 3.90625 -4.5 C 4.726562 -2.914062 5.878906 -1.6875 7.359375 -0.8125 C 8.847656 0.0507812 10.597656 0.484375 12.609375 0.484375 C 14.710938 0.484375 16.804688 0.00390625 18.890625 -0.953125 L 18.78125 -7.390625 C 18.070312 -6.972656 17.441406 -6.664062 16.890625 -6.46875 C 16.335938 -6.269531 15.863281 -6.160156 15.46875 -6.140625 L 12.828125 -6.140625 C 11.992188 -6.210938 11.210938 -6.335938 10.484375 -6.515625 C 9.765625 -6.703125 9.195312 -6.921875 8.78125 -7.171875 C 8.050781 -7.703125 7.609375 -8.679688 7.453125 -10.109375 C 7.484375 -12.191406 7.957031 -13.820312 8.875 -15 C 9.789062 -16.175781 11.144531 -16.765625 12.9375 -16.765625 C 14.625 -16.765625 16.609375 -16.140625 18.890625 -14.890625 Z M 18.890625 -14.890625 "/></g></g></g><g fill="#333333" fill-opacity="1"><g transform="translate(347.951986, 42.169394)"><g><path d="M 20.109375 -12.015625 L 20.109375 -11.984375 C 20.109375 -17.691406 17.707031 -20.546875 12.90625 -20.546875 C 11.800781 -20.546875 10.804688 -20.378906 9.921875 -20.046875 C 9.035156 -19.710938 8.238281 -19.179688 7.53125 -18.453125 L 7.828125 -27.421875 L 3.375 -27.421875 L 2.6875 0 L 7.828125 0 C 7.804688 -0.882812 7.78125 -1.800781 7.75 -2.75 C 7.726562 -3.707031 7.691406 -4.664062 7.640625 -5.625 C 7.617188 -6.601562 7.59375 -7.566406 7.5625 -8.515625 C 7.539062 -9.472656 7.519531 -10.394531 7.5 -11.28125 C 7.5 -12.945312 7.921875 -14.296875 8.765625 -15.328125 C 9.609375 -16.359375 10.753906 -16.875 12.203125 -16.875 C 13.347656 -16.875 14.210938 -16.4375 14.796875 -15.5625 C 15.390625 -14.695312 15.6875 -13.476562 15.6875 -11.90625 L 15.328125 0 L 20.46875 0 Z M 20.109375 -12.015625 "/></g></g></g><g fill="#333333" fill-opacity="1"><g transform="translate(371.107511, 42.169394)"><g><path d="M 20.953125 0 L 20.4375 -12.015625 C 20.289062 -14.765625 19.601562 -16.875 18.375 -18.34375 C 17.144531 -19.8125 15.359375 -20.546875 13.015625 -20.546875 C 12.296875 -20.546875 11.625 -20.460938 11 -20.296875 C 10.375 -20.140625 9.78125 -19.914062 9.21875 -19.625 C 8.945312 -19.457031 8.679688 -19.296875 8.421875 -19.140625 C 8.171875 -18.992188 7.910156 -18.835938 7.640625 -18.671875 L 7.640625 -20.25 L 3.234375 -20.25 L 2.6875 0 L 8.34375 0 L 7.796875 -11.46875 C 7.796875 -13.132812 8.1875 -14.425781 8.96875 -15.34375 C 9.75 -16.257812 10.984375 -16.71875 12.671875 -16.71875 C 13.828125 -16.71875 14.644531 -16.332031 15.125 -15.5625 C 15.601562 -14.789062 15.84375 -13.632812 15.84375 -12.09375 L 15.140625 0 Z M 20.953125 0 "/></g></g></g><g fill="#333333" fill-opacity="1"><g transform="translate(394.777625, 42.169394)"><g><path d="M 11.984375 -16.9375 C 13.378906 -16.9375 14.503906 -16.378906 15.359375 -15.265625 C 16.210938 -14.148438 16.640625 -12.585938 16.640625 -10.578125 C 16.640625 -8.691406 16.265625 -7.484375 15.515625 -6.953125 C 15.097656 -6.703125 14.585938 -6.507812 13.984375 -6.375 C 13.378906 -6.238281 12.710938 -6.171875 11.984375 -6.171875 C 10.953125 -6.171875 10.085938 -6.269531 9.390625 -6.46875 C 8.691406 -6.664062 8.164062 -7.078125 7.8125 -7.703125 C 7.457031 -8.328125 7.28125 -9.285156 7.28125 -10.578125 C 7.28125 -12.585938 7.707031 -14.148438 8.5625 -15.265625 C 9.414062 -16.378906 10.554688 -16.9375 11.984375 -16.9375 Z M 11.984375 -20.546875 C 9.046875 -20.546875 6.765625 -19.601562 5.140625 -17.71875 C 3.503906 -15.851562 2.6875 -13.289062 2.6875 -10.03125 C 2.6875 -6.769531 3.503906 -4.210938 5.140625 -2.359375 C 6.765625 -0.460938 9.046875 0.484375 11.984375 0.484375 C 13.890625 0.484375 15.535156 0.0546875 16.921875 -0.796875 C 18.304688 -1.660156 19.367188 -2.875 20.109375 -4.4375 C 20.859375 -6.007812 21.234375 -7.875 21.234375 -10.03125 C 21.234375 -12.1875 20.859375 -14.046875 20.109375 -15.609375 C 19.367188 -17.179688 18.304688 -18.394531 16.921875 -19.25 C 15.535156 -20.113281 13.890625 -20.546875 11.984375 -20.546875 Z M 11.984375 -20.546875 "/></g></g></g><g fill="#333333" fill-opacity="1"><g transform="translate(418.705001, 42.169394)"><g><path d="M 2.6875 0 L 9.375 0 L 9.375 -5.140625 L 7.3125 -5.140625 L 7.3125 -27.421875 L 3.046875 -27.421875 Z M 2.6875 0 "/></g></g></g><g fill="#333333" fill-opacity="1"><g transform="translate(430.797336, 42.169394)"><g><path d="M 11.984375 -16.9375 C 13.378906 -16.9375 14.503906 -16.378906 15.359375 -15.265625 C 16.210938 -14.148438 16.640625 -12.585938 16.640625 -10.578125 C 16.640625 -8.691406 16.265625 -7.484375 15.515625 -6.953125 C 15.097656 -6.703125 14.585938 -6.507812 13.984375 -6.375 C 13.378906 -6.238281 12.710938 -6.171875 11.984375 -6.171875 C 10.953125 -6.171875 10.085938 -6.269531 9.390625 -6.46875 C 8.691406 -6.664062 8.164062 -7.078125 7.8125 -7.703125 C 7.457031 -8.328125 7.28125 -9.285156 7.28125 -10.578125 C 7.28125 -12.585938 7.707031 -14.148438 8.5625 -15.265625 C 9.414062 -16.378906 10.554688 -16.9375 11.984375 -16.9375 Z M 11.984375 -20.546875 C 9.046875 -20.546875 6.765625 -19.601562 5.140625 -17.71875 C 3.503906 -15.851562 2.6875 -13.289062 2.6875 -10.03125 C 2.6875 -6.769531 3.503906 -4.210938 5.140625 -2.359375 C 6.765625 -0.460938 9.046875 0.484375 11.984375 0.484375 C 13.890625 0.484375 15.535156 0.0546875 16.921875 -0.796875 C 18.304688 -1.660156 19.367188 -2.875 20.109375 -4.4375 C 20.859375 -6.007812 21.234375 -7.875 21.234375 -10.03125 C 21.234375 -12.1875 20.859375 -14.046875 20.109375 -15.609375 C 19.367188 -17.179688 18.304688 -18.394531 16.921875 -19.25 C 15.535156 -20.113281 13.890625 -20.546875 11.984375 -20.546875 Z M 11.984375 -20.546875 "/></g></g></g><g fill="#333333" fill-opacity="1"><g transform="translate(454.724745, 42.169394)"><g><path d="M 15.03125 -10.4375 C 15.03125 -9.164062 14.84375 -8.234375 14.46875 -7.640625 C 14.101562 -7.054688 13.5625 -6.691406 12.84375 -6.546875 C 12.125 -6.398438 11.25 -6.328125 10.21875 -6.328125 C 8.71875 -6.328125 7.640625 -6.519531 6.984375 -6.90625 C 6.421875 -7.375 6.050781 -8.578125 5.875 -10.515625 C 5.875 -11.023438 5.898438 -11.503906 5.953125 -11.953125 C 6.003906 -12.410156 6.078125 -12.835938 6.171875 -13.234375 C 6.316406 -13.765625 6.539062 -14.304688 6.84375 -14.859375 C 7.15625 -15.410156 7.59375 -15.875 8.15625 -16.25 C 8.71875 -16.632812 9.476562 -16.828125 10.4375 -16.828125 C 11.882812 -16.828125 13.007812 -16.273438 13.8125 -15.171875 C 14.625 -14.023438 15.03125 -12.445312 15.03125 -10.4375 Z M 21.125 -20.109375 L 16.765625 -20.109375 C 16.765625 -20.003906 16.753906 -19.878906 16.734375 -19.734375 C 16.722656 -19.585938 16.707031 -19.441406 16.6875 -19.296875 C 16.65625 -19.148438 16.632812 -18.992188 16.625 -18.828125 C 16.613281 -18.671875 16.597656 -18.519531 16.578125 -18.375 C 15.890625 -19.132812 15.09375 -19.6875 14.1875 -20.03125 C 13.28125 -20.375 12.226562 -20.546875 11.03125 -20.546875 C 9.363281 -20.546875 7.894531 -20.109375 6.625 -19.234375 C 5.363281 -18.367188 4.390625 -17.160156 3.703125 -15.609375 C 3.023438 -14.066406 2.6875 -12.28125 2.6875 -10.25 C 2.6875 -8.238281 3.023438 -6.460938 3.703125 -4.921875 C 4.390625 -3.378906 5.363281 -2.171875 6.625 -1.296875 C 7.894531 -0.429688 9.363281 0 11.03125 0 C 12.519531 0 13.816406 -0.289062 14.921875 -0.875 C 15.117188 -1 15.289062 -1.109375 15.4375 -1.203125 C 15.582031 -1.304688 15.726562 -1.40625 15.875 -1.5 C 15.707031 -1.1875 15.523438 -0.863281 15.328125 -0.53125 C 15.128906 -0.195312 14.882812 0.140625 14.59375 0.484375 C 13.757812 1.429688 12.445312 1.90625 10.65625 1.90625 C 9.800781 1.90625 8.875 1.757812 7.875 1.46875 C 6.882812 1.175781 5.789062 0.695312 4.59375 0.03125 L 4.59375 7.125 C 5.695312 7.519531 6.78125 7.816406 7.84375 8.015625 C 8.90625 8.210938 10.003906 8.3125 11.140625 8.3125 C 14.273438 8.3125 16.613281 7.453125 18.15625 5.734375 C 18.914062 4.921875 19.492188 3.765625 19.890625 2.265625 C 20.296875 0.773438 20.535156 -0.972656 20.609375 -2.984375 Z M 21.125 -20.109375 "/></g></g></g><g fill="#333333" fill-opacity="1"><g transform="translate(478.541865, 42.169394)"><g><path d="M 2.71875 0 L 7.125 0 L 6.984375 -20.109375 L 2.90625 -20.109375 Z M 2.6875 -22.15625 L 7.171875 -22.15625 L 6.953125 -27.421875 L 2.90625 -27.421875 Z M 2.6875 -22.15625 "/></g></g></g><g fill="#333333" fill-opacity="1"><g transform="translate(488.428905, 42.169394)"><g><path d="M 21.234375 -10.140625 L 21.234375 -12.046875 C 21.015625 -14.867188 20.1875 -16.96875 18.75 -18.34375 L 18.78125 -18.34375 C 17.332031 -19.707031 15.257812 -20.441406 12.5625 -20.546875 C 10.5625 -20.546875 8.832031 -20.101562 7.375 -19.21875 C 5.914062 -18.332031 4.785156 -17.09375 3.984375 -15.5 C 3.191406 -13.914062 2.757812 -12.046875 2.6875 -9.890625 C 2.6875 -6.722656 3.628906 -4.222656 5.515625 -2.390625 C 7.421875 -0.578125 9.929688 0.378906 13.046875 0.484375 C 15.566406 0.484375 18.113281 -0.0664062 20.6875 -1.171875 L 20.609375 -6.984375 C 19.804688 -6.566406 19.066406 -6.234375 18.390625 -5.984375 C 17.710938 -5.742188 17.117188 -5.597656 16.609375 -5.546875 C 16.046875 -5.492188 15.492188 -5.457031 14.953125 -5.4375 C 14.421875 -5.414062 13.847656 -5.40625 13.234375 -5.40625 C 12.328125 -5.476562 11.476562 -5.609375 10.6875 -5.796875 C 9.90625 -5.992188 9.257812 -6.253906 8.75 -6.578125 C 7.914062 -7.160156 7.425781 -8.347656 7.28125 -10.140625 Z M 17.046875 -14.1875 L 7.640625 -14.1875 C 7.785156 -14.84375 8.21875 -15.53125 8.9375 -16.25 L 8.9375 -16.203125 C 9.8125 -17.140625 11.019531 -17.609375 12.5625 -17.609375 C 13.882812 -17.609375 14.941406 -17.140625 15.734375 -16.203125 C 16.003906 -15.890625 16.257812 -15.550781 16.5 -15.1875 C 16.75 -14.832031 16.929688 -14.5 17.046875 -14.1875 Z M 17.046875 -14.1875 "/></g></g></g><g fill="#333333" fill-opacity="1"><g transform="translate(512.35628, 42.169394)"><g><path d="M 17.375 -15.21875 L 17.375 -19.328125 C 16.320312 -19.742188 15.242188 -20.050781 14.140625 -20.25 C 13.046875 -20.445312 11.910156 -20.546875 10.734375 -20.546875 C 8.179688 -20.546875 6.222656 -20.015625 4.859375 -18.953125 C 3.503906 -17.898438 2.828125 -16.375 2.828125 -14.375 C 2.828125 -12.707031 3.316406 -11.457031 4.296875 -10.625 C 5.273438 -9.789062 6.769531 -9.164062 8.78125 -8.75 L 8.75 -8.75 L 9.84375 -8.484375 C 11.539062 -8.117188 12.507812 -7.835938 12.75 -7.640625 C 12.875 -7.492188 12.992188 -7.320312 13.109375 -7.125 C 13.234375 -6.925781 13.375 -6.707031 13.53125 -6.46875 C 13.53125 -5.90625 13.234375 -5.488281 12.640625 -5.21875 C 12.097656 -4.925781 11.21875 -4.78125 10 -4.78125 C 7.96875 -4.78125 5.53125 -5.515625 2.6875 -6.984375 L 2.6875 -0.875 C 5.425781 0.03125 7.847656 0.484375 9.953125 0.484375 C 12.503906 0.484375 14.546875 -0.078125 16.078125 -1.203125 C 17.609375 -2.335938 18.375 -3.882812 18.375 -5.84375 C 18.375 -7.5625 17.835938 -8.894531 16.765625 -9.84375 C 16.265625 -10.257812 15.59375 -10.644531 14.75 -11 C 13.90625 -11.363281 12.910156 -11.664062 11.765625 -11.90625 C 11.585938 -11.90625 11.425781 -11.941406 11.28125 -12.015625 C 11.1875 -12.035156 11.09375 -12.050781 11 -12.0625 C 10.914062 -12.082031 10.828125 -12.101562 10.734375 -12.125 C 9.191406 -12.46875 8.160156 -12.835938 7.640625 -13.234375 C 7.203125 -13.597656 6.984375 -14.070312 6.984375 -14.65625 C 6.984375 -15.375 7.332031 -15.929688 8.03125 -16.328125 C 8.726562 -16.734375 9.738281 -16.9375 11.0625 -16.9375 C 12.925781 -16.9375 15.03125 -16.363281 17.375 -15.21875 Z M 17.375 -15.21875 "/></g></g></g><g fill="#7ec28a" fill-opacity="1"><g transform="translate(77.159916, 41.567906)"><g><path d="M 19.109375 -9.5625 L 11.609375 -9.5625 C 11.785156 -10.050781 11.953125 -10.539062 12.109375 -11.03125 C 12.265625 -11.519531 12.414062 -11.992188 12.5625 -12.453125 C 12.738281 -12.941406 12.898438 -13.410156 13.046875 -13.859375 C 13.191406 -14.316406 13.351562 -14.78125 13.53125 -15.25 C 13.675781 -15.6875 13.820312 -16.128906 13.96875 -16.578125 C 14.113281 -17.035156 14.257812 -17.5 14.40625 -17.96875 C 14.550781 -18.4375 14.703125 -18.898438 14.859375 -19.359375 C 15.023438 -19.828125 15.179688 -20.296875 15.328125 -20.765625 Z M 2.6875 0 L 8.8125 0 L 10.109375 -4.15625 L 20.546875 -4.15625 L 21.5 0 L 28 0 L 17.421875 -26.796875 L 13.265625 -26.796875 Z M 2.6875 0 "/></g></g></g><g fill="#7ec28a" fill-opacity="1"><g transform="translate(107.850198, 41.567906)"><g><path d="M 17.375 -15.21875 L 17.375 -19.328125 C 16.320312 -19.742188 15.242188 -20.050781 14.140625 -20.25 C 13.046875 -20.445312 11.910156 -20.546875 10.734375 -20.546875 C 8.179688 -20.546875 6.222656 -20.015625 4.859375 -18.953125 C 3.503906 -17.898438 2.828125 -16.375 2.828125 -14.375 C 2.828125 -12.707031 3.316406 -11.457031 4.296875 -10.625 C 5.273438 -9.789062 6.769531 -9.164062 8.78125 -8.75 L 8.75 -8.75 L 9.84375 -8.484375 C 11.539062 -8.117188 12.507812 -7.835938 12.75 -7.640625 C 12.875 -7.492188 12.992188 -7.320312 13.109375 -7.125 C 13.234375 -6.925781 13.375 -6.707031 13.53125 -6.46875 C 13.53125 -5.90625 13.234375 -5.488281 12.640625 -5.21875 C 12.097656 -4.925781 11.21875 -4.78125 10 -4.78125 C 7.96875 -4.78125 5.53125 -5.515625 2.6875 -6.984375 L 2.6875 -0.875 C 5.425781 0.03125 7.847656 0.484375 9.953125 0.484375 C 12.503906 0.484375 14.546875 -0.078125 16.078125 -1.203125 C 17.609375 -2.335938 18.375 -3.882812 18.375 -5.84375 C 18.375 -7.5625 17.835938 -8.894531 16.765625 -9.84375 C 16.265625 -10.257812 15.59375 -10.644531 14.75 -11 C 13.90625 -11.363281 12.910156 -11.664062 11.765625 -11.90625 C 11.585938 -11.90625 11.425781 -11.941406 11.28125 -12.015625 C 11.1875 -12.035156 11.09375 -12.050781 11 -12.0625 C 10.914062 -12.082031 10.828125 -12.101562 10.734375 -12.125 C 9.191406 -12.46875 8.160156 -12.835938 7.640625 -13.234375 C 7.203125 -13.597656 6.984375 -14.070312 6.984375 -14.65625 C 6.984375 -15.375 7.332031 -15.929688 8.03125 -16.328125 C 8.726562 -16.734375 9.738281 -16.9375 11.0625 -16.9375 C 12.925781 -16.9375 15.03125 -16.363281 17.375 -15.21875 Z M 17.375 -15.21875 "/></g></g></g><g fill="#7ec28a" fill-opacity="1"><g transform="translate(128.910717, 41.567906)"><g><path d="M 17.375 -15.21875 L 17.375 -19.328125 C 16.320312 -19.742188 15.242188 -20.050781 14.140625 -20.25 C 13.046875 -20.445312 11.910156 -20.546875 10.734375 -20.546875 C 8.179688 -20.546875 6.222656 -20.015625 4.859375 -18.953125 C 3.503906 -17.898438 2.828125 -16.375 2.828125 -14.375 C 2.828125 -12.707031 3.316406 -11.457031 4.296875 -10.625 C 5.273438 -9.789062 6.769531 -9.164062 8.78125 -8.75 L 8.75 -8.75 L 9.84375 -8.484375 C 11.539062 -8.117188 12.507812 -7.835938 12.75 -7.640625 C 12.875 -7.492188 12.992188 -7.320312 13.109375 -7.125 C 13.234375 -6.925781 13.375 -6.707031 13.53125 -6.46875 C 13.53125 -5.90625 13.234375 -5.488281 12.640625 -5.21875 C 12.097656 -4.925781 11.21875 -4.78125 10 -4.78125 C 7.96875 -4.78125 5.53125 -5.515625 2.6875 -6.984375 L 2.6875 -0.875 C 5.425781 0.03125 7.847656 0.484375 9.953125 0.484375 C 12.503906 0.484375 14.546875 -0.078125 16.078125 -1.203125 C 17.609375 -2.335938 18.375 -3.882812 18.375 -5.84375 C 18.375 -7.5625 17.835938 -8.894531 16.765625 -9.84375 C 16.265625 -10.257812 15.59375 -10.644531 14.75 -11 C 13.90625 -11.363281 12.910156 -11.664062 11.765625 -11.90625 C 11.585938 -11.90625 11.425781 -11.941406 11.28125 -12.015625 C 11.1875 -12.035156 11.09375 -12.050781 11 -12.0625 C 10.914062 -12.082031 10.828125 -12.101562 10.734375 -12.125 C 9.191406 -12.46875 8.160156 -12.835938 7.640625 -13.234375 C 7.203125 -13.597656 6.984375 -14.070312 6.984375 -14.65625 C 6.984375 -15.375 7.332031 -15.929688 8.03125 -16.328125 C 8.726562 -16.734375 9.738281 -16.9375 11.0625 -16.9375 C 12.925781 -16.9375 15.03125 -16.363281 17.375 -15.21875 Z M 17.375 -15.21875 "/></g></g></g><g fill="#7ec28a" fill-opacity="1"><g transform="translate(149.971236, 41.567906)"><g><path d="M 2.71875 0 L 7.125 0 L 6.984375 -20.109375 L 2.90625 -20.109375 Z M 2.6875 -22.15625 L 7.171875 -22.15625 L 6.953125 -27.421875 L 2.90625 -27.421875 Z M 2.6875 -22.15625 "/></g></g></g><g fill="#7ec28a" fill-opacity="1"><g transform="translate(159.858285, 41.567906)"><g><path d="M 17.375 -15.21875 L 17.375 -19.328125 C 16.320312 -19.742188 15.242188 -20.050781 14.140625 -20.25 C 13.046875 -20.445312 11.910156 -20.546875 10.734375 -20.546875 C 8.179688 -20.546875 6.222656 -20.015625 4.859375 -18.953125 C 3.503906 -17.898438 2.828125 -16.375 2.828125 -14.375 C 2.828125 -12.707031 3.316406 -11.457031 4.296875 -10.625 C 5.273438 -9.789062 6.769531 -9.164062 8.78125 -8.75 L 8.75 -8.75 L 9.84375 -8.484375 C 11.539062 -8.117188 12.507812 -7.835938 12.75 -7.640625 C 12.875 -7.492188 12.992188 -7.320312 13.109375 -7.125 C 13.234375 -6.925781 13.375 -6.707031 13.53125 -6.46875 C 13.53125 -5.90625 13.234375 -5.488281 12.640625 -5.21875 C 12.097656 -4.925781 11.21875 -4.78125 10 -4.78125 C 7.96875 -4.78125 5.53125 -5.515625 2.6875 -6.984375 L 2.6875 -0.875 C 5.425781 0.03125 7.847656 0.484375 9.953125 0.484375 C 12.503906 0.484375 14.546875 -0.078125 16.078125 -1.203125 C 17.609375 -2.335938 18.375 -3.882812 18.375 -5.84375 C 18.375 -7.5625 17.835938 -8.894531 16.765625 -9.84375 C 16.265625 -10.257812 15.59375 -10.644531 14.75 -11 C 13.90625 -11.363281 12.910156 -11.664062 11.765625 -11.90625 C 11.585938 -11.90625 11.425781 -11.941406 11.28125 -12.015625 C 11.1875 -12.035156 11.09375 -12.050781 11 -12.0625 C 10.914062 -12.082031 10.828125 -12.101562 10.734375 -12.125 C 9.191406 -12.46875 8.160156 -12.835938 7.640625 -13.234375 C 7.203125 -13.597656 6.984375 -14.070312 6.984375 -14.65625 C 6.984375 -15.375 7.332031 -15.929688 8.03125 -16.328125 C 8.726562 -16.734375 9.738281 -16.9375 11.0625 -16.9375 C 12.925781 -16.9375 15.03125 -16.363281 17.375 -15.21875 Z M 17.375 -15.21875 "/></g></g></g><g fill="#7ec28a" fill-opacity="1"><g transform="translate(180.918804, 41.567906)"><g><path d="M 5.140625 -24.734375 L 4.96875 -20.109375 L 2.6875 -20.109375 L 2.6875 -16.359375 L 4.96875 -16.359375 L 4.78125 -6.875 C 4.78125 -4.320312 5.328125 -2.535156 6.421875 -1.515625 C 7.523438 -0.503906 9.351562 0 11.90625 0 L 15.734375 0 L 15.734375 -5.921875 L 11.90625 -5.921875 C 10.800781 -5.921875 10.113281 -6.078125 9.84375 -6.390625 C 9.53125 -6.679688 9.375 -7.503906 9.375 -8.859375 L 9.5625 -16.359375 L 13.890625 -16.359375 L 13.890625 -20.109375 L 9.59375 -20.109375 L 9.734375 -24.734375 Z M 5.140625 -24.734375 "/></g></g></g><g fill="#7ec28a" fill-opacity="1"><g transform="translate(199.332976, 41.567906)"><g><path d="M 2.71875 0 L 7.125 0 L 6.984375 -20.109375 L 2.90625 -20.109375 Z M 2.6875 -22.15625 L 7.171875 -22.15625 L 6.953125 -27.421875 L 2.90625 -27.421875 Z M 2.6875 -22.15625 "/></g></g></g><g fill="#7ec28a" fill-opacity="1"><g transform="translate(209.220025, 41.567906)"><g><path d="M 10.03125 0 L 15.546875 0 L 22.890625 -20.109375 L 18.1875 -20.109375 C 17.769531 -19.078125 17.332031 -18.03125 16.875 -16.96875 C 16.425781 -15.914062 15.972656 -14.851562 15.515625 -13.78125 C 15.046875 -12.707031 14.582031 -11.632812 14.125 -10.5625 C 13.675781 -9.5 13.226562 -8.453125 12.78125 -7.421875 L 7.390625 -20.109375 L 2.6875 -20.109375 Z M 10.03125 0 "/></g></g></g><g fill="#7ec28a" fill-opacity="1"><g transform="translate(234.801387, 41.567906)"><g><path d="M 21.234375 -10.140625 L 21.234375 -12.046875 C 21.015625 -14.867188 20.1875 -16.96875 18.75 -18.34375 L 18.78125 -18.34375 C 17.332031 -19.707031 15.257812 -20.441406 12.5625 -20.546875 C 10.5625 -20.546875 8.832031 -20.101562 7.375 -19.21875 C 5.914062 -18.332031 4.785156 -17.09375 3.984375 -15.5 C 3.191406 -13.914062 2.757812 -12.046875 2.6875 -9.890625 C 2.6875 -6.722656 3.628906 -4.222656 5.515625 -2.390625 C 7.421875 -0.578125 9.929688 0.378906 13.046875 0.484375 C 15.566406 0.484375 18.113281 -0.0664062 20.6875 -1.171875 L 20.609375 -6.984375 C 19.804688 -6.566406 19.066406 -6.234375 18.390625 -5.984375 C 17.710938 -5.742188 17.117188 -5.597656 16.609375 -5.546875 C 16.046875 -5.492188 15.492188 -5.457031 14.953125 -5.4375 C 14.421875 -5.414062 13.847656 -5.40625 13.234375 -5.40625 C 12.328125 -5.476562 11.476562 -5.609375 10.6875 -5.796875 C 9.90625 -5.992188 9.257812 -6.253906 8.75 -6.578125 C 7.914062 -7.160156 7.425781 -8.347656 7.28125 -10.140625 Z M 17.046875 -14.1875 L 7.640625 -14.1875 C 7.785156 -14.84375 8.21875 -15.53125 8.9375 -16.25 L 8.9375 -16.203125 C 9.8125 -17.140625 11.019531 -17.609375 12.5625 -17.609375 C 13.882812 -17.609375 14.941406 -17.140625 15.734375 -16.203125 C 16.003906 -15.890625 16.257812 -15.550781 16.5 -15.1875 C 16.75 -14.832031 16.929688 -14.5 17.046875 -14.1875 Z M 17.046875 -14.1875 "/></g></g></g><g fill="#7ec28a" fill-opacity="1"><g transform="translate(258.728779, 41.567906)"><g/></g></g><g fill="#7ec28a" fill-opacity="1"><g transform="translate(273.099929, 41.567906)"><g><path d="M 2.6875 -22.53125 L 11.6875 -22.859375 L 11.03125 0 L 17.234375 0 L 16.578125 -22.859375 L 25.578125 -22.484375 L 25.578125 -26.796875 L 2.6875 -26.796875 Z M 2.6875 -22.53125 "/></g></g></g><g fill="#7ec28a" fill-opacity="1"><g transform="translate(301.36439, 41.567906)"><g><path d="M 21.234375 -10.140625 L 21.234375 -12.046875 C 21.015625 -14.867188 20.1875 -16.96875 18.75 -18.34375 L 18.78125 -18.34375 C 17.332031 -19.707031 15.257812 -20.441406 12.5625 -20.546875 C 10.5625 -20.546875 8.832031 -20.101562 7.375 -19.21875 C 5.914062 -18.332031 4.785156 -17.09375 3.984375 -15.5 C 3.191406 -13.914062 2.757812 -12.046875 2.6875 -9.890625 C 2.6875 -6.722656 3.628906 -4.222656 5.515625 -2.390625 C 7.421875 -0.578125 9.929688 0.378906 13.046875 0.484375 C 15.566406 0.484375 18.113281 -0.0664062 20.6875 -1.171875 L 20.609375 -6.984375 C 19.804688 -6.566406 19.066406 -6.234375 18.390625 -5.984375 C 17.710938 -5.742188 17.117188 -5.597656 16.609375 -5.546875 C 16.046875 -5.492188 15.492188 -5.457031 14.953125 -5.4375 C 14.421875 -5.414062 13.847656 -5.40625 13.234375 -5.40625 C 12.328125 -5.476562 11.476562 -5.609375 10.6875 -5.796875 C 9.90625 -5.992188 9.257812 -6.253906 8.75 -6.578125 C 7.914062 -7.160156 7.425781 -8.347656 7.28125 -10.140625 Z M 17.046875 -14.1875 L 7.640625 -14.1875 C 7.785156 -14.84375 8.21875 -15.53125 8.9375 -16.25 L 8.9375 -16.203125 C 9.8125 -17.140625 11.019531 -17.609375 12.5625 -17.609375 C 13.882812 -17.609375 14.941406 -17.140625 15.734375 -16.203125 C 16.003906 -15.890625 16.257812 -15.550781 16.5 -15.1875 C 16.75 -14.832031 16.929688 -14.5 17.046875 -14.1875 Z M 17.046875 -14.1875 "/></g></g></g><g fill="#7ec28a" fill-opacity="1"><g transform="translate(325.291782, 41.567906)"><g><path d="M 18.890625 -14.890625 L 18.890625 -19.140625 C 16.753906 -20.078125 14.71875 -20.546875 12.78125 -20.546875 C 10.707031 -20.546875 8.914062 -20.113281 7.40625 -19.25 C 5.894531 -18.394531 4.726562 -17.179688 3.90625 -15.609375 C 3.09375 -14.046875 2.6875 -12.1875 2.6875 -10.03125 C 2.6875 -7.925781 3.09375 -6.082031 3.90625 -4.5 C 4.726562 -2.914062 5.878906 -1.6875 7.359375 -0.8125 C 8.847656 0.0507812 10.597656 0.484375 12.609375 0.484375 C 14.710938 0.484375 16.804688 0.00390625 18.890625 -0.953125 L 18.78125 -7.390625 C 18.070312 -6.972656 17.441406 -6.664062 16.890625 -6.46875 C 16.335938 -6.269531 15.863281 -6.160156 15.46875 -6.140625 L 12.828125 -6.140625 C 11.992188 -6.210938 11.210938 -6.335938 10.484375 -6.515625 C 9.765625 -6.703125 9.195312 -6.921875 8.78125 -7.171875 C 8.050781 -7.703125 7.609375 -8.679688 7.453125 -10.109375 C 7.484375 -12.191406 7.957031 -13.820312 8.875 -15 C 9.789062 -16.175781 11.144531 -16.765625 12.9375 -16.765625 C 14.625 -16.765625 16.609375 -16.140625 18.890625 -14.890625 Z M 18.890625 -14.890625 "/></g></g></g><g fill="#7ec28a" fill-opacity="1"><g transform="translate(346.866873, 41.567906)"><g><path d="M 20.109375 -12.015625 L 20.109375 -11.984375 C 20.109375 -17.691406 17.707031 -20.546875 12.90625 -20.546875 C 11.800781 -20.546875 10.804688 -20.378906 9.921875 -20.046875 C 9.035156 -19.710938 8.238281 -19.179688 7.53125 -18.453125 L 7.828125 -27.421875 L 3.375 -27.421875 L 2.6875 0 L 7.828125 0 C 7.804688 -0.882812 7.78125 -1.800781 7.75 -2.75 C 7.726562 -3.707031 7.691406 -4.664062 7.640625 -5.625 C 7.617188 -6.601562 7.59375 -7.566406 7.5625 -8.515625 C 7.539062 -9.472656 7.519531 -10.394531 7.5 -11.28125 C 7.5 -12.945312 7.921875 -14.296875 8.765625 -15.328125 C 9.609375 -16.359375 10.753906 -16.875 12.203125 -16.875 C 13.347656 -16.875 14.210938 -16.4375 14.796875 -15.5625 C 15.390625 -14.695312 15.6875 -13.476562 15.6875 -11.90625 L 15.328125 0 L 20.46875 0 Z M 20.109375 -12.015625 "/></g></g></g><g fill="#7ec28a" fill-opacity="1"><g transform="translate(370.022398, 41.567906)"><g><path d="M 20.953125 0 L 20.4375 -12.015625 C 20.289062 -14.765625 19.601562 -16.875 18.375 -18.34375 C 17.144531 -19.8125 15.359375 -20.546875 13.015625 -20.546875 C 12.296875 -20.546875 11.625 -20.460938 11 -20.296875 C 10.375 -20.140625 9.78125 -19.914062 9.21875 -19.625 C 8.945312 -19.457031 8.679688 -19.296875 8.421875 -19.140625 C 8.171875 -18.992188 7.910156 -18.835938 7.640625 -18.671875 L 7.640625 -20.25 L 3.234375 -20.25 L 2.6875 0 L 8.34375 0 L 7.796875 -11.46875 C 7.796875 -13.132812 8.1875 -14.425781 8.96875 -15.34375 C 9.75 -16.257812 10.984375 -16.71875 12.671875 -16.71875 C 13.828125 -16.71875 14.644531 -16.332031 15.125 -15.5625 C 15.601562 -14.789062 15.84375 -13.632812 15.84375 -12.09375 L 15.140625 0 Z M 20.953125 0 "/></g></g></g><g fill="#7ec28a" fill-opacity="1"><g transform="translate(393.692512, 41.567906)"><g><path d="M 11.984375 -16.9375 C 13.378906 -16.9375 14.503906 -16.378906 15.359375 -15.265625 C 16.210938 -14.148438 16.640625 -12.585938 16.640625 -10.578125 C 16.640625 -8.691406 16.265625 -7.484375 15.515625 -6.953125 C 15.097656 -6.703125 14.585938 -6.507812 13.984375 -6.375 C 13.378906 -6.238281 12.710938 -6.171875 11.984375 -6.171875 C 10.953125 -6.171875 10.085938 -6.269531 9.390625 -6.46875 C 8.691406 -6.664062 8.164062 -7.078125 7.8125 -7.703125 C 7.457031 -8.328125 7.28125 -9.285156 7.28125 -10.578125 C 7.28125 -12.585938 7.707031 -14.148438 8.5625 -15.265625 C 9.414062 -16.378906 10.554688 -16.9375 11.984375 -16.9375 Z M 11.984375 -20.546875 C 9.046875 -20.546875 6.765625 -19.601562 5.140625 -17.71875 C 3.503906 -15.851562 2.6875 -13.289062 2.6875 -10.03125 C 2.6875 -6.769531 3.503906 -4.210938 5.140625 -2.359375 C 6.765625 -0.460938 9.046875 0.484375 11.984375 0.484375 C 13.890625 0.484375 15.535156 0.0546875 16.921875 -0.796875 C 18.304688 -1.660156 19.367188 -2.875 20.109375 -4.4375 C 20.859375 -6.007812 21.234375 -7.875 21.234375 -10.03125 C 21.234375 -12.1875 20.859375 -14.046875 20.109375 -15.609375 C 19.367188 -17.179688 18.304688 -18.394531 16.921875 -19.25 C 15.535156 -20.113281 13.890625 -20.546875 11.984375 -20.546875 Z M 11.984375 -20.546875 "/></g></g></g><g fill="#7ec28a" fill-opacity="1"><g transform="translate(417.619888, 41.567906)"><g><path d="M 2.6875 0 L 9.375 0 L 9.375 -5.140625 L 7.3125 -5.140625 L 7.3125 -27.421875 L 3.046875 -27.421875 Z M 2.6875 0 "/></g></g></g><g fill="#7ec28a" fill-opacity="1"><g transform="translate(429.712223, 41.567906)"><g><path d="M 11.984375 -16.9375 C 13.378906 -16.9375 14.503906 -16.378906 15.359375 -15.265625 C 16.210938 -14.148438 16.640625 -12.585938 16.640625 -10.578125 C 16.640625 -8.691406 16.265625 -7.484375 15.515625 -6.953125 C 15.097656 -6.703125 14.585938 -6.507812 13.984375 -6.375 C 13.378906 -6.238281 12.710938 -6.171875 11.984375 -6.171875 C 10.953125 -6.171875 10.085938 -6.269531 9.390625 -6.46875 C 8.691406 -6.664062 8.164062 -7.078125 7.8125 -7.703125 C 7.457031 -8.328125 7.28125 -9.285156 7.28125 -10.578125 C 7.28125 -12.585938 7.707031 -14.148438 8.5625 -15.265625 C 9.414062 -16.378906 10.554688 -16.9375 11.984375 -16.9375 Z M 11.984375 -20.546875 C 9.046875 -20.546875 6.765625 -19.601562 5.140625 -17.71875 C 3.503906 -15.851562 2.6875 -13.289062 2.6875 -10.03125 C 2.6875 -6.769531 3.503906 -4.210938 5.140625 -2.359375 C 6.765625 -0.460938 9.046875 0.484375 11.984375 0.484375 C 13.890625 0.484375 15.535156 0.0546875 16.921875 -0.796875 C 18.304688 -1.660156 19.367188 -2.875 20.109375 -4.4375 C 20.859375 -6.007812 21.234375 -7.875 21.234375 -10.03125 C 21.234375 -12.1875 20.859375 -14.046875 20.109375 -15.609375 C 19.367188 -17.179688 18.304688 -18.394531 16.921875 -19.25 C 15.535156 -20.113281 13.890625 -20.546875 11.984375 -20.546875 Z M 11.984375 -20.546875 "/></g></g></g><g fill="#7ec28a" fill-opacity="1"><g transform="translate(453.639632, 41.567906)"><g><path d="M 15.03125 -10.4375 C 15.03125 -9.164062 14.84375 -8.234375 14.46875 -7.640625 C 14.101562 -7.054688 13.5625 -6.691406 12.84375 -6.546875 C 12.125 -6.398438 11.25 -6.328125 10.21875 -6.328125 C 8.71875 -6.328125 7.640625 -6.519531 6.984375 -6.90625 C 6.421875 -7.375 6.050781 -8.578125 5.875 -10.515625 C 5.875 -11.023438 5.898438 -11.503906 5.953125 -11.953125 C 6.003906 -12.410156 6.078125 -12.835938 6.171875 -13.234375 C 6.316406 -13.765625 6.539062 -14.304688 6.84375 -14.859375 C 7.15625 -15.410156 7.59375 -15.875 8.15625 -16.25 C 8.71875 -16.632812 9.476562 -16.828125 10.4375 -16.828125 C 11.882812 -16.828125 13.007812 -16.273438 13.8125 -15.171875 C 14.625 -14.023438 15.03125 -12.445312 15.03125 -10.4375 Z M 21.125 -20.109375 L 16.765625 -20.109375 C 16.765625 -20.003906 16.753906 -19.878906 16.734375 -19.734375 C 16.722656 -19.585938 16.707031 -19.441406 16.6875 -19.296875 C 16.65625 -19.148438 16.632812 -18.992188 16.625 -18.828125 C 16.613281 -18.671875 16.597656 -18.519531 16.578125 -18.375 C 15.890625 -19.132812 15.09375 -19.6875 14.1875 -20.03125 C 13.28125 -20.375 12.226562 -20.546875 11.03125 -20.546875 C 9.363281 -20.546875 7.894531 -20.109375 6.625 -19.234375 C 5.363281 -18.367188 4.390625 -17.160156 3.703125 -15.609375 C 3.023438 -14.066406 2.6875 -12.28125 2.6875 -10.25 C 2.6875 -8.238281 3.023438 -6.460938 3.703125 -4.921875 C 4.390625 -3.378906 5.363281 -2.171875 6.625 -1.296875 C 7.894531 -0.429688 9.363281 0 11.03125 0 C 12.519531 0 13.816406 -0.289062 14.921875 -0.875 C 15.117188 -1 15.289062 -1.109375 15.4375 -1.203125 C 15.582031 -1.304688 15.726562 -1.40625 15.875 -1.5 C 15.707031 -1.1875 15.523438 -0.863281 15.328125 -0.53125 C 15.128906 -0.195312 14.882812 0.140625 14.59375 0.484375 C 13.757812 1.429688 12.445312 1.90625 10.65625 1.90625 C 9.800781 1.90625 8.875 1.757812 7.875 1.46875 C 6.882812 1.175781 5.789062 0.695312 4.59375 0.03125 L 4.59375 7.125 C 5.695312 7.519531 6.78125 7.816406 7.84375 8.015625 C 8.90625 8.210938 10.003906 8.3125 11.140625 8.3125 C 14.273438 8.3125 16.613281 7.453125 18.15625 5.734375 C 18.914062 4.921875 19.492188 3.765625 19.890625 2.265625 C 20.296875 0.773438 20.535156 -0.972656 20.609375 -2.984375 Z M 21.125 -20.109375 "/></g></g></g><g fill="#7ec28a" fill-opacity="1"><g transform="translate(477.456752, 41.567906)"><g><path d="M 2.71875 0 L 7.125 0 L 6.984375 -20.109375 L 2.90625 -20.109375 Z M 2.6875 -22.15625 L 7.171875 -22.15625 L 6.953125 -27.421875 L 2.90625 -27.421875 Z M 2.6875 -22.15625 "/></g></g></g><g fill="#7ec28a" fill-opacity="1"><g transform="translate(487.343792, 41.567906)"><g><path d="M 21.234375 -10.140625 L 21.234375 -12.046875 C 21.015625 -14.867188 20.1875 -16.96875 18.75 -18.34375 L 18.78125 -18.34375 C 17.332031 -19.707031 15.257812 -20.441406 12.5625 -20.546875 C 10.5625 -20.546875 8.832031 -20.101562 7.375 -19.21875 C 5.914062 -18.332031 4.785156 -17.09375 3.984375 -15.5 C 3.191406 -13.914062 2.757812 -12.046875 2.6875 -9.890625 C 2.6875 -6.722656 3.628906 -4.222656 5.515625 -2.390625 C 7.421875 -0.578125 9.929688 0.378906 13.046875 0.484375 C 15.566406 0.484375 18.113281 -0.0664062 20.6875 -1.171875 L 20.609375 -6.984375 C 19.804688 -6.566406 19.066406 -6.234375 18.390625 -5.984375 C 17.710938 -5.742188 17.117188 -5.597656 16.609375 -5.546875 C 16.046875 -5.492188 15.492188 -5.457031 14.953125 -5.4375 C 14.421875 -5.414062 13.847656 -5.40625 13.234375 -5.40625 C 12.328125 -5.476562 11.476562 -5.609375 10.6875 -5.796875 C 9.90625 -5.992188 9.257812 -6.253906 8.75 -6.578125 C 7.914062 -7.160156 7.425781 -8.347656 7.28125 -10.140625 Z M 17.046875 -14.1875 L 7.640625 -14.1875 C 7.785156 -14.84375 8.21875 -15.53125 8.9375 -16.25 L 8.9375 -16.203125 C 9.8125 -17.140625 11.019531 -17.609375 12.5625 -17.609375 C 13.882812 -17.609375 14.941406 -17.140625 15.734375 -16.203125 C 16.003906 -15.890625 16.257812 -15.550781 16.5 -15.1875 C 16.75 -14.832031 16.929688 -14.5 17.046875 -14.1875 Z M 17.046875 -14.1875 "/></g></g></g><g fill="#7ec28a" fill-opacity="1"><g transform="translate(511.271168, 41.567906)"><g><path d="M 17.375 -15.21875 L 17.375 -19.328125 C 16.320312 -19.742188 15.242188 -20.050781 14.140625 -20.25 C 13.046875 -20.445312 11.910156 -20.546875 10.734375 -20.546875 C 8.179688 -20.546875 6.222656 -20.015625 4.859375 -18.953125 C 3.503906 -17.898438 2.828125 -16.375 2.828125 -14.375 C 2.828125 -12.707031 3.316406 -11.457031 4.296875 -10.625 C 5.273438 -9.789062 6.769531 -9.164062 8.78125 -8.75 L 8.75 -8.75 L 9.84375 -8.484375 C 11.539062 -8.117188 12.507812 -7.835938 12.75 -7.640625 C 12.875 -7.492188 12.992188 -7.320312 13.109375 -7.125 C 13.234375 -6.925781 13.375 -6.707031 13.53125 -6.46875 C 13.53125 -5.90625 13.234375 -5.488281 12.640625 -5.21875 C 12.097656 -4.925781 11.21875 -4.78125 10 -4.78125 C 7.96875 -4.78125 5.53125 -5.515625 2.6875 -6.984375 L 2.6875 -0.875 C 5.425781 0.03125 7.847656 0.484375 9.953125 0.484375 C 12.503906 0.484375 14.546875 -0.078125 16.078125 -1.203125 C 17.609375 -2.335938 18.375 -3.882812 18.375 -5.84375 C 18.375 -7.5625 17.835938 -8.894531 16.765625 -9.84375 C 16.265625 -10.257812 15.59375 -10.644531 14.75 -11 C 13.90625 -11.363281 12.910156 -11.664062 11.765625 -11.90625 C 11.585938 -11.90625 11.425781 -11.941406 11.28125 -12.015625 C 11.1875 -12.035156 11.09375 -12.050781 11 -12.0625 C 10.914062 -12.082031 10.828125 -12.101562 10.734375 -12.125 C 9.191406 -12.46875 8.160156 -12.835938 7.640625 -13.234375 C 7.203125 -13.597656 6.984375 -14.070312 6.984375 -14.65625 C 6.984375 -15.375 7.332031 -15.929688 8.03125 -16.328125 C 8.726562 -16.734375 9.738281 -16.9375 11.0625 -16.9375 C 12.925781 -16.9375 15.03125 -16.363281 17.375 -15.21875 Z M 17.375 -15.21875 "/></g></g></g><g fill="#333333" fill-opacity="1"><g transform="translate(9.939391, 93.450317)"><g><path d="M 7.640625 -22.59375 L 11.140625 -22.59375 C 14.390625 -22.59375 16.773438 -21.875 18.296875 -20.4375 C 19.835938 -18.988281 20.609375 -16.78125 20.609375 -13.8125 C 20.367188 -12.6875 20.015625 -11.710938 19.546875 -10.890625 C 19.085938 -10.078125 18.570312 -9.460938 18 -9.046875 C 16.726562 -8.179688 14.441406 -7.75 11.140625 -7.75 L 7.640625 -7.75 Z M 2.6875 0 L 10.4375 0 C 15.507812 0 19.269531 -1.078125 21.71875 -3.234375 C 24.195312 -5.441406 25.4375 -8.832031 25.4375 -13.40625 C 25.4375 -15.664062 25.125 -17.644531 24.5 -19.34375 C 23.875 -21.050781 22.957031 -22.457031 21.75 -23.5625 C 20.53125 -24.613281 18.960938 -25.414062 17.046875 -25.96875 C 15.140625 -26.519531 12.9375 -26.796875 10.4375 -26.796875 L 2.6875 -26.796875 Z M 2.6875 0 "/></g></g></g><g fill="#333333" fill-opacity="1"><g transform="translate(38.056837, 93.450317)"><g><path d="M 21.234375 -10.140625 L 21.234375 -12.046875 C 21.015625 -14.867188 20.1875 -16.96875 18.75 -18.34375 L 18.78125 -18.34375 C 17.332031 -19.707031 15.257812 -20.441406 12.5625 -20.546875 C 10.5625 -20.546875 8.832031 -20.101562 7.375 -19.21875 C 5.914062 -18.332031 4.785156 -17.09375 3.984375 -15.5 C 3.191406 -13.914062 2.757812 -12.046875 2.6875 -9.890625 C 2.6875 -6.722656 3.628906 -4.222656 5.515625 -2.390625 C 7.421875 -0.578125 9.929688 0.378906 13.046875 0.484375 C 15.566406 0.484375 18.113281 -0.0664062 20.6875 -1.171875 L 20.609375 -6.984375 C 19.804688 -6.566406 19.066406 -6.234375 18.390625 -5.984375 C 17.710938 -5.742188 17.117188 -5.597656 16.609375 -5.546875 C 16.046875 -5.492188 15.492188 -5.457031 14.953125 -5.4375 C 14.421875 -5.414062 13.847656 -5.40625 13.234375 -5.40625 C 12.328125 -5.476562 11.476562 -5.609375 10.6875 -5.796875 C 9.90625 -5.992188 9.257812 -6.253906 8.75 -6.578125 C 7.914062 -7.160156 7.425781 -8.347656 7.28125 -10.140625 Z M 17.046875 -14.1875 L 7.640625 -14.1875 C 7.785156 -14.84375 8.21875 -15.53125 8.9375 -16.25 L 8.9375 -16.203125 C 9.8125 -17.140625 11.019531 -17.609375 12.5625 -17.609375 C 13.882812 -17.609375 14.941406 -17.140625 15.734375 -16.203125 C 16.003906 -15.890625 16.257812 -15.550781 16.5 -15.1875 C 16.75 -14.832031 16.929688 -14.5 17.046875 -14.1875 Z M 17.046875 -14.1875 "/></g></g></g><g fill="#333333" fill-opacity="1"><g transform="translate(61.984229, 93.450317)"><g><path d="M 7.125 7.125 L 7.421875 -1.546875 C 8.765625 -0.191406 10.566406 0.484375 12.828125 0.484375 C 14.460938 0.484375 15.90625 0.0351562 17.15625 -0.859375 C 18.40625 -1.753906 19.382812 -2.992188 20.09375 -4.578125 C 20.8125 -6.160156 21.171875 -7.976562 21.171875 -10.03125 C 21.171875 -12.09375 20.8125 -13.910156 20.09375 -15.484375 C 19.382812 -17.066406 18.40625 -18.304688 17.15625 -19.203125 C 15.90625 -20.097656 14.460938 -20.546875 12.828125 -20.546875 C 10.796875 -20.546875 9.101562 -19.96875 7.75 -18.8125 L 7.859375 -20.109375 L 3.375 -20.109375 L 2.9375 -2.171875 L 1.796875 7.125 Z M 17.859375 -10.578125 C 17.859375 -9.210938 17.695312 -8.195312 17.375 -7.53125 C 17.0625 -6.875 16.578125 -6.441406 15.921875 -6.234375 C 15.273438 -6.023438 14.453125 -5.921875 13.453125 -5.921875 C 12.472656 -5.921875 11.625 -6.023438 10.90625 -6.234375 C 10.195312 -6.441406 9.648438 -6.878906 9.265625 -7.546875 C 8.890625 -8.222656 8.703125 -9.234375 8.703125 -10.578125 C 8.703125 -12.660156 9.117188 -14.304688 9.953125 -15.515625 L 9.953125 -15.46875 C 10.785156 -16.59375 11.890625 -17.15625 13.265625 -17.15625 C 14.660156 -17.15625 15.765625 -16.59375 16.578125 -15.46875 C 17.429688 -14.320312 17.859375 -12.691406 17.859375 -10.578125 Z M 17.859375 -10.578125 "/></g></g></g><g fill="#333333" fill-opacity="1"><g transform="translate(85.838118, 93.450317)"><g><path d="M 21.234375 -10.140625 L 21.234375 -12.046875 C 21.015625 -14.867188 20.1875 -16.96875 18.75 -18.34375 L 18.78125 -18.34375 C 17.332031 -19.707031 15.257812 -20.441406 12.5625 -20.546875 C 10.5625 -20.546875 8.832031 -20.101562 7.375 -19.21875 C 5.914062 -18.332031 4.785156 -17.09375 3.984375 -15.5 C 3.191406 -13.914062 2.757812 -12.046875 2.6875 -9.890625 C 2.6875 -6.722656 3.628906 -4.222656 5.515625 -2.390625 C 7.421875 -0.578125 9.929688 0.378906 13.046875 0.484375 C 15.566406 0.484375 18.113281 -0.0664062 20.6875 -1.171875 L 20.609375 -6.984375 C 19.804688 -6.566406 19.066406 -6.234375 18.390625 -5.984375 C 17.710938 -5.742188 17.117188 -5.597656 16.609375 -5.546875 C 16.046875 -5.492188 15.492188 -5.457031 14.953125 -5.4375 C 14.421875 -5.414062 13.847656 -5.40625 13.234375 -5.40625 C 12.328125 -5.476562 11.476562 -5.609375 10.6875 -5.796875 C 9.90625 -5.992188 9.257812 -6.253906 8.75 -6.578125 C 7.914062 -7.160156 7.425781 -8.347656 7.28125 -10.140625 Z M 17.046875 -14.1875 L 7.640625 -14.1875 C 7.785156 -14.84375 8.21875 -15.53125 8.9375 -16.25 L 8.9375 -16.203125 C 9.8125 -17.140625 11.019531 -17.609375 12.5625 -17.609375 C 13.882812 -17.609375 14.941406 -17.140625 15.734375 -16.203125 C 16.003906 -15.890625 16.257812 -15.550781 16.5 -15.1875 C 16.75 -14.832031 16.929688 -14.5 17.046875 -14.1875 Z M 17.046875 -14.1875 "/></g></g></g><g fill="#333333" fill-opacity="1"><g transform="translate(109.765509, 93.450317)"><g><path d="M 20.953125 0 L 20.4375 -12.015625 C 20.289062 -14.765625 19.601562 -16.875 18.375 -18.34375 C 17.144531 -19.8125 15.359375 -20.546875 13.015625 -20.546875 C 12.296875 -20.546875 11.625 -20.460938 11 -20.296875 C 10.375 -20.140625 9.78125 -19.914062 9.21875 -19.625 C 8.945312 -19.457031 8.679688 -19.296875 8.421875 -19.140625 C 8.171875 -18.992188 7.910156 -18.835938 7.640625 -18.671875 L 7.640625 -20.25 L 3.234375 -20.25 L 2.6875 0 L 8.34375 0 L 7.796875 -11.46875 C 7.796875 -13.132812 8.1875 -14.425781 8.96875 -15.34375 C 9.75 -16.257812 10.984375 -16.71875 12.671875 -16.71875 C 13.828125 -16.71875 14.644531 -16.332031 15.125 -15.5625 C 15.601562 -14.789062 15.84375 -13.632812 15.84375 -12.09375 L 15.140625 0 Z M 20.953125 0 "/></g></g></g><g fill="#333333" fill-opacity="1"><g transform="translate(133.435624, 93.450317)"><g><path d="M 16.71875 -27.421875 L 16.421875 -18.515625 C 15.078125 -19.867188 13.28125 -20.546875 11.03125 -20.546875 C 9.363281 -20.546875 7.90625 -20.097656 6.65625 -19.203125 C 5.40625 -18.304688 4.429688 -17.070312 3.734375 -15.5 C 3.035156 -13.9375 2.6875 -12.113281 2.6875 -10.03125 C 2.6875 -7.976562 3.035156 -6.160156 3.734375 -4.578125 C 4.429688 -2.992188 5.40625 -1.753906 6.65625 -0.859375 C 7.90625 0.0351562 9.363281 0.484375 11.03125 0.484375 C 12.15625 0.484375 13.15625 0.320312 14.03125 0 C 14.914062 -0.320312 15.691406 -0.820312 16.359375 -1.5 L 16.359375 0 L 20.796875 0 L 21.125 -27.421875 Z M 7.453125 -15.328125 L 7.453125 -15.28125 C 8.265625 -16.382812 9.367188 -16.9375 10.765625 -16.9375 C 12.085938 -16.9375 13.101562 -16.375 13.8125 -15.25 C 14.15625 -14.707031 14.425781 -14.035156 14.625 -13.234375 C 14.820312 -12.441406 14.929688 -11.554688 14.953125 -10.578125 C 14.929688 -9.378906 14.765625 -8.484375 14.453125 -7.890625 C 14.148438 -7.304688 13.691406 -6.921875 13.078125 -6.734375 C 12.472656 -6.554688 11.675781 -6.46875 10.6875 -6.46875 C 9.25 -6.46875 8.195312 -6.757812 7.53125 -7.34375 C 6.84375 -7.957031 6.390625 -9 6.171875 -10.46875 C 6.191406 -12.507812 6.617188 -14.128906 7.453125 -15.328125 Z M 7.453125 -15.328125 "/></g></g></g><g fill="#333333" fill-opacity="1"><g transform="translate(157.252753, 93.450317)"><g/></g></g><g fill="#333333" fill-opacity="1"><g transform="translate(171.623902, 93.450317)"><g><path d="M 15.171875 -23.078125 C 17.429688 -23.078125 19.234375 -22.222656 20.578125 -20.515625 C 21.921875 -18.816406 22.59375 -16.4375 22.59375 -13.375 C 22.59375 -11.8125 22.304688 -10.59375 21.734375 -9.71875 C 21.160156 -8.851562 20.320312 -8.253906 19.21875 -7.921875 C 18.113281 -7.585938 16.765625 -7.421875 15.171875 -7.421875 C 12.796875 -7.421875 10.925781 -7.828125 9.5625 -8.640625 C 8.3125 -9.472656 7.6875 -11.050781 7.6875 -13.375 C 7.6875 -16.382812 8.367188 -18.785156 9.734375 -20.578125 C 10.398438 -21.359375 11.191406 -21.96875 12.109375 -22.40625 C 13.023438 -22.851562 14.046875 -23.078125 15.171875 -23.078125 Z M 15.171875 -27.265625 C 11.378906 -27.265625 8.34375 -25.992188 6.0625 -23.453125 C 3.8125 -20.898438 2.6875 -17.539062 2.6875 -13.375 C 2.6875 -9.207031 3.8125 -5.851562 6.0625 -3.3125 C 8.34375 -0.757812 11.378906 0.515625 15.171875 0.515625 C 18.921875 0.515625 21.9375 -0.757812 24.21875 -3.3125 C 26.46875 -5.851562 27.59375 -9.207031 27.59375 -13.375 C 27.59375 -17.539062 26.46875 -20.898438 24.21875 -23.453125 C 21.9375 -25.992188 18.921875 -27.265625 15.171875 -27.265625 Z M 15.171875 -27.265625 "/></g></g></g><g fill="#333333" fill-opacity="1"><g transform="translate(201.909883, 93.450317)"><g><path d="M 20.953125 0 L 20.4375 -12.015625 C 20.289062 -14.765625 19.601562 -16.875 18.375 -18.34375 C 17.144531 -19.8125 15.359375 -20.546875 13.015625 -20.546875 C 12.296875 -20.546875 11.625 -20.460938 11 -20.296875 C 10.375 -20.140625 9.78125 -19.914062 9.21875 -19.625 C 8.945312 -19.457031 8.679688 -19.296875 8.421875 -19.140625 C 8.171875 -18.992188 7.910156 -18.835938 7.640625 -18.671875 L 7.640625 -20.25 L 3.234375 -20.25 L 2.6875 0 L 8.34375 0 L 7.796875 -11.46875 C 7.796875 -13.132812 8.1875 -14.425781 8.96875 -15.34375 C 9.75 -16.257812 10.984375 -16.71875 12.671875 -16.71875 C 13.828125 -16.71875 14.644531 -16.332031 15.125 -15.5625 C 15.601562 -14.789062 15.84375 -13.632812 15.84375 -12.09375 L 15.140625 0 Z M 20.953125 0 "/></g></g></g><g fill="#333333" fill-opacity="1"><g transform="translate(225.579998, 93.450317)"><g/></g></g><g fill="#333333" fill-opacity="1"><g transform="translate(239.951147, 93.450317)"><g><path d="M 8.671875 0 L 15.0625 0 C 15.4375 -0.90625 15.8125 -1.859375 16.1875 -2.859375 C 16.570312 -3.867188 16.957031 -4.898438 17.34375 -5.953125 C 17.738281 -7.035156 18.125 -8.085938 18.5 -9.109375 C 18.882812 -10.140625 19.257812 -11.160156 19.625 -12.171875 L 23.84375 0 L 29.875 0 L 36.640625 -26.796875 L 31.9375 -26.796875 C 31.5 -25.367188 31.050781 -23.9375 30.59375 -22.5 C 30.144531 -21.070312 29.671875 -19.625 29.171875 -18.15625 C 28.710938 -16.6875 28.253906 -15.191406 27.796875 -13.671875 C 27.347656 -12.148438 26.898438 -10.664062 26.453125 -9.21875 L 21.5 -20.140625 L 17.609375 -20.140625 C 17.191406 -19.285156 16.753906 -18.421875 16.296875 -17.546875 C 15.847656 -16.679688 15.390625 -15.796875 14.921875 -14.890625 C 14.453125 -13.984375 13.988281 -13.085938 13.53125 -12.203125 C 13.082031 -11.316406 12.640625 -10.4375 12.203125 -9.5625 L 7.34375 -26.796875 L 2.6875 -26.796875 Z M 8.671875 0 "/></g></g></g><g fill="#333333" fill-opacity="1"><g transform="translate(279.278816, 93.450317)"><g><path d="M 21.234375 -10.140625 L 21.234375 -12.046875 C 21.015625 -14.867188 20.1875 -16.96875 18.75 -18.34375 L 18.78125 -18.34375 C 17.332031 -19.707031 15.257812 -20.441406 12.5625 -20.546875 C 10.5625 -20.546875 8.832031 -20.101562 7.375 -19.21875 C 5.914062 -18.332031 4.785156 -17.09375 3.984375 -15.5 C 3.191406 -13.914062 2.757812 -12.046875 2.6875 -9.890625 C 2.6875 -6.722656 3.628906 -4.222656 5.515625 -2.390625 C 7.421875 -0.578125 9.929688 0.378906 13.046875 0.484375 C 15.566406 0.484375 18.113281 -0.0664062 20.6875 -1.171875 L 20.609375 -6.984375 C 19.804688 -6.566406 19.066406 -6.234375 18.390625 -5.984375 C 17.710938 -5.742188 17.117188 -5.597656 16.609375 -5.546875 C 16.046875 -5.492188 15.492188 -5.457031 14.953125 -5.4375 C 14.421875 -5.414062 13.847656 -5.40625 13.234375 -5.40625 C 12.328125 -5.476562 11.476562 -5.609375 10.6875 -5.796875 C 9.90625 -5.992188 9.257812 -6.253906 8.75 -6.578125 C 7.914062 -7.160156 7.425781 -8.347656 7.28125 -10.140625 Z M 17.046875 -14.1875 L 7.640625 -14.1875 C 7.785156 -14.84375 8.21875 -15.53125 8.9375 -16.25 L 8.9375 -16.203125 C 9.8125 -17.140625 11.019531 -17.609375 12.5625 -17.609375 C 13.882812 -17.609375 14.941406 -17.140625 15.734375 -16.203125 C 16.003906 -15.890625 16.257812 -15.550781 16.5 -15.1875 C 16.75 -14.832031 16.929688 -14.5 17.046875 -14.1875 Z M 17.046875 -14.1875 "/></g></g></g><g fill="#333333" fill-opacity="1"><g transform="translate(303.206208, 93.450317)"><g><path d="M 16.09375 -7.34375 C 15.707031 -7.082031 15.273438 -6.863281 14.796875 -6.6875 C 14.316406 -6.519531 13.757812 -6.410156 13.125 -6.359375 C 11.769531 -6.359375 10.734375 -6.71875 10.015625 -7.4375 C 9.296875 -8.164062 8.820312 -9.25 8.59375 -10.6875 C 8.644531 -12.726562 9.078125 -14.3125 9.890625 -15.4375 C 10.304688 -15.925781 10.789062 -16.3125 11.34375 -16.59375 C 11.894531 -16.875 12.507812 -17.015625 13.1875 -17.015625 C 14.582031 -17.015625 15.613281 -16.488281 16.28125 -15.4375 C 17.039062 -14.332031 17.457031 -12.773438 17.53125 -10.765625 C 17.238281 -9.023438 16.757812 -7.882812 16.09375 -7.34375 Z M 3.453125 -3.78125 L 7.125 -1.5 C 7.8125 -0.820312 8.585938 -0.320312 9.453125 0 C 10.328125 0.320312 11.328125 0.484375 12.453125 0.484375 C 14.117188 0.484375 15.578125 0.0351562 16.828125 -0.859375 C 18.078125 -1.753906 19.050781 -2.992188 19.75 -4.578125 C 20.445312 -6.160156 20.796875 -7.976562 20.796875 -10.03125 C 20.796875 -12.113281 20.445312 -13.9375 19.75 -15.5 C 19.050781 -17.070312 18.078125 -18.304688 16.828125 -19.203125 C 15.578125 -20.097656 14.117188 -20.546875 12.453125 -20.546875 C 11.328125 -20.546875 10.34375 -20.394531 9.5 -20.09375 C 8.65625 -19.800781 7.890625 -19.3125 7.203125 -18.625 L 7.5 -27.421875 L 3.046875 -27.421875 Z M 3.453125 -3.78125 "/></g></g></g><g fill="#333333" fill-opacity="1"><g transform="translate(326.729282, 93.450317)"><g/></g></g><g fill="#333333" fill-opacity="1"><g transform="translate(341.100414, 93.450317)"><g><path d="M 19.109375 -9.5625 L 11.609375 -9.5625 C 11.785156 -10.050781 11.953125 -10.539062 12.109375 -11.03125 C 12.265625 -11.519531 12.414062 -11.992188 12.5625 -12.453125 C 12.738281 -12.941406 12.898438 -13.410156 13.046875 -13.859375 C 13.191406 -14.316406 13.351562 -14.78125 13.53125 -15.25 C 13.675781 -15.6875 13.820312 -16.128906 13.96875 -16.578125 C 14.113281 -17.035156 14.257812 -17.5 14.40625 -17.96875 C 14.550781 -18.4375 14.703125 -18.898438 14.859375 -19.359375 C 15.023438 -19.828125 15.179688 -20.296875 15.328125 -20.765625 Z M 2.6875 0 L 8.8125 0 L 10.109375 -4.15625 L 20.546875 -4.15625 L 21.5 0 L 28 0 L 17.421875 -26.796875 L 13.265625 -26.796875 Z M 2.6875 0 "/></g></g></g><g fill="#333333" fill-opacity="1"><g transform="translate(371.790713, 93.450317)"><g><path d="M 18.890625 -14.890625 L 18.890625 -19.140625 C 16.753906 -20.078125 14.71875 -20.546875 12.78125 -20.546875 C 10.707031 -20.546875 8.914062 -20.113281 7.40625 -19.25 C 5.894531 -18.394531 4.726562 -17.179688 3.90625 -15.609375 C 3.09375 -14.046875 2.6875 -12.1875 2.6875 -10.03125 C 2.6875 -7.925781 3.09375 -6.082031 3.90625 -4.5 C 4.726562 -2.914062 5.878906 -1.6875 7.359375 -0.8125 C 8.847656 0.0507812 10.597656 0.484375 12.609375 0.484375 C 14.710938 0.484375 16.804688 0.00390625 18.890625 -0.953125 L 18.78125 -7.390625 C 18.070312 -6.972656 17.441406 -6.664062 16.890625 -6.46875 C 16.335938 -6.269531 15.863281 -6.160156 15.46875 -6.140625 L 12.828125 -6.140625 C 11.992188 -6.210938 11.210938 -6.335938 10.484375 -6.515625 C 9.765625 -6.703125 9.195312 -6.921875 8.78125 -7.171875 C 8.050781 -7.703125 7.609375 -8.679688 7.453125 -10.109375 C 7.484375 -12.191406 7.957031 -13.820312 8.875 -15 C 9.789062 -16.175781 11.144531 -16.765625 12.9375 -16.765625 C 14.625 -16.765625 16.609375 -16.140625 18.890625 -14.890625 Z M 18.890625 -14.890625 "/></g></g></g><g fill="#333333" fill-opacity="1"><g transform="translate(393.365787, 93.450317)"><g><path d="M 18.890625 -14.890625 L 18.890625 -19.140625 C 16.753906 -20.078125 14.71875 -20.546875 12.78125 -20.546875 C 10.707031 -20.546875 8.914062 -20.113281 7.40625 -19.25 C 5.894531 -18.394531 4.726562 -17.179688 3.90625 -15.609375 C 3.09375 -14.046875 2.6875 -12.1875 2.6875 -10.03125 C 2.6875 -7.925781 3.09375 -6.082031 3.90625 -4.5 C 4.726562 -2.914062 5.878906 -1.6875 7.359375 -0.8125 C 8.847656 0.0507812 10.597656 0.484375 12.609375 0.484375 C 14.710938 0.484375 16.804688 0.00390625 18.890625 -0.953125 L 18.78125 -7.390625 C 18.070312 -6.972656 17.441406 -6.664062 16.890625 -6.46875 C 16.335938 -6.269531 15.863281 -6.160156 15.46875 -6.140625 L 12.828125 -6.140625 C 11.992188 -6.210938 11.210938 -6.335938 10.484375 -6.515625 C 9.765625 -6.703125 9.195312 -6.921875 8.78125 -7.171875 C 8.050781 -7.703125 7.609375 -8.679688 7.453125 -10.109375 C 7.484375 -12.191406 7.957031 -13.820312 8.875 -15 C 9.789062 -16.175781 11.144531 -16.765625 12.9375 -16.765625 C 14.625 -16.765625 16.609375 -16.140625 18.890625 -14.890625 Z M 18.890625 -14.890625 "/></g></g></g><g fill="#333333" fill-opacity="1"><g transform="translate(414.940861, 93.450317)"><g><path d="M 21.234375 -10.140625 L 21.234375 -12.046875 C 21.015625 -14.867188 20.1875 -16.96875 18.75 -18.34375 L 18.78125 -18.34375 C 17.332031 -19.707031 15.257812 -20.441406 12.5625 -20.546875 C 10.5625 -20.546875 8.832031 -20.101562 7.375 -19.21875 C 5.914062 -18.332031 4.785156 -17.09375 3.984375 -15.5 C 3.191406 -13.914062 2.757812 -12.046875 2.6875 -9.890625 C 2.6875 -6.722656 3.628906 -4.222656 5.515625 -2.390625 C 7.421875 -0.578125 9.929688 0.378906 13.046875 0.484375 C 15.566406 0.484375 18.113281 -0.0664062 20.6875 -1.171875 L 20.609375 -6.984375 C 19.804688 -6.566406 19.066406 -6.234375 18.390625 -5.984375 C 17.710938 -5.742188 17.117188 -5.597656 16.609375 -5.546875 C 16.046875 -5.492188 15.492188 -5.457031 14.953125 -5.4375 C 14.421875 -5.414062 13.847656 -5.40625 13.234375 -5.40625 C 12.328125 -5.476562 11.476562 -5.609375 10.6875 -5.796875 C 9.90625 -5.992188 9.257812 -6.253906 8.75 -6.578125 C 7.914062 -7.160156 7.425781 -8.347656 7.28125 -10.140625 Z M 17.046875 -14.1875 L 7.640625 -14.1875 C 7.785156 -14.84375 8.21875 -15.53125 8.9375 -16.25 L 8.9375 -16.203125 C 9.8125 -17.140625 11.019531 -17.609375 12.5625 -17.609375 C 13.882812 -17.609375 14.941406 -17.140625 15.734375 -16.203125 C 16.003906 -15.890625 16.257812 -15.550781 16.5 -15.1875 C 16.75 -14.832031 16.929688 -14.5 17.046875 -14.1875 Z M 17.046875 -14.1875 "/></g></g></g><g fill="#333333" fill-opacity="1"><g transform="translate(438.86827, 93.450317)"><g><path d="M 17.375 -15.21875 L 17.375 -19.328125 C 16.320312 -19.742188 15.242188 -20.050781 14.140625 -20.25 C 13.046875 -20.445312 11.910156 -20.546875 10.734375 -20.546875 C 8.179688 -20.546875 6.222656 -20.015625 4.859375 -18.953125 C 3.503906 -17.898438 2.828125 -16.375 2.828125 -14.375 C 2.828125 -12.707031 3.316406 -11.457031 4.296875 -10.625 C 5.273438 -9.789062 6.769531 -9.164062 8.78125 -8.75 L 8.75 -8.75 L 9.84375 -8.484375 C 11.539062 -8.117188 12.507812 -7.835938 12.75 -7.640625 C 12.875 -7.492188 12.992188 -7.320312 13.109375 -7.125 C 13.234375 -6.925781 13.375 -6.707031 13.53125 -6.46875 C 13.53125 -5.90625 13.234375 -5.488281 12.640625 -5.21875 C 12.097656 -4.925781 11.21875 -4.78125 10 -4.78125 C 7.96875 -4.78125 5.53125 -5.515625 2.6875 -6.984375 L 2.6875 -0.875 C 5.425781 0.03125 7.847656 0.484375 9.953125 0.484375 C 12.503906 0.484375 14.546875 -0.078125 16.078125 -1.203125 C 17.609375 -2.335938 18.375 -3.882812 18.375 -5.84375 C 18.375 -7.5625 17.835938 -8.894531 16.765625 -9.84375 C 16.265625 -10.257812 15.59375 -10.644531 14.75 -11 C 13.90625 -11.363281 12.910156 -11.664062 11.765625 -11.90625 C 11.585938 -11.90625 11.425781 -11.941406 11.28125 -12.015625 C 11.1875 -12.035156 11.09375 -12.050781 11 -12.0625 C 10.914062 -12.082031 10.828125 -12.101562 10.734375 -12.125 C 9.191406 -12.46875 8.160156 -12.835938 7.640625 -13.234375 C 7.203125 -13.597656 6.984375 -14.070312 6.984375 -14.65625 C 6.984375 -15.375 7.332031 -15.929688 8.03125 -16.328125 C 8.726562 -16.734375 9.738281 -16.9375 11.0625 -16.9375 C 12.925781 -16.9375 15.03125 -16.363281 17.375 -15.21875 Z M 17.375 -15.21875 "/></g></g></g><g fill="#333333" fill-opacity="1"><g transform="translate(459.928789, 93.450317)"><g><path d="M 17.375 -15.21875 L 17.375 -19.328125 C 16.320312 -19.742188 15.242188 -20.050781 14.140625 -20.25 C 13.046875 -20.445312 11.910156 -20.546875 10.734375 -20.546875 C 8.179688 -20.546875 6.222656 -20.015625 4.859375 -18.953125 C 3.503906 -17.898438 2.828125 -16.375 2.828125 -14.375 C 2.828125 -12.707031 3.316406 -11.457031 4.296875 -10.625 C 5.273438 -9.789062 6.769531 -9.164062 8.78125 -8.75 L 8.75 -8.75 L 9.84375 -8.484375 C 11.539062 -8.117188 12.507812 -7.835938 12.75 -7.640625 C 12.875 -7.492188 12.992188 -7.320312 13.109375 -7.125 C 13.234375 -6.925781 13.375 -6.707031 13.53125 -6.46875 C 13.53125 -5.90625 13.234375 -5.488281 12.640625 -5.21875 C 12.097656 -4.925781 11.21875 -4.78125 10 -4.78125 C 7.96875 -4.78125 5.53125 -5.515625 2.6875 -6.984375 L 2.6875 -0.875 C 5.425781 0.03125 7.847656 0.484375 9.953125 0.484375 C 12.503906 0.484375 14.546875 -0.078125 16.078125 -1.203125 C 17.609375 -2.335938 18.375 -3.882812 18.375 -5.84375 C 18.375 -7.5625 17.835938 -8.894531 16.765625 -9.84375 C 16.265625 -10.257812 15.59375 -10.644531 14.75 -11 C 13.90625 -11.363281 12.910156 -11.664062 11.765625 -11.90625 C 11.585938 -11.90625 11.425781 -11.941406 11.28125 -12.015625 C 11.1875 -12.035156 11.09375 -12.050781 11 -12.0625 C 10.914062 -12.082031 10.828125 -12.101562 10.734375 -12.125 C 9.191406 -12.46875 8.160156 -12.835938 7.640625 -13.234375 C 7.203125 -13.597656 6.984375 -14.070312 6.984375 -14.65625 C 6.984375 -15.375 7.332031 -15.929688 8.03125 -16.328125 C 8.726562 -16.734375 9.738281 -16.9375 11.0625 -16.9375 C 12.925781 -16.9375 15.03125 -16.363281 17.375 -15.21875 Z M 17.375 -15.21875 "/></g></g></g><g fill="#333333" fill-opacity="1"><g transform="translate(480.989309, 93.450317)"><g><path d="M 2.71875 0 L 7.125 0 L 6.984375 -20.109375 L 2.90625 -20.109375 Z M 2.6875 -22.15625 L 7.171875 -22.15625 L 6.953125 -27.421875 L 2.90625 -27.421875 Z M 2.6875 -22.15625 "/></g></g></g><g fill="#333333" fill-opacity="1"><g transform="translate(490.876349, 93.450317)"><g><path d="M 16.09375 -7.34375 C 15.707031 -7.082031 15.273438 -6.863281 14.796875 -6.6875 C 14.316406 -6.519531 13.757812 -6.410156 13.125 -6.359375 C 11.769531 -6.359375 10.734375 -6.71875 10.015625 -7.4375 C 9.296875 -8.164062 8.820312 -9.25 8.59375 -10.6875 C 8.644531 -12.726562 9.078125 -14.3125 9.890625 -15.4375 C 10.304688 -15.925781 10.789062 -16.3125 11.34375 -16.59375 C 11.894531 -16.875 12.507812 -17.015625 13.1875 -17.015625 C 14.582031 -17.015625 15.613281 -16.488281 16.28125 -15.4375 C 17.039062 -14.332031 17.457031 -12.773438 17.53125 -10.765625 C 17.238281 -9.023438 16.757812 -7.882812 16.09375 -7.34375 Z M 3.453125 -3.78125 L 7.125 -1.5 C 7.8125 -0.820312 8.585938 -0.320312 9.453125 0 C 10.328125 0.320312 11.328125 0.484375 12.453125 0.484375 C 14.117188 0.484375 15.578125 0.0351562 16.828125 -0.859375 C 18.078125 -1.753906 19.050781 -2.992188 19.75 -4.578125 C 20.445312 -6.160156 20.796875 -7.976562 20.796875 -10.03125 C 20.796875 -12.113281 20.445312 -13.9375 19.75 -15.5 C 19.050781 -17.070312 18.078125 -18.304688 16.828125 -19.203125 C 15.578125 -20.097656 14.117188 -20.546875 12.453125 -20.546875 C 11.328125 -20.546875 10.34375 -20.394531 9.5 -20.09375 C 8.65625 -19.800781 7.890625 -19.3125 7.203125 -18.625 L 7.5 -27.421875 L 3.046875 -27.421875 Z M 3.453125 -3.78125 "/></g></g></g><g fill="#333333" fill-opacity="1"><g transform="translate(514.399423, 93.450317)"><g><path d="M 2.71875 0 L 7.125 0 L 6.984375 -20.109375 L 2.90625 -20.109375 Z M 2.6875 -22.15625 L 7.171875 -22.15625 L 6.953125 -27.421875 L 2.90625 -27.421875 Z M 2.6875 -22.15625 "/></g></g></g><g fill="#333333" fill-opacity="1"><g transform="translate(524.286463, 93.450317)"><g><path d="M 2.6875 0 L 9.375 0 L 9.375 -5.140625 L 7.3125 -5.140625 L 7.3125 -27.421875 L 3.046875 -27.421875 Z M 2.6875 0 "/></g></g></g><g fill="#333333" fill-opacity="1"><g transform="translate(536.378798, 93.450317)"><g><path d="M 2.71875 0 L 7.125 0 L 6.984375 -20.109375 L 2.90625 -20.109375 Z M 2.6875 -22.15625 L 7.171875 -22.15625 L 6.953125 -27.421875 L 2.90625 -27.421875 Z M 2.6875 -22.15625 "/></g></g></g><g fill="#333333" fill-opacity="1"><g transform="translate(546.265839, 93.450317)"><g><path d="M 5.140625 -24.734375 L 4.96875 -20.109375 L 2.6875 -20.109375 L 2.6875 -16.359375 L 4.96875 -16.359375 L 4.78125 -6.875 C 4.78125 -4.320312 5.328125 -2.535156 6.421875 -1.515625 C 7.523438 -0.503906 9.351562 0 11.90625 0 L 15.734375 0 L 15.734375 -5.921875 L 11.90625 -5.921875 C 10.800781 -5.921875 10.113281 -6.078125 9.84375 -6.390625 C 9.53125 -6.679688 9.375 -7.503906 9.375 -8.859375 L 9.5625 -16.359375 L 13.890625 -16.359375 L 13.890625 -20.109375 L 9.59375 -20.109375 L 9.734375 -24.734375 Z M 5.140625 -24.734375 "/></g></g></g><g fill="#333333" fill-opacity="1"><g transform="translate(564.680011, 93.450317)"><g><path d="M 22.96875 -20.109375 L 18.296875 -20.109375 L 13.5625 -9.921875 L 7.34375 -20.109375 L 2.6875 -20.109375 C 3.03125 -19.390625 3.367188 -18.671875 3.703125 -17.953125 C 4.046875 -17.234375 4.390625 -16.492188 4.734375 -15.734375 C 5.453125 -14.234375 6.164062 -12.71875 6.875 -11.1875 C 7.582031 -9.65625 8.28125 -8.128906 8.96875 -6.609375 C 9.3125 -5.847656 9.660156 -5.109375 10.015625 -4.390625 C 10.367188 -3.671875 10.707031 -2.953125 11.03125 -2.234375 C 10.925781 -2.046875 10.820312 -1.851562 10.71875 -1.65625 C 10.625 -1.457031 10.53125 -1.257812 10.4375 -1.0625 C 10.1875 -0.644531 9.976562 -0.253906 9.8125 0.109375 C 9.5625 0.429688 9.320312 0.710938 9.09375 0.953125 C 8.863281 1.203125 8.640625 1.421875 8.421875 1.609375 C 8.046875 1.910156 7.539062 2.0625 6.90625 2.0625 L 4.078125 2.0625 L 4.078125 7.453125 L 7.53125 7.453125 C 8.5625 7.453125 9.472656 7.289062 10.265625 6.96875 C 11.066406 6.65625 11.820312 6.054688 12.53125 5.171875 C 13.238281 4.296875 13.960938 3.015625 14.703125 1.328125 Z M 22.96875 -20.109375 "/></g></g></g><g fill="#333333" fill-opacity="1"><g transform="translate(590.33491, 93.450317)"><g><path d="M 2.828125 0 L 8.484375 0 L 8.078125 -5.59375 L 3.265625 -5.59375 Z M 3.046875 -14.703125 L 3.046875 -14.734375 L 2.6875 -8.046875 L 8.671875 -8.046875 L 8.125 -14.734375 L 7.9375 -26.34375 L 3.046875 -26.28125 Z M 3.046875 -14.703125 "/></g></g></g><g fill="#7ec28a" fill-opacity="1"><g transform="translate(8.854278, 92.848829)"><g><path d="M 7.640625 -22.59375 L 11.140625 -22.59375 C 14.390625 -22.59375 16.773438 -21.875 18.296875 -20.4375 C 19.835938 -18.988281 20.609375 -16.78125 20.609375 -13.8125 C 20.367188 -12.6875 20.015625 -11.710938 19.546875 -10.890625 C 19.085938 -10.078125 18.570312 -9.460938 18 -9.046875 C 16.726562 -8.179688 14.441406 -7.75 11.140625 -7.75 L 7.640625 -7.75 Z M 2.6875 0 L 10.4375 0 C 15.507812 0 19.269531 -1.078125 21.71875 -3.234375 C 24.195312 -5.441406 25.4375 -8.832031 25.4375 -13.40625 C 25.4375 -15.664062 25.125 -17.644531 24.5 -19.34375 C 23.875 -21.050781 22.957031 -22.457031 21.75 -23.5625 C 20.53125 -24.613281 18.960938 -25.414062 17.046875 -25.96875 C 15.140625 -26.519531 12.9375 -26.796875 10.4375 -26.796875 L 2.6875 -26.796875 Z M 2.6875 0 "/></g></g></g><g fill="#7ec28a" fill-opacity="1"><g transform="translate(36.971724, 92.848829)"><g><path d="M 21.234375 -10.140625 L 21.234375 -12.046875 C 21.015625 -14.867188 20.1875 -16.96875 18.75 -18.34375 L 18.78125 -18.34375 C 17.332031 -19.707031 15.257812 -20.441406 12.5625 -20.546875 C 10.5625 -20.546875 8.832031 -20.101562 7.375 -19.21875 C 5.914062 -18.332031 4.785156 -17.09375 3.984375 -15.5 C 3.191406 -13.914062 2.757812 -12.046875 2.6875 -9.890625 C 2.6875 -6.722656 3.628906 -4.222656 5.515625 -2.390625 C 7.421875 -0.578125 9.929688 0.378906 13.046875 0.484375 C 15.566406 0.484375 18.113281 -0.0664062 20.6875 -1.171875 L 20.609375 -6.984375 C 19.804688 -6.566406 19.066406 -6.234375 18.390625 -5.984375 C 17.710938 -5.742188 17.117188 -5.597656 16.609375 -5.546875 C 16.046875 -5.492188 15.492188 -5.457031 14.953125 -5.4375 C 14.421875 -5.414062 13.847656 -5.40625 13.234375 -5.40625 C 12.328125 -5.476562 11.476562 -5.609375 10.6875 -5.796875 C 9.90625 -5.992188 9.257812 -6.253906 8.75 -6.578125 C 7.914062 -7.160156 7.425781 -8.347656 7.28125 -10.140625 Z M 17.046875 -14.1875 L 7.640625 -14.1875 C 7.785156 -14.84375 8.21875 -15.53125 8.9375 -16.25 L 8.9375 -16.203125 C 9.8125 -17.140625 11.019531 -17.609375 12.5625 -17.609375 C 13.882812 -17.609375 14.941406 -17.140625 15.734375 -16.203125 C 16.003906 -15.890625 16.257812 -15.550781 16.5 -15.1875 C 16.75 -14.832031 16.929688 -14.5 17.046875 -14.1875 Z M 17.046875 -14.1875 "/></g></g></g><g fill="#7ec28a" fill-opacity="1"><g transform="translate(60.899116, 92.848829)"><g><path d="M 7.125 7.125 L 7.421875 -1.546875 C 8.765625 -0.191406 10.566406 0.484375 12.828125 0.484375 C 14.460938 0.484375 15.90625 0.0351562 17.15625 -0.859375 C 18.40625 -1.753906 19.382812 -2.992188 20.09375 -4.578125 C 20.8125 -6.160156 21.171875 -7.976562 21.171875 -10.03125 C 21.171875 -12.09375 20.8125 -13.910156 20.09375 -15.484375 C 19.382812 -17.066406 18.40625 -18.304688 17.15625 -19.203125 C 15.90625 -20.097656 14.460938 -20.546875 12.828125 -20.546875 C 10.796875 -20.546875 9.101562 -19.96875 7.75 -18.8125 L 7.859375 -20.109375 L 3.375 -20.109375 L 2.9375 -2.171875 L 1.796875 7.125 Z M 17.859375 -10.578125 C 17.859375 -9.210938 17.695312 -8.195312 17.375 -7.53125 C 17.0625 -6.875 16.578125 -6.441406 15.921875 -6.234375 C 15.273438 -6.023438 14.453125 -5.921875 13.453125 -5.921875 C 12.472656 -5.921875 11.625 -6.023438 10.90625 -6.234375 C 10.195312 -6.441406 9.648438 -6.878906 9.265625 -7.546875 C 8.890625 -8.222656 8.703125 -9.234375 8.703125 -10.578125 C 8.703125 -12.660156 9.117188 -14.304688 9.953125 -15.515625 L 9.953125 -15.46875 C 10.785156 -16.59375 11.890625 -17.15625 13.265625 -17.15625 C 14.660156 -17.15625 15.765625 -16.59375 16.578125 -15.46875 C 17.429688 -14.320312 17.859375 -12.691406 17.859375 -10.578125 Z M 17.859375 -10.578125 "/></g></g></g><g fill="#7ec28a" fill-opacity="1"><g transform="translate(84.753005, 92.848829)"><g><path d="M 21.234375 -10.140625 L 21.234375 -12.046875 C 21.015625 -14.867188 20.1875 -16.96875 18.75 -18.34375 L 18.78125 -18.34375 C 17.332031 -19.707031 15.257812 -20.441406 12.5625 -20.546875 C 10.5625 -20.546875 8.832031 -20.101562 7.375 -19.21875 C 5.914062 -18.332031 4.785156 -17.09375 3.984375 -15.5 C 3.191406 -13.914062 2.757812 -12.046875 2.6875 -9.890625 C 2.6875 -6.722656 3.628906 -4.222656 5.515625 -2.390625 C 7.421875 -0.578125 9.929688 0.378906 13.046875 0.484375 C 15.566406 0.484375 18.113281 -0.0664062 20.6875 -1.171875 L 20.609375 -6.984375 C 19.804688 -6.566406 19.066406 -6.234375 18.390625 -5.984375 C 17.710938 -5.742188 17.117188 -5.597656 16.609375 -5.546875 C 16.046875 -5.492188 15.492188 -5.457031 14.953125 -5.4375 C 14.421875 -5.414062 13.847656 -5.40625 13.234375 -5.40625 C 12.328125 -5.476562 11.476562 -5.609375 10.6875 -5.796875 C 9.90625 -5.992188 9.257812 -6.253906 8.75 -6.578125 C 7.914062 -7.160156 7.425781 -8.347656 7.28125 -10.140625 Z M 17.046875 -14.1875 L 7.640625 -14.1875 C 7.785156 -14.84375 8.21875 -15.53125 8.9375 -16.25 L 8.9375 -16.203125 C 9.8125 -17.140625 11.019531 -17.609375 12.5625 -17.609375 C 13.882812 -17.609375 14.941406 -17.140625 15.734375 -16.203125 C 16.003906 -15.890625 16.257812 -15.550781 16.5 -15.1875 C 16.75 -14.832031 16.929688 -14.5 17.046875 -14.1875 Z M 17.046875 -14.1875 "/></g></g></g><g fill="#7ec28a" fill-opacity="1"><g transform="translate(108.680397, 92.848829)"><g><path d="M 20.953125 0 L 20.4375 -12.015625 C 20.289062 -14.765625 19.601562 -16.875 18.375 -18.34375 C 17.144531 -19.8125 15.359375 -20.546875 13.015625 -20.546875 C 12.296875 -20.546875 11.625 -20.460938 11 -20.296875 C 10.375 -20.140625 9.78125 -19.914062 9.21875 -19.625 C 8.945312 -19.457031 8.679688 -19.296875 8.421875 -19.140625 C 8.171875 -18.992188 7.910156 -18.835938 7.640625 -18.671875 L 7.640625 -20.25 L 3.234375 -20.25 L 2.6875 0 L 8.34375 0 L 7.796875 -11.46875 C 7.796875 -13.132812 8.1875 -14.425781 8.96875 -15.34375 C 9.75 -16.257812 10.984375 -16.71875 12.671875 -16.71875 C 13.828125 -16.71875 14.644531 -16.332031 15.125 -15.5625 C 15.601562 -14.789062 15.84375 -13.632812 15.84375 -12.09375 L 15.140625 0 Z M 20.953125 0 "/></g></g></g><g fill="#7ec28a" fill-opacity="1"><g transform="translate(132.350511, 92.848829)"><g><path d="M 16.71875 -27.421875 L 16.421875 -18.515625 C 15.078125 -19.867188 13.28125 -20.546875 11.03125 -20.546875 C 9.363281 -20.546875 7.90625 -20.097656 6.65625 -19.203125 C 5.40625 -18.304688 4.429688 -17.070312 3.734375 -15.5 C 3.035156 -13.9375 2.6875 -12.113281 2.6875 -10.03125 C 2.6875 -7.976562 3.035156 -6.160156 3.734375 -4.578125 C 4.429688 -2.992188 5.40625 -1.753906 6.65625 -0.859375 C 7.90625 0.0351562 9.363281 0.484375 11.03125 0.484375 C 12.15625 0.484375 13.15625 0.320312 14.03125 0 C 14.914062 -0.320312 15.691406 -0.820312 16.359375 -1.5 L 16.359375 0 L 20.796875 0 L 21.125 -27.421875 Z M 7.453125 -15.328125 L 7.453125 -15.28125 C 8.265625 -16.382812 9.367188 -16.9375 10.765625 -16.9375 C 12.085938 -16.9375 13.101562 -16.375 13.8125 -15.25 C 14.15625 -14.707031 14.425781 -14.035156 14.625 -13.234375 C 14.820312 -12.441406 14.929688 -11.554688 14.953125 -10.578125 C 14.929688 -9.378906 14.765625 -8.484375 14.453125 -7.890625 C 14.148438 -7.304688 13.691406 -6.921875 13.078125 -6.734375 C 12.472656 -6.554688 11.675781 -6.46875 10.6875 -6.46875 C 9.25 -6.46875 8.195312 -6.757812 7.53125 -7.34375 C 6.84375 -7.957031 6.390625 -9 6.171875 -10.46875 C 6.191406 -12.507812 6.617188 -14.128906 7.453125 -15.328125 Z M 7.453125 -15.328125 "/></g></g></g><g fill="#7ec28a" fill-opacity="1"><g transform="translate(156.16764, 92.848829)"><g/></g></g><g fill="#7ec28a" fill-opacity="1"><g transform="translate(170.53879, 92.848829)"><g><path d="M 15.171875 -23.078125 C 17.429688 -23.078125 19.234375 -22.222656 20.578125 -20.515625 C 21.921875 -18.816406 22.59375 -16.4375 22.59375 -13.375 C 22.59375 -11.8125 22.304688 -10.59375 21.734375 -9.71875 C 21.160156 -8.851562 20.320312 -8.253906 19.21875 -7.921875 C 18.113281 -7.585938 16.765625 -7.421875 15.171875 -7.421875 C 12.796875 -7.421875 10.925781 -7.828125 9.5625 -8.640625 C 8.3125 -9.472656 7.6875 -11.050781 7.6875 -13.375 C 7.6875 -16.382812 8.367188 -18.785156 9.734375 -20.578125 C 10.398438 -21.359375 11.191406 -21.96875 12.109375 -22.40625 C 13.023438 -22.851562 14.046875 -23.078125 15.171875 -23.078125 Z M 15.171875 -27.265625 C 11.378906 -27.265625 8.34375 -25.992188 6.0625 -23.453125 C 3.8125 -20.898438 2.6875 -17.539062 2.6875 -13.375 C 2.6875 -9.207031 3.8125 -5.851562 6.0625 -3.3125 C 8.34375 -0.757812 11.378906 0.515625 15.171875 0.515625 C 18.921875 0.515625 21.9375 -0.757812 24.21875 -3.3125 C 26.46875 -5.851562 27.59375 -9.207031 27.59375 -13.375 C 27.59375 -17.539062 26.46875 -20.898438 24.21875 -23.453125 C 21.9375 -25.992188 18.921875 -27.265625 15.171875 -27.265625 Z M 15.171875 -27.265625 "/></g></g></g><g fill="#7ec28a" fill-opacity="1"><g transform="translate(200.824771, 92.848829)"><g><path d="M 20.953125 0 L 20.4375 -12.015625 C 20.289062 -14.765625 19.601562 -16.875 18.375 -18.34375 C 17.144531 -19.8125 15.359375 -20.546875 13.015625 -20.546875 C 12.296875 -20.546875 11.625 -20.460938 11 -20.296875 C 10.375 -20.140625 9.78125 -19.914062 9.21875 -19.625 C 8.945312 -19.457031 8.679688 -19.296875 8.421875 -19.140625 C 8.171875 -18.992188 7.910156 -18.835938 7.640625 -18.671875 L 7.640625 -20.25 L 3.234375 -20.25 L 2.6875 0 L 8.34375 0 L 7.796875 -11.46875 C 7.796875 -13.132812 8.1875 -14.425781 8.96875 -15.34375 C 9.75 -16.257812 10.984375 -16.71875 12.671875 -16.71875 C 13.828125 -16.71875 14.644531 -16.332031 15.125 -15.5625 C 15.601562 -14.789062 15.84375 -13.632812 15.84375 -12.09375 L 15.140625 0 Z M 20.953125 0 "/></g></g></g><g fill="#7ec28a" fill-opacity="1"><g transform="translate(224.494885, 92.848829)"><g/></g></g><g fill="#7ec28a" fill-opacity="1"><g transform="translate(238.866034, 92.848829)"><g><path d="M 8.671875 0 L 15.0625 0 C 15.4375 -0.90625 15.8125 -1.859375 16.1875 -2.859375 C 16.570312 -3.867188 16.957031 -4.898438 17.34375 -5.953125 C 17.738281 -7.035156 18.125 -8.085938 18.5 -9.109375 C 18.882812 -10.140625 19.257812 -11.160156 19.625 -12.171875 L 23.84375 0 L 29.875 0 L 36.640625 -26.796875 L 31.9375 -26.796875 C 31.5 -25.367188 31.050781 -23.9375 30.59375 -22.5 C 30.144531 -21.070312 29.671875 -19.625 29.171875 -18.15625 C 28.710938 -16.6875 28.253906 -15.191406 27.796875 -13.671875 C 27.347656 -12.148438 26.898438 -10.664062 26.453125 -9.21875 L 21.5 -20.140625 L 17.609375 -20.140625 C 17.191406 -19.285156 16.753906 -18.421875 16.296875 -17.546875 C 15.847656 -16.679688 15.390625 -15.796875 14.921875 -14.890625 C 14.453125 -13.984375 13.988281 -13.085938 13.53125 -12.203125 C 13.082031 -11.316406 12.640625 -10.4375 12.203125 -9.5625 L 7.34375 -26.796875 L 2.6875 -26.796875 Z M 8.671875 0 "/></g></g></g><g fill="#7ec28a" fill-opacity="1"><g transform="translate(278.193703, 92.848829)"><g><path d="M 21.234375 -10.140625 L 21.234375 -12.046875 C 21.015625 -14.867188 20.1875 -16.96875 18.75 -18.34375 L 18.78125 -18.34375 C 17.332031 -19.707031 15.257812 -20.441406 12.5625 -20.546875 C 10.5625 -20.546875 8.832031 -20.101562 7.375 -19.21875 C 5.914062 -18.332031 4.785156 -17.09375 3.984375 -15.5 C 3.191406 -13.914062 2.757812 -12.046875 2.6875 -9.890625 C 2.6875 -6.722656 3.628906 -4.222656 5.515625 -2.390625 C 7.421875 -0.578125 9.929688 0.378906 13.046875 0.484375 C 15.566406 0.484375 18.113281 -0.0664062 20.6875 -1.171875 L 20.609375 -6.984375 C 19.804688 -6.566406 19.066406 -6.234375 18.390625 -5.984375 C 17.710938 -5.742188 17.117188 -5.597656 16.609375 -5.546875 C 16.046875 -5.492188 15.492188 -5.457031 14.953125 -5.4375 C 14.421875 -5.414062 13.847656 -5.40625 13.234375 -5.40625 C 12.328125 -5.476562 11.476562 -5.609375 10.6875 -5.796875 C 9.90625 -5.992188 9.257812 -6.253906 8.75 -6.578125 C 7.914062 -7.160156 7.425781 -8.347656 7.28125 -10.140625 Z M 17.046875 -14.1875 L 7.640625 -14.1875 C 7.785156 -14.84375 8.21875 -15.53125 8.9375 -16.25 L 8.9375 -16.203125 C 9.8125 -17.140625 11.019531 -17.609375 12.5625 -17.609375 C 13.882812 -17.609375 14.941406 -17.140625 15.734375 -16.203125 C 16.003906 -15.890625 16.257812 -15.550781 16.5 -15.1875 C 16.75 -14.832031 16.929688 -14.5 17.046875 -14.1875 Z M 17.046875 -14.1875 "/></g></g></g><g fill="#7ec28a" fill-opacity="1"><g transform="translate(302.121095, 92.848829)"><g><path d="M 16.09375 -7.34375 C 15.707031 -7.082031 15.273438 -6.863281 14.796875 -6.6875 C 14.316406 -6.519531 13.757812 -6.410156 13.125 -6.359375 C 11.769531 -6.359375 10.734375 -6.71875 10.015625 -7.4375 C 9.296875 -8.164062 8.820312 -9.25 8.59375 -10.6875 C 8.644531 -12.726562 9.078125 -14.3125 9.890625 -15.4375 C 10.304688 -15.925781 10.789062 -16.3125 11.34375 -16.59375 C 11.894531 -16.875 12.507812 -17.015625 13.1875 -17.015625 C 14.582031 -17.015625 15.613281 -16.488281 16.28125 -15.4375 C 17.039062 -14.332031 17.457031 -12.773438 17.53125 -10.765625 C 17.238281 -9.023438 16.757812 -7.882812 16.09375 -7.34375 Z M 3.453125 -3.78125 L 7.125 -1.5 C 7.8125 -0.820312 8.585938 -0.320312 9.453125 0 C 10.328125 0.320312 11.328125 0.484375 12.453125 0.484375 C 14.117188 0.484375 15.578125 0.0351562 16.828125 -0.859375 C 18.078125 -1.753906 19.050781 -2.992188 19.75 -4.578125 C 20.445312 -6.160156 20.796875 -7.976562 20.796875 -10.03125 C 20.796875 -12.113281 20.445312 -13.9375 19.75 -15.5 C 19.050781 -17.070312 18.078125 -18.304688 16.828125 -19.203125 C 15.578125 -20.097656 14.117188 -20.546875 12.453125 -20.546875 C 11.328125 -20.546875 10.34375 -20.394531 9.5 -20.09375 C 8.65625 -19.800781 7.890625 -19.3125 7.203125 -18.625 L 7.5 -27.421875 L 3.046875 -27.421875 Z M 3.453125 -3.78125 "/></g></g></g><g fill="#7ec28a" fill-opacity="1"><g transform="translate(325.644169, 92.848829)"><g/></g></g><g fill="#7ec28a" fill-opacity="1"><g transform="translate(340.015302, 92.848829)"><g><path d="M 19.109375 -9.5625 L 11.609375 -9.5625 C 11.785156 -10.050781 11.953125 -10.539062 12.109375 -11.03125 C 12.265625 -11.519531 12.414062 -11.992188 12.5625 -12.453125 C 12.738281 -12.941406 12.898438 -13.410156 13.046875 -13.859375 C 13.191406 -14.316406 13.351562 -14.78125 13.53125 -15.25 C 13.675781 -15.6875 13.820312 -16.128906 13.96875 -16.578125 C 14.113281 -17.035156 14.257812 -17.5 14.40625 -17.96875 C 14.550781 -18.4375 14.703125 -18.898438 14.859375 -19.359375 C 15.023438 -19.828125 15.179688 -20.296875 15.328125 -20.765625 Z M 2.6875 0 L 8.8125 0 L 10.109375 -4.15625 L 20.546875 -4.15625 L 21.5 0 L 28 0 L 17.421875 -26.796875 L 13.265625 -26.796875 Z M 2.6875 0 "/></g></g></g><g fill="#7ec28a" fill-opacity="1"><g transform="translate(370.7056, 92.848829)"><g><path d="M 18.890625 -14.890625 L 18.890625 -19.140625 C 16.753906 -20.078125 14.71875 -20.546875 12.78125 -20.546875 C 10.707031 -20.546875 8.914062 -20.113281 7.40625 -19.25 C 5.894531 -18.394531 4.726562 -17.179688 3.90625 -15.609375 C 3.09375 -14.046875 2.6875 -12.1875 2.6875 -10.03125 C 2.6875 -7.925781 3.09375 -6.082031 3.90625 -4.5 C 4.726562 -2.914062 5.878906 -1.6875 7.359375 -0.8125 C 8.847656 0.0507812 10.597656 0.484375 12.609375 0.484375 C 14.710938 0.484375 16.804688 0.00390625 18.890625 -0.953125 L 18.78125 -7.390625 C 18.070312 -6.972656 17.441406 -6.664062 16.890625 -6.46875 C 16.335938 -6.269531 15.863281 -6.160156 15.46875 -6.140625 L 12.828125 -6.140625 C 11.992188 -6.210938 11.210938 -6.335938 10.484375 -6.515625 C 9.765625 -6.703125 9.195312 -6.921875 8.78125 -7.171875 C 8.050781 -7.703125 7.609375 -8.679688 7.453125 -10.109375 C 7.484375 -12.191406 7.957031 -13.820312 8.875 -15 C 9.789062 -16.175781 11.144531 -16.765625 12.9375 -16.765625 C 14.625 -16.765625 16.609375 -16.140625 18.890625 -14.890625 Z M 18.890625 -14.890625 "/></g></g></g><g fill="#7ec28a" fill-opacity="1"><g transform="translate(392.280674, 92.848829)"><g><path d="M 18.890625 -14.890625 L 18.890625 -19.140625 C 16.753906 -20.078125 14.71875 -20.546875 12.78125 -20.546875 C 10.707031 -20.546875 8.914062 -20.113281 7.40625 -19.25 C 5.894531 -18.394531 4.726562 -17.179688 3.90625 -15.609375 C 3.09375 -14.046875 2.6875 -12.1875 2.6875 -10.03125 C 2.6875 -7.925781 3.09375 -6.082031 3.90625 -4.5 C 4.726562 -2.914062 5.878906 -1.6875 7.359375 -0.8125 C 8.847656 0.0507812 10.597656 0.484375 12.609375 0.484375 C 14.710938 0.484375 16.804688 0.00390625 18.890625 -0.953125 L 18.78125 -7.390625 C 18.070312 -6.972656 17.441406 -6.664062 16.890625 -6.46875 C 16.335938 -6.269531 15.863281 -6.160156 15.46875 -6.140625 L 12.828125 -6.140625 C 11.992188 -6.210938 11.210938 -6.335938 10.484375 -6.515625 C 9.765625 -6.703125 9.195312 -6.921875 8.78125 -7.171875 C 8.050781 -7.703125 7.609375 -8.679688 7.453125 -10.109375 C 7.484375 -12.191406 7.957031 -13.820312 8.875 -15 C 9.789062 -16.175781 11.144531 -16.765625 12.9375 -16.765625 C 14.625 -16.765625 16.609375 -16.140625 18.890625 -14.890625 Z M 18.890625 -14.890625 "/></g></g></g><g fill="#7ec28a" fill-opacity="1"><g transform="translate(413.855748, 92.848829)"><g><path d="M 21.234375 -10.140625 L 21.234375 -12.046875 C 21.015625 -14.867188 20.1875 -16.96875 18.75 -18.34375 L 18.78125 -18.34375 C 17.332031 -19.707031 15.257812 -20.441406 12.5625 -20.546875 C 10.5625 -20.546875 8.832031 -20.101562 7.375 -19.21875 C 5.914062 -18.332031 4.785156 -17.09375 3.984375 -15.5 C 3.191406 -13.914062 2.757812 -12.046875 2.6875 -9.890625 C 2.6875 -6.722656 3.628906 -4.222656 5.515625 -2.390625 C 7.421875 -0.578125 9.929688 0.378906 13.046875 0.484375 C 15.566406 0.484375 18.113281 -0.0664062 20.6875 -1.171875 L 20.609375 -6.984375 C 19.804688 -6.566406 19.066406 -6.234375 18.390625 -5.984375 C 17.710938 -5.742188 17.117188 -5.597656 16.609375 -5.546875 C 16.046875 -5.492188 15.492188 -5.457031 14.953125 -5.4375 C 14.421875 -5.414062 13.847656 -5.40625 13.234375 -5.40625 C 12.328125 -5.476562 11.476562 -5.609375 10.6875 -5.796875 C 9.90625 -5.992188 9.257812 -6.253906 8.75 -6.578125 C 7.914062 -7.160156 7.425781 -8.347656 7.28125 -10.140625 Z M 17.046875 -14.1875 L 7.640625 -14.1875 C 7.785156 -14.84375 8.21875 -15.53125 8.9375 -16.25 L 8.9375 -16.203125 C 9.8125 -17.140625 11.019531 -17.609375 12.5625 -17.609375 C 13.882812 -17.609375 14.941406 -17.140625 15.734375 -16.203125 C 16.003906 -15.890625 16.257812 -15.550781 16.5 -15.1875 C 16.75 -14.832031 16.929688 -14.5 17.046875 -14.1875 Z M 17.046875 -14.1875 "/></g></g></g><g fill="#7ec28a" fill-opacity="1"><g transform="translate(437.783157, 92.848829)"><g><path d="M 17.375 -15.21875 L 17.375 -19.328125 C 16.320312 -19.742188 15.242188 -20.050781 14.140625 -20.25 C 13.046875 -20.445312 11.910156 -20.546875 10.734375 -20.546875 C 8.179688 -20.546875 6.222656 -20.015625 4.859375 -18.953125 C 3.503906 -17.898438 2.828125 -16.375 2.828125 -14.375 C 2.828125 -12.707031 3.316406 -11.457031 4.296875 -10.625 C 5.273438 -9.789062 6.769531 -9.164062 8.78125 -8.75 L 8.75 -8.75 L 9.84375 -8.484375 C 11.539062 -8.117188 12.507812 -7.835938 12.75 -7.640625 C 12.875 -7.492188 12.992188 -7.320312 13.109375 -7.125 C 13.234375 -6.925781 13.375 -6.707031 13.53125 -6.46875 C 13.53125 -5.90625 13.234375 -5.488281 12.640625 -5.21875 C 12.097656 -4.925781 11.21875 -4.78125 10 -4.78125 C 7.96875 -4.78125 5.53125 -5.515625 2.6875 -6.984375 L 2.6875 -0.875 C 5.425781 0.03125 7.847656 0.484375 9.953125 0.484375 C 12.503906 0.484375 14.546875 -0.078125 16.078125 -1.203125 C 17.609375 -2.335938 18.375 -3.882812 18.375 -5.84375 C 18.375 -7.5625 17.835938 -8.894531 16.765625 -9.84375 C 16.265625 -10.257812 15.59375 -10.644531 14.75 -11 C 13.90625 -11.363281 12.910156 -11.664062 11.765625 -11.90625 C 11.585938 -11.90625 11.425781 -11.941406 11.28125 -12.015625 C 11.1875 -12.035156 11.09375 -12.050781 11 -12.0625 C 10.914062 -12.082031 10.828125 -12.101562 10.734375 -12.125 C 9.191406 -12.46875 8.160156 -12.835938 7.640625 -13.234375 C 7.203125 -13.597656 6.984375 -14.070312 6.984375 -14.65625 C 6.984375 -15.375 7.332031 -15.929688 8.03125 -16.328125 C 8.726562 -16.734375 9.738281 -16.9375 11.0625 -16.9375 C 12.925781 -16.9375 15.03125 -16.363281 17.375 -15.21875 Z M 17.375 -15.21875 "/></g></g></g><g fill="#7ec28a" fill-opacity="1"><g transform="translate(458.843677, 92.848829)"><g><path d="M 17.375 -15.21875 L 17.375 -19.328125 C 16.320312 -19.742188 15.242188 -20.050781 14.140625 -20.25 C 13.046875 -20.445312 11.910156 -20.546875 10.734375 -20.546875 C 8.179688 -20.546875 6.222656 -20.015625 4.859375 -18.953125 C 3.503906 -17.898438 2.828125 -16.375 2.828125 -14.375 C 2.828125 -12.707031 3.316406 -11.457031 4.296875 -10.625 C 5.273438 -9.789062 6.769531 -9.164062 8.78125 -8.75 L 8.75 -8.75 L 9.84375 -8.484375 C 11.539062 -8.117188 12.507812 -7.835938 12.75 -7.640625 C 12.875 -7.492188 12.992188 -7.320312 13.109375 -7.125 C 13.234375 -6.925781 13.375 -6.707031 13.53125 -6.46875 C 13.53125 -5.90625 13.234375 -5.488281 12.640625 -5.21875 C 12.097656 -4.925781 11.21875 -4.78125 10 -4.78125 C 7.96875 -4.78125 5.53125 -5.515625 2.6875 -6.984375 L 2.6875 -0.875 C 5.425781 0.03125 7.847656 0.484375 9.953125 0.484375 C 12.503906 0.484375 14.546875 -0.078125 16.078125 -1.203125 C 17.609375 -2.335938 18.375 -3.882812 18.375 -5.84375 C 18.375 -7.5625 17.835938 -8.894531 16.765625 -9.84375 C 16.265625 -10.257812 15.59375 -10.644531 14.75 -11 C 13.90625 -11.363281 12.910156 -11.664062 11.765625 -11.90625 C 11.585938 -11.90625 11.425781 -11.941406 11.28125 -12.015625 C 11.1875 -12.035156 11.09375 -12.050781 11 -12.0625 C 10.914062 -12.082031 10.828125 -12.101562 10.734375 -12.125 C 9.191406 -12.46875 8.160156 -12.835938 7.640625 -13.234375 C 7.203125 -13.597656 6.984375 -14.070312 6.984375 -14.65625 C 6.984375 -15.375 7.332031 -15.929688 8.03125 -16.328125 C 8.726562 -16.734375 9.738281 -16.9375 11.0625 -16.9375 C 12.925781 -16.9375 15.03125 -16.363281 17.375 -15.21875 Z M 17.375 -15.21875 "/></g></g></g><g fill="#7ec28a" fill-opacity="1"><g transform="translate(479.904196, 92.848829)"><g><path d="M 2.71875 0 L 7.125 0 L 6.984375 -20.109375 L 2.90625 -20.109375 Z M 2.6875 -22.15625 L 7.171875 -22.15625 L 6.953125 -27.421875 L 2.90625 -27.421875 Z M 2.6875 -22.15625 "/></g></g></g><g fill="#7ec28a" fill-opacity="1"><g transform="translate(489.791236, 92.848829)"><g><path d="M 16.09375 -7.34375 C 15.707031 -7.082031 15.273438 -6.863281 14.796875 -6.6875 C 14.316406 -6.519531 13.757812 -6.410156 13.125 -6.359375 C 11.769531 -6.359375 10.734375 -6.71875 10.015625 -7.4375 C 9.296875 -8.164062 8.820312 -9.25 8.59375 -10.6875 C 8.644531 -12.726562 9.078125 -14.3125 9.890625 -15.4375 C 10.304688 -15.925781 10.789062 -16.3125 11.34375 -16.59375 C 11.894531 -16.875 12.507812 -17.015625 13.1875 -17.015625 C 14.582031 -17.015625 15.613281 -16.488281 16.28125 -15.4375 C 17.039062 -14.332031 17.457031 -12.773438 17.53125 -10.765625 C 17.238281 -9.023438 16.757812 -7.882812 16.09375 -7.34375 Z M 3.453125 -3.78125 L 7.125 -1.5 C 7.8125 -0.820312 8.585938 -0.320312 9.453125 0 C 10.328125 0.320312 11.328125 0.484375 12.453125 0.484375 C 14.117188 0.484375 15.578125 0.0351562 16.828125 -0.859375 C 18.078125 -1.753906 19.050781 -2.992188 19.75 -4.578125 C 20.445312 -6.160156 20.796875 -7.976562 20.796875 -10.03125 C 20.796875 -12.113281 20.445312 -13.9375 19.75 -15.5 C 19.050781 -17.070312 18.078125 -18.304688 16.828125 -19.203125 C 15.578125 -20.097656 14.117188 -20.546875 12.453125 -20.546875 C 11.328125 -20.546875 10.34375 -20.394531 9.5 -20.09375 C 8.65625 -19.800781 7.890625 -19.3125 7.203125 -18.625 L 7.5 -27.421875 L 3.046875 -27.421875 Z M 3.453125 -3.78125 "/></g></g></g><g fill="#7ec28a" fill-opacity="1"><g transform="translate(513.31431, 92.848829)"><g><path d="M 2.71875 0 L 7.125 0 L 6.984375 -20.109375 L 2.90625 -20.109375 Z M 2.6875 -22.15625 L 7.171875 -22.15625 L 6.953125 -27.421875 L 2.90625 -27.421875 Z M 2.6875 -22.15625 "/></g></g></g><g fill="#7ec28a" fill-opacity="1"><g transform="translate(523.201351, 92.848829)"><g><path d="M 2.6875 0 L 9.375 0 L 9.375 -5.140625 L 7.3125 -5.140625 L 7.3125 -27.421875 L 3.046875 -27.421875 Z M 2.6875 0 "/></g></g></g><g fill="#7ec28a" fill-opacity="1"><g transform="translate(535.293686, 92.848829)"><g><path d="M 2.71875 0 L 7.125 0 L 6.984375 -20.109375 L 2.90625 -20.109375 Z M 2.6875 -22.15625 L 7.171875 -22.15625 L 6.953125 -27.421875 L 2.90625 -27.421875 Z M 2.6875 -22.15625 "/></g></g></g><g fill="#7ec28a" fill-opacity="1"><g transform="translate(545.180726, 92.848829)"><g><path d="M 5.140625 -24.734375 L 4.96875 -20.109375 L 2.6875 -20.109375 L 2.6875 -16.359375 L 4.96875 -16.359375 L 4.78125 -6.875 C 4.78125 -4.320312 5.328125 -2.535156 6.421875 -1.515625 C 7.523438 -0.503906 9.351562 0 11.90625 0 L 15.734375 0 L 15.734375 -5.921875 L 11.90625 -5.921875 C 10.800781 -5.921875 10.113281 -6.078125 9.84375 -6.390625 C 9.53125 -6.679688 9.375 -7.503906 9.375 -8.859375 L 9.5625 -16.359375 L 13.890625 -16.359375 L 13.890625 -20.109375 L 9.59375 -20.109375 L 9.734375 -24.734375 Z M 5.140625 -24.734375 "/></g></g></g><g fill="#7ec28a" fill-opacity="1"><g transform="translate(563.594898, 92.848829)"><g><path d="M 22.96875 -20.109375 L 18.296875 -20.109375 L 13.5625 -9.921875 L 7.34375 -20.109375 L 2.6875 -20.109375 C 3.03125 -19.390625 3.367188 -18.671875 3.703125 -17.953125 C 4.046875 -17.234375 4.390625 -16.492188 4.734375 -15.734375 C 5.453125 -14.234375 6.164062 -12.71875 6.875 -11.1875 C 7.582031 -9.65625 8.28125 -8.128906 8.96875 -6.609375 C 9.3125 -5.847656 9.660156 -5.109375 10.015625 -4.390625 C 10.367188 -3.671875 10.707031 -2.953125 11.03125 -2.234375 C 10.925781 -2.046875 10.820312 -1.851562 10.71875 -1.65625 C 10.625 -1.457031 10.53125 -1.257812 10.4375 -1.0625 C 10.1875 -0.644531 9.976562 -0.253906 9.8125 0.109375 C 9.5625 0.429688 9.320312 0.710938 9.09375 0.953125 C 8.863281 1.203125 8.640625 1.421875 8.421875 1.609375 C 8.046875 1.910156 7.539062 2.0625 6.90625 2.0625 L 4.078125 2.0625 L 4.078125 7.453125 L 7.53125 7.453125 C 8.5625 7.453125 9.472656 7.289062 10.265625 6.96875 C 11.066406 6.65625 11.820312 6.054688 12.53125 5.171875 C 13.238281 4.296875 13.960938 3.015625 14.703125 1.328125 Z M 22.96875 -20.109375 "/></g></g></g><g fill="#7ec28a" fill-opacity="1"><g transform="translate(589.249798, 92.848829)"><g><path d="M 2.828125 0 L 8.484375 0 L 8.078125 -5.59375 L 3.265625 -5.59375 Z M 3.046875 -14.703125 L 3.046875 -14.734375 L 2.6875 -8.046875 L 8.671875 -8.046875 L 8.125 -14.734375 L 7.9375 -26.34375 L 3.046875 -26.28125 Z M 3.046875 -14.703125 "/></g></g></g></svg>