<svg xmlns="http://www.w3.org/2000/svg" xmlns:xlink="http://www.w3.org/1999/xlink" width="1200" zoomAndPan="magnify" viewBox="0 0 900 243.75" height="325" preserveAspectRatio="xMidYMid meet" version="1.0"><defs><clipPath id="75a3f4529e"><path d="M 1 0 L 898 0 L 898 243.5 L 1 243.5 Z M 1 0 " clip-rule="nonzero"/></clipPath><clipPath id="c8471155f9"><path d="M 74 122 L 129.761719 122 L 129.761719 142 L 74 142 Z M 74 122 " clip-rule="nonzero"/></clipPath><clipPath id="637aaf8ee1"><path d="M 88.144531 57 L 144 57 L 144 67 L 88.144531 67 Z M 88.144531 57 " clip-rule="nonzero"/></clipPath><clipPath id="ad9ff36272"><path d="M 414.515625 105.15625 L 484.105469 105.15625 L 484.105469 174.746094 L 414.515625 174.746094 Z M 414.515625 105.15625 " clip-rule="nonzero"/></clipPath><clipPath id="e92adacb6c"><path d="M 449.308594 105.15625 C 430.09375 105.15625 414.515625 120.734375 414.515625 139.953125 C 414.515625 159.167969 430.09375 174.746094 449.308594 174.746094 C 468.527344 174.746094 484.105469 159.167969 484.105469 139.953125 C 484.105469 120.734375 468.527344 105.15625 449.308594 105.15625 Z M 449.308594 105.15625 " clip-rule="nonzero"/></clipPath><clipPath id="b38ce6501f"><path d="M 415 106 L 483.828125 106 L 483.828125 174 L 415 174 Z M 415 106 " clip-rule="nonzero"/></clipPath><clipPath id="ad583d9f0b"><path d="M 176.132812 131.226562 L 199 131.226562 L 199 152 L 176.132812 152 Z M 176.132812 131.226562 " clip-rule="nonzero"/></clipPath></defs><g clip-path="url(#75a3f4529e)"><path fill="#323230" d="M 430.628906 0.00390625 C 430.628906 0.00390625 427.855469 42.125 400.699219 48.773438 C 374.53125 55.179688 317.03125 42.125 275.191406 58.011719 C 265.351562 56.300781 245.273438 53.785156 231.390625 58.75 C 212.410156 65.539062 208.390625 63.324219 191.210938 55.425781 C 174.027344 47.527344 152.96875 54.871094 152.96875 54.871094 C 152.96875 54.871094 161.835938 53.484375 180.402344 57.085938 C 198.96875 60.6875 199.800781 72.050781 229.453125 65.121094 C 245.648438 61.339844 256.023438 62.1875 262.132812 63.734375 C 224.988281 81.148438 200.527344 96.851562 161.839844 87.566406 C 125.710938 78.894531 108.839844 71.085938 89.03125 79.007812 C 89.03125 79.007812 72.734375 80.664062 64.839844 74.152344 C 56.941406 67.640625 47.515625 68.058594 41.699219 73.460938 C 41.699219 73.460938 55.554688 71.242188 62.757812 79.414062 C 66.410156 83.558594 72.113281 85.027344 76.863281 85.476562 C 53.238281 99.8125 27.183594 113.375 1.101562 106.988281 C 1.101562 106.988281 13.574219 122.230469 53.480469 108.375 C 88.3125 96.28125 106.472656 85.035156 136.519531 93.621094 C 132.53125 95.585938 128.355469 98.613281 126.421875 103.164062 C 122.160156 113.195312 108.308594 115.453125 108.308594 115.453125 C 115.53125 118.746094 124.609375 116.175781 130.050781 107.507812 C 133.429688 102.128906 140.863281 98.71875 146.019531 96.90625 C 147.488281 97.480469 148.933594 98.015625 150.46875 98.675781 C 189.539062 115.582031 228.609375 94.519531 263.246094 79.003906 C 279.226562 71.847656 292.601562 67.960938 305.507812 66.417969 C 301.167969 71.03125 292.976562 77.269531 277.664062 82.84375 C 249.050781 93.257812 254.570312 103.222656 240.996094 116.390625 C 227.421875 129.5625 219.242188 133.253906 219.242188 133.253906 C 219.242188 133.253906 240.890625 127.882812 250.949219 111.875 C 261.015625 95.867188 263.167969 91.8125 282.773438 87.113281 C 295.929688 83.960938 309.921875 72.742188 317.808594 65.628906 C 325.445312 65.558594 333.175781 66.230469 341.40625 67.460938 C 337.046875 69.382812 332.105469 72.574219 329.949219 77.644531 C 325.691406 87.671875 311.839844 89.933594 311.839844 89.933594 C 319.066406 93.230469 328.136719 90.65625 333.582031 81.984375 C 339.027344 73.320312 355.011719 69.757812 355.011719 69.757812 L 354.882812 69.644531 C 370.382812 71.730469 389.824219 67.226562 405.808594 61.945312 L 405.808594 61.949219 C 405.808594 61.949219 390.675781 71.449219 380.3125 84.167969 C 375.808594 86.054688 370.496094 89.292969 368.234375 94.609375 C 363.972656 104.636719 350.125 106.898438 350.125 106.898438 C 357.347656 110.195312 366.425781 107.621094 371.867188 98.953125 C 366.046875 118.347656 348.460938 124.171875 333.421875 119.183594 C 318.382812 114.195312 285.960938 118.347656 273.769531 152.710938 C 261.574219 187.070312 217.03125 202.867188 217.03125 202.867188 C 217.03125 202.867188 251.878906 200.652344 268.230469 177.375 C 284.578125 154.097656 289.84375 120.289062 328.363281 129.15625 C 335.765625 130.859375 342.035156 132.105469 347.457031 132.773438 C 344.257812 134.355469 340.644531 135.9375 336.441406 137.46875 C 307.828125 147.882812 313.351562 157.847656 299.777344 171.019531 C 286.203125 184.1875 278.023438 187.878906 278.023438 187.878906 C 278.023438 187.878906 299.667969 182.507812 309.730469 166.5 C 319.792969 150.492188 321.949219 146.4375 341.550781 141.738281 C 347.824219 140.238281 354.3125 136.875 360.25 133 C 369.9375 131.742188 376.132812 126.363281 382.253906 114.914062 C 382.597656 114.566406 382.964844 114.191406 382.964844 114.191406 L 382.621094 114.191406 C 384.886719 109.867188 387.152344 104.777344 389.597656 98.675781 C 404.039062 62.660156 440.773438 59.59375 441.085938 59.570312 C 441.085938 59.570312 441.085938 59.570312 441.085938 59.628906 C 440.984375 59.734375 424.929688 76.609375 421.023438 108.308594 C 420.464844 112.847656 419.78125 116.9375 418.976562 120.707031 C 418.183594 123.21875 417.164062 126.65625 416.136719 130.929688 C 410.585938 146.441406 400.835938 154.097656 382.941406 159.703125 C 357.929688 167.542969 334.414062 200.851562 335.59375 223.582031 C 335.59375 223.582031 346.566406 178.90625 386.539062 167.933594 C 398.484375 164.65625 406.804688 160.074219 412.8125 154.5625 C 412.757812 158.585938 413.0625 162.523438 413.878906 166.117188 C 418.332031 185.777344 415.652344 189.5 405.742188 205.605469 C 395.835938 221.710938 400.589844 243.5 400.589844 243.5 C 400.589844 243.5 400.28125 234.53125 406.089844 216.535156 C 411.898438 198.535156 423.28125 199.078125 419.96875 168.808594 C 418.917969 159.1875 419.191406 151.714844 420.050781 145.980469 C 423.671875 140.347656 425.949219 134.101562 427.800781 127.503906 C 427.886719 129.9375 427.636719 132.332031 426.871094 134.476562 C 423.417969 144.113281 427.007812 152.839844 434.058594 156.480469 C 434.058594 156.480469 427.277344 144.195312 432.527344 134.648438 C 436.628906 127.195312 433.117188 117.308594 431.371094 113.316406 C 432.054688 110.515625 432.761719 107.6875 433.566406 104.839844 C 436.953125 92.882812 443.261719 81.136719 449.214844 71.660156 C 455.171875 81.140625 461.488281 92.894531 464.875 104.859375 C 465.679688 107.710938 466.386719 110.535156 467.070312 113.339844 C 465.324219 117.328125 461.8125 127.214844 465.910156 134.667969 C 471.164062 144.21875 464.382812 156.5 464.382812 156.5 C 471.433594 152.859375 475.023438 144.132812 471.570312 134.496094 C 470.808594 132.355469 470.558594 129.957031 470.640625 127.527344 C 472.492188 134.125 474.769531 140.371094 478.390625 146 C 479.25 151.738281 479.519531 159.207031 478.46875 168.832031 C 475.160156 199.097656 486.542969 198.554688 492.351562 216.554688 C 498.160156 234.550781 497.855469 243.519531 497.855469 243.519531 C 497.855469 243.519531 502.605469 221.734375 492.695312 205.628906 C 482.789062 189.523438 480.105469 185.796875 484.5625 166.140625 C 485.378906 162.542969 485.6875 158.609375 485.628906 154.585938 C 491.636719 160.09375 499.953125 164.675781 511.898438 167.957031 C 551.875 178.925781 562.84375 223.601562 562.84375 223.601562 C 564.023438 200.875 540.511719 167.5625 515.5 159.726562 C 497.609375 154.121094 487.855469 146.464844 482.304688 130.949219 C 481.277344 126.679688 480.257812 123.238281 479.460938 120.726562 C 478.65625 116.957031 477.976562 112.871094 477.421875 108.328125 C 473.507812 76.578125 457.386719 59.6875 457.335938 59.632812 C 457.339844 59.632812 457.335938 59.632812 457.335938 59.632812 C 457.503906 59.632812 494.382812 62.65625 508.847656 98.742188 C 511.296875 104.84375 513.558594 109.933594 515.824219 114.257812 L 515.480469 114.257812 L 516.191406 114.980469 C 522.3125 126.429688 528.511719 131.808594 538.199219 133.066406 C 544.132812 136.941406 550.625 140.304688 556.894531 141.804688 C 576.5 146.503906 578.652344 150.558594 588.714844 166.566406 C 598.78125 182.574219 620.425781 187.945312 620.425781 187.945312 C 620.425781 187.945312 612.242188 184.253906 598.671875 171.082031 C 585.097656 157.914062 590.617188 147.949219 562.003906 137.535156 C 557.800781 136.003906 554.191406 134.421875 550.988281 132.839844 C 556.410156 132.171875 562.679688 130.925781 570.082031 129.222656 C 608.597656 120.355469 613.867188 154.164062 630.21875 177.4375 C 646.566406 200.714844 681.410156 202.933594 681.410156 202.933594 C 681.410156 202.933594 636.867188 187.136719 624.675781 152.777344 C 612.480469 118.414062 580.0625 114.257812 565.023438 119.25 C 549.988281 124.238281 532.398438 118.414062 526.582031 99.015625 C 532.023438 107.6875 541.101562 110.261719 548.324219 106.964844 C 548.324219 106.964844 534.472656 104.707031 530.210938 94.675781 C 527.953125 89.359375 522.636719 86.117188 518.132812 84.234375 C 507.769531 71.515625 492.640625 62.015625 492.640625 62.015625 L 492.636719 62.011719 C 508.621094 67.292969 528.066406 71.796875 543.566406 69.710938 L 543.433594 69.824219 C 543.433594 69.824219 559.425781 73.386719 564.867188 82.050781 C 570.3125 90.722656 579.382812 93.296875 586.605469 90 C 586.605469 90 572.757812 87.738281 568.5 77.710938 C 566.34375 72.640625 561.398438 69.449219 557.039062 67.527344 C 565.269531 66.292969 573.003906 65.625 580.644531 65.695312 C 588.527344 72.808594 602.519531 84.027344 615.679688 87.179688 C 635.28125 91.875 637.4375 95.933594 647.503906 111.9375 C 657.566406 127.949219 679.210938 133.320312 679.210938 133.320312 C 679.210938 133.320312 671.03125 129.628906 657.453125 116.457031 C 643.878906 103.289062 649.398438 93.324219 620.789062 82.910156 C 605.476562 77.335938 597.285156 71.09375 592.941406 66.484375 C 605.851562 68.027344 619.226562 71.914062 635.203125 79.070312 C 669.839844 94.585938 708.914062 115.648438 747.984375 98.742188 C 749.515625 98.082031 750.960938 97.546875 752.429688 96.972656 C 757.585938 98.785156 765.023438 102.195312 768.402344 107.574219 C 773.84375 116.242188 782.917969 118.8125 790.140625 115.519531 C 790.140625 115.519531 776.289062 113.261719 772.027344 103.230469 C 770.09375 98.679688 765.921875 95.652344 761.933594 93.6875 C 791.980469 85.101562 810.136719 96.34375 844.972656 108.441406 C 884.878906 122.296875 897.347656 107.054688 897.347656 107.054688 C 871.265625 113.441406 845.207031 99.878906 821.582031 85.539062 C 826.328125 85.097656 832.039062 83.625 835.6875 79.480469 C 842.890625 71.308594 856.75 73.527344 856.75 73.527344 C 850.933594 68.125 841.503906 67.707031 833.609375 74.21875 C 825.710938 80.730469 809.417969 79.074219 809.417969 79.074219 C 789.609375 71.148438 772.738281 78.960938 736.609375 87.632812 C 697.917969 96.917969 673.460938 81.210938 636.3125 63.800781 C 642.425781 62.253906 652.800781 61.402344 668.992188 65.1875 C 698.640625 72.117188 699.476562 60.753906 718.042969 57.152344 C 736.609375 53.550781 745.476562 54.933594 745.476562 54.933594 C 745.476562 54.933594 724.417969 47.59375 707.238281 55.492188 C 690.054688 63.390625 686.039062 65.605469 667.054688 58.816406 C 653.171875 53.851562 633.09375 56.367188 623.253906 58.078125 C 581.414062 42.191406 523.914062 55.246094 497.75 48.839844 C 470.59375 42.1875 467.820312 0.0664062 467.820312 0.0664062 L 449.300781 1.253906 Z M 430.628906 0.00390625 " fill-opacity="1" fill-rule="nonzero"/></g><path fill="#f4f6fc" d="M 425.445312 36.308594 C 425.292969 36.246094 425.140625 36.246094 424.988281 36.3125 C 424.835938 36.378906 424.730469 36.492188 424.671875 36.644531 C 424.671875 36.644531 423.875 38.699219 421.234375 41.425781 C 418.597656 44.148438 414.140625 47.476562 406.886719 49.871094 C 406.726562 49.921875 406.613281 50.023438 406.542969 50.167969 C 406.46875 50.316406 406.457031 50.46875 406.507812 50.625 C 406.558594 50.78125 406.65625 50.894531 406.800781 50.96875 C 406.949219 51.042969 407.101562 51.054688 407.257812 51.003906 C 414.691406 48.546875 419.316406 45.097656 422.082031 42.242188 C 424.847656 39.390625 425.773438 37.070312 425.773438 37.070312 C 425.835938 36.917969 425.832031 36.769531 425.769531 36.621094 C 425.703125 36.472656 425.597656 36.367188 425.445312 36.304688 Z M 425.445312 36.308594 " fill-opacity="1" fill-rule="nonzero"/><path fill="#f4f6fc" d="M 440.328125 80.671875 C 440.167969 80.691406 440.039062 80.765625 439.9375 80.890625 C 438.304688 82.925781 436.238281 86.730469 434.546875 90.066406 C 432.851562 93.40625 431.546875 96.257812 431.546875 96.257812 C 431.480469 96.40625 431.476562 96.558594 431.53125 96.710938 C 431.585938 96.867188 431.691406 96.976562 431.835938 97.046875 C 431.988281 97.113281 432.140625 97.121094 432.292969 97.0625 C 432.449219 97.007812 432.558594 96.90625 432.625 96.753906 C 432.625 96.753906 433.914062 93.925781 435.597656 90.609375 C 437.28125 87.296875 439.378906 83.476562 440.863281 81.632812 C 440.964844 81.503906 441.007812 81.359375 440.992188 81.195312 C 440.96875 81.03125 440.894531 80.898438 440.769531 80.796875 C 440.640625 80.691406 440.492188 80.648438 440.328125 80.667969 Z M 440.328125 80.671875 " fill-opacity="1" fill-rule="nonzero"/><path fill="#f4f6fc" d="M 499.167969 76.472656 C 499.03125 76.382812 498.882812 76.351562 498.71875 76.386719 C 498.5625 76.421875 498.4375 76.507812 498.347656 76.644531 C 498.257812 76.78125 498.226562 76.929688 498.261719 77.089844 C 498.292969 77.25 498.382812 77.375 498.515625 77.464844 C 498.515625 77.464844 499.824219 78.289062 501.988281 80.925781 C 504.15625 83.5625 507.140625 87.980469 510.355469 95.042969 C 510.425781 95.191406 510.535156 95.292969 510.691406 95.351562 C 510.84375 95.40625 510.996094 95.402344 511.140625 95.332031 C 511.285156 95.261719 511.386719 95.152344 511.449219 95.003906 C 511.503906 94.851562 511.496094 94.703125 511.429688 94.558594 C 508.179688 87.414062 505.144531 82.898438 502.902344 80.171875 C 500.660156 77.445312 499.164062 76.46875 499.164062 76.46875 Z M 499.167969 76.472656 " fill-opacity="1" fill-rule="nonzero"/><path fill="#f4f6fc" d="M 727.96875 98.910156 C 717.21875 101.355469 701.863281 99.039062 701.863281 99.039062 C 701.699219 99.011719 701.550781 99.046875 701.421875 99.144531 C 701.285156 99.242188 701.207031 99.375 701.183594 99.535156 C 701.160156 99.699219 701.195312 99.84375 701.292969 99.972656 C 701.390625 100.105469 701.519531 100.183594 701.679688 100.207031 C 701.679688 100.207031 717.082031 102.605469 728.222656 100.070312 C 728.382812 100.035156 728.503906 99.949219 728.589844 99.8125 C 728.679688 99.671875 728.707031 99.523438 728.675781 99.367188 C 728.640625 99.207031 728.554688 99.082031 728.417969 98.992188 C 728.28125 98.90625 728.128906 98.878906 727.96875 98.914062 Z M 727.96875 98.910156 " fill-opacity="1" fill-rule="nonzero"/><path fill="#f4f6fc" d="M 199.664062 97.171875 C 182.992188 102.214844 167.660156 98.339844 167.660156 98.339844 C 167.5 98.296875 167.347656 98.320312 167.207031 98.402344 C 167.0625 98.484375 166.972656 98.605469 166.929688 98.765625 C 166.890625 98.925781 166.914062 99.078125 167 99.21875 C 167.085938 99.359375 167.210938 99.449219 167.371094 99.484375 C 167.371094 99.484375 182.984375 103.453125 200.011719 98.304688 C 200.167969 98.257812 200.285156 98.160156 200.363281 98.015625 C 200.4375 97.871094 200.453125 97.71875 200.402344 97.5625 C 200.355469 97.410156 200.257812 97.292969 200.113281 97.214844 C 199.96875 97.140625 199.820312 97.125 199.664062 97.171875 Z M 199.664062 97.171875 " fill-opacity="1" fill-rule="nonzero"/><path fill="#f4f6fc" d="M 295.375 126.808594 C 287.785156 130.855469 282.597656 140.265625 282.597656 140.265625 C 282.519531 140.40625 282.503906 140.554688 282.550781 140.710938 C 282.59375 140.867188 282.6875 140.984375 282.828125 141.0625 C 282.96875 141.140625 283.117188 141.15625 283.273438 141.117188 C 283.425781 141.074219 283.542969 140.980469 283.628906 140.84375 C 283.628906 140.84375 288.835938 131.640625 295.941406 127.847656 C 296.082031 127.773438 296.179688 127.65625 296.230469 127.5 C 296.273438 127.34375 296.257812 127.195312 296.183594 127.050781 C 296.109375 126.90625 295.992188 126.808594 295.832031 126.761719 C 295.671875 126.710938 295.519531 126.726562 295.375 126.808594 Z M 295.375 126.808594 " fill-opacity="1" fill-rule="nonzero"/><path fill="#f4f6fc" d="M 498.300781 159.566406 C 498.152344 159.492188 498.003906 159.480469 497.847656 159.53125 C 497.691406 159.585938 497.574219 159.683594 497.503906 159.832031 C 497.429688 159.980469 497.417969 160.132812 497.46875 160.289062 C 497.523438 160.441406 497.621094 160.558594 497.769531 160.632812 C 497.769531 160.632812 505.78125 164.675781 511.386719 165.46875 C 511.550781 165.492188 511.699219 165.453125 511.832031 165.351562 C 511.960938 165.253906 512.039062 165.121094 512.058594 164.957031 C 512.078125 164.796875 512.042969 164.652344 511.945312 164.523438 C 511.84375 164.394531 511.710938 164.320312 511.550781 164.296875 C 506.351562 163.566406 498.300781 159.566406 498.300781 159.566406 Z M 498.300781 159.566406 " fill-opacity="1" fill-rule="nonzero"/><path fill="#f4f6fc" d="M 631.3125 172.605469 C 631.171875 172.683594 631.078125 172.800781 631.027344 172.957031 C 630.980469 173.109375 630.996094 173.261719 631.070312 173.40625 C 631.070312 173.40625 636.363281 183.367188 645.304688 188.261719 C 645.445312 188.34375 645.59375 188.363281 645.753906 188.316406 C 645.914062 188.273438 646.03125 188.175781 646.113281 188.03125 C 646.191406 187.886719 646.207031 187.734375 646.160156 187.578125 C 646.113281 187.417969 646.019531 187.300781 645.871094 187.222656 C 637.355469 182.558594 632.113281 172.851562 632.113281 172.851562 C 632.035156 172.707031 631.917969 172.613281 631.765625 172.5625 C 631.605469 172.515625 631.457031 172.53125 631.3125 172.609375 Z M 631.3125 172.605469 " fill-opacity="1" fill-rule="nonzero"/><path fill="#f4f6fc" d="M 517.140625 63.453125 C 516.984375 63.402344 516.835938 63.410156 516.6875 63.480469 C 516.542969 63.554688 516.441406 63.667969 516.386719 63.820312 C 516.335938 63.976562 516.347656 64.125 516.417969 64.273438 C 516.488281 64.417969 516.601562 64.519531 516.753906 64.574219 C 516.753906 64.574219 525.136719 67.375 541.144531 66.75 C 541.308594 66.742188 541.445312 66.679688 541.558594 66.558594 C 541.671875 66.4375 541.722656 66.296875 541.714844 66.136719 C 541.710938 65.972656 541.648438 65.835938 541.527344 65.726562 C 541.40625 65.613281 541.269531 65.5625 541.101562 65.566406 C 525.246094 66.1875 517.140625 63.449219 517.140625 63.449219 Z M 517.140625 63.453125 " fill-opacity="1" fill-rule="nonzero"/><path fill="#f4f6fc" d="M 77.910156 87.347656 C 77.753906 87.335938 77.609375 87.382812 77.484375 87.484375 C 71.8125 92.386719 64.539062 95.019531 64.539062 95.019531 C 64.378906 95.070312 64.265625 95.175781 64.195312 95.324219 C 64.125 95.472656 64.117188 95.625 64.175781 95.78125 C 64.230469 95.9375 64.332031 96.050781 64.484375 96.121094 C 64.628906 96.195312 64.785156 96.199219 64.941406 96.144531 C 64.941406 96.144531 72.367188 93.480469 78.257812 88.390625 C 78.378906 88.28125 78.445312 88.148438 78.457031 87.984375 C 78.46875 87.824219 78.421875 87.679688 78.316406 87.558594 C 78.210938 87.433594 78.078125 87.363281 77.914062 87.347656 Z M 77.910156 87.347656 " fill-opacity="1" fill-rule="nonzero"/><path fill="#f4f6fc" d="M 383.71875 161.105469 C 380.792969 161.472656 377.640625 163.019531 375.179688 164.460938 C 372.722656 165.902344 370.96875 167.25 370.96875 167.25 C 370.839844 167.347656 370.761719 167.480469 370.738281 167.640625 C 370.71875 167.804688 370.753906 167.953125 370.855469 168.082031 C 370.957031 168.210938 371.085938 168.289062 371.25 168.308594 C 371.414062 168.332031 371.558594 168.289062 371.6875 168.1875 C 371.6875 168.1875 373.394531 166.882812 375.785156 165.480469 C 378.175781 164.082031 381.257812 162.613281 383.875 162.289062 C 384.035156 162.265625 384.167969 162.191406 384.265625 162.0625 C 384.367188 161.933594 384.402344 161.789062 384.382812 161.628906 C 384.367188 161.464844 384.292969 161.332031 384.164062 161.230469 C 384.035156 161.128906 383.886719 161.085938 383.722656 161.105469 Z M 383.71875 161.105469 " fill-opacity="1" fill-rule="nonzero"/><g clip-path="url(#c8471155f9)"><path fill="#3a3b3e" d="M 126.113281 136.152344 L 129.085938 131.863281 L 115.738281 127.414062 C 111.652344 124.902344 106.835938 122.992188 101.628906 122.992188 C 86.71875 122.992188 74.996094 138.640625 74.5 139.304688 C 73.945312 140.058594 74.101562 141.113281 74.855469 141.667969 C 75.601562 142.21875 76.664062 142.058594 77.214844 141.3125 C 77.328125 141.164062 88.398438 126.367188 101.625 126.367188 C 114.851562 126.367188 125.921875 141.160156 126.03125 141.3125 C 126.363281 141.757812 126.875 141.996094 127.394531 141.996094 C 127.742188 141.996094 128.09375 141.890625 128.394531 141.667969 C 129.144531 141.113281 129.304688 140.054688 128.75 139.304688 C 128.617188 139.128906 127.679688 137.882812 126.109375 136.152344 Z M 126.113281 136.152344 " fill-opacity="1" fill-rule="nonzero"/></g><path fill="#3a3b3e" d="M 101.839844 150.660156 C 91.394531 150.660156 81.855469 141.765625 80.804688 140.75 L 78.457031 143.183594 C 80.34375 144.996094 90.3125 154.039062 101.839844 154.039062 C 113.367188 154.039062 122.816406 145.136719 124.636719 143.347656 L 122.273438 140.9375 C 120.617188 142.558594 111.84375 150.660156 101.839844 150.660156 Z M 101.839844 150.660156 " fill-opacity="1" fill-rule="nonzero"/><path fill="#3a3b3e" d="M 109.019531 137.988281 C 109.019531 133.90625 105.710938 130.59375 101.628906 130.59375 C 97.546875 130.59375 94.234375 133.90625 94.234375 137.988281 C 94.234375 142.066406 97.546875 145.378906 101.628906 145.378906 C 105.710938 145.378906 109.019531 142.066406 109.019531 137.988281 Z M 97.730469 137.988281 C 97.730469 137.523438 98.105469 137.144531 98.574219 137.144531 L 104.585938 137.144531 C 105.050781 137.144531 105.429688 137.523438 105.429688 137.988281 C 105.429688 138.453125 105.050781 138.832031 104.585938 138.832031 L 98.574219 138.832031 C 98.105469 138.832031 97.730469 138.453125 97.730469 137.988281 Z M 97.730469 137.988281 " fill-opacity="1" fill-rule="nonzero"/><path fill="#7ec28a" d="M 101.628906 148.335938 C 95.921875 148.335938 91.28125 143.695312 91.28125 137.988281 C 91.28125 132.28125 95.921875 127.636719 101.628906 127.636719 C 107.335938 127.636719 111.976562 132.28125 111.976562 137.988281 C 111.976562 143.695312 107.335938 148.335938 101.628906 148.335938 Z M 101.628906 129.328125 C 96.855469 129.328125 92.96875 133.214844 92.96875 137.988281 C 92.96875 142.761719 96.855469 146.648438 101.628906 146.648438 C 106.402344 146.648438 110.289062 142.761719 110.289062 137.988281 C 110.289062 133.214844 106.402344 129.328125 101.628906 129.328125 Z M 101.628906 129.328125 " fill-opacity="1" fill-rule="nonzero"/><path fill="#3a3b3e" d="M 805.074219 123.976562 C 798.289062 124.441406 792.84375 130.027344 792.542969 136.824219 C 792.511719 137.574219 792.542969 138.3125 792.625 139.035156 L 793.109375 141.351562 C 797.917969 142.734375 801.445312 147.171875 801.445312 152.417969 C 801.445312 155.972656 799.824219 159.160156 797.28125 161.273438 L 797.601562 162.816406 C 799.128906 164.457031 801.375 165.417969 803.835938 165.203125 C 807.480469 164.886719 810.425781 161.921875 810.722656 158.277344 C 810.726562 158.214844 810.730469 158.148438 810.734375 158.085938 C 810.976562 153.820312 812.828125 149.847656 815.78125 146.761719 C 818.101562 144.339844 819.519531 141.054688 819.519531 137.4375 C 819.519531 129.675781 812.960938 123.433594 805.074219 123.976562 Z M 811.550781 142.914062 C 811.386719 143.078125 811.167969 143.15625 810.949219 143.15625 C 810.730469 143.15625 810.519531 143.078125 810.355469 142.914062 C 810.023438 142.582031 810.023438 142.046875 810.355469 141.71875 C 812.675781 139.394531 812.675781 135.613281 810.355469 133.292969 C 808.03125 130.972656 804.253906 130.972656 801.929688 133.292969 C 801.601562 133.625 801.066406 133.625 800.734375 133.292969 C 800.40625 132.964844 800.40625 132.429688 800.734375 132.097656 C 803.71875 129.117188 808.566406 129.117188 811.550781 132.097656 C 814.53125 135.082031 814.53125 139.929688 811.550781 142.914062 Z M 811.550781 142.914062 " fill-opacity="1" fill-rule="nonzero"/><path fill="#7ec28a" d="M 789.921875 143.199219 C 784.839844 143.199219 780.703125 147.335938 780.703125 152.417969 C 780.703125 157.5 784.839844 161.636719 789.921875 161.636719 C 795.003906 161.636719 799.136719 157.5 799.136719 152.417969 C 799.136719 147.335938 795.003906 143.199219 789.921875 143.199219 Z M 782.394531 152.417969 C 782.394531 148.269531 785.769531 144.890625 789.921875 144.890625 C 791.730469 144.890625 793.390625 145.53125 794.691406 146.597656 L 784.105469 157.183594 C 783.039062 155.882812 782.398438 154.222656 782.398438 152.414062 Z M 789.921875 159.945312 C 788.183594 159.945312 786.59375 159.347656 785.316406 158.359375 L 795.859375 147.816406 C 796.847656 149.09375 797.445312 150.6875 797.445312 152.421875 C 797.445312 156.570312 794.070312 159.949219 789.917969 159.949219 Z M 789.921875 159.945312 " fill-opacity="1" fill-rule="nonzero"/><path fill="#7ec28a" d="M 828.949219 130.949219 C 826.515625 122.496094 819.65625 116.09375 811.046875 114.230469 C 810.476562 114.109375 809.914062 114.472656 809.792969 115.042969 C 809.667969 115.613281 810.03125 116.171875 810.601562 116.296875 C 818.453125 117.992188 824.707031 123.832031 826.925781 131.535156 C 827.0625 132 827.484375 132.300781 827.941406 132.300781 C 828.035156 132.300781 828.132812 132.289062 828.230469 132.257812 C 828.792969 132.097656 829.113281 131.511719 828.953125 130.953125 Z M 828.949219 130.949219 " fill-opacity="1" fill-rule="nonzero"/><path fill="#7ec28a" d="M 809.613281 118.585938 C 809.042969 118.460938 808.484375 118.824219 808.359375 119.394531 C 808.238281 119.964844 808.601562 120.527344 809.171875 120.652344 C 815.648438 122.050781 820.808594 126.863281 822.636719 133.226562 C 822.773438 133.691406 823.195312 133.992188 823.652344 133.992188 C 823.75 133.992188 823.847656 133.980469 823.945312 133.949219 C 824.503906 133.789062 824.828125 133.203125 824.664062 132.644531 C 822.617188 125.535156 816.851562 120.148438 809.613281 118.589844 Z M 809.613281 118.585938 " fill-opacity="1" fill-rule="nonzero"/><path fill="#7ec28a" d="M 737.859375 177.546875 L 711.703125 177.546875 C 711.238281 177.546875 710.855469 177.929688 710.855469 178.394531 C 710.855469 178.859375 711.238281 179.238281 711.703125 179.238281 L 737.859375 179.238281 C 738.324219 179.238281 738.703125 178.859375 738.703125 178.394531 C 738.703125 177.929688 738.324219 177.546875 737.859375 177.546875 Z M 737.859375 177.546875 " fill-opacity="1" fill-rule="nonzero"/><path fill="#7ec28a" d="M 732.925781 181.773438 L 711.570312 181.773438 C 711.105469 181.773438 710.726562 182.152344 710.726562 182.617188 C 710.726562 183.082031 711.105469 183.460938 711.570312 183.460938 L 732.925781 183.460938 C 733.390625 183.460938 733.769531 183.082031 733.769531 182.617188 C 733.769531 182.152344 733.390625 181.773438 732.925781 181.773438 Z M 732.925781 181.773438 " fill-opacity="1" fill-rule="nonzero"/><path fill="#3a3b3e" d="M 710.386719 157.886719 C 710.078125 157.84375 709.765625 157.898438 709.453125 158.046875 C 709.078125 158.238281 708.691406 158.375 708.285156 158.449219 C 707.878906 158.527344 707.472656 158.566406 707.066406 158.566406 C 706.332031 158.566406 705.648438 158.453125 705.019531 158.238281 C 704.390625 158.023438 703.839844 157.6875 703.375 157.238281 C 702.910156 156.789062 702.546875 156.222656 702.285156 155.546875 C 702.023438 154.871094 701.894531 154.078125 701.894531 153.160156 C 701.894531 152.378906 702.011719 151.667969 702.242188 151.023438 C 702.476562 150.378906 702.816406 149.820312 703.265625 149.347656 C 703.71875 148.875 704.257812 148.511719 704.902344 148.253906 C 705.539062 148 706.265625 147.867188 707.070312 147.867188 C 707.507812 147.867188 707.925781 147.914062 708.320312 148.003906 C 708.71875 148.09375 709.097656 148.222656 709.457031 148.386719 C 709.773438 148.539062 710.082031 148.597656 710.390625 148.570312 C 710.699219 148.539062 710.949219 148.386719 711.148438 148.117188 C 711.429688 147.773438 711.542969 147.390625 711.472656 146.96875 C 711.40625 146.546875 711.179688 146.242188 710.785156 146.042969 C 710.226562 145.761719 709.636719 145.542969 709.007812 145.390625 C 708.378906 145.242188 707.730469 145.164062 707.070312 145.164062 C 705.902344 145.164062 704.820312 145.363281 703.828125 145.761719 C 702.835938 146.15625 701.976562 146.714844 701.25 147.429688 C 700.523438 148.144531 699.957031 148.988281 699.5625 149.964844 C 699.164062 150.941406 698.964844 152.003906 698.964844 153.160156 C 698.964844 154.496094 699.179688 155.671875 699.621094 156.683594 C 700.054688 157.699219 700.652344 158.542969 701.410156 159.21875 C 702.167969 159.894531 703.035156 160.40625 704 160.75 C 704.96875 161.09375 705.996094 161.269531 707.074219 161.269531 C 707.511719 161.269531 707.9375 161.234375 708.359375 161.167969 C 708.777344 161.097656 709.195312 161 709.609375 160.875 C 710.023438 160.75 710.425781 160.589844 710.816406 160.390625 C 711.191406 160.207031 711.417969 159.921875 711.503906 159.523438 C 711.585938 159.125 711.476562 158.738281 711.179688 158.363281 C 710.964844 158.089844 710.707031 157.933594 710.402344 157.886719 Z M 710.386719 157.886719 " fill-opacity="1" fill-rule="nonzero"/><path fill="#3a3b3e" d="M 723.832031 157.886719 C 723.527344 157.84375 723.210938 157.898438 722.898438 158.046875 C 722.523438 158.238281 722.136719 158.375 721.730469 158.449219 C 721.324219 158.527344 720.917969 158.566406 720.511719 158.566406 C 719.777344 158.566406 719.09375 158.453125 718.464844 158.238281 C 717.835938 158.023438 717.285156 157.6875 716.820312 157.238281 C 716.355469 156.789062 715.992188 156.222656 715.730469 155.546875 C 715.46875 154.871094 715.339844 154.078125 715.339844 153.160156 C 715.339844 152.378906 715.457031 151.667969 715.6875 151.023438 C 715.921875 150.378906 716.265625 149.820312 716.710938 149.347656 C 717.164062 148.875 717.703125 148.511719 718.347656 148.253906 C 718.984375 148 719.710938 147.867188 720.519531 147.867188 C 720.953125 147.867188 721.371094 147.914062 721.769531 148.003906 C 722.164062 148.09375 722.546875 148.222656 722.90625 148.386719 C 723.222656 148.539062 723.53125 148.597656 723.839844 148.570312 C 724.144531 148.539062 724.394531 148.386719 724.59375 148.117188 C 724.878906 147.773438 724.988281 147.390625 724.917969 146.96875 C 724.851562 146.546875 724.625 146.242188 724.230469 146.042969 C 723.671875 145.761719 723.082031 145.542969 722.453125 145.390625 C 721.824219 145.242188 721.175781 145.164062 720.519531 145.164062 C 719.347656 145.164062 718.265625 145.363281 717.273438 145.761719 C 716.28125 146.15625 715.421875 146.714844 714.695312 147.429688 C 713.96875 148.144531 713.402344 148.988281 713.007812 149.964844 C 712.609375 150.941406 712.410156 152.003906 712.410156 153.160156 C 712.410156 154.496094 712.625 155.671875 713.066406 156.683594 C 713.5 157.699219 714.097656 158.542969 714.855469 159.21875 C 715.613281 159.894531 716.480469 160.40625 717.445312 160.75 C 718.414062 161.09375 719.441406 161.269531 720.523438 161.269531 C 720.957031 161.269531 721.382812 161.234375 721.804688 161.167969 C 722.222656 161.097656 722.640625 161 723.054688 160.875 C 723.46875 160.75 723.871094 160.589844 724.261719 160.390625 C 724.636719 160.207031 724.863281 159.921875 724.949219 159.523438 C 725.035156 159.125 724.921875 158.738281 724.625 158.363281 C 724.414062 158.089844 724.15625 157.933594 723.847656 157.886719 Z M 723.832031 157.886719 " fill-opacity="1" fill-rule="nonzero"/><path fill="#3a3b3e" d="M 735.835938 135.304688 L 688.523438 135.304688 C 686.660156 135.304688 685.144531 136.820312 685.144531 138.683594 L 685.144531 168.675781 C 685.144531 170.539062 686.660156 172.058594 688.523438 172.058594 L 691.058594 172.058594 L 691.058594 169.523438 C 691.058594 169.058594 691.4375 168.675781 691.902344 168.675781 L 695.28125 168.675781 C 695.746094 168.675781 696.125 169.058594 696.125 169.523438 L 696.125 172.058594 L 735.835938 172.058594 C 737.699219 172.058594 739.214844 170.539062 739.214844 168.675781 L 739.214844 138.683594 C 739.214844 136.820312 737.699219 135.304688 735.835938 135.304688 Z M 737.523438 166.566406 L 686.832031 166.566406 L 686.832031 138.683594 C 686.832031 137.75 687.589844 136.996094 688.523438 136.996094 L 735.835938 136.996094 C 736.769531 136.996094 737.523438 137.75 737.523438 138.683594 Z M 737.523438 166.566406 " fill-opacity="1" fill-rule="nonzero"/><path fill="#3a3b3e" d="M 705.957031 179.894531 L 700.832031 176.808594 C 700.269531 176.472656 699.550781 176.875 699.550781 177.53125 L 699.550781 179.832031 L 694.4375 179.6875 L 694.4375 170.367188 L 692.746094 170.367188 L 692.746094 181.324219 L 699.550781 181.519531 L 699.550781 183.699219 C 699.550781 184.359375 700.269531 184.761719 700.832031 184.421875 L 705.957031 181.335938 C 706.5 181.007812 706.5 180.21875 705.957031 179.886719 Z M 705.957031 179.894531 " fill-opacity="1" fill-rule="nonzero"/><path fill="#7ec28a" d="M 805.980469 18.5 L 758.667969 18.5 C 756.804688 18.5 755.289062 20.015625 755.289062 21.878906 L 755.289062 47.933594 L 761.605469 56.941406 L 805.980469 56.941406 C 807.839844 56.941406 809.359375 55.425781 809.359375 53.5625 L 809.359375 21.878906 C 809.359375 20.015625 807.839844 18.5 805.980469 18.5 Z M 807.667969 53.5625 C 807.667969 54.496094 806.914062 55.25 805.980469 55.25 L 783.167969 55.25 L 783.167969 46.800781 C 783.167969 46.335938 782.789062 45.957031 782.324219 45.957031 C 781.859375 45.957031 781.476562 46.335938 781.476562 46.800781 L 781.476562 55.25 L 762.484375 55.25 L 756.976562 47.398438 L 756.976562 21.878906 C 756.976562 20.945312 757.734375 20.191406 758.667969 20.191406 L 781.476562 20.191406 L 781.476562 27.371094 C 781.476562 27.835938 781.859375 28.214844 782.324219 28.214844 C 782.789062 28.214844 783.167969 27.835938 783.167969 27.371094 L 783.167969 20.191406 L 805.980469 20.191406 C 806.914062 20.191406 807.667969 20.945312 807.667969 21.878906 Z M 807.667969 53.5625 " fill-opacity="1" fill-rule="nonzero"/><path fill="#3a3b3e" d="M 762.046875 46.800781 L 756.140625 46.816406 C 755.824219 46.816406 755.535156 46.992188 755.394531 47.269531 C 755.25 47.550781 755.269531 47.886719 755.453125 48.144531 L 761.359375 56.582031 C 761.519531 56.808594 761.78125 56.941406 762.050781 56.941406 C 762.136719 56.941406 762.21875 56.929688 762.304688 56.902344 C 762.65625 56.792969 762.894531 56.46875 762.894531 56.097656 L 762.894531 47.648438 C 762.894531 47.421875 762.804688 47.207031 762.644531 47.046875 C 762.484375 46.890625 762.273438 46.800781 762.050781 46.800781 Z M 762.046875 46.800781 " fill-opacity="1" fill-rule="nonzero"/><path fill="#3a3b3e" d="M 805.132812 60.320312 L 801.84375 48.394531 L 801.800781 48.394531 C 801.800781 48.394531 801.839844 48.390625 801.839844 48.390625 L 800.6875 45.667969 C 800.414062 45.027344 799.785156 44.621094 799.097656 44.636719 L 796.988281 44.675781 L 796.78125 44.398438 C 796.503906 44.023438 796.054688 43.804688 795.585938 43.816406 L 793.691406 43.859375 L 793.636719 43.859375 C 793.636719 43.859375 793.171875 43.871094 793.171875 43.871094 L 793.082031 43.75 C 792.804688 43.371094 792.355469 43.152344 791.886719 43.164062 L 789.28125 43.222656 L 788.808594 43.238281 L 786.320312 37.957031 C 785.945312 37.167969 785.027344 36.796875 784.207031 37.105469 C 783.386719 37.410156 782.945312 38.300781 783.1875 39.140625 L 787.382812 53.574219 L 787.308594 53.679688 L 782.765625 51.546875 C 781.863281 51.121094 780.78125 51.425781 780.226562 52.257812 C 779.675781 53.089844 779.8125 54.203125 780.558594 54.871094 L 788.132812 61.699219 C 788.660156 62.535156 789.386719 63.246094 790.25 63.761719 L 790.25 63.769531 C 790.25 63.769531 790.332031 63.804688 790.332031 63.804688 C 790.621094 63.96875 790.914062 64.113281 791.230469 64.230469 L 795.425781 66.230469 L 795.777344 70.03125 L 809.382812 70.03125 L 805.140625 60.316406 Z M 805.132812 60.320312 " fill-opacity="1" fill-rule="nonzero"/><path fill="#3a3b3e" d="M 789.503906 25.257812 C 789.503906 25.539062 789.449219 25.808594 789.34375 26.066406 C 789.234375 26.324219 789.082031 26.554688 788.886719 26.753906 C 788.6875 26.949219 788.457031 27.101562 788.199219 27.210938 C 787.941406 27.316406 787.671875 27.371094 787.390625 27.371094 C 787.113281 27.371094 786.84375 27.316406 786.582031 27.210938 C 786.324219 27.101562 786.097656 26.949219 785.898438 26.753906 C 785.699219 26.554688 785.546875 26.324219 785.441406 26.066406 C 785.332031 25.808594 785.28125 25.539062 785.28125 25.257812 C 785.28125 24.980469 785.332031 24.710938 785.441406 24.449219 C 785.546875 24.191406 785.699219 23.964844 785.898438 23.765625 C 786.097656 23.566406 786.324219 23.414062 786.582031 23.308594 C 786.84375 23.199219 787.113281 23.148438 787.390625 23.148438 C 787.671875 23.148438 787.941406 23.199219 788.199219 23.308594 C 788.457031 23.414062 788.6875 23.566406 788.886719 23.765625 C 789.082031 23.964844 789.234375 24.191406 789.34375 24.449219 C 789.449219 24.710938 789.503906 24.980469 789.503906 25.257812 Z M 789.503906 25.257812 " fill-opacity="1" fill-rule="nonzero"/><path fill="#3a3b3e" d="M 798.796875 32.015625 C 798.796875 32.296875 798.742188 32.566406 798.636719 32.824219 C 798.53125 33.085938 798.375 33.3125 798.179688 33.511719 C 797.980469 33.710938 797.753906 33.863281 797.492188 33.96875 C 797.234375 34.074219 796.964844 34.128906 796.683594 34.128906 C 796.40625 34.128906 796.136719 34.074219 795.878906 33.96875 C 795.617188 33.863281 795.390625 33.710938 795.191406 33.511719 C 794.992188 33.3125 794.839844 33.085938 794.734375 32.824219 C 794.625 32.566406 794.574219 32.296875 794.574219 32.015625 C 794.574219 31.738281 794.625 31.46875 794.734375 31.210938 C 794.839844 30.949219 794.992188 30.722656 795.191406 30.523438 C 795.390625 30.324219 795.617188 30.171875 795.878906 30.066406 C 796.136719 29.960938 796.40625 29.90625 796.683594 29.90625 C 796.964844 29.90625 797.234375 29.960938 797.492188 30.066406 C 797.753906 30.171875 797.980469 30.324219 798.179688 30.523438 C 798.375 30.722656 798.53125 30.949219 798.636719 31.210938 C 798.742188 31.46875 798.796875 31.738281 798.796875 32.015625 Z M 798.796875 32.015625 " fill-opacity="1" fill-rule="nonzero"/><path fill="#3a3b3e" d="M 804.710938 32.015625 C 804.710938 32.296875 804.65625 32.566406 804.550781 32.824219 C 804.445312 33.085938 804.289062 33.3125 804.09375 33.511719 C 803.894531 33.710938 803.667969 33.863281 803.40625 33.96875 C 803.148438 34.074219 802.878906 34.128906 802.597656 34.128906 C 802.320312 34.128906 802.050781 34.074219 801.789062 33.96875 C 801.53125 33.863281 801.304688 33.710938 801.105469 33.511719 C 800.90625 33.3125 800.753906 33.085938 800.648438 32.824219 C 800.539062 32.566406 800.488281 32.296875 800.488281 32.015625 C 800.488281 31.738281 800.539062 31.46875 800.648438 31.210938 C 800.753906 30.949219 800.90625 30.722656 801.105469 30.523438 C 801.304688 30.324219 801.53125 30.171875 801.789062 30.066406 C 802.050781 29.960938 802.320312 29.90625 802.597656 29.90625 C 802.878906 29.90625 803.148438 29.960938 803.40625 30.066406 C 803.667969 30.171875 803.894531 30.324219 804.09375 30.523438 C 804.289062 30.722656 804.445312 30.949219 804.550781 31.210938 C 804.65625 31.46875 804.710938 31.738281 804.710938 32.015625 Z M 804.710938 32.015625 " fill-opacity="1" fill-rule="nonzero"/><path fill="#3a3b3e" d="M 804.710938 25.257812 C 804.710938 25.539062 804.65625 25.808594 804.550781 26.066406 C 804.445312 26.324219 804.289062 26.554688 804.09375 26.753906 C 803.894531 26.949219 803.667969 27.101562 803.40625 27.210938 C 803.148438 27.316406 802.878906 27.371094 802.597656 27.371094 C 802.320312 27.371094 802.050781 27.316406 801.789062 27.210938 C 801.53125 27.101562 801.304688 26.949219 801.105469 26.753906 C 800.90625 26.554688 800.753906 26.324219 800.648438 26.066406 C 800.539062 25.808594 800.488281 25.539062 800.488281 25.257812 C 800.488281 24.980469 800.539062 24.710938 800.648438 24.449219 C 800.753906 24.191406 800.90625 23.964844 801.105469 23.765625 C 801.304688 23.566406 801.53125 23.414062 801.789062 23.308594 C 802.050781 23.199219 802.320312 23.148438 802.597656 23.148438 C 802.878906 23.148438 803.148438 23.199219 803.40625 23.308594 C 803.667969 23.414062 803.894531 23.566406 804.09375 23.765625 C 804.289062 23.964844 804.445312 24.191406 804.550781 24.449219 C 804.65625 24.710938 804.710938 24.980469 804.710938 25.257812 Z M 804.710938 25.257812 " fill-opacity="1" fill-rule="nonzero"/><path fill="#3a3b3e" d="M 798.796875 38.777344 C 798.796875 39.054688 798.742188 39.324219 798.636719 39.585938 C 798.53125 39.84375 798.375 40.070312 798.179688 40.269531 C 797.980469 40.46875 797.753906 40.621094 797.492188 40.726562 C 797.234375 40.835938 796.964844 40.886719 796.683594 40.886719 C 796.40625 40.886719 796.136719 40.835938 795.878906 40.726562 C 795.617188 40.621094 795.390625 40.46875 795.191406 40.269531 C 794.992188 40.070312 794.839844 39.84375 794.734375 39.585938 C 794.625 39.324219 794.574219 39.054688 794.574219 38.777344 C 794.574219 38.496094 794.625 38.226562 794.734375 37.96875 C 794.839844 37.710938 794.992188 37.480469 795.191406 37.28125 C 795.390625 37.085938 795.617188 36.933594 795.878906 36.824219 C 796.136719 36.71875 796.40625 36.664062 796.683594 36.664062 C 796.964844 36.664062 797.234375 36.71875 797.492188 36.824219 C 797.753906 36.933594 797.980469 37.085938 798.179688 37.28125 C 798.375 37.480469 798.53125 37.710938 798.636719 37.96875 C 798.742188 38.226562 798.796875 38.496094 798.796875 38.777344 Z M 798.796875 38.777344 " fill-opacity="1" fill-rule="nonzero"/><path fill="#3a3b3e" d="M 763.3125 25.257812 C 763.3125 25.539062 763.261719 25.808594 763.152344 26.066406 C 763.046875 26.324219 762.894531 26.554688 762.695312 26.753906 C 762.496094 26.949219 762.269531 27.101562 762.007812 27.210938 C 761.75 27.316406 761.480469 27.371094 761.203125 27.371094 C 760.921875 27.371094 760.652344 27.316406 760.394531 27.210938 C 760.132812 27.101562 759.90625 26.949219 759.707031 26.753906 C 759.511719 26.554688 759.355469 26.324219 759.25 26.066406 C 759.144531 25.808594 759.089844 25.539062 759.089844 25.257812 C 759.089844 24.980469 759.144531 24.710938 759.25 24.449219 C 759.355469 24.191406 759.511719 23.964844 759.707031 23.765625 C 759.90625 23.566406 760.132812 23.414062 760.394531 23.308594 C 760.652344 23.199219 760.921875 23.148438 761.203125 23.148438 C 761.480469 23.148438 761.75 23.199219 762.007812 23.308594 C 762.269531 23.414062 762.496094 23.566406 762.695312 23.765625 C 762.894531 23.964844 763.046875 24.191406 763.152344 24.449219 C 763.261719 24.710938 763.3125 24.980469 763.3125 25.257812 Z M 763.3125 25.257812 " fill-opacity="1" fill-rule="nonzero"/><path fill="#3a3b3e" d="M 763.3125 32.015625 C 763.3125 32.296875 763.261719 32.566406 763.152344 32.824219 C 763.046875 33.085938 762.894531 33.3125 762.695312 33.511719 C 762.496094 33.710938 762.269531 33.863281 762.007812 33.96875 C 761.75 34.074219 761.480469 34.128906 761.203125 34.128906 C 760.921875 34.128906 760.652344 34.074219 760.394531 33.96875 C 760.132812 33.863281 759.90625 33.710938 759.707031 33.511719 C 759.511719 33.3125 759.355469 33.085938 759.25 32.824219 C 759.144531 32.566406 759.089844 32.296875 759.089844 32.015625 C 759.089844 31.738281 759.144531 31.46875 759.25 31.210938 C 759.355469 30.949219 759.511719 30.722656 759.707031 30.523438 C 759.90625 30.324219 760.132812 30.171875 760.394531 30.066406 C 760.652344 29.960938 760.921875 29.90625 761.203125 29.90625 C 761.480469 29.90625 761.75 29.960938 762.007812 30.066406 C 762.269531 30.171875 762.496094 30.324219 762.695312 30.523438 C 762.894531 30.722656 763.046875 30.949219 763.152344 31.210938 C 763.261719 31.46875 763.3125 31.738281 763.3125 32.015625 Z M 763.3125 32.015625 " fill-opacity="1" fill-rule="nonzero"/><path fill="#3a3b3e" d="M 773.875 25.257812 C 773.875 25.539062 773.820312 25.808594 773.714844 26.066406 C 773.605469 26.324219 773.453125 26.554688 773.253906 26.753906 C 773.058594 26.949219 772.828125 27.101562 772.570312 27.210938 C 772.3125 27.316406 772.042969 27.371094 771.761719 27.371094 C 771.480469 27.371094 771.210938 27.316406 770.953125 27.210938 C 770.695312 27.101562 770.464844 26.949219 770.269531 26.753906 C 770.070312 26.554688 769.917969 26.324219 769.8125 26.066406 C 769.703125 25.808594 769.648438 25.539062 769.648438 25.257812 C 769.648438 24.980469 769.703125 24.710938 769.8125 24.449219 C 769.917969 24.191406 770.070312 23.964844 770.269531 23.765625 C 770.464844 23.566406 770.695312 23.414062 770.953125 23.308594 C 771.210938 23.199219 771.480469 23.148438 771.761719 23.148438 C 772.042969 23.148438 772.3125 23.199219 772.570312 23.308594 C 772.828125 23.414062 773.058594 23.566406 773.253906 23.765625 C 773.453125 23.964844 773.605469 24.191406 773.714844 24.449219 C 773.820312 24.710938 773.875 24.980469 773.875 25.257812 Z M 773.875 25.257812 " fill-opacity="1" fill-rule="nonzero"/><path fill="#3a3b3e" d="M 773.875 32.015625 C 773.875 32.296875 773.820312 32.566406 773.714844 32.824219 C 773.605469 33.085938 773.453125 33.3125 773.253906 33.511719 C 773.058594 33.710938 772.828125 33.863281 772.570312 33.96875 C 772.3125 34.074219 772.042969 34.128906 771.761719 34.128906 C 771.480469 34.128906 771.210938 34.074219 770.953125 33.96875 C 770.695312 33.863281 770.464844 33.710938 770.269531 33.511719 C 770.070312 33.3125 769.917969 33.085938 769.8125 32.824219 C 769.703125 32.566406 769.648438 32.296875 769.648438 32.015625 C 769.648438 31.738281 769.703125 31.46875 769.8125 31.210938 C 769.917969 30.949219 770.070312 30.722656 770.269531 30.523438 C 770.464844 30.324219 770.695312 30.171875 770.953125 30.066406 C 771.210938 29.960938 771.480469 29.90625 771.761719 29.90625 C 772.042969 29.90625 772.3125 29.960938 772.570312 30.066406 C 772.828125 30.171875 773.058594 30.324219 773.253906 30.523438 C 773.453125 30.722656 773.605469 30.949219 773.714844 31.210938 C 773.820312 31.46875 773.875 31.738281 773.875 32.015625 Z M 773.875 32.015625 " fill-opacity="1" fill-rule="nonzero"/><path fill="#3a3b3e" d="M 773.875 38.777344 C 773.875 39.054688 773.820312 39.324219 773.714844 39.585938 C 773.605469 39.84375 773.453125 40.070312 773.253906 40.269531 C 773.058594 40.46875 772.828125 40.621094 772.570312 40.726562 C 772.3125 40.835938 772.042969 40.886719 771.761719 40.886719 C 771.480469 40.886719 771.210938 40.835938 770.953125 40.726562 C 770.695312 40.621094 770.464844 40.46875 770.269531 40.269531 C 770.070312 40.070312 769.917969 39.84375 769.8125 39.585938 C 769.703125 39.324219 769.648438 39.054688 769.648438 38.777344 C 769.648438 38.496094 769.703125 38.226562 769.8125 37.96875 C 769.917969 37.710938 770.070312 37.480469 770.269531 37.28125 C 770.464844 37.085938 770.695312 36.933594 770.953125 36.824219 C 771.210938 36.71875 771.480469 36.664062 771.761719 36.664062 C 772.042969 36.664062 772.3125 36.71875 772.570312 36.824219 C 772.828125 36.933594 773.058594 37.085938 773.253906 37.28125 C 773.453125 37.480469 773.605469 37.710938 773.714844 37.96875 C 773.820312 38.226562 773.875 38.496094 773.875 38.777344 Z M 773.875 38.777344 " fill-opacity="1" fill-rule="nonzero"/><path fill="#3a3b3e" d="M 779.367188 32.015625 C 779.367188 32.296875 779.3125 32.566406 779.203125 32.824219 C 779.097656 33.085938 778.945312 33.3125 778.746094 33.511719 C 778.550781 33.710938 778.320312 33.863281 778.0625 33.96875 C 777.804688 34.074219 777.535156 34.128906 777.253906 34.128906 C 776.972656 34.128906 776.703125 34.074219 776.445312 33.96875 C 776.1875 33.863281 775.957031 33.710938 775.761719 33.511719 C 775.5625 33.3125 775.410156 33.085938 775.300781 32.824219 C 775.195312 32.566406 775.140625 32.296875 775.140625 32.015625 C 775.140625 31.738281 775.195312 31.46875 775.300781 31.210938 C 775.410156 30.949219 775.5625 30.722656 775.761719 30.523438 C 775.957031 30.324219 776.1875 30.171875 776.445312 30.066406 C 776.703125 29.960938 776.972656 29.90625 777.253906 29.90625 C 777.535156 29.90625 777.804688 29.960938 778.0625 30.066406 C 778.320312 30.171875 778.550781 30.324219 778.746094 30.523438 C 778.945312 30.722656 779.097656 30.949219 779.203125 31.210938 C 779.3125 31.46875 779.367188 31.738281 779.367188 32.015625 Z M 779.367188 32.015625 " fill-opacity="1" fill-rule="nonzero"/><path fill="#ffffff" d="M 96.996094 61.351562 L 93.367188 59.253906 C 92.859375 58.964844 92.226562 59.328125 92.226562 59.914062 L 92.226562 64.105469 C 92.226562 64.691406 92.859375 65.058594 93.367188 64.765625 L 96.996094 62.667969 C 97.503906 62.378906 97.503906 61.640625 96.996094 61.351562 Z M 96.996094 61.351562 " fill-opacity="1" fill-rule="nonzero"/><path fill="#3a3b3e" d="M 97.101562 50.296875 C 97.421875 50.296875 97.71875 50.199219 97.988281 50 C 98.261719 49.800781 98.460938 49.527344 98.597656 49.167969 L 100.058594 45.730469 L 108.46875 45.730469 L 109.9375 49.144531 C 110.085938 49.5 110.300781 49.78125 110.570312 49.988281 C 110.839844 50.195312 111.148438 50.296875 111.484375 50.296875 C 111.878906 50.296875 112.242188 50.144531 112.570312 49.84375 C 112.902344 49.542969 113.066406 49.136719 113.066406 48.632812 C 113.066406 48.425781 113.019531 48.199219 112.925781 47.957031 L 105.992188 31.429688 C 105.859375 31.074219 105.648438 30.796875 105.355469 30.597656 C 105.066406 30.398438 104.75 30.300781 104.410156 30.300781 C 104.050781 30.265625 103.71875 30.347656 103.410156 30.554688 C 103.101562 30.761719 102.867188 31.054688 102.714844 31.429688 L 95.695312 48.292969 C 95.640625 48.484375 95.609375 48.660156 95.609375 48.832031 C 95.609375 49.246094 95.734375 49.589844 95.980469 49.875 C 96.222656 50.15625 96.601562 50.296875 97.105469 50.296875 Z M 104.246094 35.886719 L 107.074219 42.484375 L 101.4375 42.484375 L 104.242188 35.886719 Z M 104.246094 35.886719 " fill-opacity="1" fill-rule="nonzero"/><path fill="#3a3b3e" d="M 116.332031 50.15625 L 123.074219 50.15625 C 124.898438 50.15625 126.429688 49.71875 127.683594 48.832031 C 128.933594 47.949219 129.886719 46.757812 130.546875 45.265625 C 131.203125 43.769531 131.535156 42.113281 131.535156 40.289062 C 131.535156 38.9375 131.351562 37.660156 130.984375 36.46875 C 130.617188 35.277344 130.074219 34.222656 129.351562 33.308594 C 128.628906 32.398438 127.738281 31.6875 126.683594 31.179688 C 125.632812 30.675781 124.429688 30.421875 123.078125 30.421875 L 116.335938 30.421875 C 115.84375 30.421875 115.4375 30.585938 115.109375 30.914062 C 114.785156 31.246094 114.617188 31.652344 114.617188 32.140625 L 114.617188 48.4375 C 114.617188 48.925781 114.78125 49.335938 115.109375 49.664062 C 115.441406 49.992188 115.851562 50.15625 116.335938 50.15625 Z M 118.136719 33.660156 L 122.789062 33.660156 C 123.671875 33.660156 124.433594 33.839844 125.074219 34.199219 C 125.714844 34.554688 126.242188 35.039062 126.65625 35.652344 C 127.070312 36.261719 127.375 36.96875 127.570312 37.765625 C 127.769531 38.566406 127.867188 39.40625 127.867188 40.289062 C 127.867188 41.472656 127.695312 42.570312 127.347656 43.574219 C 127 44.582031 126.449219 45.386719 125.695312 46 C 124.945312 46.613281 123.976562 46.917969 122.789062 46.917969 L 118.136719 46.917969 Z M 118.136719 33.660156 " fill-opacity="1" fill-rule="nonzero"/><g clip-path="url(#637aaf8ee1)"><path fill="#3a3b3e" d="M 140.523438 57.363281 L 91.523438 57.363281 C 90.125 57.363281 88.988281 58.5 88.988281 59.898438 L 88.988281 64.121094 C 88.988281 65.519531 90.125 66.65625 91.523438 66.65625 L 140.523438 66.65625 C 141.921875 66.65625 143.058594 65.519531 143.058594 64.121094 L 143.058594 59.898438 C 143.058594 58.5 141.921875 57.363281 140.523438 57.363281 Z M 96.996094 62.667969 L 93.367188 64.765625 C 92.859375 65.058594 92.226562 64.691406 92.226562 64.105469 L 92.226562 59.914062 C 92.226562 59.328125 92.859375 58.960938 93.367188 59.253906 L 96.996094 61.351562 C 97.503906 61.640625 97.503906 62.378906 96.996094 62.667969 Z M 138.835938 62.855469 L 129.011719 62.855469 C 128.632812 64.3125 127.308594 65.390625 125.738281 65.390625 C 124.167969 65.390625 122.84375 64.3125 122.464844 62.855469 L 102.503906 62.855469 C 102.039062 62.855469 101.660156 62.472656 101.660156 62.011719 C 101.660156 61.546875 102.039062 61.164062 102.503906 61.164062 L 122.464844 61.164062 C 122.84375 59.707031 124.167969 58.628906 125.738281 58.628906 C 127.308594 58.628906 128.632812 59.707031 129.011719 61.164062 L 138.835938 61.164062 C 139.296875 61.164062 139.679688 61.546875 139.679688 62.011719 C 139.679688 62.472656 139.296875 62.855469 138.835938 62.855469 Z M 138.835938 62.855469 " fill-opacity="1" fill-rule="nonzero"/></g><path fill="#7ec28a" d="M 138.835938 61.164062 L 129.011719 61.164062 C 128.632812 59.707031 127.308594 58.628906 125.738281 58.628906 C 124.167969 58.628906 122.84375 59.707031 122.464844 61.164062 C 122.398438 61.433594 122.359375 61.71875 122.359375 62.011719 C 122.359375 62.300781 122.398438 62.585938 122.464844 62.855469 C 122.84375 64.3125 124.167969 65.390625 125.738281 65.390625 C 127.308594 65.390625 128.632812 64.3125 129.011719 62.855469 L 138.835938 62.855469 C 139.296875 62.855469 139.679688 62.472656 139.679688 62.011719 C 139.679688 61.546875 139.296875 61.164062 138.835938 61.164062 Z M 127.199219 62.855469 C 126.910156 63.363281 126.363281 63.699219 125.738281 63.699219 C 125.113281 63.699219 124.570312 63.363281 124.277344 62.855469 C 124.132812 62.605469 124.050781 62.316406 124.050781 62.011719 C 124.050781 61.703125 124.132812 61.414062 124.277344 61.164062 C 124.570312 60.65625 125.113281 60.320312 125.738281 60.320312 C 126.363281 60.320312 126.910156 60.65625 127.199219 61.164062 C 127.34375 61.414062 127.429688 61.703125 127.429688 62.011719 C 127.429688 62.316406 127.34375 62.605469 127.199219 62.855469 Z M 127.199219 62.855469 " fill-opacity="1" fill-rule="nonzero"/><path fill="#7ec28a" d="M 127.289062 27.648438 C 130.023438 28.082031 132.152344 30.210938 132.582031 32.941406 C 132.648438 33.359375 133.007812 33.65625 133.414062 33.65625 C 133.457031 33.65625 133.503906 33.65625 133.550781 33.648438 C 134.011719 33.578125 134.328125 33.140625 134.25 32.679688 C 133.703125 29.222656 131.011719 26.53125 127.550781 25.980469 C 127.09375 25.910156 126.65625 26.222656 126.582031 26.683594 C 126.511719 27.144531 126.824219 27.578125 127.285156 27.648438 Z M 127.289062 27.648438 " fill-opacity="1" fill-rule="nonzero"/><path fill="#7ec28a" d="M 128.347656 24.421875 C 132.210938 25.035156 135.21875 28.039062 135.832031 31.902344 C 135.898438 32.320312 136.257812 32.617188 136.664062 32.617188 C 136.703125 32.617188 136.75 32.617188 136.796875 32.609375 C 137.257812 32.539062 137.574219 32.101562 137.5 31.640625 C 136.773438 27.054688 133.203125 23.480469 128.609375 22.753906 C 128.15625 22.683594 127.714844 22.996094 127.644531 23.453125 C 127.570312 23.914062 127.882812 24.351562 128.34375 24.421875 Z M 128.347656 24.421875 " fill-opacity="1" fill-rule="nonzero"/><path fill="#7ec28a" d="M 140.933594 30.792969 C 139.992188 24.855469 135.371094 20.234375 129.433594 19.292969 C 128.980469 19.222656 128.539062 19.535156 128.46875 19.996094 C 128.394531 20.457031 128.707031 20.890625 129.167969 20.960938 C 134.382812 21.785156 138.4375 25.847656 139.261719 31.054688 C 139.328125 31.472656 139.6875 31.769531 140.09375 31.769531 C 140.136719 31.769531 140.179688 31.769531 140.226562 31.761719 C 140.6875 31.6875 141.003906 31.253906 140.929688 30.792969 Z M 140.933594 30.792969 " fill-opacity="1" fill-rule="nonzero"/><g clip-path="url(#ad9ff36272)"><g clip-path="url(#e92adacb6c)"><path fill="#ffffff" d="M 414.515625 105.15625 L 484.105469 105.15625 L 484.105469 174.746094 L 414.515625 174.746094 Z M 414.515625 105.15625 " fill-opacity="1" fill-rule="nonzero"/></g></g><path fill="#3a3b3e" d="M 451.21875 118.1875 C 451.519531 118.3125 451.808594 118.46875 452.078125 118.648438 C 452.351562 118.832031 452.605469 119.039062 452.835938 119.269531 C 453.066406 119.5 453.273438 119.753906 453.457031 120.023438 C 453.636719 120.296875 453.792969 120.585938 453.917969 120.886719 C 454.042969 121.191406 454.136719 121.5 454.199219 121.824219 C 454.265625 122.144531 454.296875 122.46875 454.296875 122.796875 C 454.296875 123.125 454.265625 123.449219 454.199219 123.769531 C 454.136719 124.089844 454.042969 124.402344 453.917969 124.703125 C 453.792969 125.007812 453.636719 125.292969 453.457031 125.566406 C 453.273438 125.839844 453.066406 126.089844 452.835938 126.324219 C 452.605469 126.554688 452.351562 126.761719 452.078125 126.941406 C 451.808594 127.125 451.519531 127.277344 451.21875 127.402344 C 450.914062 127.527344 450.601562 127.625 450.28125 127.6875 C 449.960938 127.75 449.636719 127.78125 449.308594 127.78125 C 448.980469 127.78125 448.65625 127.75 448.335938 127.6875 C 448.015625 127.625 447.703125 127.527344 447.398438 127.402344 C 447.097656 127.277344 446.808594 127.125 446.539062 126.941406 C 446.265625 126.761719 446.015625 126.554688 445.78125 126.324219 C 445.550781 126.089844 445.34375 125.839844 445.164062 125.566406 C 444.980469 125.292969 444.828125 125.007812 444.703125 124.703125 C 444.574219 124.402344 444.480469 124.089844 444.417969 123.769531 C 444.355469 123.449219 444.320312 123.125 444.320312 122.796875 C 444.320312 122.46875 444.355469 122.144531 444.417969 121.824219 C 444.480469 121.5 444.574219 121.191406 444.703125 120.886719 C 444.828125 120.585938 444.980469 120.296875 445.164062 120.023438 C 445.34375 119.753906 445.550781 119.5 445.78125 119.269531 C 446.015625 119.039062 446.265625 118.832031 446.539062 118.648438 C 446.808594 118.46875 447.097656 118.3125 447.398438 118.1875 C 447.703125 118.0625 448.015625 117.96875 448.335938 117.90625 C 448.65625 117.839844 448.980469 117.808594 449.308594 117.808594 C 449.636719 117.808594 449.960938 117.839844 450.28125 117.90625 C 450.601562 117.96875 450.914062 118.0625 451.21875 118.1875 Z M 451.21875 118.1875 " fill-opacity="1" fill-rule="nonzero"/><path fill="#3a3b3e" d="M 466 124.515625 C 465.683594 124.6875 465.371094 124.859375 465.054688 125.027344 C 464.886719 125.117188 464.722656 125.199219 464.554688 125.285156 C 464.386719 125.371094 464.21875 125.457031 464.050781 125.539062 C 463.859375 125.632812 463.664062 125.722656 463.472656 125.8125 C 463.332031 125.878906 463.183594 125.949219 463.042969 126.019531 C 462.835938 126.113281 462.636719 126.203125 462.429688 126.292969 C 462.296875 126.351562 462.167969 126.40625 462.035156 126.464844 C 461.824219 126.554688 461.613281 126.644531 461.402344 126.730469 C 461.277344 126.78125 461.148438 126.828125 461.027344 126.882812 C 460.8125 126.964844 460.601562 127.050781 460.386719 127.128906 C 460.265625 127.175781 460.140625 127.21875 460.019531 127.265625 C 459.804688 127.347656 459.589844 127.421875 459.371094 127.492188 C 459.25 127.535156 459.128906 127.574219 459.015625 127.613281 C 458.796875 127.683594 458.582031 127.757812 458.367188 127.820312 C 458.246094 127.859375 458.125 127.894531 458.007812 127.925781 C 457.792969 127.988281 457.574219 128.050781 457.359375 128.109375 C 457.238281 128.140625 457.121094 128.175781 457 128.207031 C 456.785156 128.261719 456.566406 128.316406 456.351562 128.367188 C 456.230469 128.394531 456.109375 128.421875 455.992188 128.453125 C 455.777344 128.5 455.5625 128.546875 455.34375 128.59375 C 455.222656 128.621094 455.109375 128.644531 454.988281 128.664062 C 454.769531 128.707031 454.554688 128.75 454.339844 128.785156 C 454.222656 128.804688 454.101562 128.824219 453.984375 128.84375 C 453.761719 128.878906 453.546875 128.910156 453.324219 128.945312 C 453.214844 128.960938 453.105469 128.96875 452.988281 128.984375 C 452.761719 129.011719 452.539062 129.042969 452.3125 129.066406 C 452.214844 129.074219 452.109375 129.082031 452.007812 129.089844 C 451.777344 129.113281 451.539062 129.132812 451.308594 129.148438 C 451.234375 129.148438 451.164062 129.15625 451.089844 129.160156 C 449.910156 129.234375 448.722656 129.234375 447.542969 129.160156 C 447.46875 129.160156 447.398438 129.15625 447.328125 129.148438 C 447.09375 129.132812 446.855469 129.113281 446.625 129.089844 C 446.523438 129.082031 446.417969 129.074219 446.320312 129.066406 C 446.097656 129.042969 445.871094 129.011719 445.648438 128.984375 C 445.539062 128.96875 445.421875 128.960938 445.3125 128.945312 C 445.097656 128.910156 444.875 128.878906 444.660156 128.84375 C 444.542969 128.824219 444.421875 128.804688 444.304688 128.785156 C 444.089844 128.75 443.875 128.707031 443.65625 128.664062 C 443.535156 128.644531 443.414062 128.617188 443.292969 128.59375 C 443.078125 128.554688 442.859375 128.507812 442.644531 128.453125 C 442.523438 128.425781 442.402344 128.402344 442.285156 128.367188 C 442.070312 128.316406 441.855469 128.261719 441.636719 128.207031 C 441.515625 128.175781 441.394531 128.140625 441.28125 128.109375 C 441.0625 128.050781 440.847656 127.988281 440.632812 127.925781 C 440.511719 127.890625 440.390625 127.859375 440.273438 127.820312 C 440.058594 127.753906 439.839844 127.683594 439.625 127.613281 C 439.503906 127.574219 439.382812 127.535156 439.261719 127.492188 C 439.042969 127.421875 438.828125 127.347656 438.613281 127.265625 C 438.492188 127.226562 438.371094 127.175781 438.242188 127.128906 C 438.027344 127.050781 437.816406 126.964844 437.601562 126.882812 C 437.472656 126.835938 437.351562 126.78125 437.226562 126.730469 C 437.015625 126.644531 436.804688 126.554688 436.59375 126.464844 C 436.460938 126.40625 436.328125 126.351562 436.199219 126.292969 C 435.992188 126.203125 435.792969 126.113281 435.585938 126.019531 C 435.445312 125.949219 435.296875 125.878906 435.152344 125.8125 C 434.964844 125.722656 434.769531 125.628906 434.578125 125.53125 C 434.414062 125.449219 434.246094 125.363281 434.078125 125.28125 C 433.910156 125.195312 433.742188 125.105469 433.574219 125.019531 C 433.257812 124.859375 432.945312 124.6875 432.628906 124.511719 C 431.609375 123.941406 430.324219 124.304688 429.761719 125.320312 C 429.191406 126.339844 429.558594 127.625 430.574219 128.191406 C 430.878906 128.359375 431.183594 128.523438 431.488281 128.683594 C 431.539062 128.710938 431.578125 128.734375 431.628906 128.757812 C 431.785156 128.84375 431.941406 128.921875 432.101562 129 C 432.324219 129.117188 432.550781 129.226562 432.769531 129.339844 C 432.929688 129.417969 433.085938 129.492188 433.246094 129.566406 C 433.46875 129.671875 433.695312 129.777344 433.914062 129.882812 C 434.074219 129.957031 434.230469 130.023438 434.394531 130.09375 C 434.617188 130.191406 434.835938 130.289062 435.058594 130.382812 C 435.222656 130.453125 435.378906 130.515625 435.542969 130.582031 C 435.765625 130.671875 435.980469 130.761719 436.203125 130.847656 C 436.367188 130.910156 436.535156 130.972656 436.699219 131.035156 C 436.914062 131.117188 437.128906 131.195312 437.347656 131.273438 C 437.515625 131.332031 437.683594 131.390625 437.851562 131.449219 C 438.0625 131.523438 438.273438 131.589844 438.484375 131.660156 C 438.660156 131.714844 438.832031 131.769531 439.007812 131.820312 C 439.214844 131.886719 439.417969 131.941406 439.625 132.007812 C 439.804688 132.058594 439.976562 132.105469 440.15625 132.152344 C 440.355469 132.207031 440.5625 132.257812 440.761719 132.3125 C 440.941406 132.359375 441.125 132.402344 441.304688 132.449219 C 441.5 132.496094 441.703125 132.539062 441.898438 132.582031 C 442.082031 132.625 442.269531 132.664062 442.457031 132.703125 C 442.644531 132.738281 442.839844 132.777344 443.03125 132.8125 C 443.113281 132.828125 443.203125 132.84375 443.289062 132.859375 L 444.046875 140.832031 L 444.046875 143.246094 L 437.875 160.652344 C 437.375 162.066406 438.113281 163.617188 439.523438 164.117188 C 439.824219 164.222656 440.128906 164.277344 440.429688 164.277344 C 441.546875 164.277344 442.59375 163.578125 442.988281 162.46875 L 448.539062 146.800781 L 450.089844 146.800781 L 455.640625 162.46875 C 456.035156 163.578125 457.078125 164.277344 458.195312 164.277344 C 458.496094 164.277344 458.804688 164.222656 459.105469 164.117188 C 460.515625 163.617188 461.253906 162.066406 460.753906 160.652344 L 454.585938 143.246094 L 454.585938 140.832031 L 455.34375 132.859375 C 455.433594 132.84375 455.519531 132.828125 455.609375 132.8125 C 455.796875 132.777344 455.988281 132.746094 456.179688 132.703125 C 456.367188 132.664062 456.558594 132.625 456.746094 132.582031 C 456.941406 132.539062 457.136719 132.496094 457.332031 132.449219 C 457.515625 132.40625 457.703125 132.359375 457.886719 132.3125 C 458.085938 132.257812 458.285156 132.210938 458.488281 132.152344 C 458.667969 132.105469 458.84375 132.054688 459.023438 132 C 459.230469 131.941406 459.4375 131.878906 459.640625 131.820312 C 459.816406 131.769531 459.988281 131.710938 460.167969 131.660156 C 460.378906 131.589844 460.585938 131.523438 460.796875 131.453125 C 460.964844 131.394531 461.140625 131.335938 461.308594 131.273438 C 461.523438 131.199219 461.734375 131.121094 461.949219 131.042969 C 462.121094 130.976562 462.28125 130.914062 462.453125 130.851562 C 462.667969 130.769531 462.890625 130.679688 463.105469 130.589844 C 463.269531 130.519531 463.425781 130.457031 463.589844 130.386719 C 463.8125 130.292969 464.03125 130.199219 464.257812 130.097656 C 464.417969 130.03125 464.574219 129.957031 464.734375 129.886719 C 464.960938 129.785156 465.183594 129.675781 465.410156 129.570312 C 465.566406 129.496094 465.726562 129.421875 465.878906 129.34375 C 466.105469 129.234375 466.328125 129.117188 466.554688 129 C 466.710938 128.921875 466.871094 128.84375 467.023438 128.757812 C 467.070312 128.734375 467.113281 128.710938 467.160156 128.691406 C 467.464844 128.527344 467.769531 128.363281 468.078125 128.195312 C 469.09375 127.625 469.457031 126.34375 468.886719 125.328125 C 468.320312 124.308594 467.039062 123.945312 466.019531 124.515625 Z M 466 124.515625 " fill-opacity="1" fill-rule="nonzero"/><g clip-path="url(#b38ce6501f)"><path fill="#3a3b3e" d="M 449.308594 106.210938 C 430.671875 106.210938 415.570312 121.316406 415.570312 139.953125 C 415.570312 158.585938 430.671875 173.691406 449.308594 173.691406 C 467.945312 173.691406 483.046875 158.585938 483.046875 139.953125 C 483.046875 121.316406 467.945312 106.210938 449.308594 106.210938 Z M 449.308594 171.582031 C 431.871094 171.582031 417.675781 157.390625 417.675781 139.953125 C 417.675781 122.511719 431.871094 108.320312 449.308594 108.320312 C 466.75 108.320312 480.941406 122.511719 480.941406 139.953125 C 480.941406 157.390625 466.75 171.582031 449.308594 171.582031 Z M 449.308594 171.582031 " fill-opacity="1" fill-rule="nonzero"/></g><path fill="#7ec28a" d="M 449.308594 112.011719 C 464.714844 112.011719 477.25 124.546875 477.25 139.953125 C 477.25 155.355469 464.714844 167.890625 449.308594 167.890625 C 433.90625 167.890625 421.367188 155.355469 421.367188 139.953125 C 421.367188 124.546875 433.90625 112.011719 449.308594 112.011719 M 449.308594 109.902344 C 432.714844 109.902344 419.257812 123.355469 419.257812 139.953125 C 419.257812 156.546875 432.714844 170 449.308594 170 C 465.90625 170 479.359375 156.546875 479.359375 139.953125 C 479.359375 123.355469 465.90625 109.902344 449.308594 109.902344 Z M 449.308594 109.902344 " fill-opacity="1" fill-rule="nonzero"/><g clip-path="url(#ad583d9f0b)"><path fill="#7ec28a" d="M 181.402344 133.710938 C 181.304688 133.539062 181.277344 133.359375 181.328125 133.167969 C 181.378906 132.976562 181.492188 132.828125 181.664062 132.730469 C 181.835938 132.632812 182.019531 132.609375 182.210938 132.660156 C 182.402344 132.714844 182.546875 132.828125 182.640625 133 L 184.519531 136.246094 C 184.617188 136.414062 184.640625 136.597656 184.585938 136.789062 C 184.535156 136.976562 184.425781 137.121094 184.253906 137.222656 C 184.082031 137.320312 183.902344 137.34375 183.710938 137.292969 C 183.519531 137.238281 183.375 137.128906 183.277344 136.957031 Z M 177.894531 137.746094 C 177.722656 137.648438 177.613281 137.503906 177.5625 137.3125 C 177.511719 137.125 177.535156 136.941406 177.632812 136.773438 C 177.730469 136.601562 177.875 136.488281 178.066406 136.4375 C 178.253906 136.386719 178.4375 136.410156 178.605469 136.507812 L 181.851562 138.382812 C 182.023438 138.480469 182.136719 138.625 182.1875 138.816406 C 182.242188 139.007812 182.21875 139.191406 182.117188 139.363281 C 182.019531 139.535156 181.875 139.644531 181.683594 139.695312 C 181.492188 139.746094 181.3125 139.722656 181.140625 139.621094 Z M 176.871094 143 C 176.671875 143 176.5 142.929688 176.363281 142.789062 C 176.222656 142.648438 176.152344 142.480469 176.152344 142.28125 C 176.152344 142.085938 176.222656 141.914062 176.363281 141.773438 C 176.5 141.636719 176.671875 141.566406 176.871094 141.566406 L 180.617188 141.566406 C 180.8125 141.566406 180.984375 141.636719 181.125 141.773438 C 181.261719 141.914062 181.332031 142.085938 181.332031 142.28125 C 181.332031 142.480469 181.261719 142.648438 181.125 142.789062 C 180.984375 142.929688 180.8125 143 180.617188 143 Z M 178.609375 148.058594 C 178.4375 148.15625 178.257812 148.179688 178.066406 148.128906 C 177.875 148.074219 177.730469 147.964844 177.632812 147.792969 C 177.535156 147.621094 177.511719 147.441406 177.558594 147.25 C 177.609375 147.058594 177.722656 146.914062 177.890625 146.816406 L 181.136719 144.941406 C 181.308594 144.84375 181.488281 144.820312 181.679688 144.871094 C 181.871094 144.921875 182.015625 145.03125 182.113281 145.203125 C 182.214844 145.375 182.238281 145.554688 182.1875 145.746094 C 182.136719 145.9375 182.027344 146.082031 181.855469 146.183594 Z M 182.640625 151.566406 C 182.542969 151.734375 182.398438 151.84375 182.210938 151.894531 C 182.019531 151.945312 181.839844 151.921875 181.671875 151.824219 C 181.5 151.726562 181.390625 151.582031 181.339844 151.394531 C 181.285156 151.203125 181.308594 151.023438 181.402344 150.855469 L 183.277344 147.605469 C 183.375 147.433594 183.519531 147.324219 183.710938 147.273438 C 183.902344 147.21875 184.082031 147.242188 184.253906 147.34375 C 184.425781 147.441406 184.535156 147.585938 184.585938 147.777344 C 184.640625 147.964844 184.617188 148.148438 184.519531 148.320312 Z M 197.484375 141.566406 C 197.683594 141.566406 197.851562 141.636719 197.988281 141.777344 C 198.128906 141.917969 198.199219 142.085938 198.199219 142.28125 C 198.199219 142.480469 198.128906 142.648438 197.988281 142.789062 C 197.851562 142.929688 197.683594 143 197.484375 143 L 193.738281 143 C 193.539062 143 193.371094 142.929688 193.230469 142.789062 C 193.089844 142.648438 193.023438 142.480469 193.023438 142.28125 C 193.023438 142.085938 193.089844 141.917969 193.230469 141.777344 C 193.371094 141.636719 193.539062 141.566406 193.738281 141.566406 Z M 195.742188 136.507812 C 195.914062 136.40625 196.097656 136.382812 196.289062 136.433594 C 196.480469 136.484375 196.625 136.59375 196.726562 136.765625 C 196.824219 136.9375 196.847656 137.121094 196.796875 137.3125 C 196.746094 137.503906 196.632812 137.648438 196.460938 137.746094 L 193.214844 139.621094 C 193.046875 139.722656 192.863281 139.746094 192.671875 139.695312 C 192.480469 139.644531 192.335938 139.535156 192.238281 139.363281 C 192.136719 139.191406 192.113281 139.011719 192.164062 138.820312 C 192.214844 138.628906 192.328125 138.484375 192.5 138.382812 Z M 191.710938 133 C 191.808594 132.828125 191.953125 132.714844 192.144531 132.660156 C 192.335938 132.609375 192.515625 132.632812 192.691406 132.730469 C 192.863281 132.828125 192.972656 132.976562 193.023438 133.167969 C 193.074219 133.359375 193.050781 133.539062 192.949219 133.710938 L 191.078125 136.957031 C 190.976562 137.128906 190.832031 137.238281 190.644531 137.292969 C 190.453125 137.34375 190.269531 137.320312 190.101562 137.222656 C 189.929688 137.121094 189.816406 136.976562 189.765625 136.789062 C 189.714844 136.597656 189.738281 136.414062 189.835938 136.246094 Z M 186.460938 131.976562 C 186.460938 131.777344 186.53125 131.609375 186.667969 131.46875 C 186.808594 131.328125 186.980469 131.261719 187.175781 131.261719 C 187.375 131.261719 187.542969 131.328125 187.683594 131.46875 C 187.824219 131.609375 187.894531 131.777344 187.894531 131.976562 L 187.894531 135.722656 C 187.894531 135.921875 187.824219 136.089844 187.683594 136.230469 C 187.542969 136.371094 187.375 136.441406 187.175781 136.441406 C 186.980469 136.441406 186.808594 136.371094 186.667969 136.230469 C 186.53125 136.089844 186.460938 135.921875 186.460938 135.722656 Z M 186.460938 131.976562 " fill-opacity="1" fill-rule="nonzero"/></g><path fill="#3a3b3e" d="M 198.988281 169.5625 L 184.640625 144.714844 C 184.410156 144.320312 184.265625 143.902344 184.207031 143.449219 C 184.144531 143 184.175781 142.558594 184.289062 142.117188 C 184.40625 141.679688 184.601562 141.28125 184.878906 140.921875 C 185.15625 140.5625 185.488281 140.265625 185.882812 140.039062 C 186.273438 139.8125 186.695312 139.671875 187.144531 139.613281 C 187.597656 139.554688 188.039062 139.582031 188.476562 139.699219 C 188.914062 139.820312 189.316406 140.015625 189.671875 140.292969 C 190.03125 140.570312 190.324219 140.90625 190.550781 141.300781 L 197.957031 154.128906 C 197.734375 153.734375 197.589844 153.316406 197.53125 152.867188 C 197.472656 152.417969 197.5 151.976562 197.617188 151.539062 C 197.734375 151.101562 197.933594 150.703125 198.207031 150.34375 C 198.484375 149.984375 198.816406 149.695312 199.207031 149.46875 C 199.601562 149.242188 200.019531 149.097656 200.46875 149.039062 C 200.917969 148.980469 201.359375 149.007812 201.796875 149.125 C 202.234375 149.242188 202.632812 149.4375 202.992188 149.714844 C 203.351562 149.988281 203.644531 150.324219 203.867188 150.714844 L 205.390625 153.347656 C 205.164062 152.957031 205.019531 152.535156 204.960938 152.085938 C 204.902344 151.636719 204.933594 151.195312 205.050781 150.757812 C 205.167969 150.320312 205.363281 149.921875 205.640625 149.5625 C 205.914062 149.207031 206.25 148.914062 206.640625 148.6875 C 207.03125 148.460938 207.453125 148.316406 207.902344 148.257812 C 208.351562 148.199219 208.792969 148.226562 209.230469 148.34375 C 209.667969 148.460938 210.066406 148.660156 210.425781 148.933594 C 210.785156 149.210938 211.078125 149.542969 211.304688 149.933594 L 213.066406 152.988281 C 212.839844 152.59375 212.699219 152.175781 212.640625 151.726562 C 212.582031 151.277344 212.609375 150.835938 212.726562 150.398438 C 212.84375 149.960938 213.039062 149.5625 213.3125 149.203125 C 213.589844 148.84375 213.921875 148.550781 214.3125 148.324219 C 215.9375 147.386719 218.089844 147.917969 218.976562 149.574219 C 232.292969 174.402344 216.113281 186.6875 203.277344 182.109375 C 200.480469 181.109375 191.871094 175.15625 188.53125 174.324219 C 183.800781 173.148438 186.355469 166.179688 191.746094 167.625 Z M 198.988281 169.5625 " fill-opacity="1" fill-rule="evenodd"/><path fill="#bef3d6" d="M 213.691406 148.785156 C 215.183594 148.332031 216.875 148.921875 217.640625 150.34375 C 226.117188 166.15625 222.636719 176.878906 215.679688 181.402344 C 223.496094 177.417969 227.980469 166.363281 218.976562 149.574219 C 218.089844 147.921875 215.9375 147.386719 214.3125 148.324219 C 214.085938 148.453125 213.878906 148.609375 213.691406 148.785156 Z M 213.691406 148.785156 " fill-opacity="1" fill-rule="evenodd"/><path fill="#bef3d6" d="M 211.304688 149.933594 C 211.074219 149.542969 210.78125 149.210938 210.421875 148.9375 C 210.0625 148.664062 209.664062 148.464844 209.230469 148.351562 C 208.792969 148.234375 208.347656 148.203125 207.902344 148.261719 C 207.453125 148.320312 207.03125 148.460938 206.640625 148.6875 C 206.414062 148.816406 206.207031 148.972656 206.015625 149.148438 C 206.382812 149.039062 206.761719 148.992188 207.144531 149.007812 C 207.53125 149.023438 207.902344 149.101562 208.261719 149.242188 C 208.621094 149.382812 208.945312 149.582031 209.238281 149.832031 C 209.53125 150.082031 209.773438 150.375 209.964844 150.707031 L 213.097656 156.128906 L 213.140625 156.207031 C 213.246094 156.390625 213.40625 156.511719 213.609375 156.566406 C 213.816406 156.621094 214.011719 156.597656 214.195312 156.492188 C 214.378906 156.382812 214.5 156.226562 214.554688 156.023438 C 214.609375 155.816406 214.585938 155.621094 214.476562 155.4375 L 213.253906 153.320312 Z M 211.304688 149.933594 " fill-opacity="1" fill-rule="evenodd"/><path fill="#bef3d6" d="M 203.867188 150.714844 C 203.640625 150.324219 203.347656 149.992188 202.988281 149.714844 C 202.628906 149.441406 202.230469 149.246094 201.792969 149.128906 C 201.359375 149.011719 200.914062 148.984375 200.464844 149.042969 C 200.019531 149.101562 199.597656 149.242188 199.207031 149.46875 C 198.980469 149.597656 198.773438 149.75 198.582031 149.929688 C 198.953125 149.816406 199.328125 149.769531 199.714844 149.785156 C 200.097656 149.800781 200.472656 149.878906 200.828125 150.023438 C 201.1875 150.164062 201.511719 150.359375 201.804688 150.609375 C 202.097656 150.863281 202.339844 151.152344 202.535156 151.488281 L 206.007812 157.503906 L 207.183594 159.539062 L 207.230469 159.621094 C 207.335938 159.804688 207.492188 159.921875 207.699219 159.976562 C 207.902344 160.035156 208.097656 160.007812 208.28125 159.902344 C 208.464844 159.796875 208.585938 159.640625 208.640625 159.433594 C 208.695312 159.230469 208.671875 159.035156 208.5625 158.847656 L 208.519531 158.769531 L 207.34375 156.730469 Z M 203.867188 150.714844 " fill-opacity="1" fill-rule="evenodd"/><path fill="#bef3d6" d="M 202.605469 162.183594 L 190.550781 141.300781 C 190.421875 141.078125 190.269531 140.871094 190.097656 140.683594 C 189.921875 140.496094 189.726562 140.328125 189.515625 140.183594 C 189.304688 140.039062 189.078125 139.917969 188.839844 139.824219 C 188.597656 139.730469 188.351562 139.667969 188.097656 139.628906 C 187.84375 139.589844 187.589844 139.582031 187.332031 139.601562 C 187.078125 139.621094 186.824219 139.667969 186.582031 139.746094 C 186.335938 139.824219 186.101562 139.925781 185.878906 140.054688 C 185.65625 140.183594 185.453125 140.335938 185.265625 140.511719 C 185.632812 140.402344 186.011719 140.355469 186.394531 140.371094 C 186.78125 140.386719 187.152344 140.464844 187.511719 140.605469 C 187.871094 140.746094 188.195312 140.945312 188.488281 141.195312 C 188.777344 141.445312 189.023438 141.738281 189.214844 142.070312 L 200.09375 160.917969 L 201.273438 162.953125 L 201.316406 163.03125 C 201.421875 163.21875 201.578125 163.335938 201.785156 163.390625 C 201.992188 163.449219 202.1875 163.421875 202.371094 163.316406 C 202.554688 163.210938 202.675781 163.054688 202.730469 162.847656 C 202.785156 162.640625 202.757812 162.445312 202.652344 162.261719 Z M 202.605469 162.183594 " fill-opacity="1" fill-rule="evenodd"/><path fill="#bef3d6" d="M 191.746094 167.625 C 187.097656 166.378906 184.554688 171.390625 186.984375 173.546875 C 186.492188 171.195312 188.871094 168.128906 192.617188 169.132812 L 199.855469 171.074219 L 198.988281 169.5625 Z M 191.746094 167.625 " fill-opacity="1" fill-rule="evenodd"/></svg>