<svg xmlns="http://www.w3.org/2000/svg" xmlns:xlink="http://www.w3.org/1999/xlink" width="1200" zoomAndPan="magnify" viewBox="0 0 900 243.75" height="325" preserveAspectRatio="xMidYMid meet" version="1.0"><defs><clipPath id="ed6d94b948"><path d="M 1 0 L 898 0 L 898 233.914062 L 1 233.914062 Z M 1 0 " clip-rule="nonzero"/></clipPath><clipPath id="b1dc710028"><path d="M 74 113 L 129.761719 113 L 129.761719 133 L 74 133 Z M 74 113 " clip-rule="nonzero"/></clipPath><clipPath id="81c393da3b"><path d="M 88.144531 47 L 144 47 L 144 57 L 88.144531 57 Z M 88.144531 47 " clip-rule="nonzero"/></clipPath><clipPath id="23f725bc94"><path d="M 414.515625 95.417969 L 484.105469 95.417969 L 484.105469 165.007812 L 414.515625 165.007812 Z M 414.515625 95.417969 " clip-rule="nonzero"/></clipPath><clipPath id="4cc61729a2"><path d="M 449.308594 95.417969 C 430.09375 95.417969 414.515625 110.996094 414.515625 130.210938 C 414.515625 149.429688 430.09375 165.007812 449.308594 165.007812 C 468.527344 165.007812 484.105469 149.429688 484.105469 130.210938 C 484.105469 110.996094 468.527344 95.417969 449.308594 95.417969 Z M 449.308594 95.417969 " clip-rule="nonzero"/></clipPath><clipPath id="710a337666"><path d="M 415 96 L 483.828125 96 L 483.828125 164 L 415 164 Z M 415 96 " clip-rule="nonzero"/></clipPath><clipPath id="2d456dae7e"><path d="M 176.132812 121.488281 L 199 121.488281 L 199 143 L 176.132812 143 Z M 176.132812 121.488281 " clip-rule="nonzero"/></clipPath></defs><g clip-path="url(#ed6d94b948)"><path fill="#323230" d="M 430.628906 -9.738281 C 430.628906 -9.738281 427.855469 32.382812 400.699219 39.035156 C 374.53125 45.441406 317.03125 32.386719 275.191406 48.273438 C 265.351562 46.5625 245.273438 44.046875 231.390625 49.011719 C 212.410156 55.800781 208.390625 53.582031 191.210938 45.6875 C 174.027344 37.785156 152.96875 45.128906 152.96875 45.128906 C 152.96875 45.128906 161.835938 43.742188 180.402344 47.347656 C 198.96875 50.949219 199.800781 62.308594 229.453125 55.382812 C 245.648438 51.597656 256.023438 52.449219 262.132812 53.996094 C 224.988281 71.40625 200.527344 87.113281 161.839844 77.828125 C 125.710938 69.15625 108.839844 61.34375 89.03125 69.269531 C 89.03125 69.269531 72.734375 70.925781 64.839844 64.414062 C 56.941406 57.902344 47.515625 58.316406 41.699219 63.722656 C 41.699219 63.722656 55.554688 61.5 62.757812 69.675781 C 66.410156 73.816406 72.113281 75.289062 76.863281 75.734375 C 53.238281 90.074219 27.183594 103.636719 1.101562 97.25 C 1.101562 97.25 13.574219 112.492188 53.480469 98.636719 C 88.3125 86.539062 106.472656 75.296875 136.519531 83.882812 C 132.53125 85.847656 128.355469 88.875 126.421875 93.425781 C 122.160156 103.453125 108.308594 105.710938 108.308594 105.710938 C 115.53125 109.007812 124.609375 106.433594 130.050781 97.765625 C 133.429688 92.390625 140.863281 88.980469 146.019531 87.164062 C 147.488281 87.738281 148.933594 88.273438 150.46875 88.9375 C 189.539062 105.839844 228.609375 84.78125 263.246094 69.261719 C 279.226562 62.105469 292.601562 58.21875 305.507812 56.675781 C 301.167969 61.289062 292.976562 67.53125 277.664062 73.101562 C 249.050781 83.519531 254.570312 93.484375 240.996094 106.652344 C 227.421875 119.820312 219.242188 123.511719 219.242188 123.511719 C 219.242188 123.511719 240.890625 118.144531 250.949219 102.132812 C 261.015625 86.125 263.167969 82.070312 282.773438 77.375 C 295.929688 74.222656 309.921875 63.003906 317.808594 55.890625 C 325.445312 55.820312 333.175781 56.488281 341.40625 57.722656 C 337.046875 59.644531 332.105469 62.832031 329.949219 67.90625 C 325.691406 77.933594 311.839844 80.195312 311.839844 80.195312 C 319.066406 83.488281 328.136719 80.914062 333.582031 72.246094 C 339.027344 63.578125 355.011719 60.019531 355.011719 60.019531 L 354.882812 59.90625 C 370.382812 61.988281 389.824219 57.488281 405.808594 52.207031 C 405.808594 52.207031 390.675781 61.707031 380.3125 74.425781 C 375.808594 76.3125 370.496094 79.554688 368.234375 84.871094 C 363.972656 94.898438 350.125 97.160156 350.125 97.160156 C 357.347656 100.453125 366.425781 97.878906 371.867188 89.210938 C 366.046875 108.609375 348.460938 114.429688 333.421875 109.441406 C 318.382812 104.453125 285.960938 108.609375 273.769531 142.96875 C 261.574219 177.332031 217.03125 193.128906 217.03125 193.128906 C 217.03125 193.128906 251.878906 190.910156 268.230469 167.632812 C 284.578125 144.355469 289.84375 110.550781 328.363281 119.417969 C 335.765625 121.121094 342.035156 122.367188 347.457031 123.03125 C 344.257812 124.617188 340.644531 126.199219 336.441406 127.730469 C 307.828125 138.144531 313.351562 148.109375 299.777344 161.277344 C 286.203125 174.445312 278.023438 178.136719 278.023438 178.136719 C 278.023438 178.136719 299.667969 172.769531 309.730469 156.757812 C 319.792969 140.75 321.949219 136.695312 341.550781 132 C 347.824219 130.496094 354.3125 127.136719 360.25 123.257812 C 369.9375 122.003906 376.132812 116.625 382.253906 105.175781 C 382.597656 104.824219 382.964844 104.453125 382.964844 104.453125 L 382.621094 104.453125 C 384.886719 100.128906 387.152344 95.039062 389.597656 88.9375 C 404.039062 52.917969 440.773438 49.855469 441.085938 49.832031 C 441.085938 49.832031 441.085938 49.832031 441.085938 49.890625 C 440.984375 49.996094 424.929688 66.867188 421.023438 98.570312 C 420.464844 103.109375 419.78125 107.195312 418.976562 110.964844 C 418.183594 113.476562 417.164062 116.917969 416.136719 121.1875 C 410.585938 136.703125 400.835938 144.359375 382.941406 149.964844 C 357.929688 157.800781 334.414062 191.113281 335.59375 213.839844 C 335.59375 213.839844 346.566406 169.167969 386.539062 158.195312 C 398.484375 154.914062 406.804688 150.335938 412.8125 144.824219 C 412.757812 148.847656 413.0625 152.78125 413.878906 156.378906 C 418.332031 176.039062 415.652344 179.761719 405.742188 195.867188 C 395.835938 211.972656 400.589844 233.761719 400.589844 233.761719 C 400.589844 233.761719 400.28125 224.792969 406.089844 206.792969 C 411.898438 188.796875 423.28125 189.335938 419.96875 159.070312 C 418.917969 149.445312 419.191406 141.976562 420.050781 136.238281 C 423.671875 130.609375 425.949219 124.363281 427.800781 117.765625 C 427.886719 120.199219 427.636719 122.59375 426.871094 124.738281 C 423.417969 134.375 427.007812 143.097656 434.058594 146.742188 C 434.058594 146.742188 427.277344 134.457031 432.527344 124.910156 C 436.628906 117.453125 433.117188 107.570312 431.371094 103.578125 C 432.054688 100.773438 432.761719 97.949219 433.566406 95.101562 C 436.953125 83.144531 443.261719 71.394531 449.214844 61.917969 C 455.171875 71.398438 461.488281 83.15625 464.875 95.121094 C 465.679688 97.96875 466.386719 100.796875 467.070312 103.597656 C 465.324219 107.589844 461.8125 117.472656 465.910156 124.929688 C 471.164062 134.476562 464.382812 146.761719 464.382812 146.761719 C 471.433594 143.121094 475.023438 134.394531 471.570312 124.757812 C 470.808594 122.613281 470.558594 120.21875 470.640625 117.785156 C 472.492188 124.382812 474.769531 130.628906 478.390625 136.261719 C 479.25 141.996094 479.519531 149.46875 478.46875 159.089844 C 475.160156 189.359375 486.542969 188.816406 492.351562 206.8125 C 498.160156 224.8125 497.855469 233.78125 497.855469 233.78125 C 497.855469 233.78125 502.605469 211.992188 492.695312 195.886719 C 482.789062 179.78125 480.105469 176.058594 484.5625 156.398438 C 485.378906 152.804688 485.6875 148.867188 485.628906 144.84375 C 491.636719 150.355469 499.953125 154.933594 511.898438 158.214844 C 551.875 169.1875 562.84375 213.863281 562.84375 213.863281 C 564.023438 191.132812 540.511719 157.824219 515.5 149.984375 C 497.609375 144.378906 487.855469 136.722656 482.304688 121.210938 C 481.277344 116.9375 480.257812 113.5 479.460938 110.988281 C 478.65625 107.21875 477.976562 103.128906 477.421875 98.589844 C 473.507812 66.839844 457.386719 49.945312 457.335938 49.890625 C 457.339844 49.890625 457.335938 49.890625 457.335938 49.890625 C 457.503906 49.890625 494.382812 52.917969 508.847656 89 C 511.296875 95.101562 513.558594 100.191406 515.824219 104.515625 L 515.480469 104.515625 L 516.191406 105.238281 C 522.3125 116.6875 528.511719 122.066406 538.199219 123.324219 C 544.132812 127.199219 550.625 130.5625 556.894531 132.066406 C 576.5 136.761719 578.652344 140.816406 588.714844 156.824219 C 598.78125 172.835938 620.425781 178.203125 620.425781 178.203125 C 620.425781 178.203125 612.242188 174.511719 598.671875 161.34375 C 585.097656 148.175781 590.617188 138.210938 562.003906 127.792969 C 557.800781 126.265625 554.191406 124.683594 550.988281 123.097656 C 556.410156 122.433594 562.679688 121.1875 570.082031 119.480469 C 608.597656 110.613281 613.867188 144.421875 630.21875 167.699219 C 646.566406 190.976562 681.410156 193.191406 681.410156 193.191406 C 681.410156 193.191406 636.867188 177.394531 624.675781 143.035156 C 612.480469 108.675781 580.0625 104.519531 565.023438 109.507812 C 549.988281 114.496094 532.398438 108.675781 526.582031 89.277344 C 532.023438 97.945312 541.101562 100.519531 548.324219 97.226562 C 548.324219 97.226562 534.472656 94.964844 530.210938 84.9375 C 527.953125 79.621094 522.636719 76.378906 518.132812 74.492188 C 507.769531 61.773438 492.640625 52.273438 492.640625 52.273438 L 492.636719 52.273438 C 508.621094 57.554688 528.066406 62.058594 543.566406 59.972656 L 543.433594 60.085938 C 543.433594 60.085938 559.425781 63.644531 564.867188 72.3125 C 570.3125 80.980469 579.382812 83.554688 586.605469 80.261719 C 586.605469 80.261719 572.757812 78 568.5 67.96875 C 566.34375 62.898438 561.398438 59.707031 557.039062 57.789062 C 565.269531 56.554688 573.003906 55.886719 580.644531 55.957031 C 588.527344 63.070312 602.519531 74.289062 615.679688 77.441406 C 635.28125 82.136719 637.4375 86.191406 647.503906 102.199219 C 657.566406 118.207031 679.210938 123.578125 679.210938 123.578125 C 679.210938 123.578125 671.03125 119.886719 657.453125 106.71875 C 643.878906 93.550781 649.398438 83.585938 620.789062 73.167969 C 605.476562 67.597656 597.285156 61.355469 592.941406 56.742188 C 605.851562 58.285156 619.226562 62.171875 635.203125 69.332031 C 669.839844 84.847656 708.914062 105.90625 747.984375 89.003906 C 749.515625 88.339844 750.960938 87.804688 752.429688 87.230469 C 757.585938 89.046875 765.023438 92.457031 768.402344 97.832031 C 773.84375 106.503906 782.917969 109.074219 790.140625 105.777344 C 790.140625 105.777344 776.289062 103.519531 772.027344 93.492188 C 770.09375 88.941406 765.921875 85.914062 761.933594 83.949219 C 791.980469 75.363281 810.136719 86.605469 844.972656 98.703125 C 884.878906 112.558594 897.347656 97.316406 897.347656 97.316406 C 871.265625 103.703125 845.207031 90.140625 821.582031 75.800781 C 826.328125 75.355469 832.039062 73.882812 835.6875 69.742188 C 842.890625 61.566406 856.75 63.789062 856.75 63.789062 C 850.933594 58.382812 841.503906 57.96875 833.609375 64.480469 C 825.710938 70.992188 809.417969 69.335938 809.417969 69.335938 C 789.609375 61.410156 772.738281 69.222656 736.609375 77.890625 C 697.917969 87.175781 673.460938 71.472656 636.3125 54.0625 C 642.425781 52.515625 652.800781 51.664062 668.992188 55.449219 C 698.640625 62.375 699.476562 51.011719 718.042969 47.410156 C 736.609375 43.808594 745.476562 45.195312 745.476562 45.195312 C 745.476562 45.195312 724.417969 37.851562 707.238281 45.753906 C 690.054688 53.648438 686.039062 55.867188 667.054688 49.078125 C 653.171875 44.109375 633.09375 46.628906 623.253906 48.339844 C 581.414062 32.453125 523.914062 45.507812 497.75 39.097656 C 470.59375 32.449219 467.820312 -9.671875 467.820312 -9.671875 L 449.300781 -8.484375 Z M 430.628906 -9.738281 " fill-opacity="1" fill-rule="nonzero"/></g><path fill="#f4f6fc" d="M 425.445312 26.566406 C 425.292969 26.503906 425.140625 26.507812 424.988281 26.574219 C 424.835938 26.640625 424.730469 26.75 424.671875 26.90625 C 424.671875 26.90625 423.875 28.960938 421.234375 31.683594 C 418.597656 34.40625 414.140625 37.734375 406.886719 40.132812 C 406.726562 40.183594 406.613281 40.28125 406.542969 40.429688 C 406.46875 40.574219 406.457031 40.726562 406.507812 40.882812 C 406.558594 41.039062 406.65625 41.15625 406.800781 41.230469 C 406.949219 41.304688 407.101562 41.3125 407.257812 41.261719 C 414.691406 38.808594 419.316406 35.355469 422.082031 32.503906 C 424.847656 29.648438 425.773438 27.332031 425.773438 27.332031 C 425.835938 27.179688 425.832031 27.03125 425.769531 26.882812 C 425.703125 26.734375 425.597656 26.628906 425.445312 26.566406 Z M 425.445312 26.566406 " fill-opacity="1" fill-rule="nonzero"/><path fill="#f4f6fc" d="M 440.328125 70.933594 C 440.167969 70.953125 440.039062 71.023438 439.9375 71.152344 C 438.304688 73.1875 436.238281 76.992188 434.546875 80.328125 C 432.851562 83.664062 431.546875 86.519531 431.546875 86.519531 C 431.480469 86.667969 431.476562 86.816406 431.53125 86.972656 C 431.585938 87.125 431.691406 87.238281 431.835938 87.304688 C 431.988281 87.375 432.140625 87.378906 432.292969 87.324219 C 432.449219 87.269531 432.558594 87.164062 432.625 87.015625 C 432.625 87.015625 433.914062 84.183594 435.597656 80.871094 C 437.28125 77.558594 439.378906 73.734375 440.863281 71.890625 C 440.964844 71.761719 441.007812 71.617188 440.992188 71.457031 C 440.96875 71.292969 440.894531 71.160156 440.769531 71.058594 C 440.640625 70.953125 440.492188 70.910156 440.328125 70.925781 Z M 440.328125 70.933594 " fill-opacity="1" fill-rule="nonzero"/><path fill="#f4f6fc" d="M 499.167969 66.730469 C 499.03125 66.640625 498.882812 66.613281 498.71875 66.644531 C 498.5625 66.679688 498.4375 66.765625 498.347656 66.902344 C 498.257812 67.042969 498.226562 67.191406 498.261719 67.351562 C 498.292969 67.511719 498.382812 67.636719 498.515625 67.726562 C 498.515625 67.726562 499.824219 68.546875 501.988281 71.183594 C 504.15625 73.824219 507.140625 78.242188 510.355469 85.300781 C 510.425781 85.453125 510.535156 85.554688 510.691406 85.609375 C 510.84375 85.667969 510.996094 85.660156 511.140625 85.59375 C 511.285156 85.523438 511.386719 85.414062 511.449219 85.265625 C 511.503906 85.113281 511.496094 84.964844 511.429688 84.816406 C 508.179688 77.671875 505.144531 73.160156 502.902344 70.433594 C 500.660156 67.707031 499.164062 66.730469 499.164062 66.730469 Z M 499.167969 66.730469 " fill-opacity="1" fill-rule="nonzero"/><path fill="#f4f6fc" d="M 727.96875 89.167969 C 717.21875 91.617188 701.863281 89.296875 701.863281 89.296875 C 701.699219 89.273438 701.550781 89.308594 701.421875 89.40625 C 701.285156 89.503906 701.207031 89.632812 701.183594 89.796875 C 701.160156 89.957031 701.195312 90.101562 701.292969 90.234375 C 701.390625 90.363281 701.519531 90.441406 701.679688 90.46875 C 701.679688 90.46875 717.082031 92.863281 728.222656 90.332031 C 728.382812 90.296875 728.503906 90.210938 728.589844 90.070312 C 728.679688 89.933594 728.707031 89.785156 728.675781 89.625 C 728.640625 89.464844 728.554688 89.34375 728.417969 89.253906 C 728.28125 89.164062 728.128906 89.140625 727.96875 89.175781 Z M 727.96875 89.167969 " fill-opacity="1" fill-rule="nonzero"/><path fill="#f4f6fc" d="M 199.664062 87.433594 C 182.992188 92.472656 167.660156 88.601562 167.660156 88.601562 C 167.5 88.558594 167.347656 88.578125 167.207031 88.660156 C 167.0625 88.746094 166.972656 88.867188 166.929688 89.027344 C 166.890625 89.1875 166.914062 89.335938 167 89.476562 C 167.085938 89.617188 167.210938 89.707031 167.371094 89.746094 C 167.371094 89.746094 182.984375 93.710938 200.011719 88.566406 C 200.167969 88.515625 200.285156 88.421875 200.363281 88.277344 C 200.4375 88.128906 200.453125 87.980469 200.402344 87.824219 C 200.355469 87.667969 200.257812 87.550781 200.113281 87.476562 C 199.96875 87.398438 199.820312 87.386719 199.664062 87.433594 Z M 199.664062 87.433594 " fill-opacity="1" fill-rule="nonzero"/><path fill="#f4f6fc" d="M 295.375 117.066406 C 287.785156 121.113281 282.597656 130.523438 282.597656 130.523438 C 282.519531 130.667969 282.503906 130.816406 282.550781 130.972656 C 282.59375 131.128906 282.6875 131.246094 282.828125 131.324219 C 282.96875 131.402344 283.117188 131.417969 283.273438 131.375 C 283.425781 131.332031 283.542969 131.242188 283.628906 131.105469 C 283.628906 131.105469 288.835938 121.898438 295.941406 118.109375 C 296.082031 118.03125 296.179688 117.917969 296.230469 117.761719 C 296.273438 117.605469 296.257812 117.453125 296.183594 117.3125 C 296.109375 117.164062 295.992188 117.066406 295.832031 117.019531 C 295.671875 116.972656 295.519531 116.988281 295.375 117.066406 Z M 295.375 117.066406 " fill-opacity="1" fill-rule="nonzero"/><path fill="#f4f6fc" d="M 498.300781 149.824219 C 498.152344 149.75 498.003906 149.742188 497.847656 149.792969 C 497.691406 149.84375 497.574219 149.945312 497.503906 150.09375 C 497.429688 150.238281 497.417969 150.390625 497.46875 150.546875 C 497.523438 150.703125 497.621094 150.816406 497.769531 150.890625 C 497.769531 150.890625 505.78125 154.9375 511.386719 155.726562 C 511.550781 155.75 511.699219 155.710938 511.832031 155.613281 C 511.960938 155.511719 512.039062 155.382812 512.058594 155.21875 C 512.078125 155.058594 512.042969 154.914062 511.945312 154.785156 C 511.84375 154.65625 511.710938 154.582031 511.550781 154.558594 C 506.351562 153.824219 498.300781 149.824219 498.300781 149.824219 Z M 498.300781 149.824219 " fill-opacity="1" fill-rule="nonzero"/><path fill="#f4f6fc" d="M 631.3125 162.867188 C 631.171875 162.945312 631.078125 163.058594 631.027344 163.214844 C 630.980469 163.371094 630.996094 163.519531 631.070312 163.664062 C 631.070312 163.664062 636.363281 173.625 645.304688 178.523438 C 645.445312 178.605469 645.59375 178.621094 645.753906 178.578125 C 645.914062 178.53125 646.03125 178.4375 646.113281 178.292969 C 646.191406 178.148438 646.207031 177.996094 646.160156 177.835938 C 646.113281 177.679688 646.019531 177.558594 645.871094 177.480469 C 637.355469 172.816406 632.113281 163.109375 632.113281 163.109375 C 632.035156 162.96875 631.917969 162.871094 631.765625 162.824219 C 631.605469 162.777344 631.457031 162.792969 631.3125 162.867188 Z M 631.3125 162.867188 " fill-opacity="1" fill-rule="nonzero"/><path fill="#f4f6fc" d="M 517.140625 53.714844 C 516.984375 53.660156 516.835938 53.671875 516.6875 53.742188 C 516.542969 53.8125 516.441406 53.925781 516.386719 54.082031 C 516.335938 54.234375 516.347656 54.386719 516.417969 54.53125 C 516.488281 54.679688 516.601562 54.78125 516.753906 54.832031 C 516.753906 54.832031 525.136719 57.636719 541.144531 57.007812 C 541.308594 57.003906 541.445312 56.9375 541.558594 56.820312 C 541.671875 56.699219 541.722656 56.558594 541.714844 56.394531 C 541.710938 56.234375 541.648438 56.097656 541.527344 55.984375 C 541.40625 55.875 541.269531 55.820312 541.101562 55.828125 C 525.246094 56.449219 517.140625 53.710938 517.140625 53.710938 Z M 517.140625 53.714844 " fill-opacity="1" fill-rule="nonzero"/><path fill="#f4f6fc" d="M 77.910156 77.609375 C 77.753906 77.597656 77.609375 77.640625 77.484375 77.746094 C 71.8125 82.648438 64.539062 85.277344 64.539062 85.277344 C 64.378906 85.332031 64.265625 85.433594 64.195312 85.582031 C 64.125 85.734375 64.117188 85.886719 64.175781 86.042969 C 64.230469 86.199219 64.332031 86.3125 64.484375 86.382812 C 64.628906 86.453125 64.785156 86.460938 64.941406 86.402344 C 64.941406 86.402344 72.367188 83.742188 78.257812 78.652344 C 78.378906 78.542969 78.445312 78.410156 78.457031 78.246094 C 78.46875 78.082031 78.421875 77.941406 78.316406 77.816406 C 78.210938 77.691406 78.078125 77.621094 77.914062 77.609375 Z M 77.910156 77.609375 " fill-opacity="1" fill-rule="nonzero"/><path fill="#f4f6fc" d="M 383.71875 151.363281 C 380.792969 151.730469 377.640625 153.28125 375.179688 154.71875 C 372.722656 156.160156 370.96875 157.507812 370.96875 157.507812 C 370.839844 157.609375 370.761719 157.738281 370.738281 157.902344 C 370.71875 158.066406 370.753906 158.210938 370.855469 158.34375 C 370.957031 158.472656 371.085938 158.546875 371.25 158.570312 C 371.414062 158.589844 371.558594 158.550781 371.6875 158.449219 C 371.6875 158.449219 373.394531 157.140625 375.785156 155.742188 C 378.175781 154.339844 381.257812 152.875 383.875 152.546875 C 384.035156 152.527344 384.167969 152.449219 384.265625 152.324219 C 384.367188 152.195312 384.402344 152.050781 384.382812 151.886719 C 384.367188 151.726562 384.292969 151.59375 384.164062 151.492188 C 384.035156 151.390625 383.886719 151.347656 383.722656 151.367188 Z M 383.71875 151.363281 " fill-opacity="1" fill-rule="nonzero"/><g clip-path="url(#b1dc710028)"><path fill="#3a3b3e" d="M 126.113281 126.414062 L 129.085938 122.121094 L 115.738281 117.675781 C 111.652344 115.160156 106.835938 113.25 101.628906 113.25 C 86.71875 113.25 74.996094 128.902344 74.5 129.566406 C 73.945312 130.316406 74.101562 131.375 74.855469 131.925781 C 75.601562 132.480469 76.664062 132.320312 77.214844 131.570312 C 77.328125 131.425781 88.398438 116.625 101.625 116.625 C 114.851562 116.625 125.921875 131.417969 126.03125 131.570312 C 126.363281 132.019531 126.875 132.257812 127.394531 132.257812 C 127.742188 132.257812 128.09375 132.152344 128.394531 131.925781 C 129.144531 131.375 129.304688 130.3125 128.75 129.566406 C 128.617188 129.386719 127.679688 128.140625 126.109375 126.414062 Z M 126.113281 126.414062 " fill-opacity="1" fill-rule="nonzero"/></g><path fill="#3a3b3e" d="M 101.839844 140.921875 C 91.394531 140.921875 81.855469 132.023438 80.804688 131.011719 L 78.457031 133.441406 C 80.34375 135.253906 90.3125 144.300781 101.839844 144.300781 C 113.367188 144.300781 122.816406 135.394531 124.636719 133.609375 L 122.273438 131.195312 C 120.617188 132.816406 111.84375 140.921875 101.839844 140.921875 Z M 101.839844 140.921875 " fill-opacity="1" fill-rule="nonzero"/><path fill="#3a3b3e" d="M 109.019531 128.246094 C 109.019531 124.167969 105.710938 120.855469 101.628906 120.855469 C 97.546875 120.855469 94.234375 124.167969 94.234375 128.246094 C 94.234375 132.328125 97.546875 135.640625 101.628906 135.640625 C 105.710938 135.640625 109.019531 132.328125 109.019531 128.246094 Z M 97.730469 128.246094 C 97.730469 127.78125 98.105469 127.402344 98.574219 127.402344 L 104.585938 127.402344 C 105.050781 127.402344 105.429688 127.78125 105.429688 128.246094 C 105.429688 128.710938 105.050781 129.09375 104.585938 129.09375 L 98.574219 129.09375 C 98.105469 129.09375 97.730469 128.710938 97.730469 128.246094 Z M 97.730469 128.246094 " fill-opacity="1" fill-rule="nonzero"/><path fill="#7ec28a" d="M 101.628906 138.597656 C 95.921875 138.597656 91.28125 133.953125 91.28125 128.246094 C 91.28125 122.539062 95.921875 117.898438 101.628906 117.898438 C 107.335938 117.898438 111.976562 122.539062 111.976562 128.246094 C 111.976562 133.953125 107.335938 138.597656 101.628906 138.597656 Z M 101.628906 119.585938 C 96.855469 119.585938 92.96875 123.472656 92.96875 128.246094 C 92.96875 133.019531 96.855469 136.90625 101.628906 136.90625 C 106.402344 136.90625 110.289062 133.019531 110.289062 128.246094 C 110.289062 123.472656 106.402344 119.585938 101.628906 119.585938 Z M 101.628906 119.585938 " fill-opacity="1" fill-rule="nonzero"/><path fill="#3a3b3e" d="M 805.074219 114.234375 C 798.289062 114.699219 792.84375 120.289062 792.542969 127.085938 C 792.511719 127.832031 792.542969 128.574219 792.625 129.296875 L 793.109375 131.609375 C 797.917969 132.996094 801.445312 137.429688 801.445312 142.675781 C 801.445312 146.234375 799.824219 149.417969 797.28125 151.53125 L 797.601562 153.078125 C 799.128906 154.714844 801.375 155.679688 803.835938 155.464844 C 807.480469 155.148438 810.425781 152.183594 810.722656 148.535156 C 810.726562 148.472656 810.730469 148.410156 810.734375 148.347656 C 810.976562 144.078125 812.828125 140.109375 815.78125 137.019531 C 818.101562 134.601562 819.519531 131.3125 819.519531 127.699219 C 819.519531 119.933594 812.960938 113.695312 805.074219 114.234375 Z M 811.550781 133.171875 C 811.386719 133.335938 811.167969 133.417969 810.949219 133.417969 C 810.730469 133.417969 810.519531 133.335938 810.355469 133.171875 C 810.023438 132.84375 810.023438 132.308594 810.355469 131.976562 C 812.675781 129.652344 812.675781 125.875 810.355469 123.554688 C 808.03125 121.230469 804.253906 121.230469 801.929688 123.554688 C 801.601562 123.882812 801.066406 123.882812 800.734375 123.554688 C 800.40625 123.226562 800.40625 122.6875 800.734375 122.359375 C 803.71875 119.375 808.566406 119.375 811.550781 122.359375 C 814.53125 125.339844 814.53125 130.191406 811.550781 133.171875 Z M 811.550781 133.171875 " fill-opacity="1" fill-rule="nonzero"/><path fill="#7ec28a" d="M 789.921875 133.460938 C 784.839844 133.460938 780.703125 137.597656 780.703125 142.675781 C 780.703125 147.757812 784.839844 151.894531 789.921875 151.894531 C 795.003906 151.894531 799.136719 147.757812 799.136719 142.675781 C 799.136719 137.597656 795.003906 133.460938 789.921875 133.460938 Z M 782.394531 142.675781 C 782.394531 138.53125 785.769531 135.148438 789.921875 135.148438 C 791.730469 135.148438 793.390625 135.792969 794.691406 136.855469 L 784.105469 147.441406 C 783.039062 146.140625 782.398438 144.480469 782.398438 142.671875 Z M 789.921875 150.207031 C 788.183594 150.207031 786.59375 149.609375 785.316406 148.621094 L 795.859375 138.078125 C 796.847656 139.351562 797.445312 140.945312 797.445312 142.683594 C 797.445312 146.828125 794.070312 150.210938 789.917969 150.210938 Z M 789.921875 150.207031 " fill-opacity="1" fill-rule="nonzero"/><path fill="#7ec28a" d="M 828.949219 121.210938 C 826.515625 112.757812 819.65625 106.351562 811.046875 104.488281 C 810.476562 104.367188 809.914062 104.730469 809.792969 105.300781 C 809.667969 105.871094 810.03125 106.433594 810.601562 106.554688 C 818.453125 108.253906 824.707031 114.09375 826.925781 121.796875 C 827.0625 122.261719 827.484375 122.5625 827.941406 122.5625 C 828.035156 122.5625 828.132812 122.550781 828.230469 122.519531 C 828.792969 122.359375 829.113281 121.773438 828.953125 121.214844 Z M 828.949219 121.210938 " fill-opacity="1" fill-rule="nonzero"/><path fill="#7ec28a" d="M 809.613281 108.84375 C 809.042969 108.722656 808.484375 109.085938 808.359375 109.65625 C 808.238281 110.226562 808.601562 110.789062 809.171875 110.910156 C 815.648438 112.308594 820.808594 117.125 822.636719 123.488281 C 822.773438 123.953125 823.195312 124.25 823.652344 124.25 C 823.75 124.25 823.847656 124.238281 823.945312 124.210938 C 824.503906 124.046875 824.828125 123.460938 824.664062 122.902344 C 822.617188 115.792969 816.851562 110.410156 809.613281 108.847656 Z M 809.613281 108.84375 " fill-opacity="1" fill-rule="nonzero"/><path fill="#7ec28a" d="M 737.859375 167.808594 L 711.703125 167.808594 C 711.238281 167.808594 710.855469 168.1875 710.855469 168.652344 C 710.855469 169.117188 711.238281 169.5 711.703125 169.5 L 737.859375 169.5 C 738.324219 169.5 738.703125 169.117188 738.703125 168.652344 C 738.703125 168.1875 738.324219 167.808594 737.859375 167.808594 Z M 737.859375 167.808594 " fill-opacity="1" fill-rule="nonzero"/><path fill="#7ec28a" d="M 732.925781 172.03125 L 711.570312 172.03125 C 711.105469 172.03125 710.726562 172.414062 710.726562 172.878906 C 710.726562 173.34375 711.105469 173.722656 711.570312 173.722656 L 732.925781 173.722656 C 733.390625 173.722656 733.769531 173.34375 733.769531 172.878906 C 733.769531 172.414062 733.390625 172.03125 732.925781 172.03125 Z M 732.925781 172.03125 " fill-opacity="1" fill-rule="nonzero"/><path fill="#3a3b3e" d="M 710.386719 148.148438 C 710.078125 148.101562 709.765625 148.15625 709.453125 148.304688 C 709.078125 148.5 708.691406 148.632812 708.285156 148.710938 C 707.878906 148.785156 707.472656 148.824219 707.066406 148.824219 C 706.332031 148.824219 705.648438 148.714844 705.019531 148.5 C 704.390625 148.285156 703.839844 147.945312 703.375 147.5 C 702.910156 147.050781 702.546875 146.484375 702.285156 145.808594 C 702.023438 145.132812 701.894531 144.339844 701.894531 143.421875 C 701.894531 142.640625 702.011719 141.925781 702.242188 141.285156 C 702.476562 140.636719 702.816406 140.082031 703.265625 139.605469 C 703.71875 139.132812 704.257812 138.769531 704.902344 138.511719 C 705.539062 138.257812 706.265625 138.128906 707.070312 138.128906 C 707.507812 138.128906 707.925781 138.175781 708.320312 138.265625 C 708.71875 138.351562 709.097656 138.484375 709.457031 138.648438 C 709.773438 138.800781 710.082031 138.859375 710.390625 138.828125 C 710.699219 138.800781 710.949219 138.648438 711.148438 138.378906 C 711.429688 138.03125 711.542969 137.652344 711.472656 137.230469 C 711.40625 136.804688 711.179688 136.503906 710.785156 136.304688 C 710.226562 136.019531 709.636719 135.800781 709.007812 135.648438 C 708.378906 135.5 707.730469 135.425781 707.070312 135.425781 C 705.902344 135.425781 704.820312 135.625 703.828125 136.019531 C 702.835938 136.417969 701.976562 136.976562 701.25 137.6875 C 700.523438 138.402344 699.957031 139.25 699.5625 140.222656 C 699.164062 141.199219 698.964844 142.265625 698.964844 143.421875 C 698.964844 144.757812 699.179688 145.929688 699.621094 146.945312 C 700.054688 147.957031 700.652344 148.804688 701.410156 149.480469 C 702.167969 150.15625 703.035156 150.667969 704 151.007812 C 704.96875 151.355469 705.996094 151.527344 707.074219 151.527344 C 707.511719 151.527344 707.9375 151.496094 708.359375 151.425781 C 708.777344 151.359375 709.195312 151.261719 709.609375 151.136719 C 710.023438 151.007812 710.425781 150.847656 710.816406 150.648438 C 711.191406 150.46875 711.417969 150.179688 711.503906 149.785156 C 711.585938 149.386719 711.476562 148.996094 711.179688 148.621094 C 710.964844 148.351562 710.707031 148.195312 710.402344 148.148438 Z M 710.386719 148.148438 " fill-opacity="1" fill-rule="nonzero"/><path fill="#3a3b3e" d="M 723.832031 148.148438 C 723.527344 148.101562 723.210938 148.15625 722.898438 148.304688 C 722.523438 148.5 722.136719 148.632812 721.730469 148.710938 C 721.324219 148.785156 720.917969 148.824219 720.511719 148.824219 C 719.777344 148.824219 719.09375 148.714844 718.464844 148.5 C 717.835938 148.285156 717.285156 147.945312 716.820312 147.5 C 716.355469 147.050781 715.992188 146.484375 715.730469 145.808594 C 715.46875 145.132812 715.339844 144.339844 715.339844 143.421875 C 715.339844 142.640625 715.457031 141.925781 715.6875 141.285156 C 715.921875 140.636719 716.265625 140.082031 716.710938 139.605469 C 717.164062 139.132812 717.703125 138.769531 718.347656 138.511719 C 718.984375 138.257812 719.710938 138.128906 720.519531 138.128906 C 720.953125 138.128906 721.371094 138.175781 721.769531 138.265625 C 722.164062 138.351562 722.546875 138.484375 722.90625 138.648438 C 723.222656 138.800781 723.53125 138.859375 723.839844 138.828125 C 724.144531 138.800781 724.394531 138.648438 724.59375 138.378906 C 724.878906 138.03125 724.988281 137.652344 724.917969 137.230469 C 724.851562 136.804688 724.625 136.503906 724.230469 136.304688 C 723.671875 136.019531 723.082031 135.800781 722.453125 135.648438 C 721.824219 135.5 721.175781 135.425781 720.519531 135.425781 C 719.347656 135.425781 718.265625 135.625 717.273438 136.019531 C 716.28125 136.417969 715.421875 136.976562 714.695312 137.6875 C 713.96875 138.402344 713.402344 139.25 713.007812 140.222656 C 712.609375 141.199219 712.410156 142.265625 712.410156 143.421875 C 712.410156 144.757812 712.625 145.929688 713.066406 146.945312 C 713.5 147.957031 714.097656 148.804688 714.855469 149.480469 C 715.613281 150.15625 716.480469 150.667969 717.445312 151.007812 C 718.414062 151.355469 719.441406 151.527344 720.523438 151.527344 C 720.957031 151.527344 721.382812 151.496094 721.804688 151.425781 C 722.222656 151.359375 722.640625 151.261719 723.054688 151.136719 C 723.46875 151.007812 723.871094 150.847656 724.261719 150.648438 C 724.636719 150.46875 724.863281 150.179688 724.949219 149.785156 C 725.035156 149.386719 724.921875 148.996094 724.625 148.621094 C 724.414062 148.351562 724.15625 148.195312 723.847656 148.148438 Z M 723.832031 148.148438 " fill-opacity="1" fill-rule="nonzero"/><path fill="#3a3b3e" d="M 735.835938 125.566406 L 688.523438 125.566406 C 686.660156 125.566406 685.144531 127.082031 685.144531 128.945312 L 685.144531 158.9375 C 685.144531 160.800781 686.660156 162.316406 688.523438 162.316406 L 691.058594 162.316406 L 691.058594 159.78125 C 691.058594 159.316406 691.4375 158.9375 691.902344 158.9375 L 695.28125 158.9375 C 695.746094 158.9375 696.125 159.316406 696.125 159.78125 L 696.125 162.316406 L 735.835938 162.316406 C 737.699219 162.316406 739.214844 160.800781 739.214844 158.9375 L 739.214844 128.945312 C 739.214844 127.082031 737.699219 125.566406 735.835938 125.566406 Z M 737.523438 156.824219 L 686.832031 156.824219 L 686.832031 128.945312 C 686.832031 128.011719 687.589844 127.253906 688.523438 127.253906 L 735.835938 127.253906 C 736.769531 127.253906 737.523438 128.011719 737.523438 128.945312 Z M 737.523438 156.824219 " fill-opacity="1" fill-rule="nonzero"/><path fill="#3a3b3e" d="M 705.957031 170.152344 L 700.832031 167.070312 C 700.269531 166.730469 699.550781 167.136719 699.550781 167.792969 L 699.550781 170.09375 L 694.4375 169.945312 L 694.4375 160.628906 L 692.746094 160.628906 L 692.746094 171.585938 L 699.550781 171.777344 L 699.550781 173.957031 C 699.550781 174.617188 700.269531 175.023438 700.832031 174.679688 L 705.957031 171.597656 C 706.5 171.269531 706.5 170.476562 705.957031 170.148438 Z M 705.957031 170.152344 " fill-opacity="1" fill-rule="nonzero"/><path fill="#7ec28a" d="M 805.980469 8.761719 L 758.667969 8.761719 C 756.804688 8.761719 755.289062 10.277344 755.289062 12.140625 L 755.289062 38.195312 L 761.605469 47.199219 L 805.980469 47.199219 C 807.839844 47.199219 809.359375 45.683594 809.359375 43.820312 L 809.359375 12.140625 C 809.359375 10.277344 807.839844 8.761719 805.980469 8.761719 Z M 807.667969 43.820312 C 807.667969 44.753906 806.914062 45.511719 805.980469 45.511719 L 783.167969 45.511719 L 783.167969 37.0625 C 783.167969 36.597656 782.789062 36.21875 782.324219 36.21875 C 781.859375 36.21875 781.476562 36.597656 781.476562 37.0625 L 781.476562 45.511719 L 762.484375 45.511719 L 756.976562 37.65625 L 756.976562 12.140625 C 756.976562 11.207031 757.734375 10.449219 758.667969 10.449219 L 781.476562 10.449219 L 781.476562 17.628906 C 781.476562 18.09375 781.859375 18.476562 782.324219 18.476562 C 782.789062 18.476562 783.167969 18.09375 783.167969 17.628906 L 783.167969 10.449219 L 805.980469 10.449219 C 806.914062 10.449219 807.667969 11.207031 807.667969 12.140625 Z M 807.667969 43.820312 " fill-opacity="1" fill-rule="nonzero"/><path fill="#3a3b3e" d="M 762.046875 37.0625 L 756.140625 37.074219 C 755.824219 37.074219 755.535156 37.253906 755.394531 37.53125 C 755.25 37.808594 755.269531 38.148438 755.453125 38.40625 L 761.359375 46.839844 C 761.519531 47.070312 761.78125 47.199219 762.050781 47.199219 C 762.136719 47.199219 762.21875 47.1875 762.304688 47.164062 C 762.65625 47.054688 762.894531 46.726562 762.894531 46.355469 L 762.894531 37.90625 C 762.894531 37.683594 762.804688 37.46875 762.644531 37.308594 C 762.484375 37.152344 762.273438 37.0625 762.050781 37.0625 Z M 762.046875 37.0625 " fill-opacity="1" fill-rule="nonzero"/><path fill="#3a3b3e" d="M 805.132812 50.582031 L 801.84375 38.65625 L 801.800781 38.65625 C 801.800781 38.65625 801.839844 38.652344 801.839844 38.652344 L 800.6875 35.925781 C 800.414062 35.289062 799.785156 34.882812 799.097656 34.894531 L 796.988281 34.9375 L 796.78125 34.660156 C 796.503906 34.28125 796.054688 34.0625 795.585938 34.074219 L 793.691406 34.117188 L 793.636719 34.117188 C 793.636719 34.117188 793.171875 34.132812 793.171875 34.132812 L 793.082031 34.007812 C 792.804688 33.632812 792.355469 33.414062 791.886719 33.425781 L 789.28125 33.484375 L 788.808594 33.496094 L 786.320312 28.21875 C 785.945312 27.425781 785.027344 27.054688 784.207031 27.363281 C 783.386719 27.671875 782.945312 28.558594 783.1875 29.398438 L 787.382812 43.835938 L 787.308594 43.941406 L 782.765625 41.804688 C 781.863281 41.378906 780.78125 41.683594 780.226562 42.515625 C 779.675781 43.347656 779.8125 44.464844 780.558594 45.132812 L 788.132812 51.957031 C 788.660156 52.792969 789.386719 53.507812 790.25 54.023438 L 790.25 54.03125 C 790.25 54.03125 790.332031 54.066406 790.332031 54.066406 C 790.621094 54.230469 790.914062 54.375 791.230469 54.492188 L 795.425781 56.488281 L 795.777344 60.292969 L 809.382812 60.292969 L 805.140625 50.574219 Z M 805.132812 50.582031 " fill-opacity="1" fill-rule="nonzero"/><path fill="#3a3b3e" d="M 789.503906 15.519531 C 789.503906 15.796875 789.449219 16.066406 789.34375 16.328125 C 789.234375 16.585938 789.082031 16.8125 788.886719 17.011719 C 788.6875 17.210938 788.457031 17.363281 788.199219 17.46875 C 787.941406 17.578125 787.671875 17.628906 787.390625 17.628906 C 787.113281 17.628906 786.84375 17.578125 786.582031 17.46875 C 786.324219 17.363281 786.097656 17.210938 785.898438 17.011719 C 785.699219 16.8125 785.546875 16.585938 785.441406 16.328125 C 785.332031 16.066406 785.28125 15.796875 785.28125 15.519531 C 785.28125 15.238281 785.332031 14.96875 785.441406 14.710938 C 785.546875 14.453125 785.699219 14.222656 785.898438 14.023438 C 786.097656 13.828125 786.324219 13.675781 786.582031 13.566406 C 786.84375 13.460938 787.113281 13.40625 787.390625 13.40625 C 787.671875 13.40625 787.941406 13.460938 788.199219 13.566406 C 788.457031 13.675781 788.6875 13.828125 788.886719 14.023438 C 789.082031 14.222656 789.234375 14.453125 789.34375 14.710938 C 789.449219 14.96875 789.503906 15.238281 789.503906 15.519531 Z M 789.503906 15.519531 " fill-opacity="1" fill-rule="nonzero"/><path fill="#3a3b3e" d="M 798.796875 22.277344 C 798.796875 22.558594 798.742188 22.828125 798.636719 23.085938 C 798.53125 23.34375 798.375 23.574219 798.179688 23.769531 C 797.980469 23.96875 797.753906 24.121094 797.492188 24.230469 C 797.234375 24.335938 796.964844 24.390625 796.683594 24.390625 C 796.40625 24.390625 796.136719 24.335938 795.878906 24.230469 C 795.617188 24.121094 795.390625 23.96875 795.191406 23.769531 C 794.992188 23.574219 794.839844 23.34375 794.734375 23.085938 C 794.625 22.828125 794.574219 22.558594 794.574219 22.277344 C 794.574219 21.996094 794.625 21.726562 794.734375 21.46875 C 794.839844 21.210938 794.992188 20.980469 795.191406 20.785156 C 795.390625 20.585938 795.617188 20.433594 795.878906 20.328125 C 796.136719 20.21875 796.40625 20.164062 796.683594 20.164062 C 796.964844 20.164062 797.234375 20.21875 797.492188 20.328125 C 797.753906 20.433594 797.980469 20.585938 798.179688 20.785156 C 798.375 20.980469 798.53125 21.210938 798.636719 21.46875 C 798.742188 21.726562 798.796875 21.996094 798.796875 22.277344 Z M 798.796875 22.277344 " fill-opacity="1" fill-rule="nonzero"/><path fill="#3a3b3e" d="M 804.710938 22.277344 C 804.710938 22.558594 804.65625 22.828125 804.550781 23.085938 C 804.445312 23.34375 804.289062 23.574219 804.09375 23.769531 C 803.894531 23.96875 803.667969 24.121094 803.40625 24.230469 C 803.148438 24.335938 802.878906 24.390625 802.597656 24.390625 C 802.320312 24.390625 802.050781 24.335938 801.789062 24.230469 C 801.53125 24.121094 801.304688 23.96875 801.105469 23.769531 C 800.90625 23.574219 800.753906 23.34375 800.648438 23.085938 C 800.539062 22.828125 800.488281 22.558594 800.488281 22.277344 C 800.488281 21.996094 800.539062 21.726562 800.648438 21.46875 C 800.753906 21.210938 800.90625 20.980469 801.105469 20.785156 C 801.304688 20.585938 801.53125 20.433594 801.789062 20.328125 C 802.050781 20.21875 802.320312 20.164062 802.597656 20.164062 C 802.878906 20.164062 803.148438 20.21875 803.40625 20.328125 C 803.667969 20.433594 803.894531 20.585938 804.09375 20.785156 C 804.289062 20.980469 804.445312 21.210938 804.550781 21.46875 C 804.65625 21.726562 804.710938 21.996094 804.710938 22.277344 Z M 804.710938 22.277344 " fill-opacity="1" fill-rule="nonzero"/><path fill="#3a3b3e" d="M 804.710938 15.519531 C 804.710938 15.796875 804.65625 16.066406 804.550781 16.328125 C 804.445312 16.585938 804.289062 16.8125 804.09375 17.011719 C 803.894531 17.210938 803.667969 17.363281 803.40625 17.46875 C 803.148438 17.578125 802.878906 17.628906 802.597656 17.628906 C 802.320312 17.628906 802.050781 17.578125 801.789062 17.46875 C 801.53125 17.363281 801.304688 17.210938 801.105469 17.011719 C 800.90625 16.8125 800.753906 16.585938 800.648438 16.328125 C 800.539062 16.066406 800.488281 15.796875 800.488281 15.519531 C 800.488281 15.238281 800.539062 14.96875 800.648438 14.710938 C 800.753906 14.453125 800.90625 14.222656 801.105469 14.023438 C 801.304688 13.828125 801.53125 13.675781 801.789062 13.566406 C 802.050781 13.460938 802.320312 13.40625 802.597656 13.40625 C 802.878906 13.40625 803.148438 13.460938 803.40625 13.566406 C 803.667969 13.675781 803.894531 13.828125 804.09375 14.023438 C 804.289062 14.222656 804.445312 14.453125 804.550781 14.710938 C 804.65625 14.96875 804.710938 15.238281 804.710938 15.519531 Z M 804.710938 15.519531 " fill-opacity="1" fill-rule="nonzero"/><path fill="#3a3b3e" d="M 798.796875 29.035156 C 798.796875 29.316406 798.742188 29.585938 798.636719 29.84375 C 798.53125 30.101562 798.375 30.332031 798.179688 30.53125 C 797.980469 30.726562 797.753906 30.878906 797.492188 30.988281 C 797.234375 31.09375 796.964844 31.148438 796.683594 31.148438 C 796.40625 31.148438 796.136719 31.09375 795.878906 30.988281 C 795.617188 30.878906 795.390625 30.726562 795.191406 30.53125 C 794.992188 30.332031 794.839844 30.101562 794.734375 29.84375 C 794.625 29.585938 794.574219 29.316406 794.574219 29.035156 C 794.574219 28.757812 794.625 28.488281 794.734375 28.226562 C 794.839844 27.96875 794.992188 27.742188 795.191406 27.542969 C 795.390625 27.34375 795.617188 27.191406 795.878906 27.085938 C 796.136719 26.976562 796.40625 26.925781 796.683594 26.925781 C 796.964844 26.925781 797.234375 26.976562 797.492188 27.085938 C 797.753906 27.191406 797.980469 27.34375 798.179688 27.542969 C 798.375 27.742188 798.53125 27.96875 798.636719 28.226562 C 798.742188 28.488281 798.796875 28.757812 798.796875 29.035156 Z M 798.796875 29.035156 " fill-opacity="1" fill-rule="nonzero"/><path fill="#3a3b3e" d="M 763.3125 15.519531 C 763.3125 15.796875 763.261719 16.066406 763.152344 16.328125 C 763.046875 16.585938 762.894531 16.8125 762.695312 17.011719 C 762.496094 17.210938 762.269531 17.363281 762.007812 17.46875 C 761.75 17.578125 761.480469 17.628906 761.203125 17.628906 C 760.921875 17.628906 760.652344 17.578125 760.394531 17.46875 C 760.132812 17.363281 759.90625 17.210938 759.707031 17.011719 C 759.511719 16.8125 759.355469 16.585938 759.25 16.328125 C 759.144531 16.066406 759.089844 15.796875 759.089844 15.519531 C 759.089844 15.238281 759.144531 14.96875 759.25 14.710938 C 759.355469 14.453125 759.511719 14.222656 759.707031 14.023438 C 759.90625 13.828125 760.132812 13.675781 760.394531 13.566406 C 760.652344 13.460938 760.921875 13.40625 761.203125 13.40625 C 761.480469 13.40625 761.75 13.460938 762.007812 13.566406 C 762.269531 13.675781 762.496094 13.828125 762.695312 14.023438 C 762.894531 14.222656 763.046875 14.453125 763.152344 14.710938 C 763.261719 14.96875 763.3125 15.238281 763.3125 15.519531 Z M 763.3125 15.519531 " fill-opacity="1" fill-rule="nonzero"/><path fill="#3a3b3e" d="M 763.3125 22.277344 C 763.3125 22.558594 763.261719 22.828125 763.152344 23.085938 C 763.046875 23.34375 762.894531 23.574219 762.695312 23.769531 C 762.496094 23.96875 762.269531 24.121094 762.007812 24.230469 C 761.75 24.335938 761.480469 24.390625 761.203125 24.390625 C 760.921875 24.390625 760.652344 24.335938 760.394531 24.230469 C 760.132812 24.121094 759.90625 23.96875 759.707031 23.769531 C 759.511719 23.574219 759.355469 23.34375 759.25 23.085938 C 759.144531 22.828125 759.089844 22.558594 759.089844 22.277344 C 759.089844 21.996094 759.144531 21.726562 759.25 21.46875 C 759.355469 21.210938 759.511719 20.980469 759.707031 20.785156 C 759.90625 20.585938 760.132812 20.433594 760.394531 20.328125 C 760.652344 20.21875 760.921875 20.164062 761.203125 20.164062 C 761.480469 20.164062 761.75 20.21875 762.007812 20.328125 C 762.269531 20.433594 762.496094 20.585938 762.695312 20.785156 C 762.894531 20.980469 763.046875 21.210938 763.152344 21.46875 C 763.261719 21.726562 763.3125 21.996094 763.3125 22.277344 Z M 763.3125 22.277344 " fill-opacity="1" fill-rule="nonzero"/><path fill="#3a3b3e" d="M 773.875 15.519531 C 773.875 15.796875 773.820312 16.066406 773.714844 16.328125 C 773.605469 16.585938 773.453125 16.8125 773.253906 17.011719 C 773.058594 17.210938 772.828125 17.363281 772.570312 17.46875 C 772.3125 17.578125 772.042969 17.628906 771.761719 17.628906 C 771.480469 17.628906 771.210938 17.578125 770.953125 17.46875 C 770.695312 17.363281 770.464844 17.210938 770.269531 17.011719 C 770.070312 16.8125 769.917969 16.585938 769.8125 16.328125 C 769.703125 16.066406 769.648438 15.796875 769.648438 15.519531 C 769.648438 15.238281 769.703125 14.96875 769.8125 14.710938 C 769.917969 14.453125 770.070312 14.222656 770.269531 14.023438 C 770.464844 13.828125 770.695312 13.675781 770.953125 13.566406 C 771.210938 13.460938 771.480469 13.40625 771.761719 13.40625 C 772.042969 13.40625 772.3125 13.460938 772.570312 13.566406 C 772.828125 13.675781 773.058594 13.828125 773.253906 14.023438 C 773.453125 14.222656 773.605469 14.453125 773.714844 14.710938 C 773.820312 14.96875 773.875 15.238281 773.875 15.519531 Z M 773.875 15.519531 " fill-opacity="1" fill-rule="nonzero"/><path fill="#3a3b3e" d="M 773.875 22.277344 C 773.875 22.558594 773.820312 22.828125 773.714844 23.085938 C 773.605469 23.34375 773.453125 23.574219 773.253906 23.769531 C 773.058594 23.96875 772.828125 24.121094 772.570312 24.230469 C 772.3125 24.335938 772.042969 24.390625 771.761719 24.390625 C 771.480469 24.390625 771.210938 24.335938 770.953125 24.230469 C 770.695312 24.121094 770.464844 23.96875 770.269531 23.769531 C 770.070312 23.574219 769.917969 23.34375 769.8125 23.085938 C 769.703125 22.828125 769.648438 22.558594 769.648438 22.277344 C 769.648438 21.996094 769.703125 21.726562 769.8125 21.46875 C 769.917969 21.210938 770.070312 20.980469 770.269531 20.785156 C 770.464844 20.585938 770.695312 20.433594 770.953125 20.328125 C 771.210938 20.21875 771.480469 20.164062 771.761719 20.164062 C 772.042969 20.164062 772.3125 20.21875 772.570312 20.328125 C 772.828125 20.433594 773.058594 20.585938 773.253906 20.785156 C 773.453125 20.980469 773.605469 21.210938 773.714844 21.46875 C 773.820312 21.726562 773.875 21.996094 773.875 22.277344 Z M 773.875 22.277344 " fill-opacity="1" fill-rule="nonzero"/><path fill="#3a3b3e" d="M 773.875 29.035156 C 773.875 29.316406 773.820312 29.585938 773.714844 29.84375 C 773.605469 30.101562 773.453125 30.332031 773.253906 30.53125 C 773.058594 30.726562 772.828125 30.878906 772.570312 30.988281 C 772.3125 31.09375 772.042969 31.148438 771.761719 31.148438 C 771.480469 31.148438 771.210938 31.09375 770.953125 30.988281 C 770.695312 30.878906 770.464844 30.726562 770.269531 30.53125 C 770.070312 30.332031 769.917969 30.101562 769.8125 29.84375 C 769.703125 29.585938 769.648438 29.316406 769.648438 29.035156 C 769.648438 28.757812 769.703125 28.488281 769.8125 28.226562 C 769.917969 27.96875 770.070312 27.742188 770.269531 27.542969 C 770.464844 27.34375 770.695312 27.191406 770.953125 27.085938 C 771.210938 26.976562 771.480469 26.925781 771.761719 26.925781 C 772.042969 26.925781 772.3125 26.976562 772.570312 27.085938 C 772.828125 27.191406 773.058594 27.34375 773.253906 27.542969 C 773.453125 27.742188 773.605469 27.96875 773.714844 28.226562 C 773.820312 28.488281 773.875 28.757812 773.875 29.035156 Z M 773.875 29.035156 " fill-opacity="1" fill-rule="nonzero"/><path fill="#3a3b3e" d="M 779.367188 22.277344 C 779.367188 22.558594 779.3125 22.828125 779.203125 23.085938 C 779.097656 23.34375 778.945312 23.574219 778.746094 23.769531 C 778.550781 23.96875 778.320312 24.121094 778.0625 24.230469 C 777.804688 24.335938 777.535156 24.390625 777.253906 24.390625 C 776.972656 24.390625 776.703125 24.335938 776.445312 24.230469 C 776.1875 24.121094 775.957031 23.96875 775.761719 23.769531 C 775.5625 23.574219 775.410156 23.34375 775.300781 23.085938 C 775.195312 22.828125 775.140625 22.558594 775.140625 22.277344 C 775.140625 21.996094 775.195312 21.726562 775.300781 21.46875 C 775.410156 21.210938 775.5625 20.980469 775.761719 20.785156 C 775.957031 20.585938 776.1875 20.433594 776.445312 20.328125 C 776.703125 20.21875 776.972656 20.164062 777.253906 20.164062 C 777.535156 20.164062 777.804688 20.21875 778.0625 20.328125 C 778.320312 20.433594 778.550781 20.585938 778.746094 20.785156 C 778.945312 20.980469 779.097656 21.210938 779.203125 21.46875 C 779.3125 21.726562 779.367188 21.996094 779.367188 22.277344 Z M 779.367188 22.277344 " fill-opacity="1" fill-rule="nonzero"/><path fill="#ffffff" d="M 96.996094 51.609375 L 93.367188 49.515625 C 92.859375 49.222656 92.226562 49.585938 92.226562 50.175781 L 92.226562 54.363281 C 92.226562 54.953125 92.859375 55.320312 93.367188 55.023438 L 96.996094 52.929688 C 97.503906 52.636719 97.503906 51.902344 96.996094 51.609375 Z M 96.996094 51.609375 " fill-opacity="1" fill-rule="nonzero"/><path fill="#3a3b3e" d="M 97.101562 40.554688 C 97.421875 40.554688 97.71875 40.457031 97.988281 40.261719 C 98.261719 40.0625 98.460938 39.789062 98.597656 39.429688 L 100.058594 35.988281 L 108.46875 35.988281 L 109.9375 39.402344 C 110.085938 39.761719 110.300781 40.039062 110.570312 40.246094 C 110.839844 40.453125 111.148438 40.554688 111.484375 40.554688 C 111.878906 40.554688 112.242188 40.402344 112.570312 40.105469 C 112.902344 39.804688 113.066406 39.398438 113.066406 38.890625 C 113.066406 38.683594 113.019531 38.460938 112.925781 38.214844 L 105.992188 21.691406 C 105.859375 21.335938 105.648438 21.058594 105.355469 20.859375 C 105.066406 20.660156 104.75 20.5625 104.410156 20.5625 C 104.050781 20.523438 103.71875 20.609375 103.410156 20.816406 C 103.101562 21.023438 102.867188 21.3125 102.714844 21.691406 L 95.695312 38.554688 C 95.640625 38.742188 95.609375 38.921875 95.609375 39.089844 C 95.609375 39.503906 95.734375 39.851562 95.980469 40.132812 C 96.222656 40.417969 96.601562 40.554688 97.105469 40.554688 Z M 104.246094 26.148438 L 107.074219 32.746094 L 101.4375 32.746094 L 104.242188 26.148438 Z M 104.246094 26.148438 " fill-opacity="1" fill-rule="nonzero"/><path fill="#3a3b3e" d="M 116.332031 40.417969 L 123.074219 40.417969 C 124.898438 40.417969 126.429688 39.976562 127.683594 39.089844 C 128.933594 38.207031 129.886719 37.015625 130.546875 35.523438 C 131.203125 34.03125 131.535156 32.375 131.535156 30.546875 C 131.535156 29.195312 131.351562 27.921875 130.984375 26.730469 C 130.617188 25.539062 130.074219 24.484375 129.351562 23.570312 C 128.628906 22.65625 127.738281 21.949219 126.683594 21.441406 C 125.632812 20.933594 124.429688 20.679688 123.078125 20.679688 L 116.335938 20.679688 C 115.84375 20.679688 115.4375 20.84375 115.109375 21.175781 C 114.785156 21.503906 114.617188 21.914062 114.617188 22.398438 L 114.617188 38.699219 C 114.617188 39.1875 114.78125 39.597656 115.109375 39.921875 C 115.441406 40.25 115.851562 40.417969 116.335938 40.417969 Z M 118.136719 23.921875 L 122.789062 23.921875 C 123.671875 23.921875 124.433594 24.097656 125.074219 24.457031 C 125.714844 24.816406 126.242188 25.296875 126.65625 25.910156 C 127.070312 26.523438 127.375 27.226562 127.570312 28.027344 C 127.769531 28.824219 127.867188 29.664062 127.867188 30.546875 C 127.867188 31.730469 127.695312 32.828125 127.347656 33.835938 C 127 34.839844 126.449219 35.648438 125.695312 36.261719 C 124.945312 36.871094 123.976562 37.175781 122.789062 37.175781 L 118.136719 37.175781 Z M 118.136719 23.921875 " fill-opacity="1" fill-rule="nonzero"/><g clip-path="url(#81c393da3b)"><path fill="#3a3b3e" d="M 140.523438 47.625 L 91.523438 47.625 C 90.125 47.625 88.988281 48.757812 88.988281 50.15625 L 88.988281 54.382812 C 88.988281 55.78125 90.125 56.917969 91.523438 56.917969 L 140.523438 56.917969 C 141.921875 56.917969 143.058594 55.78125 143.058594 54.382812 L 143.058594 50.15625 C 143.058594 48.757812 141.921875 47.625 140.523438 47.625 Z M 96.996094 52.929688 L 93.367188 55.023438 C 92.859375 55.320312 92.226562 54.953125 92.226562 54.363281 L 92.226562 50.175781 C 92.226562 49.585938 92.859375 49.21875 93.367188 49.515625 L 96.996094 51.609375 C 97.503906 51.902344 97.503906 52.636719 96.996094 52.929688 Z M 138.835938 53.113281 L 129.011719 53.113281 C 128.632812 54.570312 127.308594 55.648438 125.738281 55.648438 C 124.167969 55.648438 122.84375 54.570312 122.464844 53.113281 L 102.503906 53.113281 C 102.039062 53.113281 101.660156 52.734375 101.660156 52.269531 C 101.660156 51.804688 102.039062 51.425781 102.503906 51.425781 L 122.464844 51.425781 C 122.84375 49.96875 124.167969 48.890625 125.738281 48.890625 C 127.308594 48.890625 128.632812 49.96875 129.011719 51.425781 L 138.835938 51.425781 C 139.296875 51.425781 139.679688 51.804688 139.679688 52.269531 C 139.679688 52.734375 139.296875 53.113281 138.835938 53.113281 Z M 138.835938 53.113281 " fill-opacity="1" fill-rule="nonzero"/></g><path fill="#7ec28a" d="M 138.835938 51.425781 L 129.011719 51.425781 C 128.632812 49.96875 127.308594 48.890625 125.738281 48.890625 C 124.167969 48.890625 122.84375 49.96875 122.464844 51.425781 C 122.398438 51.695312 122.359375 51.976562 122.359375 52.269531 C 122.359375 52.5625 122.398438 52.84375 122.464844 53.113281 C 122.84375 54.570312 124.167969 55.648438 125.738281 55.648438 C 127.308594 55.648438 128.632812 54.570312 129.011719 53.113281 L 138.835938 53.113281 C 139.296875 53.113281 139.679688 52.734375 139.679688 52.269531 C 139.679688 51.804688 139.296875 51.425781 138.835938 51.425781 Z M 127.199219 53.113281 C 126.910156 53.621094 126.363281 53.960938 125.738281 53.960938 C 125.113281 53.960938 124.570312 53.621094 124.277344 53.113281 C 124.132812 52.867188 124.050781 52.578125 124.050781 52.269531 C 124.050781 51.960938 124.132812 51.675781 124.277344 51.425781 C 124.570312 50.917969 125.113281 50.582031 125.738281 50.582031 C 126.363281 50.582031 126.910156 50.917969 127.199219 51.425781 C 127.34375 51.675781 127.429688 51.960938 127.429688 52.269531 C 127.429688 52.578125 127.34375 52.867188 127.199219 53.113281 Z M 127.199219 53.113281 " fill-opacity="1" fill-rule="nonzero"/><path fill="#7ec28a" d="M 127.289062 17.910156 C 130.023438 18.339844 132.152344 20.46875 132.582031 23.203125 C 132.648438 23.621094 133.007812 23.917969 133.414062 23.917969 C 133.457031 23.917969 133.503906 23.917969 133.550781 23.90625 C 134.011719 23.835938 134.328125 23.402344 134.25 22.941406 C 133.703125 19.480469 131.011719 16.789062 127.550781 16.242188 C 127.09375 16.167969 126.65625 16.480469 126.582031 16.941406 C 126.511719 17.402344 126.824219 17.835938 127.285156 17.910156 Z M 127.289062 17.910156 " fill-opacity="1" fill-rule="nonzero"/><path fill="#7ec28a" d="M 128.347656 14.683594 C 132.210938 15.292969 135.21875 18.296875 135.832031 22.164062 C 135.898438 22.582031 136.257812 22.878906 136.664062 22.878906 C 136.703125 22.878906 136.75 22.878906 136.796875 22.867188 C 137.257812 22.796875 137.574219 22.363281 137.5 21.902344 C 136.773438 17.3125 133.203125 13.742188 128.609375 13.015625 C 128.15625 12.941406 127.714844 13.253906 127.644531 13.714844 C 127.570312 14.175781 127.882812 14.609375 128.34375 14.683594 Z M 128.347656 14.683594 " fill-opacity="1" fill-rule="nonzero"/><path fill="#7ec28a" d="M 140.933594 21.050781 C 139.992188 15.117188 135.371094 10.496094 129.433594 9.554688 C 128.980469 9.480469 128.539062 9.792969 128.46875 10.253906 C 128.394531 10.714844 128.707031 11.152344 129.167969 11.222656 C 134.382812 12.046875 138.4375 16.105469 139.261719 21.3125 C 139.328125 21.734375 139.6875 22.027344 140.09375 22.027344 C 140.136719 22.027344 140.179688 22.027344 140.226562 22.019531 C 140.6875 21.949219 141.003906 21.511719 140.929688 21.050781 Z M 140.933594 21.050781 " fill-opacity="1" fill-rule="nonzero"/><g clip-path="url(#23f725bc94)"><g clip-path="url(#4cc61729a2)"><path fill="#ffffff" d="M 414.515625 95.417969 L 484.105469 95.417969 L 484.105469 165.007812 L 414.515625 165.007812 Z M 414.515625 95.417969 " fill-opacity="1" fill-rule="nonzero"/></g></g><path fill="#3a3b3e" d="M 451.21875 108.449219 C 451.519531 108.574219 451.808594 108.726562 452.078125 108.910156 C 452.351562 109.089844 452.605469 109.296875 452.835938 109.53125 C 453.066406 109.761719 453.273438 110.011719 453.457031 110.285156 C 453.636719 110.558594 453.792969 110.84375 453.917969 111.148438 C 454.042969 111.449219 454.136719 111.761719 454.199219 112.082031 C 454.265625 112.402344 454.296875 112.726562 454.296875 113.054688 C 454.296875 113.382812 454.265625 113.707031 454.199219 114.027344 C 454.136719 114.351562 454.042969 114.660156 453.917969 114.964844 C 453.792969 115.265625 453.636719 115.554688 453.457031 115.828125 C 453.273438 116.097656 453.066406 116.351562 452.835938 116.582031 C 452.605469 116.8125 452.351562 117.019531 452.078125 117.203125 C 451.808594 117.382812 451.519531 117.539062 451.21875 117.664062 C 450.914062 117.789062 450.601562 117.882812 450.28125 117.945312 C 449.960938 118.011719 449.636719 118.042969 449.308594 118.042969 C 448.980469 118.042969 448.65625 118.011719 448.335938 117.945312 C 448.015625 117.882812 447.703125 117.789062 447.398438 117.664062 C 447.097656 117.539062 446.808594 117.382812 446.539062 117.203125 C 446.265625 117.019531 446.015625 116.8125 445.78125 116.582031 C 445.550781 116.351562 445.34375 116.097656 445.164062 115.828125 C 444.980469 115.554688 444.828125 115.265625 444.703125 114.964844 C 444.574219 114.660156 444.480469 114.351562 444.417969 114.027344 C 444.355469 113.707031 444.320312 113.382812 444.320312 113.054688 C 444.320312 112.726562 444.355469 112.402344 444.417969 112.082031 C 444.480469 111.761719 444.574219 111.449219 444.703125 111.148438 C 444.828125 110.84375 444.980469 110.558594 445.164062 110.285156 C 445.34375 110.011719 445.550781 109.761719 445.78125 109.53125 C 446.015625 109.296875 446.265625 109.089844 446.539062 108.910156 C 446.808594 108.726562 447.097656 108.574219 447.398438 108.449219 C 447.703125 108.324219 448.015625 108.226562 448.335938 108.164062 C 448.65625 108.101562 448.980469 108.070312 449.308594 108.070312 C 449.636719 108.070312 449.960938 108.101562 450.28125 108.164062 C 450.601562 108.226562 450.914062 108.324219 451.21875 108.449219 Z M 451.21875 108.449219 " fill-opacity="1" fill-rule="nonzero"/><path fill="#3a3b3e" d="M 466 114.773438 C 465.683594 114.949219 465.371094 115.117188 465.054688 115.285156 C 464.886719 115.375 464.722656 115.460938 464.554688 115.542969 C 464.386719 115.628906 464.21875 115.71875 464.050781 115.796875 C 463.859375 115.894531 463.664062 115.984375 463.472656 116.070312 C 463.332031 116.140625 463.183594 116.210938 463.042969 116.277344 C 462.835938 116.371094 462.636719 116.460938 462.429688 116.550781 C 462.296875 116.609375 462.167969 116.667969 462.035156 116.726562 C 461.824219 116.816406 461.613281 116.90625 461.402344 116.988281 C 461.277344 117.042969 461.148438 117.089844 461.027344 117.140625 C 460.8125 117.226562 460.601562 117.3125 460.386719 117.390625 C 460.265625 117.4375 460.140625 117.480469 460.019531 117.527344 C 459.804688 117.605469 459.589844 117.679688 459.371094 117.753906 C 459.25 117.796875 459.128906 117.832031 459.015625 117.875 C 458.796875 117.945312 458.582031 118.015625 458.367188 118.082031 C 458.246094 118.117188 458.125 118.15625 458.007812 118.1875 C 457.792969 118.25 457.574219 118.3125 457.359375 118.371094 C 457.238281 118.402344 457.121094 118.433594 457 118.464844 C 456.785156 118.523438 456.566406 118.578125 456.351562 118.628906 C 456.230469 118.65625 456.109375 118.683594 455.992188 118.714844 C 455.777344 118.761719 455.5625 118.808594 455.34375 118.855469 C 455.222656 118.882812 455.109375 118.902344 454.988281 118.925781 C 454.769531 118.964844 454.554688 119.007812 454.339844 119.046875 C 454.222656 119.066406 454.101562 119.082031 453.984375 119.101562 C 453.761719 119.140625 453.546875 119.171875 453.324219 119.203125 C 453.214844 119.21875 453.105469 119.230469 452.988281 119.246094 C 452.761719 119.273438 452.539062 119.304688 452.3125 119.324219 C 452.214844 119.335938 452.109375 119.339844 452.007812 119.351562 C 451.777344 119.371094 451.539062 119.394531 451.308594 119.410156 C 451.234375 119.410156 451.164062 119.414062 451.089844 119.417969 C 449.910156 119.492188 448.722656 119.492188 447.542969 119.417969 C 447.46875 119.417969 447.398438 119.414062 447.328125 119.410156 C 447.09375 119.394531 446.855469 119.371094 446.625 119.351562 C 446.523438 119.339844 446.417969 119.335938 446.320312 119.324219 C 446.097656 119.304688 445.871094 119.273438 445.648438 119.246094 C 445.539062 119.230469 445.421875 119.21875 445.3125 119.203125 C 445.097656 119.171875 444.875 119.140625 444.660156 119.101562 C 444.542969 119.082031 444.421875 119.066406 444.304688 119.046875 C 444.089844 119.007812 443.875 118.964844 443.65625 118.925781 C 443.535156 118.902344 443.414062 118.875 443.292969 118.855469 C 443.078125 118.8125 442.859375 118.765625 442.644531 118.714844 C 442.523438 118.6875 442.402344 118.660156 442.285156 118.628906 C 442.070312 118.578125 441.855469 118.523438 441.636719 118.464844 C 441.515625 118.433594 441.394531 118.402344 441.28125 118.371094 C 441.0625 118.3125 440.847656 118.25 440.632812 118.1875 C 440.511719 118.148438 440.390625 118.117188 440.273438 118.082031 C 440.058594 118.011719 439.839844 117.945312 439.625 117.875 C 439.503906 117.832031 439.382812 117.796875 439.261719 117.753906 C 439.042969 117.679688 438.828125 117.605469 438.613281 117.527344 C 438.492188 117.484375 438.371094 117.4375 438.242188 117.390625 C 438.027344 117.3125 437.816406 117.226562 437.601562 117.140625 C 437.472656 117.09375 437.351562 117.042969 437.226562 116.988281 C 437.015625 116.90625 436.804688 116.816406 436.59375 116.726562 C 436.460938 116.667969 436.328125 116.609375 436.199219 116.550781 C 435.992188 116.460938 435.792969 116.371094 435.585938 116.277344 C 435.445312 116.210938 435.296875 116.140625 435.152344 116.070312 C 434.964844 115.984375 434.769531 115.886719 434.578125 115.792969 C 434.414062 115.707031 434.246094 115.625 434.078125 115.539062 C 433.910156 115.457031 433.742188 115.367188 433.574219 115.28125 C 433.257812 115.117188 432.945312 114.949219 432.628906 114.769531 C 431.609375 114.199219 430.324219 114.5625 429.761719 115.582031 C 429.191406 116.597656 429.558594 117.886719 430.574219 118.449219 C 430.878906 118.617188 431.183594 118.78125 431.488281 118.945312 C 431.539062 118.972656 431.578125 118.992188 431.628906 119.019531 C 431.785156 119.101562 431.941406 119.183594 432.101562 119.261719 C 432.324219 119.378906 432.550781 119.488281 432.769531 119.597656 C 432.929688 119.679688 433.085938 119.75 433.246094 119.824219 C 433.46875 119.929688 433.695312 120.035156 433.914062 120.140625 C 434.074219 120.214844 434.230469 120.285156 434.394531 120.351562 C 434.617188 120.453125 434.835938 120.546875 435.058594 120.644531 C 435.222656 120.710938 435.378906 120.773438 435.542969 120.84375 C 435.765625 120.933594 435.980469 121.023438 436.203125 121.105469 C 436.367188 121.171875 436.535156 121.234375 436.699219 121.296875 C 436.914062 121.375 437.128906 121.453125 437.347656 121.535156 C 437.515625 121.589844 437.683594 121.648438 437.851562 121.707031 C 438.0625 121.78125 438.273438 121.851562 438.484375 121.917969 C 438.660156 121.976562 438.832031 122.027344 439.007812 122.082031 C 439.214844 122.144531 439.417969 122.203125 439.625 122.265625 C 439.804688 122.320312 439.976562 122.367188 440.15625 122.414062 C 440.355469 122.46875 440.5625 122.519531 440.761719 122.574219 C 440.941406 122.621094 441.125 122.660156 441.304688 122.710938 C 441.5 122.757812 441.703125 122.800781 441.898438 122.839844 C 442.082031 122.882812 442.269531 122.925781 442.457031 122.960938 C 442.644531 123 442.839844 123.035156 443.03125 123.074219 C 443.113281 123.089844 443.203125 123.105469 443.289062 123.121094 L 444.046875 131.089844 L 444.046875 133.507812 L 437.875 150.914062 C 437.375 152.328125 438.113281 153.875 439.523438 154.378906 C 439.824219 154.484375 440.128906 154.535156 440.429688 154.535156 C 441.546875 154.535156 442.59375 153.839844 442.988281 152.726562 L 448.539062 137.058594 L 450.089844 137.058594 L 455.640625 152.726562 C 456.035156 153.839844 457.078125 154.535156 458.195312 154.535156 C 458.496094 154.535156 458.804688 154.484375 459.105469 154.378906 C 460.515625 153.875 461.253906 152.328125 460.753906 150.914062 L 454.585938 133.507812 L 454.585938 131.089844 L 455.34375 123.121094 C 455.433594 123.105469 455.519531 123.089844 455.609375 123.074219 C 455.796875 123.035156 455.988281 123.003906 456.179688 122.960938 C 456.367188 122.925781 456.558594 122.882812 456.746094 122.839844 C 456.941406 122.800781 457.136719 122.757812 457.332031 122.710938 C 457.515625 122.667969 457.703125 122.621094 457.886719 122.574219 C 458.085938 122.519531 458.285156 122.472656 458.488281 122.414062 C 458.667969 122.367188 458.84375 122.3125 459.023438 122.261719 C 459.230469 122.203125 459.4375 122.140625 459.640625 122.082031 C 459.816406 122.027344 459.988281 121.972656 460.167969 121.917969 C 460.378906 121.851562 460.585938 121.78125 460.796875 121.714844 C 460.964844 121.65625 461.140625 121.597656 461.308594 121.535156 C 461.523438 121.460938 461.734375 121.378906 461.949219 121.300781 C 462.121094 121.238281 462.28125 121.175781 462.453125 121.113281 C 462.667969 121.027344 462.890625 120.9375 463.105469 120.847656 C 463.269531 120.78125 463.425781 120.714844 463.589844 120.648438 C 463.8125 120.554688 464.03125 120.457031 464.257812 120.359375 C 464.417969 120.289062 464.574219 120.214844 464.734375 120.148438 C 464.960938 120.046875 465.183594 119.9375 465.410156 119.832031 C 465.566406 119.757812 465.726562 119.683594 465.878906 119.605469 C 466.105469 119.492188 466.328125 119.378906 466.554688 119.261719 C 466.710938 119.183594 466.871094 119.101562 467.023438 119.019531 C 467.070312 118.992188 467.113281 118.972656 467.160156 118.949219 C 467.464844 118.785156 467.769531 118.625 468.078125 118.453125 C 469.09375 117.886719 469.457031 116.605469 468.886719 115.585938 C 468.320312 114.570312 467.039062 114.207031 466.019531 114.773438 Z M 466 114.773438 " fill-opacity="1" fill-rule="nonzero"/><g clip-path="url(#710a337666)"><path fill="#3a3b3e" d="M 449.308594 96.472656 C 430.671875 96.472656 415.570312 111.574219 415.570312 130.210938 C 415.570312 148.847656 430.671875 163.949219 449.308594 163.949219 C 467.945312 163.949219 483.046875 148.847656 483.046875 130.210938 C 483.046875 111.574219 467.945312 96.472656 449.308594 96.472656 Z M 449.308594 161.84375 C 431.871094 161.84375 417.675781 147.652344 417.675781 130.210938 C 417.675781 112.773438 431.871094 98.582031 449.308594 98.582031 C 466.75 98.582031 480.941406 112.773438 480.941406 130.210938 C 480.941406 147.652344 466.75 161.84375 449.308594 161.84375 Z M 449.308594 161.84375 " fill-opacity="1" fill-rule="nonzero"/></g><path fill="#7ec28a" d="M 449.308594 102.269531 C 464.714844 102.269531 477.25 114.808594 477.25 130.210938 C 477.25 145.617188 464.714844 158.152344 449.308594 158.152344 C 433.90625 158.152344 421.367188 145.617188 421.367188 130.210938 C 421.367188 114.808594 433.90625 102.269531 449.308594 102.269531 M 449.308594 100.160156 C 432.714844 100.160156 419.257812 113.617188 419.257812 130.210938 C 419.257812 146.808594 432.714844 160.261719 449.308594 160.261719 C 465.90625 160.261719 479.359375 146.808594 479.359375 130.210938 C 479.359375 113.617188 465.90625 100.160156 449.308594 100.160156 Z M 449.308594 100.160156 " fill-opacity="1" fill-rule="nonzero"/><g clip-path="url(#2d456dae7e)"><path fill="#7ec28a" d="M 181.402344 123.972656 C 181.304688 123.800781 181.277344 123.621094 181.328125 123.425781 C 181.378906 123.234375 181.492188 123.089844 181.664062 122.992188 C 181.835938 122.890625 182.019531 122.867188 182.210938 122.921875 C 182.402344 122.972656 182.546875 123.085938 182.640625 123.261719 L 184.519531 126.503906 C 184.617188 126.675781 184.640625 126.855469 184.585938 127.046875 C 184.535156 127.238281 184.425781 127.382812 184.253906 127.480469 C 184.082031 127.578125 183.902344 127.601562 183.710938 127.550781 C 183.519531 127.5 183.375 127.386719 183.277344 127.214844 Z M 177.894531 128.007812 C 177.722656 127.910156 177.613281 127.765625 177.5625 127.574219 C 177.511719 127.382812 177.535156 127.203125 177.632812 127.03125 C 177.730469 126.859375 177.875 126.75 178.066406 126.699219 C 178.253906 126.648438 178.4375 126.671875 178.605469 126.769531 L 181.851562 128.644531 C 182.023438 128.742188 182.136719 128.886719 182.1875 129.078125 C 182.242188 129.269531 182.21875 129.449219 182.117188 129.621094 C 182.019531 129.792969 181.875 129.90625 181.683594 129.957031 C 181.492188 130.007812 181.3125 129.984375 181.140625 129.882812 Z M 176.871094 133.261719 C 176.671875 133.261719 176.5 133.191406 176.363281 133.050781 C 176.222656 132.910156 176.152344 132.742188 176.152344 132.542969 C 176.152344 132.34375 176.222656 132.175781 176.363281 132.035156 C 176.5 131.894531 176.671875 131.824219 176.871094 131.824219 L 180.617188 131.824219 C 180.8125 131.824219 180.984375 131.894531 181.125 132.035156 C 181.261719 132.175781 181.332031 132.34375 181.332031 132.542969 C 181.332031 132.742188 181.261719 132.910156 181.125 133.050781 C 180.984375 133.191406 180.8125 133.261719 180.617188 133.261719 Z M 178.609375 138.316406 C 178.4375 138.414062 178.257812 138.4375 178.066406 138.386719 C 177.875 138.335938 177.730469 138.226562 177.632812 138.054688 C 177.535156 137.882812 177.511719 137.703125 177.558594 137.511719 C 177.609375 137.320312 177.722656 137.175781 177.890625 137.074219 L 181.136719 135.203125 C 181.308594 135.105469 181.488281 135.078125 181.679688 135.128906 C 181.871094 135.179688 182.015625 135.292969 182.113281 135.464844 C 182.214844 135.632812 182.238281 135.816406 182.1875 136.007812 C 182.136719 136.199219 182.027344 136.34375 181.855469 136.441406 Z M 182.640625 141.824219 C 182.542969 141.996094 182.398438 142.105469 182.210938 142.15625 C 182.019531 142.203125 181.839844 142.179688 181.671875 142.082031 C 181.5 141.984375 181.390625 141.84375 181.339844 141.652344 C 181.285156 141.464844 181.308594 141.285156 181.402344 141.113281 L 183.277344 137.867188 C 183.375 137.695312 183.519531 137.582031 183.710938 137.53125 C 183.902344 137.480469 184.082031 137.503906 184.253906 137.601562 C 184.425781 137.699219 184.535156 137.84375 184.585938 138.035156 C 184.640625 138.226562 184.617188 138.40625 184.519531 138.578125 Z M 197.484375 131.828125 C 197.683594 131.828125 197.851562 131.898438 197.988281 132.039062 C 198.128906 132.175781 198.199219 132.34375 198.199219 132.542969 C 198.199219 132.742188 198.128906 132.910156 197.988281 133.046875 C 197.851562 133.1875 197.683594 133.257812 197.484375 133.257812 L 193.738281 133.257812 C 193.539062 133.257812 193.371094 133.1875 193.230469 133.046875 C 193.089844 132.910156 193.023438 132.742188 193.023438 132.542969 C 193.023438 132.34375 193.089844 132.175781 193.230469 132.039062 C 193.371094 131.898438 193.539062 131.828125 193.738281 131.828125 Z M 195.742188 126.769531 C 195.914062 126.667969 196.097656 126.644531 196.289062 126.691406 C 196.480469 126.742188 196.625 126.855469 196.726562 127.027344 C 196.824219 127.199219 196.847656 127.378906 196.796875 127.570312 C 196.746094 127.765625 196.632812 127.910156 196.460938 128.007812 L 193.214844 129.882812 C 193.046875 129.980469 192.863281 130.007812 192.671875 129.957031 C 192.480469 129.90625 192.335938 129.792969 192.238281 129.621094 C 192.136719 129.453125 192.113281 129.269531 192.164062 129.078125 C 192.214844 128.886719 192.328125 128.742188 192.5 128.644531 Z M 191.710938 123.261719 C 191.808594 123.085938 191.953125 122.972656 192.144531 122.921875 C 192.335938 122.867188 192.515625 122.890625 192.691406 122.992188 C 192.863281 123.089844 192.972656 123.234375 193.023438 123.425781 C 193.074219 123.621094 193.050781 123.800781 192.949219 123.972656 L 191.078125 127.214844 C 190.976562 127.386719 190.832031 127.5 190.644531 127.550781 C 190.453125 127.601562 190.269531 127.578125 190.101562 127.480469 C 189.929688 127.382812 189.816406 127.238281 189.765625 127.046875 C 189.714844 126.855469 189.738281 126.675781 189.835938 126.503906 Z M 186.460938 122.238281 C 186.460938 122.039062 186.53125 121.871094 186.667969 121.730469 C 186.808594 121.589844 186.980469 121.519531 187.175781 121.519531 C 187.375 121.519531 187.542969 121.589844 187.683594 121.730469 C 187.824219 121.871094 187.894531 122.039062 187.894531 122.238281 L 187.894531 125.984375 C 187.894531 126.183594 187.824219 126.351562 187.683594 126.492188 C 187.542969 126.628906 187.375 126.699219 187.175781 126.699219 C 186.980469 126.699219 186.808594 126.628906 186.667969 126.492188 C 186.53125 126.351562 186.460938 126.183594 186.460938 125.984375 Z M 186.460938 122.238281 " fill-opacity="1" fill-rule="nonzero"/></g><path fill="#3a3b3e" d="M 198.988281 159.824219 L 184.640625 134.972656 C 184.410156 134.582031 184.265625 134.160156 184.207031 133.710938 C 184.144531 133.261719 184.175781 132.816406 184.289062 132.378906 C 184.40625 131.941406 184.601562 131.542969 184.878906 131.179688 C 185.15625 130.820312 185.488281 130.527344 185.882812 130.300781 C 186.273438 130.074219 186.695312 129.929688 187.144531 129.871094 C 187.597656 129.8125 188.039062 129.84375 188.476562 129.960938 C 188.914062 130.078125 189.316406 130.277344 189.671875 130.554688 C 190.03125 130.832031 190.324219 131.167969 190.550781 131.558594 L 197.957031 144.386719 C 197.734375 143.996094 197.589844 143.574219 197.53125 143.125 C 197.472656 142.679688 197.5 142.234375 197.617188 141.796875 C 197.734375 141.363281 197.933594 140.964844 198.207031 140.605469 C 198.484375 140.246094 198.816406 139.953125 199.207031 139.726562 C 199.601562 139.5 200.019531 139.359375 200.46875 139.300781 C 200.917969 139.238281 201.359375 139.269531 201.796875 139.386719 C 202.234375 139.503906 202.632812 139.699219 202.992188 139.972656 C 203.351562 140.25 203.644531 140.582031 203.867188 140.972656 L 205.390625 143.609375 C 205.164062 143.214844 205.019531 142.796875 204.960938 142.347656 C 204.902344 141.898438 204.933594 141.457031 205.050781 141.019531 C 205.167969 140.582031 205.363281 140.183594 205.640625 139.824219 C 205.914062 139.464844 206.25 139.171875 206.640625 138.945312 C 207.03125 138.71875 207.453125 138.578125 207.902344 138.519531 C 208.351562 138.460938 208.792969 138.488281 209.230469 138.605469 C 209.667969 138.722656 210.066406 138.917969 210.425781 139.195312 C 210.785156 139.46875 211.078125 139.804688 211.304688 140.195312 L 213.066406 143.246094 C 212.839844 142.855469 212.699219 142.433594 212.640625 141.988281 C 212.582031 141.539062 212.609375 141.097656 212.726562 140.660156 C 212.84375 140.222656 213.039062 139.824219 213.3125 139.464844 C 213.589844 139.105469 213.921875 138.8125 214.3125 138.585938 C 215.9375 137.644531 218.089844 138.179688 218.976562 139.835938 C 232.292969 164.664062 216.113281 176.945312 203.277344 172.367188 C 200.480469 171.371094 191.871094 165.417969 188.53125 164.585938 C 183.800781 163.410156 186.355469 156.4375 191.746094 157.882812 Z M 198.988281 159.824219 " fill-opacity="1" fill-rule="evenodd"/><path fill="#bef3d6" d="M 213.691406 139.046875 C 215.183594 138.589844 216.875 139.183594 217.640625 140.605469 C 226.117188 156.414062 222.636719 167.136719 215.679688 171.660156 C 223.496094 167.679688 227.980469 156.625 218.976562 139.835938 C 218.089844 138.179688 215.9375 137.644531 214.3125 138.585938 C 214.085938 138.714844 213.878906 138.867188 213.691406 139.046875 Z M 213.691406 139.046875 " fill-opacity="1" fill-rule="evenodd"/><path fill="#bef3d6" d="M 211.304688 140.195312 C 211.074219 139.804688 210.78125 139.472656 210.421875 139.195312 C 210.0625 138.921875 209.664062 138.726562 209.230469 138.609375 C 208.792969 138.492188 208.347656 138.464844 207.902344 138.523438 C 207.453125 138.582031 207.03125 138.722656 206.640625 138.949219 C 206.414062 139.078125 206.207031 139.230469 206.015625 139.410156 C 206.382812 139.296875 206.761719 139.25 207.144531 139.265625 C 207.53125 139.28125 207.902344 139.359375 208.261719 139.503906 C 208.621094 139.644531 208.945312 139.839844 209.238281 140.089844 C 209.53125 140.34375 209.773438 140.636719 209.964844 140.96875 L 213.097656 146.386719 L 213.140625 146.464844 C 213.246094 146.648438 213.40625 146.769531 213.609375 146.824219 C 213.816406 146.882812 214.011719 146.855469 214.195312 146.75 C 214.378906 146.644531 214.5 146.488281 214.554688 146.28125 C 214.609375 146.074219 214.585938 145.878906 214.476562 145.695312 L 213.253906 143.578125 Z M 211.304688 140.195312 " fill-opacity="1" fill-rule="evenodd"/><path fill="#bef3d6" d="M 203.867188 140.972656 C 203.640625 140.582031 203.347656 140.25 202.988281 139.976562 C 202.628906 139.703125 202.230469 139.503906 201.792969 139.386719 C 201.359375 139.273438 200.914062 139.242188 200.464844 139.300781 C 200.019531 139.359375 199.597656 139.5 199.207031 139.726562 C 198.980469 139.855469 198.773438 140.011719 198.582031 140.1875 C 198.953125 140.078125 199.328125 140.03125 199.714844 140.046875 C 200.097656 140.0625 200.472656 140.140625 200.828125 140.28125 C 201.1875 140.421875 201.511719 140.621094 201.804688 140.871094 C 202.097656 141.121094 202.339844 141.414062 202.535156 141.746094 L 206.007812 147.761719 L 207.183594 149.800781 L 207.230469 149.878906 C 207.335938 150.0625 207.492188 150.183594 207.699219 150.238281 C 207.902344 150.292969 208.097656 150.269531 208.28125 150.164062 C 208.464844 150.058594 208.585938 149.902344 208.640625 149.695312 C 208.695312 149.488281 208.671875 149.292969 208.5625 149.109375 L 208.519531 149.03125 L 207.34375 146.992188 Z M 203.867188 140.972656 " fill-opacity="1" fill-rule="evenodd"/><path fill="#bef3d6" d="M 202.605469 152.445312 L 190.550781 131.558594 C 190.421875 131.335938 190.269531 131.132812 190.097656 130.945312 C 189.921875 130.753906 189.726562 130.589844 189.515625 130.445312 C 189.304688 130.300781 189.078125 130.179688 188.839844 130.085938 C 188.597656 129.992188 188.351562 129.925781 188.097656 129.886719 C 187.84375 129.851562 187.589844 129.839844 187.332031 129.863281 C 187.078125 129.882812 186.824219 129.929688 186.582031 130.007812 C 186.335938 130.082031 186.101562 130.183594 185.878906 130.316406 C 185.65625 130.445312 185.453125 130.597656 185.265625 130.773438 C 185.632812 130.660156 186.011719 130.613281 186.394531 130.628906 C 186.78125 130.644531 187.152344 130.726562 187.511719 130.867188 C 187.871094 131.007812 188.195312 131.203125 188.488281 131.453125 C 188.777344 131.707031 189.023438 131.996094 189.214844 132.332031 L 200.09375 151.175781 L 201.273438 153.214844 L 201.316406 153.292969 C 201.421875 153.476562 201.578125 153.597656 201.785156 153.652344 C 201.992188 153.707031 202.1875 153.683594 202.371094 153.578125 C 202.554688 153.46875 202.675781 153.3125 202.730469 153.109375 C 202.785156 152.902344 202.757812 152.707031 202.652344 152.523438 Z M 202.605469 152.445312 " fill-opacity="1" fill-rule="evenodd"/><path fill="#bef3d6" d="M 191.746094 157.882812 C 187.097656 156.640625 184.554688 161.652344 186.984375 163.808594 C 186.492188 161.453125 188.871094 158.390625 192.617188 159.390625 L 199.855469 161.335938 L 198.988281 159.824219 Z M 191.746094 157.882812 " fill-opacity="1" fill-rule="evenodd"/></svg>