<svg xmlns="http://www.w3.org/2000/svg" xmlns:xlink="http://www.w3.org/1999/xlink" width="612" zoomAndPan="magnify" viewBox="0 0 458.88 292.499991" height="390" preserveAspectRatio="xMidYMid meet" version="1.0"><defs><clipPath id="84f954c715"><path d="M 105 59 L 127 59 L 127 111 L 105 111 Z M 105 59 " clip-rule="nonzero"/></clipPath><clipPath id="6ba9b8d4ee"><path d="M 0.332031 66.019531 L 66.140625 0.210938 L 142.480469 76.550781 L 76.671875 142.359375 Z M 0.332031 66.019531 " clip-rule="nonzero"/></clipPath><clipPath id="1f04050af5"><path d="M 0.332031 66.019531 L 66.140625 0.210938 L 142.480469 76.550781 L 76.671875 142.359375 Z M 0.332031 66.019531 " clip-rule="nonzero"/></clipPath><clipPath id="6879ba8130"><path d="M 18 76 L 93 76 L 93 117 L 18 117 Z M 18 76 " clip-rule="nonzero"/></clipPath><clipPath id="a182763beb"><path d="M 0.332031 66.019531 L 66.140625 0.210938 L 142.480469 76.550781 L 76.671875 142.359375 Z M 0.332031 66.019531 " clip-rule="nonzero"/></clipPath><clipPath id="82a0733986"><path d="M 0.332031 66.019531 L 66.140625 0.210938 L 142.480469 76.550781 L 76.671875 142.359375 Z M 0.332031 66.019531 " clip-rule="nonzero"/></clipPath><clipPath id="8230aa29fa"><path d="M 54 9 L 100 9 L 100 110 L 54 110 Z M 54 9 " clip-rule="nonzero"/></clipPath><clipPath id="26a1eb4b6e"><path d="M 0.332031 66.019531 L 66.140625 0.210938 L 142.480469 76.550781 L 76.671875 142.359375 Z M 0.332031 66.019531 " clip-rule="nonzero"/></clipPath><clipPath id="35a442e6f8"><path d="M 0.332031 66.019531 L 66.140625 0.210938 L 142.480469 76.550781 L 76.671875 142.359375 Z M 0.332031 66.019531 " clip-rule="nonzero"/></clipPath><clipPath id="6132eaaa56"><path d="M 325 240 L 372 240 L 372 282 L 325 282 Z M 325 240 " clip-rule="nonzero"/></clipPath><clipPath id="833782ab36"><path d="M 416.996094 147.382812 L 458.574219 243.78125 L 347.132812 291.84375 L 305.558594 195.445312 Z M 416.996094 147.382812 " clip-rule="nonzero"/></clipPath><clipPath id="eee72bf86e"><path d="M 416.996094 147.382812 L 458.574219 243.78125 L 347.132812 291.84375 L 305.558594 195.445312 Z M 416.996094 147.382812 " clip-rule="nonzero"/></clipPath><clipPath id="58046ac4ff"><path d="M 325 161 L 398 161 L 398 223 L 325 223 Z M 325 161 " clip-rule="nonzero"/></clipPath><clipPath id="e5ed322877"><path d="M 416.996094 147.382812 L 458.574219 243.78125 L 347.132812 291.84375 L 305.558594 195.445312 Z M 416.996094 147.382812 " clip-rule="nonzero"/></clipPath><clipPath id="feba5a8086"><path d="M 416.996094 147.382812 L 458.574219 243.78125 L 347.132812 291.84375 L 305.558594 195.445312 Z M 416.996094 147.382812 " clip-rule="nonzero"/></clipPath><clipPath id="3172454988"><path d="M 330 211 L 453 211 L 453 247 L 330 247 Z M 330 211 " clip-rule="nonzero"/></clipPath><clipPath id="d7a6e5c50c"><path d="M 416.996094 147.382812 L 458.574219 243.78125 L 347.132812 291.84375 L 305.558594 195.445312 Z M 416.996094 147.382812 " clip-rule="nonzero"/></clipPath><clipPath id="84229c0a62"><path d="M 416.996094 147.382812 L 458.574219 243.78125 L 347.132812 291.84375 L 305.558594 195.445312 Z M 416.996094 147.382812 " clip-rule="nonzero"/></clipPath></defs><g clip-path="url(#84f954c715)"><g clip-path="url(#6ba9b8d4ee)"><g clip-path="url(#1f04050af5)"><path fill="#7ec28a" d="M 107.445312 110.726562 C 104.53125 101.445312 104.761719 91.207031 108.089844 82.066406 C 111.421875 72.929688 117.832031 64.941406 126.03125 59.710938 C 128.117188 78.261719 121.128906 98.027344 107.445312 110.726562 " fill-opacity="1" fill-rule="nonzero"/></g></g></g><g clip-path="url(#6879ba8130)"><g clip-path="url(#a182763beb)"><g clip-path="url(#82a0733986)"><path fill="#7ec28a" d="M 92.410156 116.84375 C 86.1875 103.210938 75.375 91.71875 62.144531 84.679688 C 48.914062 77.640625 33.339844 75.09375 18.558594 77.554688 C 35.28125 100.953125 63.648438 116.398438 92.410156 116.84375 " fill-opacity="1" fill-rule="nonzero"/></g></g></g><g clip-path="url(#8230aa29fa)"><g clip-path="url(#26a1eb4b6e)"><g clip-path="url(#35a442e6f8)"><path fill="#7ec28a" d="M 99.632812 109.03125 C 82.71875 99.417969 69.105469 84.117188 61.527344 66.199219 C 53.945312 48.28125 52.445312 27.855469 57.324219 9.023438 C 85.65625 33.335938 102.363281 71.796875 99.632812 109.03125 " fill-opacity="1" fill-rule="nonzero"/></g></g></g><path fill="#dbe1e2" d="M 277.753906 249.625 C 341.996094 209.488281 340.382812 177 340.777344 173.714844 C 350.691406 90.699219 326.015625 45.683594 281.164062 25.683594 C 259.90625 16.203125 226.300781 11.292969 202.34375 27.261719 C 179.972656 42.167969 189.667969 59.511719 164.988281 89.285156 C 136.5625 123.574219 112.644531 119.296875 93.585938 149.246094 C 81 169.023438 87.605469 192.609375 89.195312 199.476562 C 100.871094 249.816406 162.160156 267.121094 169.035156 268.949219 C 223.605469 283.457031 268.519531 255.394531 277.753906 249.625 " fill-opacity="1" fill-rule="nonzero"/><path fill="#000000" d="M 260.53125 268.535156 C 260.316406 268.535156 260.121094 268.386719 260.078125 268.167969 C 260.023438 267.917969 260.179688 267.667969 260.429688 267.617188 C 280.824219 263.183594 299.757812 252.839844 315.1875 237.707031 C 315.371094 237.527344 315.667969 237.53125 315.84375 237.714844 C 316.027344 237.898438 316.023438 238.191406 315.839844 238.371094 C 300.285156 253.625 281.195312 264.054688 260.628906 268.523438 C 260.59375 268.53125 260.5625 268.535156 260.53125 268.535156 " fill-opacity="1" fill-rule="nonzero"/><path fill="#000000" d="M 268.859375 260.234375 C 268.667969 260.234375 268.484375 260.113281 268.417969 259.917969 C 268.339844 259.675781 268.46875 259.410156 268.710938 259.328125 C 281.1875 255.164062 292.734375 248.640625 303.027344 239.945312 C 303.226562 239.78125 303.519531 239.804688 303.683594 240 C 303.851562 240.199219 303.824219 240.492188 303.628906 240.65625 C 293.246094 249.425781 281.59375 256.003906 269.007812 260.210938 C 268.957031 260.226562 268.910156 260.234375 268.859375 260.234375 " fill-opacity="1" fill-rule="nonzero"/><path fill="#000000" d="M 307.28125 235.214844 C 307.085938 235.214844 306.890625 235.261719 306.710938 235.351562 C 306.410156 235.507812 306.1875 235.765625 306.082031 236.089844 C 305.976562 236.410156 306.003906 236.75 306.15625 237.054688 C 306.308594 237.351562 306.570312 237.578125 306.890625 237.683594 C 307.214844 237.785156 307.554688 237.761719 307.859375 237.609375 C 308.160156 237.453125 308.382812 237.195312 308.484375 236.871094 C 308.589844 236.550781 308.566406 236.207031 308.414062 235.90625 C 308.257812 235.605469 307.996094 235.382812 307.675781 235.277344 C 307.546875 235.238281 307.414062 235.214844 307.28125 235.214844 Z M 307.289062 238.675781 C 307.058594 238.675781 306.828125 238.636719 306.605469 238.566406 C 306.046875 238.386719 305.59375 237.996094 305.328125 237.472656 C 305.0625 236.953125 305.015625 236.359375 305.199219 235.800781 C 305.378906 235.242188 305.769531 234.789062 306.289062 234.523438 C 307.367188 233.976562 308.691406 234.40625 309.238281 235.488281 C 309.503906 236.007812 309.550781 236.601562 309.371094 237.160156 C 309.1875 237.71875 308.800781 238.171875 308.277344 238.433594 C 307.964844 238.59375 307.628906 238.675781 307.289062 238.675781 " fill-opacity="1" fill-rule="nonzero"/><path fill="#000000" d="M 315.132812 233.367188 L 319.5625 236.496094 C 319.855469 234.464844 320.042969 232.507812 320.128906 231.488281 Z M 319.90625 237.777344 C 319.8125 237.777344 319.71875 237.746094 319.640625 237.691406 L 313.878906 233.617188 C 313.738281 233.519531 313.664062 233.351562 313.6875 233.179688 C 313.710938 233.007812 313.824219 232.863281 313.984375 232.804688 L 320.484375 230.363281 C 320.632812 230.304688 320.800781 230.328125 320.929688 230.425781 C 321.054688 230.519531 321.125 230.671875 321.113281 230.828125 C 321.109375 230.863281 320.875 234.152344 320.367188 237.382812 C 320.34375 237.542969 320.238281 237.675781 320.085938 237.742188 C 320.03125 237.765625 319.96875 237.777344 319.90625 237.777344 " fill-opacity="1" fill-rule="nonzero"/><path fill="#f5c00c" d="M 250.152344 154.585938 L 204.023438 154.875 C 203.722656 154.875 203.625 155.152344 203.625 155.417969 L 203.625 194.667969 C 203.625 198.425781 177.414062 208.191406 177.160156 207.695312 L 177.128906 211.847656 C 177.125 212.621094 177.804688 213.304688 178.671875 213.304688 L 179.25 213.304688 C 179.253906 213.304688 179.257812 213.304688 179.261719 213.304688 L 217.9375 213.304688 C 219.734375 213.304688 221.507812 212.902344 223.132812 212.226562 L 244.398438 203.269531 C 248.226562 201.65625 250.640625 198.195312 250.640625 194.417969 L 250.640625 155.128906 C 250.640625 154.863281 250.453125 154.585938 250.152344 154.585938 " fill-opacity="1" fill-rule="nonzero"/><path fill="#ffffff" d="M 198.953125 152.589844 L 198.953125 191.847656 C 198.953125 195.714844 196.464844 199.242188 192.550781 200.914062 L 178.203125 207.035156 C 177.269531 207.4375 177.585938 208.691406 178.625 208.691406 L 218.042969 208.691406 C 219.8125 208.691406 221.5625 208.339844 223.167969 207.667969 L 239.0625 200.976562 C 243.003906 199.316406 245.519531 195.773438 245.519531 191.886719 L 245.519531 152.589844 C 245.519531 152.429688 245.375 152.296875 245.191406 152.296875 L 199.28125 152.296875 C 199.101562 152.296875 198.953125 152.429688 198.953125 152.589844 " fill-opacity="1" fill-rule="nonzero"/><path fill="#f5c00c" d="M 163.484375 29.253906 L 334.898438 28.757812 C 338.34375 28.757812 341.050781 31.699219 340.746094 35.113281 L 328.75 169.582031 C 328.476562 172.597656 325.941406 174.90625 322.902344 174.90625 L 111.753906 174.875 C 108.308594 174.875 105.566406 171.628906 105.871094 168.210938 L 117.871094 34.574219 C 118.140625 31.5625 120.582031 28.925781 123.621094 28.925781 L 163.484375 29.253906 " fill-opacity="1" fill-rule="nonzero"/><path fill="#ffffff" d="M 155.3125 29.257812 L 326.695312 29.257812 C 330.144531 29.257812 332.847656 32.214844 332.542969 35.648438 L 320.597656 169.875 C 320.332031 172.90625 317.792969 175.226562 314.753906 175.226562 L 103.601562 175.226562 C 100.15625 175.226562 97.449219 172.269531 97.753906 168.835938 L 109.699219 34.605469 C 109.96875 31.578125 112.503906 29.257812 115.546875 29.257812 L 155.3125 29.257812 " fill-opacity="1" fill-rule="nonzero"/><path fill="#000000" d="M 103.246094 107.613281 C 103.230469 107.613281 103.21875 107.613281 103.203125 107.613281 C 102.949219 107.589844 102.757812 107.363281 102.78125 107.109375 L 109.234375 34.566406 C 109.53125 31.273438 112.242188 28.792969 115.546875 28.792969 L 155.3125 28.792969 C 155.566406 28.792969 155.773438 29 155.773438 29.257812 C 155.773438 29.511719 155.566406 29.722656 155.3125 29.722656 L 115.546875 29.722656 C 112.726562 29.722656 110.410156 31.839844 110.160156 34.648438 L 103.707031 107.191406 C 103.6875 107.433594 103.484375 107.613281 103.246094 107.613281 " fill-opacity="1" fill-rule="nonzero"/><path fill="#000000" d="M 277.582031 175.691406 L 182.175781 175.691406 C 181.921875 175.691406 181.710938 175.480469 181.710938 175.226562 C 181.710938 174.96875 181.921875 174.761719 182.175781 174.761719 L 277.582031 174.761719 C 277.839844 174.761719 278.046875 174.96875 278.046875 175.226562 C 278.046875 175.480469 277.839844 175.691406 277.582031 175.691406 " fill-opacity="1" fill-rule="nonzero"/><path fill="#000000" d="M 323.816406 134.199219 C 323.804688 134.199219 323.789062 134.199219 323.777344 134.195312 C 323.519531 134.175781 323.332031 133.949219 323.355469 133.691406 L 332.082031 35.605469 C 332.214844 34.097656 331.707031 32.59375 330.683594 31.476562 C 329.664062 30.359375 328.210938 29.722656 326.699219 29.722656 L 155.3125 29.722656 C 155.054688 29.722656 154.847656 29.511719 154.847656 29.257812 C 154.847656 29 155.054688 28.792969 155.3125 28.792969 L 326.699219 28.792969 C 328.472656 28.792969 330.175781 29.542969 331.371094 30.851562 C 332.570312 32.15625 333.164062 33.921875 333.007812 35.6875 L 324.277344 133.773438 C 324.257812 134.015625 324.058594 134.199219 323.816406 134.199219 " fill-opacity="1" fill-rule="nonzero"/><path fill="#dbe1e2" d="M 159.121094 34.722656 L 320.941406 34.722656 C 324.195312 34.722656 326.75 37.453125 326.460938 40.621094 L 315.183594 164.515625 C 314.929688 167.3125 312.535156 169.453125 309.664062 169.453125 L 110.300781 169.453125 C 107.046875 169.453125 104.492188 166.726562 104.78125 163.554688 L 116.058594 39.664062 C 116.3125 36.867188 118.707031 34.722656 121.578125 34.722656 L 159.121094 34.722656 " fill-opacity="1" fill-rule="nonzero"/><path fill="#f5c00c" d="M 325.714844 48.886719 L 326.460938 40.683594 C 326.75 37.511719 324.195312 34.765625 320.941406 34.765625 L 121.578125 34.765625 C 118.707031 34.765625 116.3125 36.925781 116.058594 39.722656 L 115.226562 48.886719 L 325.714844 48.886719 " fill-opacity="1" fill-rule="nonzero"/><path fill="#f5c00c" d="M 310.699219 113.597656 L 181.484375 113.597656 L 186.75 54.703125 L 315.96875 54.703125 L 310.699219 113.597656 " fill-opacity="1" fill-rule="nonzero"/><path fill="#f5c00c" d="M 305.824219 163.191406 L 176.609375 163.191406 L 180.648438 118.023438 L 309.863281 118.023438 L 305.824219 163.191406 " fill-opacity="1" fill-rule="nonzero"/><path fill="#f5c00c" d="M 174.199219 113.902344 L 116.867188 113.902344 L 122.3125 55.140625 L 179.644531 55.140625 L 174.199219 113.902344 " fill-opacity="1" fill-rule="nonzero"/><path fill="#f5c00c" d="M 172.730469 125.542969 L 115.398438 125.542969 L 115.890625 120.238281 L 173.222656 120.238281 L 172.730469 125.542969 " fill-opacity="1" fill-rule="nonzero"/><path fill="#f5c00c" d="M 171.988281 136.730469 L 114.65625 136.730469 L 115.148438 131.425781 L 172.480469 131.425781 L 171.988281 136.730469 " fill-opacity="1" fill-rule="nonzero"/><path fill="#f5c00c" d="M 171.265625 145.566406 L 113.933594 145.566406 L 114.425781 140.261719 L 171.757812 140.261719 L 171.265625 145.566406 " fill-opacity="1" fill-rule="nonzero"/><path fill="#f5c00c" d="M 170.5625 154.207031 L 113.234375 154.207031 L 113.722656 148.902344 L 171.054688 148.902344 L 170.5625 154.207031 " fill-opacity="1" fill-rule="nonzero"/><path fill="#f5c00c" d="M 169.84375 163.042969 L 112.511719 163.042969 L 113.003906 157.742188 L 170.335938 157.742188 L 169.84375 163.042969 " fill-opacity="1" fill-rule="nonzero"/><path fill="#f5c00c" d="M 289.851562 210.886719 L 101.019531 210.886719 L 118.738281 193.539062 L 309.488281 193.539062 L 293.25 209.441406 C 292.292969 210.375 291.089844 210.886719 289.851562 210.886719 " fill-opacity="1" fill-rule="nonzero"/><path fill="#ffffff" d="M 291.769531 217.082031 L 101.019531 217.082031 L 101.019531 210.578125 L 291.769531 210.578125 L 291.769531 217.082031 " fill-opacity="1" fill-rule="nonzero"/><path fill="#ffffff" d="M 291.523438 210.523438 L 309.488281 193.539062 L 309.488281 199.117188 L 291.523438 217.082031 L 291.523438 210.523438 " fill-opacity="1" fill-rule="nonzero"/><path fill="#000000" d="M 257.410156 241.566406 C 251.230469 219.90625 279.210938 218.0625 291.269531 232.035156 C 293.023438 234.066406 292.050781 237.226562 289.453125 237.878906 L 262.671875 244.605469 C 260.382812 245.175781 258.058594 243.832031 257.410156 241.566406 " fill-opacity="1" fill-rule="nonzero"/><path fill="#ffffff" d="M 274.882812 218.164062 C 273.042969 217.21875 270.320312 216.101562 265.515625 216.832031 C 260.222656 217.640625 259.039062 221.550781 250.734375 223.300781 C 236.453125 226.3125 243.484375 234.667969 243.484375 234.667969 L 254.59375 229.644531 C 255.3125 229.316406 256.105469 229.191406 256.894531 229.277344 C 259.316406 229.542969 265.109375 229.976562 270.390625 228.78125 C 274.339844 227.890625 279.542969 231.167969 282.34375 228.699219 C 283.972656 227.265625 278.804688 220.175781 274.882812 218.164062 " fill-opacity="1" fill-rule="nonzero"/><path fill="#000000" d="M 268.457031 217.0625 C 267.59375 217.0625 266.640625 217.132812 265.585938 217.292969 C 263.253906 217.648438 261.742188 218.640625 259.988281 219.789062 C 257.839844 221.195312 255.402344 222.792969 250.828125 223.757812 C 246.070312 224.757812 243.253906 226.441406 242.453125 228.757812 C 241.671875 231.019531 243.082031 233.316406 243.632812 234.09375 L 254.402344 229.21875 C 255.199219 228.859375 256.078125 228.71875 256.945312 228.816406 C 259.207031 229.0625 265.035156 229.515625 270.289062 228.332031 C 272.066406 227.929688 274.035156 228.316406 275.933594 228.691406 C 278.335938 229.167969 280.601562 229.617188 282.039062 228.351562 C 282.203125 228.207031 282.203125 227.890625 282.171875 227.652344 C 281.890625 225.398438 277.894531 220.230469 274.671875 218.578125 C 273.15625 217.800781 271.265625 217.0625 268.457031 217.0625 Z M 243.488281 235.136719 C 243.351562 235.136719 243.222656 235.078125 243.128906 234.96875 C 243.019531 234.839844 240.449219 231.726562 241.574219 228.460938 C 242.484375 225.8125 245.535156 223.921875 250.636719 222.847656 C 255.042969 221.917969 257.398438 220.375 259.480469 219.011719 C 261.246094 217.855469 262.914062 216.761719 265.449219 216.375 C 270.179688 215.652344 272.980469 216.664062 275.097656 217.75 C 278.414062 219.453125 282.746094 224.757812 283.097656 227.535156 C 283.199219 228.371094 282.914062 228.820312 282.652344 229.050781 C 280.875 230.617188 278.273438 230.101562 275.753906 229.605469 C 273.949219 229.246094 272.082031 228.878906 270.492188 229.238281 C 265.105469 230.453125 259.148438 229.992188 256.84375 229.738281 C 256.140625 229.660156 255.429688 229.773438 254.785156 230.066406 L 243.679688 235.09375 C 243.617188 235.121094 243.550781 235.136719 243.488281 235.136719 " fill-opacity="1" fill-rule="nonzero"/><path fill="#6c7c8b" d="M 106.457031 185.894531 C 104.835938 181.648438 108.40625 171.972656 113.011719 171.726562 C 132.917969 170.667969 165.363281 169.707031 209.625 187.742188 C 211.296875 188.425781 212.570312 189.984375 213.105469 192 L 213.421875 193.179688 C 213.925781 195.074219 213.585938 198.042969 212.707031 200.46875 C 211.839844 202.863281 209.824219 204.726562 207.289062 205.222656 C 206.664062 205.34375 206.003906 205.386719 205.359375 205.28125 C 195.417969 203.679688 165.105469 196.902344 143.191406 211.109375 C 123.953125 223.578125 111.554688 199.210938 106.457031 185.894531 " fill-opacity="1" fill-rule="nonzero"/><path fill="#6c7c8b" d="M 250.957031 222.652344 C 249.398438 221.0625 247.039062 220.523438 244.921875 221.257812 C 234.703125 224.792969 201.402344 235.675781 195.726562 229.328125 C 192.488281 225.703125 184.984375 214.90625 176.835938 205.109375 C 171.5625 198.769531 166.019531 192.851562 161.1875 189.570312 C 146.789062 179.800781 108.074219 182.535156 108.074219 182.535156 C 108.074219 182.535156 140.828125 255.414062 170.902344 263.78125 C 176.074219 265.21875 180.570312 266.070312 184.558594 266.472656 C 199.585938 267.984375 207.429688 263.078125 217.320312 258.867188 C 232.085938 252.582031 254.804688 236.933594 254.800781 231.382812 C 254.796875 227.46875 252.800781 224.53125 250.957031 222.652344 " fill-opacity="1" fill-rule="nonzero"/><path fill="#6c7c8b" d="M 147.796875 267.285156 C 153.71875 268.914062 173.226562 272.8125 197.691406 273.449219 C 177.28125 262.355469 171.78125 241.789062 171.78125 241.789062 C 188.996094 239.726562 171.671875 207.199219 164.9375 195.167969 C 161.207031 188.496094 151.027344 182.980469 144.132812 179.519531 C 129.121094 171.988281 103.289062 166.847656 93.351562 177.398438 C 89.007812 182.011719 88.175781 186.160156 88.171875 193.40625 C 88.171875 194.730469 88.308594 196.050781 88.574219 197.34375 C 99.53125 250.828125 126.953125 261.558594 147.796875 267.285156 " fill-opacity="1" fill-rule="nonzero"/><path fill="#dbe1e2" d="M 181.648438 210.796875 C 181.511719 210.796875 181.375 210.734375 181.285156 210.617188 C 174.625 202.195312 167.644531 195.566406 160.542969 190.925781 C 156.582031 188.335938 151.574219 186.203125 146.445312 184.914062 C 146.195312 184.855469 146.042969 184.601562 146.105469 184.351562 C 146.167969 184.101562 146.417969 183.953125 146.667969 184.015625 C 151.898438 185.324219 157.007812 187.503906 161.050781 190.144531 C 168.238281 194.84375 175.289062 201.539062 182.011719 210.042969 C 182.171875 210.246094 182.136719 210.535156 181.933594 210.695312 C 181.851562 210.761719 181.75 210.796875 181.648438 210.796875 " fill-opacity="1" fill-rule="nonzero"/><path fill="#dbe1e2" d="M 191.230469 268.628906 C 191.214844 268.628906 191.195312 268.628906 191.179688 268.628906 C 186.4375 268.109375 182.390625 267.253906 177.65625 265.78125 C 164.453125 261.664062 144.242188 238.632812 134.363281 220.539062 C 134.238281 220.3125 134.324219 220.03125 134.546875 219.90625 C 134.773438 219.785156 135.054688 219.867188 135.179688 220.09375 C 144.972656 238.03125 164.941406 260.839844 177.933594 264.894531 C 182.605469 266.351562 186.597656 267.191406 191.28125 267.703125 C 191.535156 267.734375 191.71875 267.960938 191.691406 268.214844 C 191.667969 268.453125 191.464844 268.628906 191.230469 268.628906 " fill-opacity="1" fill-rule="nonzero"/><path fill="#ffffff" d="M 233.222656 205.820312 C 234.1875 205.90625 235.335938 205.976562 237.113281 205.519531 L 250.882812 201.722656 C 252.078125 201.414062 252.78125 200.1875 252.4375 199.015625 C 252.4375 199.015625 251.949219 197.113281 249.820312 197.515625 C 248.972656 197.675781 244.152344 199.144531 243.578125 199.148438 C 242.664062 199.148438 242.199219 198.5 242.484375 197.636719 C 242.632812 197.195312 242.75 196.789062 242.84375 196.4375 C 243.070312 195.589844 243.742188 194.933594 244.597656 194.703125 C 246.328125 194.242188 251.507812 193.175781 252.238281 192.835938 C 253.324219 192.332031 254.933594 191.765625 255.457031 190.640625 L 255.589844 190.347656 C 256.121094 189.175781 255.183594 187.871094 253.890625 187.980469 L 241.363281 189.140625 C 239.757812 189.277344 238.246094 189.960938 237.089844 191.070312 L 231.101562 196.816406 C 229.75 198.109375 227.769531 198.519531 226.011719 197.871094 L 210.785156 191.269531 C 206.273438 189.578125 203.738281 198.09375 203.738281 198.09375 C 203.324219 200.695312 205.214844 203.140625 207.746094 203.503906 L 233.222656 205.820312 " fill-opacity="1" fill-rule="nonzero"/><path fill="#000000" d="M 233.265625 205.359375 C 234.292969 205.449219 235.347656 205.492188 236.996094 205.070312 L 250.757812 201.273438 C 251.226562 201.152344 251.605469 200.863281 251.839844 200.453125 C 252.066406 200.054688 252.121094 199.589844 251.992188 199.148438 C 251.945312 198.984375 251.542969 197.664062 249.910156 197.972656 C 249.578125 198.035156 248.535156 198.328125 247.433594 198.636719 C 244.996094 199.324219 243.921875 199.609375 243.582031 199.609375 C 243.578125 199.609375 243.578125 199.609375 243.574219 199.609375 C 242.984375 199.609375 242.496094 199.390625 242.207031 198.992188 C 241.914062 198.589844 241.855469 198.054688 242.042969 197.488281 C 242.171875 197.105469 242.289062 196.707031 242.394531 196.316406 C 242.664062 195.316406 243.460938 194.53125 244.476562 194.257812 C 245.164062 194.074219 246.367188 193.796875 247.640625 193.507812 C 249.425781 193.105469 251.644531 192.601562 252.042969 192.414062 C 252.199219 192.34375 252.363281 192.269531 252.53125 192.195312 C 253.480469 191.777344 254.660156 191.253906 255.035156 190.445312 L 255.167969 190.152344 C 255.34375 189.761719 255.300781 189.316406 255.050781 188.960938 C 254.796875 188.601562 254.378906 188.410156 253.929688 188.445312 L 241.40625 189.605469 C 239.90625 189.734375 238.488281 190.371094 237.410156 191.40625 L 231.421875 197.148438 C 229.953125 198.5625 227.765625 199.015625 225.847656 198.308594 L 210.601562 191.695312 C 209.847656 191.414062 209.113281 191.453125 208.382812 191.816406 C 205.832031 193.082031 204.320312 197.785156 204.191406 198.199219 C 204.027344 199.296875 204.308594 200.410156 204.988281 201.328125 C 205.671875 202.261719 206.703125 202.886719 207.808594 203.046875 Z M 234.425781 206.347656 C 233.980469 206.347656 233.574219 206.316406 233.183594 206.285156 L 207.703125 203.96875 C 206.324219 203.769531 205.070312 203.011719 204.238281 201.882812 C 203.40625 200.75 203.0625 199.378906 203.28125 198.023438 C 203.28125 198 203.285156 197.980469 203.292969 197.960938 C 203.359375 197.738281 204.953125 192.480469 207.964844 190.984375 C 208.929688 190.503906 209.933594 190.457031 210.949219 190.835938 L 226.195312 197.445312 C 227.757812 198.019531 229.566406 197.648438 230.78125 196.480469 L 236.765625 190.734375 C 237.996094 189.554688 239.617188 188.824219 241.324219 188.679688 L 253.847656 187.519531 C 254.628906 187.449219 255.363281 187.792969 255.8125 188.425781 C 256.253906 189.050781 256.328125 189.839844 256.011719 190.535156 L 255.878906 190.832031 C 255.355469 191.960938 254 192.5625 252.910156 193.046875 C 252.742188 193.117188 252.585938 193.1875 252.4375 193.257812 C 251.980469 193.46875 250.324219 193.851562 247.847656 194.417969 C 246.582031 194.703125 245.386719 194.972656 244.71875 195.152344 C 244.019531 195.339844 243.476562 195.878906 243.292969 196.558594 C 243.183594 196.964844 243.058594 197.378906 242.925781 197.78125 C 242.835938 198.054688 242.847656 198.289062 242.960938 198.445312 C 243.070312 198.597656 243.289062 198.683594 243.574219 198.683594 C 243.574219 198.683594 243.578125 198.683594 243.578125 198.683594 C 243.886719 198.671875 245.871094 198.113281 247.179688 197.742188 C 248.351562 197.414062 249.363281 197.128906 249.734375 197.058594 C 251.757812 196.675781 252.679688 198.097656 252.886719 198.898438 C 253.085938 199.570312 253 200.289062 252.648438 200.914062 C 252.289062 201.542969 251.703125 201.988281 251 202.171875 L 237.238281 205.96875 C 236.097656 206.257812 235.199219 206.347656 234.425781 206.347656 " fill-opacity="1" fill-rule="nonzero"/><path fill="#ffffff" d="M 217.046875 204.191406 C 215.070312 200.609375 217.664062 196.417969 219.074219 194.5625 C 219.460938 194.046875 219.285156 193.3125 218.699219 193.035156 L 215.710938 191.617188 C 215.304688 191.425781 214.816406 191.519531 214.511719 191.847656 C 212.710938 193.773438 207.25 200.386719 212.214844 205.097656 C 212.378906 205.253906 212.597656 205.347656 212.824219 205.367188 L 216.039062 205.679688 C 216.855469 205.761719 217.4375 204.902344 217.046875 204.191406 " fill-opacity="1" fill-rule="nonzero"/><path fill="#000000" d="M 215.269531 191.984375 C 215.113281 191.984375 214.960938 192.046875 214.851562 192.164062 C 213.128906 194.003906 207.882812 200.347656 212.535156 204.761719 C 212.621094 204.839844 212.742188 204.894531 212.867188 204.90625 L 216.085938 205.21875 C 216.296875 205.238281 216.5 205.144531 216.617188 204.964844 C 216.667969 204.882812 216.777344 204.667969 216.640625 204.414062 C 214.503906 200.542969 217.371094 196.039062 218.703125 194.28125 C 218.804688 194.148438 218.839844 193.980469 218.800781 193.820312 C 218.761719 193.65625 218.652344 193.527344 218.5 193.453125 L 215.511719 192.039062 C 215.433594 192 215.351562 191.984375 215.269531 191.984375 Z M 216.140625 206.152344 C 216.09375 206.152344 216.042969 206.148438 215.996094 206.144531 L 212.78125 205.832031 C 212.445312 205.800781 212.132812 205.660156 211.898438 205.4375 C 206.621094 200.433594 212.304688 193.527344 214.171875 191.53125 C 214.621094 191.050781 215.320312 190.917969 215.910156 191.199219 L 218.898438 192.613281 C 219.304688 192.804688 219.597656 193.164062 219.703125 193.597656 C 219.808594 194.03125 219.714844 194.484375 219.445312 194.84375 C 218.222656 196.457031 215.582031 200.574219 217.453125 203.96875 C 217.71875 204.449219 217.695312 205.015625 217.390625 205.476562 C 217.113281 205.902344 216.644531 206.152344 216.140625 206.152344 " fill-opacity="1" fill-rule="nonzero"/><path fill="#dbe1e2" d="M 218.445312 197.035156 C 218.445312 199.171875 216.683594 200.90625 214.511719 200.90625 C 212.335938 200.90625 210.578125 199.171875 210.578125 197.035156 C 210.578125 194.898438 212.335938 193.167969 214.511719 193.167969 C 216.683594 193.167969 218.445312 194.898438 218.445312 197.035156 " fill-opacity="1" fill-rule="nonzero"/><path fill="#000000" d="M 214.511719 193.632812 C 212.597656 193.632812 211.042969 195.160156 211.042969 197.035156 C 211.042969 198.914062 212.597656 200.441406 214.511719 200.441406 C 216.425781 200.441406 217.980469 198.914062 217.980469 197.035156 C 217.980469 195.160156 216.425781 193.632812 214.511719 193.632812 Z M 214.511719 201.371094 C 212.085938 201.371094 210.113281 199.425781 210.113281 197.035156 C 210.113281 194.648438 212.085938 192.703125 214.511719 192.703125 C 216.9375 192.703125 218.910156 194.648438 218.910156 197.035156 C 218.910156 199.425781 216.9375 201.371094 214.511719 201.371094 " fill-opacity="1" fill-rule="nonzero"/><path fill="#ffffff" d="M 110.898438 182.785156 L 109.125 149.082031 L 131.980469 162.300781 L 133.363281 180.898438 C 133.566406 185.054688 130.210938 187.664062 130.210938 187.664062 C 126.085938 191.238281 119.859375 191.179688 115.097656 188.472656 L 113.996094 187.847656 C 112.152344 186.796875 110.980469 184.886719 110.898438 182.785156 " fill-opacity="1" fill-rule="nonzero"/><path fill="#000000" d="M 109.632812 149.910156 L 111.359375 182.757812 C 111.359375 182.761719 111.359375 182.761719 111.359375 182.765625 C 111.4375 184.71875 112.507812 186.46875 114.222656 187.441406 L 115.328125 188.070312 C 120.199219 190.839844 126.195312 190.527344 129.90625 187.3125 C 129.957031 187.273438 133.089844 184.777344 132.898438 180.921875 L 131.535156 162.582031 Z M 122.394531 190.917969 C 119.882812 190.917969 117.273438 190.242188 114.867188 188.878906 L 113.765625 188.25 C 111.769531 187.117188 110.523438 185.082031 110.433594 182.804688 L 108.660156 149.105469 C 108.652344 148.933594 108.738281 148.773438 108.882812 148.683594 C 109.027344 148.59375 109.210938 148.59375 109.355469 148.679688 L 132.214844 161.902344 C 132.347656 161.976562 132.433594 162.117188 132.445312 162.269531 L 133.828125 180.863281 C 134.039062 185.222656 130.640625 187.917969 130.496094 188.03125 C 128.289062 189.945312 125.410156 190.917969 122.394531 190.917969 " fill-opacity="1" fill-rule="nonzero"/><path fill="#000000" d="M 142.167969 118.8125 C 136.496094 117.652344 142.84375 124.484375 122.566406 115.328125 C 114.492188 111.679688 117.34375 121.960938 115.25 121.019531 C 107.503906 117.546875 105.378906 116.675781 101.285156 117.117188 C 98.578125 117.410156 92.308594 121.671875 92.667969 125.257812 C 93.839844 136.960938 99.382812 134.722656 101.414062 145.078125 C 102.84375 152.347656 104.511719 154.742188 107.1875 156.164062 C 109.894531 157.601562 112.550781 154.148438 115.625 155.5 C 119.605469 157.25 117.757812 164.175781 121.367188 167.691406 C 123.644531 169.90625 129.441406 171.625 139.59375 168.480469 C 141.238281 167.96875 142.28125 166.371094 142.0625 164.679688 C 141.785156 162.511719 141.417969 159.773438 140.84375 157.1875 C 138.113281 144.855469 134.265625 141.59375 136.242188 138.789062 C 139.269531 134.496094 147.820312 138.464844 149.855469 134.871094 C 151.96875 131.136719 149.9375 120.402344 142.167969 118.8125 " fill-opacity="1" fill-rule="nonzero"/><path fill="#ffffff" d="M 119.261719 136.015625 L 120.445312 139.207031 C 121.011719 140.742188 121.476562 142.316406 121.824219 143.914062 C 122.476562 146.886719 123.796875 151.96875 124.503906 154.832031 C 126.777344 164.023438 139.035156 156.082031 139.035156 156.082031 L 140.140625 153.804688 L 141.683594 153.433594 C 141.964844 153.367188 142.238281 153.246094 142.453125 153.054688 C 143.042969 152.53125 143.171875 151.722656 142.851562 151.070312 C 141.3125 147.960938 138.347656 141.433594 137.226562 135.355469 C 136.960938 133.90625 135.800781 132.765625 134.328125 132.484375 C 131.039062 131.855469 125.082031 131.621094 119.261719 136.015625 " fill-opacity="1" fill-rule="nonzero"/><path fill="#000000" d="M 119.816406 136.179688 L 120.878906 139.046875 C 121.460938 140.621094 121.933594 142.226562 122.28125 143.816406 C 122.75 145.964844 123.585938 149.277344 124.257812 151.941406 C 124.519531 152.976562 124.761719 153.933594 124.957031 154.71875 C 125.425781 156.621094 126.386719 157.871094 127.8125 158.4375 C 131.652344 159.957031 137.789062 156.304688 138.675781 155.757812 L 139.722656 153.601562 C 139.78125 153.476562 139.894531 153.382812 140.03125 153.351562 L 141.578125 152.980469 C 141.8125 152.921875 142.003906 152.832031 142.144531 152.707031 C 142.558594 152.339844 142.675781 151.765625 142.433594 151.277344 C 140.796875 147.964844 137.886719 141.503906 136.769531 135.441406 C 136.539062 134.191406 135.523438 133.1875 134.242188 132.941406 C 131.269531 132.375 125.484375 132.054688 119.816406 136.179688 Z M 129.941406 159.730469 C 129.078125 159.730469 128.242188 159.605469 127.472656 159.300781 C 125.75 158.621094 124.601562 157.152344 124.054688 154.941406 C 123.859375 154.15625 123.617188 153.203125 123.355469 152.167969 C 122.683594 149.5 121.84375 146.175781 121.371094 144.011719 C 121.035156 142.464844 120.574219 140.902344 120.007812 139.367188 L 118.824219 136.175781 C 118.753906 135.980469 118.816406 135.765625 118.980469 135.640625 C 125.019531 131.085938 131.242188 131.421875 134.414062 132.03125 C 136.070312 132.347656 137.382812 133.648438 137.683594 135.273438 C 138.78125 141.222656 141.652344 147.597656 143.265625 150.867188 C 143.695312 151.734375 143.492188 152.753906 142.761719 153.402344 C 142.503906 153.628906 142.179688 153.792969 141.792969 153.882812 L 140.460938 154.203125 L 139.453125 156.285156 C 139.414062 156.359375 139.359375 156.425781 139.289062 156.46875 C 139.042969 156.628906 134.195312 159.730469 129.941406 159.730469 " fill-opacity="1" fill-rule="nonzero"/><path fill="#ffffff" d="M 120.046875 146.824219 C 120.046875 146.824219 117.171875 139.03125 113.863281 141.058594 C 110.550781 143.085938 113.933594 151.589844 120.046875 146.824219 " fill-opacity="1" fill-rule="nonzero"/><path fill="#000000" d="M 137.164062 141.070312 C 135.820312 140.257812 134.445312 140.746094 134.011719 141.503906 C 131.554688 145.792969 132.964844 149.371094 134.140625 149.652344 C 136.078125 150.109375 137.800781 149.042969 138.191406 144.539062 C 138.371094 142.425781 137.871094 141.503906 137.164062 141.070312 " fill-opacity="1" fill-rule="nonzero"/><path fill="#000000" d="M 135.601562 141.074219 C 135.601562 141.074219 135.597656 141.074219 135.59375 141.074219 L 117.375 140.691406 C 117.121094 140.6875 116.917969 140.472656 116.921875 140.21875 C 116.925781 139.960938 117.144531 139.769531 117.394531 139.761719 L 135.613281 140.144531 C 135.871094 140.148438 136.074219 140.363281 136.066406 140.617188 C 136.0625 140.871094 135.855469 141.074219 135.601562 141.074219 " fill-opacity="1" fill-rule="nonzero"/><path fill="#000000" d="M 139.378906 141.683594 C 139.378906 141.683594 143.023438 139.617188 144.035156 142.089844 C 145.261719 145.082031 143.296875 148.816406 142.566406 149.027344 L 139.378906 141.683594 " fill-opacity="1" fill-rule="nonzero"/><path fill="#ffffff" d="M 226.585938 67.605469 C 226.585938 79.648438 216.824219 89.40625 204.785156 89.40625 C 192.742188 89.40625 182.984375 79.648438 182.984375 67.605469 C 182.984375 55.566406 192.742188 45.804688 204.785156 45.804688 C 216.824219 45.804688 226.585938 55.566406 226.585938 67.605469 " fill-opacity="1" fill-rule="nonzero"/><path fill="#000000" d="M 204.785156 46.269531 C 193.019531 46.269531 183.449219 55.839844 183.449219 67.605469 C 183.449219 79.371094 193.019531 88.941406 204.785156 88.941406 C 216.546875 88.941406 226.121094 79.371094 226.121094 67.605469 C 226.121094 55.839844 216.546875 46.269531 204.785156 46.269531 Z M 204.785156 89.871094 C 192.507812 89.871094 182.519531 79.882812 182.519531 67.605469 C 182.519531 55.328125 192.507812 45.339844 204.785156 45.339844 C 217.0625 45.339844 227.050781 55.328125 227.050781 67.605469 C 227.050781 79.882812 217.0625 89.871094 204.785156 89.871094 " fill-opacity="1" fill-rule="nonzero"/><path fill="#6c7c8b" d="M 215.109375 63.132812 L 210.125 63.132812 L 210.058594 62.800781 L 210.058594 62.804688 L 200.820312 58.4375 C 200.371094 58.226562 199.871094 58.5625 199.867188 59.070312 L 199.71875 74.273438 C 199.714844 74.789062 200.167969 75.152344 200.644531 74.972656 L 209.949219 71.484375 L 209.9375 71.335938 L 209.925781 71.183594 L 215.160156 71.183594 C 215.601562 71.183594 215.960938 71.058594 215.96875 70.609375 L 216.039062 63.902344 C 216.046875 63.371094 215.628906 63.132812 215.109375 63.132812 " fill-opacity="1" fill-rule="nonzero"/><path fill="#6c7c8b" d="M 197.355469 60.804688 C 197.335938 61.039062 197.246094 61.269531 197.089844 61.453125 C 195.617188 63.136719 194.789062 64.996094 194.628906 66.976562 C 194.464844 68.957031 194.976562 70.917969 196.15625 72.800781 C 196.441406 73.257812 196.339844 73.902344 195.929688 74.242188 C 195.519531 74.578125 194.957031 74.480469 194.667969 74.023438 C 193.261719 71.765625 192.625 69.285156 192.828125 66.839844 C 193.027344 64.394531 194.0625 62.039062 195.824219 60.023438 C 196.179688 59.613281 196.75 59.601562 197.101562 59.996094 C 197.296875 60.214844 197.378906 60.511719 197.355469 60.804688 " fill-opacity="1" fill-rule="nonzero"/><path fill="#6c7c8b" d="M 194.308594 58.179688 C 194.289062 58.417969 194.195312 58.652344 194.035156 58.832031 C 191.921875 61.214844 190.730469 63.847656 190.5 66.660156 C 190.269531 69.476562 191.011719 72.253906 192.710938 74.925781 C 192.996094 75.378906 192.902344 76.023438 192.496094 76.363281 C 192.085938 76.707031 191.523438 76.613281 191.234375 76.160156 C 190.289062 74.671875 189.59375 73.117188 189.164062 71.53125 C 188.71875 69.882812 188.558594 68.199219 188.699219 66.527344 C 188.835938 64.855469 189.265625 63.214844 189.976562 61.652344 C 190.660156 60.152344 191.601562 58.71875 192.777344 57.390625 C 193.140625 56.988281 193.710938 56.980469 194.058594 57.378906 C 194.246094 57.597656 194.332031 57.894531 194.308594 58.179688 " fill-opacity="1" fill-rule="nonzero"/><path fill="#6c7c8b" d="M 203.316406 78.859375 L 205.328125 79.585938 L 213.558594 56.40625 L 211.550781 55.679688 L 203.316406 78.859375 " fill-opacity="1" fill-rule="nonzero"/><path fill="#ffffff" d="M 203.90625 78.582031 L 205.042969 78.992188 L 212.964844 56.6875 L 211.832031 56.277344 Z M 205.605469 80.183594 L 202.722656 79.140625 L 211.265625 55.082031 L 214.148438 56.128906 L 205.605469 80.183594 " fill-opacity="1" fill-rule="nonzero"/><path fill="#ffffff" d="M 313.839844 99.167969 C 313.839844 111.207031 304.078125 120.964844 292.039062 120.964844 C 279.996094 120.964844 270.238281 111.207031 270.238281 99.167969 C 270.238281 87.128906 279.996094 77.367188 292.039062 77.367188 C 304.078125 77.367188 313.839844 87.128906 313.839844 99.167969 " fill-opacity="1" fill-rule="nonzero"/><path fill="#000000" d="M 292.035156 77.832031 C 280.269531 77.832031 270.699219 87.402344 270.699219 99.167969 C 270.699219 110.933594 280.269531 120.503906 292.035156 120.503906 C 303.800781 120.503906 313.371094 110.933594 313.371094 99.167969 C 313.371094 87.402344 303.800781 77.832031 292.035156 77.832031 Z M 292.035156 121.429688 C 279.757812 121.429688 269.773438 111.445312 269.773438 99.167969 C 269.773438 86.890625 279.757812 76.902344 292.035156 76.902344 C 304.3125 76.902344 314.300781 86.890625 314.300781 99.167969 C 314.300781 111.445312 304.3125 121.429688 292.035156 121.429688 " fill-opacity="1" fill-rule="nonzero"/><path fill="#6c7c8b" d="M 299.316406 102.730469 L 295.984375 102.285156 L 296.117188 89.121094 L 299.605469 89.402344 L 299.570312 102.507812 C 299.570312 102.644531 299.453125 102.746094 299.316406 102.730469 " fill-opacity="1" fill-rule="nonzero"/><path fill="#6c7c8b" d="M 299.3125 100.488281 L 287.277344 100.464844 C 287.015625 100.464844 286.792969 100.617188 286.707031 100.855469 L 282.769531 111.722656 L 284.882812 112.613281 L 288.859375 103.144531 C 288.964844 102.898438 289.203125 102.738281 289.476562 102.738281 L 299.296875 102.738281 C 299.394531 102.738281 299.46875 102.660156 299.460938 102.5625 L 299.3125 100.488281 " fill-opacity="1" fill-rule="nonzero"/><path fill="#6c7c8b" d="M 284.976562 112.488281 C 284.847656 112.804688 284.480469 112.9375 284.152344 112.789062 L 280.539062 111.132812 C 280.199219 110.976562 280.027344 110.582031 280.160156 110.253906 L 280.351562 109.769531 C 280.496094 109.40625 280.917969 109.25 281.292969 109.417969 L 285.472656 111.183594 L 284.976562 112.488281 " fill-opacity="1" fill-rule="nonzero"/><path fill="#6c7c8b" d="M 296.851562 97.0625 L 288.308594 97.0625 C 288.152344 97.0625 288.019531 96.9375 288.011719 96.78125 L 287.929688 95.652344 C 287.917969 95.5 288.035156 95.375 288.1875 95.375 L 296.730469 95.375 C 296.882812 95.375 297.019531 95.5 297.03125 95.652344 L 297.109375 96.78125 C 297.121094 96.9375 297.003906 97.0625 296.851562 97.0625 " fill-opacity="1" fill-rule="nonzero"/><path fill="#6c7c8b" d="M 300.265625 85.789062 C 300.550781 87.15625 299.691406 88.417969 298.347656 88.605469 C 297 88.792969 295.675781 87.839844 295.390625 86.472656 C 295.105469 85.105469 295.964844 83.84375 297.3125 83.65625 C 298.660156 83.46875 299.980469 84.421875 300.265625 85.789062 " fill-opacity="1" fill-rule="nonzero"/><path fill="#6c7c8b" d="M 303.613281 99.59375 C 303.191406 98.933594 302.546875 98.09375 301.679688 97.34375 C 301.488281 97.175781 301.171875 96.878906 300.664062 96.546875 L 300.671875 99.265625 C 301.984375 100.53125 302.738281 102.339844 302.863281 104.074219 C 303.132812 107.839844 300.339844 110.898438 296.59375 110.898438 C 294.304688 110.898438 292.035156 109.671875 290.59375 107.796875 C 290.273438 107.382812 290.011719 106.941406 289.792969 106.46875 C 289.792969 106.46875 289.296875 105.617188 289.207031 104.460938 L 288.019531 107.082031 C 288.296875 107.675781 288.578125 108.203125 288.882812 108.5625 C 290.648438 111.207031 293.585938 112.800781 296.648438 112.800781 C 298.640625 112.800781 300.613281 112.183594 302.070312 110.925781 C 303.507812 109.683594 304.589844 107.832031 304.882812 105.90625 C 305.222656 103.675781 304.878906 101.5625 303.613281 99.59375 " fill-opacity="1" fill-rule="nonzero"/><path fill="#6c7c8b" d="M 277.167969 65.679688 C 277.167969 77.71875 267.410156 87.480469 255.367188 87.480469 C 243.328125 87.480469 233.566406 77.71875 233.566406 65.679688 C 233.566406 53.640625 243.328125 43.878906 255.367188 43.878906 C 267.410156 43.878906 277.167969 53.640625 277.167969 65.679688 " fill-opacity="1" fill-rule="nonzero"/><path fill="#ffffff" d="M 272.347656 66.566406 C 261.429688 55.152344 250.152344 55.050781 238.507812 66.71875 C 246.71875 76.804688 262.488281 78.308594 272.347656 66.566406 " fill-opacity="1" fill-rule="nonzero"/><path fill="#6c7c8b" d="M 239.136719 66.75 C 243.199219 71.554688 249.042969 74.328125 255.234375 74.371094 C 261.480469 74.410156 267.320312 71.660156 271.71875 66.585938 C 266.515625 61.246094 261.191406 58.507812 255.890625 58.453125 C 250.421875 58.394531 244.789062 61.183594 239.136719 66.75 Z M 255.386719 75.300781 C 255.332031 75.300781 255.28125 75.300781 255.226562 75.300781 C 248.621094 75.253906 242.394531 72.230469 238.148438 67.011719 C 237.996094 66.828125 238.007812 66.558594 238.175781 66.390625 C 244.113281 60.445312 250.066406 57.453125 255.902344 57.523438 C 261.558594 57.585938 267.203125 60.519531 272.679688 66.246094 C 272.84375 66.417969 272.855469 66.6875 272.699219 66.867188 C 268.132812 72.308594 261.988281 75.300781 255.386719 75.300781 " fill-opacity="1" fill-rule="nonzero"/><path fill="#6c7c8b" d="M 261.632812 66.625 C 261.632812 69.9375 258.949219 72.621094 255.636719 72.621094 C 252.324219 72.621094 249.636719 69.9375 249.636719 66.625 C 249.636719 63.3125 252.324219 60.625 255.636719 60.625 C 258.949219 60.625 261.632812 63.3125 261.632812 66.625 " fill-opacity="1" fill-rule="nonzero"/><path fill="#ffffff" d="M 250.117188 76.457031 L 251.855469 77.34375 L 262.246094 56.957031 L 260.507812 56.070312 L 250.117188 76.457031 " fill-opacity="1" fill-rule="nonzero"/><path fill="#6c7c8b" d="M 250.746094 76.253906 L 251.652344 76.71875 L 261.621094 57.160156 L 260.714844 56.695312 Z M 251.855469 77.808594 C 251.785156 77.808594 251.710938 77.789062 251.644531 77.757812 L 249.90625 76.871094 C 249.679688 76.753906 249.589844 76.472656 249.703125 76.246094 L 260.09375 55.859375 C 260.214844 55.628906 260.492188 55.539062 260.722656 55.65625 L 262.457031 56.539062 C 262.570312 56.597656 262.652344 56.695312 262.6875 56.8125 C 262.726562 56.929688 262.71875 57.054688 262.660156 57.167969 L 252.269531 77.554688 C 252.214844 77.664062 252.117188 77.746094 252 77.785156 C 251.953125 77.800781 251.902344 77.808594 251.855469 77.808594 " fill-opacity="1" fill-rule="nonzero"/><path fill="#6c7c8b" d="M 319.277344 147.707031 C 319.277344 159.746094 309.515625 169.507812 297.476562 169.507812 C 285.4375 169.507812 275.675781 159.746094 275.675781 147.707031 C 275.675781 135.667969 285.4375 125.90625 297.476562 125.90625 C 309.515625 125.90625 319.277344 135.667969 319.277344 147.707031 " fill-opacity="1" fill-rule="nonzero"/><path fill="#ffffff" d="M 303.761719 148.230469 C 303.15625 152.265625 301.503906 154.441406 300.113281 157.34375 C 298.648438 160.394531 298.5 162.859375 294.570312 163.09375 C 292.089844 163.238281 289.847656 161.316406 288.875 158.394531 C 287.949219 155.621094 288.277344 151.964844 286.847656 147.652344 C 283.21875 136.703125 291.140625 130.773438 296.039062 132.363281 C 303.820312 134.886719 304.5 143.3125 303.761719 148.230469 " fill-opacity="1" fill-rule="nonzero"/><path fill="#6c7c8b" d="M 294.253906 157.898438 C 294.109375 157.898438 293.972656 157.832031 293.882812 157.714844 C 293.308594 156.953125 291.699219 156.460938 290.292969 156.621094 C 290.035156 156.648438 289.808594 156.464844 289.777344 156.210938 C 289.75 155.957031 289.933594 155.726562 290.1875 155.695312 C 291.679688 155.527344 293.742188 155.980469 294.625 157.152344 C 294.777344 157.359375 294.738281 157.648438 294.53125 157.804688 C 294.449219 157.867188 294.347656 157.898438 294.253906 157.898438 " fill-opacity="1" fill-rule="nonzero"/><path fill="#6c7c8b" d="M 299.625 154.476562 C 299.542969 154.476562 299.457031 154.453125 299.382812 154.40625 C 299.164062 154.273438 299.09375 153.988281 299.230469 153.769531 C 303.265625 147.238281 302.082031 139.351562 298.496094 136.359375 C 296.238281 134.472656 293.171875 134.140625 291.824219 134.621094 C 289.910156 135.304688 289.03125 136.789062 288.628906 137.914062 C 287.898438 139.953125 288.15625 142.40625 289.296875 144.324219 C 290.050781 145.585938 291.261719 147.015625 292.023438 147.191406 C 292.273438 147.25 292.433594 147.5 292.375 147.75 C 292.316406 148 292.066406 148.15625 291.816406 148.097656 C 290.300781 147.75 288.679688 145.101562 288.5 144.800781 C 287.21875 142.652344 286.929688 139.894531 287.75 137.601562 C 288.417969 135.746094 289.753906 134.375 291.511719 133.746094 C 293.296875 133.105469 296.703125 133.648438 299.09375 135.644531 C 303.460938 139.292969 303.894531 147.988281 300.019531 154.257812 C 299.933594 154.398438 299.78125 154.476562 299.625 154.476562 " fill-opacity="1" fill-rule="nonzero"/><path fill="#6c7c8b" d="M 291.375 154.671875 C 291.34375 154.671875 291.3125 154.667969 291.28125 154.660156 C 291.027344 154.609375 290.867188 154.363281 290.917969 154.109375 C 291.285156 152.355469 293.84375 149.714844 296.742188 148.101562 C 297.527344 147.664062 297.847656 146.835938 297.976562 146.21875 C 298.308594 144.632812 297.800781 142.664062 296.683594 141.199219 C 295.5625 139.726562 293.464844 138.199219 291.53125 138.3125 C 290.238281 138.390625 289.140625 139.183594 288.269531 140.671875 C 288.136719 140.890625 287.855469 140.964844 287.632812 140.835938 C 287.410156 140.707031 287.335938 140.421875 287.464844 140.203125 C 288.503906 138.429688 289.855469 137.480469 291.472656 137.382812 C 293.765625 137.246094 296.117188 138.917969 297.425781 140.636719 C 298.695312 142.308594 299.269531 144.570312 298.886719 146.40625 C 298.644531 147.5625 298.0625 148.429688 297.195312 148.910156 C 294.324219 150.511719 292.101562 152.988281 291.828125 154.300781 C 291.78125 154.519531 291.589844 154.671875 291.375 154.671875 " fill-opacity="1" fill-rule="nonzero"/><path fill="#ffffff" d="M 306.085938 144.824219 C 305.894531 144.824219 305.71875 144.707031 305.648438 144.519531 C 305.558594 144.28125 305.679688 144.011719 305.921875 143.921875 L 312.164062 141.582031 C 312.402344 141.492188 312.671875 141.613281 312.761719 141.855469 C 312.851562 142.09375 312.726562 142.363281 312.488281 142.453125 L 306.25 144.792969 C 306.195312 144.8125 306.140625 144.824219 306.085938 144.824219 " fill-opacity="1" fill-rule="nonzero"/><path fill="#ffffff" d="M 313.515625 148.933594 L 306.703125 148.933594 C 306.445312 148.933594 306.238281 148.726562 306.238281 148.472656 C 306.238281 148.214844 306.445312 148.003906 306.703125 148.003906 L 313.515625 148.003906 C 313.773438 148.003906 313.984375 148.214844 313.984375 148.472656 C 313.984375 148.726562 313.773438 148.933594 313.515625 148.933594 " fill-opacity="1" fill-rule="nonzero"/><path fill="#ffffff" d="M 312.910156 154.769531 C 312.855469 154.769531 312.800781 154.757812 312.742188 154.734375 L 306.699219 152.394531 C 306.457031 152.304688 306.339844 152.035156 306.433594 151.796875 C 306.523438 151.558594 306.792969 151.4375 307.035156 151.53125 L 313.082031 153.871094 C 313.320312 153.960938 313.4375 154.230469 313.347656 154.472656 C 313.273438 154.65625 313.097656 154.769531 312.910156 154.769531 " fill-opacity="1" fill-rule="nonzero"/><path fill="#ffffff" d="M 241.996094 105.464844 L 242.0625 105.40625 L 240.863281 103.421875 C 240.558594 102.917969 239.878906 102.800781 239.417969 103.167969 L 234.953125 106.757812 L 214.285156 113.238281 C 213.394531 113.515625 213.191406 114.6875 213.9375 115.253906 L 218.128906 118.429688 C 218.695312 118.863281 218.738281 119.699219 218.21875 120.1875 L 218.046875 120.347656 L 192.917969 140.550781 L 194.269531 143.15625 C 194.285156 143.476562 194.433594 143.785156 194.707031 144 L 208.496094 154.789062 C 208.96875 155.160156 209.644531 155.101562 210.050781 154.65625 L 231.484375 130.941406 C 231.902344 130.480469 232.609375 130.4375 233.082031 130.84375 L 238.339844 135.382812 C 239.054688 135.996094 240.167969 135.53125 240.230469 134.589844 L 242.160156 106.140625 C 242.175781 105.890625 242.113281 105.65625 241.996094 105.464844 " fill-opacity="1" fill-rule="nonzero"/><path fill="#6c7c8b" d="M 193.265625 139.769531 L 216.558594 118.050781 C 217.070312 117.570312 217.027344 116.742188 216.46875 116.320312 L 212.332031 113.195312 C 211.59375 112.640625 211.796875 111.484375 212.675781 111.210938 L 238.730469 103.066406 C 239.492188 102.828125 240.25 103.429688 240.199219 104.222656 L 238.292969 132.222656 C 238.230469 133.152344 237.132812 133.613281 236.425781 133.003906 L 231.234375 128.539062 C 230.769531 128.136719 230.070312 128.179688 229.65625 128.636719 L 208.492188 151.976562 C 208.09375 152.414062 207.425781 152.472656 206.957031 152.109375 L 193.34375 141.492188 C 192.792969 141.0625 192.757812 140.246094 193.265625 139.769531 " fill-opacity="1" fill-rule="nonzero"/><path fill="#000000" d="M 193.265625 139.769531 L 193.269531 139.769531 Z M 239.070312 103.480469 C 239.003906 103.480469 238.9375 103.492188 238.871094 103.511719 L 212.8125 111.652344 C 212.570312 111.730469 212.398438 111.925781 212.355469 112.175781 C 212.308594 112.425781 212.40625 112.667969 212.609375 112.824219 L 216.75 115.949219 C 217.125 116.234375 217.355469 116.667969 217.378906 117.140625 C 217.40625 117.613281 217.21875 118.070312 216.875 118.390625 L 193.585938 140.109375 C 193.441406 140.242188 193.363281 140.433594 193.371094 140.625 C 193.378906 140.824219 193.476562 141.003906 193.628906 141.125 L 207.242188 151.742188 C 207.515625 151.957031 207.914062 151.921875 208.144531 151.664062 L 229.3125 128.324219 C 229.898438 127.679688 230.875 127.617188 231.535156 128.1875 L 236.730469 132.652344 C 236.925781 132.820312 237.183594 132.863281 237.421875 132.761719 C 237.664062 132.660156 237.8125 132.449219 237.832031 132.191406 L 239.734375 104.195312 C 239.75 103.96875 239.65625 103.761719 239.480469 103.625 C 239.359375 103.527344 239.21875 103.480469 239.070312 103.480469 Z M 207.648438 152.8125 C 207.304688 152.8125 206.960938 152.699219 206.671875 152.476562 L 193.058594 141.855469 C 192.6875 141.566406 192.464844 141.136719 192.445312 140.667969 C 192.421875 140.199219 192.609375 139.75 192.949219 139.429688 L 216.242188 117.710938 C 216.386719 117.578125 216.460938 117.386719 216.453125 117.1875 C 216.441406 116.992188 216.34375 116.808594 216.1875 116.691406 L 212.050781 113.566406 C 211.570312 113.203125 211.335938 112.609375 211.441406 112.019531 C 211.542969 111.425781 211.964844 110.945312 212.535156 110.765625 L 238.59375 102.625 C 239.097656 102.464844 239.644531 102.566406 240.058594 102.894531 C 240.472656 103.222656 240.699219 103.730469 240.660156 104.257812 L 238.757812 132.253906 C 238.71875 132.863281 238.34375 133.386719 237.78125 133.617188 C 237.21875 133.855469 236.585938 133.753906 236.125 133.355469 L 230.929688 128.890625 C 230.652344 128.652344 230.246094 128.679688 230 128.949219 L 208.835938 152.289062 C 208.523438 152.632812 208.085938 152.8125 207.648438 152.8125 " fill-opacity="1" fill-rule="nonzero"/><g clip-path="url(#6132eaaa56)"><g clip-path="url(#833782ab36)"><g clip-path="url(#eee72bf86e)"><path fill="#7ec28a" d="M 325.882812 240.679688 C 336.78125 241.484375 347.375 245.972656 355.539062 253.242188 C 363.699219 260.511719 369.378906 270.515625 371.4375 281.25 C 351.203125 275.730469 333.464844 260.234375 325.882812 240.679688 " fill-opacity="1" fill-rule="nonzero"/></g></g></g><g clip-path="url(#58046ac4ff)"><g clip-path="url(#e5ed322877)"><g clip-path="url(#feba5a8086)"><path fill="#7ec28a" d="M 325.734375 222.441406 C 342.550781 221.601562 359.03125 215.078125 371.871094 204.183594 C 384.710938 193.289062 393.828125 178.089844 397.394531 161.632812 C 366.023438 169.386719 338.128906 192.601562 325.734375 222.441406 " fill-opacity="1" fill-rule="nonzero"/></g></g></g><g clip-path="url(#3172454988)"><g clip-path="url(#d7a6e5c50c)"><g clip-path="url(#84229c0a62)"><path fill="#7ec28a" d="M 330.894531 233.226562 C 347.949219 219.554688 369.570312 211.6875 391.425781 211.207031 C 413.277344 210.726562 435.226562 217.632812 452.867188 230.539062 C 415.722656 250.035156 368.640625 251.523438 330.894531 233.226562 " fill-opacity="1" fill-rule="nonzero"/></g></g></g></svg>